<svg width="310" height="442" viewBox="0 0 310 442" fill="none" xmlns="http://www.w3.org/2000/svg">
<path d="M157.117 434.143H197.16L206.136 394.34M157.117 434.143L96.8695 437.599M157.117 434.143L168.846 385.567M157.117 434.143L121.911 369.792M157.117 434.143L206.136 394.34M157.117 434.143L121.911 412M233.064 274.93L200.381 248.596M233.064 274.93L215.112 354.537M233.064 274.93L200.381 334.169M200.381 248.596L150.451 268.798M200.381 248.596L84.6517 342.399M200.381 248.596L191.328 289M200.381 248.596V334.169M180.576 336.991L164.117 342.399M180.576 336.991L183.711 323M180.576 336.991L168.846 385.567M180.576 336.991L200.381 334.169M164.117 342.399L151.89 334.169L127.201 341.576M164.117 342.399L146.952 363.796M89.8155 367.558L102.513 348.983L127.201 341.576M89.8155 367.558L96.8695 375.788M89.8155 367.558L75.7077 372.496M96.8695 375.788L121.911 369.792M96.8695 375.788L121.911 412M146.952 363.796L121.911 369.792M146.952 363.796L168.846 385.567M55 440L75.7077 372.496M55 440L96.8695 437.599M55 440L84.6517 398.5M100.521 289L183.711 323M100.521 289L84.6517 342.399M100.521 289L125.486 278.899M75.7077 372.496L84.6517 342.399M215.112 354.537L206.136 394.34M215.112 354.537L200.381 334.169M183.711 323L191.328 289M150.451 268.798L125.486 278.899M150.451 268.798L191.328 289M84.6517 342.399L127.201 341.576M84.6517 342.399L133.768 302.588M84.6517 342.399V398.5M191.328 289L127.201 341.576M191.328 289L133.768 302.588M127.201 341.576L133.768 302.588M96.8695 437.599L84.6517 398.5M96.8695 437.599L121.911 412M168.846 385.567L206.136 394.34M168.846 385.567L200.381 334.169M168.846 385.567L121.911 369.792M168.846 385.567L121.911 412M121.911 369.792L84.6517 398.5M206.136 394.34L200.381 334.169M125.486 278.899L133.768 302.588" stroke="white" stroke-width="3"/>
</svg>
