<svg width="380" height="437" viewBox="0 0 380 437" fill="none" xmlns="http://www.w3.org/2000/svg">
<mask id="mask0_988_10576" style="mask-type:alpha" maskUnits="userSpaceOnUse" x="71" y="241" width="183" height="196">
<path d="M199.056 331.991L218.86 243.596L117.989 288.976L94.1872 367.496L108.295 362.558L120.992 343.983L170.37 329.169L182.596 337.399L199.056 331.991Z" fill="white"/>
<path d="M175.596 429.143H215.64L251.544 269.93L218.86 243.596L199.056 331.991L175.596 429.143Z" fill="white"/>
<path d="M199.056 331.991L182.596 337.399L165.432 358.796L115.349 370.788L108.295 362.558L94.1872 367.496L73.4795 435L175.596 429.143L199.056 331.991Z" fill="white"/>
<path d="M175.596 429.143H215.64L251.544 269.93L218.86 243.596M175.596 429.143L199.056 331.991M175.596 429.143L73.4795 435L94.1872 367.496M218.86 243.596L199.056 331.991M218.86 243.596L117.989 288.976L94.1872 367.496M199.056 331.991L182.596 337.399M182.596 337.399L170.37 329.169L120.992 343.983L108.295 362.558M182.596 337.399L165.432 358.796L115.349 370.788L108.295 362.558M108.295 362.558L94.1872 367.496" stroke="white" stroke-width="3"/>
</mask>
<g mask="url(#mask0_988_10576)">
<path d="M52.2076 370.679L73.254 362.863C73.254 362.863 73.6928 362.616 73.942 363.057L74.1912 363.498L61.6283 382.234L61.1896 382.482C61.1896 382.482 61.1896 382.482 60.9404 382.041L52.2076 370.679ZM72.1873 364.048L52.8955 370.873L60.6911 381.599L72.1873 364.048Z" fill="white" stroke="white" stroke-width="0.3"/>
<path d="M60.0624 382.534C60.0624 382.534 60.2519 381.845 60.0624 382.534L72.8147 363.109C72.8147 363.109 72.8147 363.109 73.2534 362.861L88.9847 378.416L89.2339 378.857L88.7952 379.105L60.0624 382.534C60.0624 382.534 60.7503 382.727 60.0624 382.534ZM73.3132 363.991L61.3785 381.79L88.1073 378.912L73.3132 363.991Z" fill="white"/>
<path d="M60.0624 382.534C60.0624 382.534 60.2519 381.845 60.0624 382.534L72.8147 363.109C72.8147 363.109 72.8147 363.109 73.2534 362.861L88.9847 378.416L89.2339 378.857L88.7952 379.105L60.0624 382.534ZM60.0624 382.534C60.7503 382.727 60.0624 382.534 60.0624 382.534ZM73.3132 363.991L61.3785 381.79L88.1073 378.912L73.3132 363.991Z" stroke="white" stroke-width="0.3"/>
<path d="M62.5348 395.107L60.5017 382.289C60.5017 382.289 60.5017 382.289 60.9404 382.041L89.6732 378.612L89.9224 379.053C89.9224 379.053 90.1717 379.494 89.733 379.742L62.5348 395.107C62.784 395.548 62.784 395.548 62.5348 395.107ZM61.1896 382.482L63.163 394.17L87.2306 379.41L61.1896 382.482Z" fill="white"/>
<path d="M62.5348 395.107L60.5017 382.289C60.5017 382.289 60.5017 382.289 60.9404 382.041L89.6732 378.612L89.9224 379.053C89.9224 379.053 90.1717 379.494 89.733 379.742L62.5348 395.107ZM62.5348 395.107C62.784 395.548 62.784 395.548 62.5348 395.107ZM61.1896 382.482L63.163 394.17L87.2306 379.41L61.1896 382.482Z" stroke="white" stroke-width="0.3"/>
<path d="M29.3329 408.042C29.7716 407.794 29.7716 407.794 29.3329 408.042L62.7222 394.417C62.7222 394.417 63.1609 394.169 63.4101 394.61L63.6594 395.052L43.1098 429.356L42.6711 429.604C42.6711 429.604 42.6711 429.604 42.4219 429.163L29.3329 408.042ZM61.6554 395.602L30.0208 408.235L42.1727 428.722L61.6554 395.602Z" fill="white" stroke="white" stroke-width="0.3"/>
<path d="M62.5341 395.105C62.5341 395.105 62.2849 394.664 62.5341 395.105C62.7235 394.416 62.7236 394.416 62.7236 394.416L97.6868 402.015L97.936 402.457C97.936 402.457 98.1852 402.898 97.7465 403.146L79.8802 415.566C79.8802 415.566 79.4415 415.814 79.1923 415.373L62.5341 395.105ZM96.3708 402.759L63.4712 395.739L79.3817 414.684L96.3708 402.759Z" fill="white" stroke="white" stroke-width="0.3"/>
<path d="M62.5365 395.107C62.2873 394.666 62.2873 394.666 62.5365 395.107L88.9871 378.419C88.9871 378.419 88.9871 378.419 89.4258 378.171C89.4258 378.171 89.4258 378.171 89.675 378.612L97.9385 402.459C97.9385 402.459 98.1877 402.9 97.7491 403.148L97.3104 403.396L62.5365 395.107ZM89.0469 379.549L64.1018 394.805L97.2506 402.266L89.0469 379.549Z" fill="white" stroke="white" stroke-width="0.3"/>
<path d="M65.5004 434.162C65.5004 434.162 65.2512 433.72 65.5004 434.162L62.5317 395.103C62.5317 395.103 62.5317 395.103 62.9704 394.855C62.9704 394.855 63.4091 394.607 63.6583 395.048L80.7552 415.069L81.0044 415.51L67.3148 434.301C66.1882 434.355 66.1883 434.355 65.5004 434.162ZM63.0301 395.985L65.8793 432.784L78.9407 414.93L63.0301 395.985Z" fill="white" stroke="white" stroke-width="0.3"/>
<path d="M41.9817 429.409L62.282 394.664L62.7207 394.416L62.9699 394.857L66.3773 433.668C66.3773 433.668 66.3773 433.668 65.9386 433.916C65.9386 433.916 65.9386 433.916 65.4999 434.164L41.9817 429.409C41.9817 429.409 42.2309 429.85 41.9817 429.409ZM62.591 396.235L42.859 428.914L65.4402 433.033L62.591 396.235Z" fill="white"/>
<path d="M41.9817 429.409L62.282 394.664L62.7207 394.416L62.9699 394.857L66.3773 433.668C66.3773 433.668 66.3773 433.668 65.9386 433.916C65.9386 433.916 65.9386 433.916 65.4999 434.164L41.9817 429.409ZM41.9817 429.409C42.2309 429.85 41.9817 429.409 41.9817 429.409ZM62.591 396.235L42.859 428.914L65.4402 433.033L62.591 396.235Z" stroke="white" stroke-width="0.3"/>
<path d="M52.7527 453.591L41.9868 429.412L41.7376 428.971L42.1763 428.723L65.6945 433.478C65.6945 433.478 65.6945 433.478 65.9437 433.919C65.9437 433.919 65.9437 433.919 66.1929 434.36L53.4406 453.785C53.4406 453.785 53.4406 453.785 52.7527 453.591ZM42.9239 430.047L52.9422 452.902L65.0663 434.414L42.9239 430.047Z" fill="white" stroke="white" stroke-width="0.3"/>
<path d="M52.7487 453.588C52.9382 452.899 52.9382 452.899 52.7487 453.588L92.5884 438.065C92.5884 438.065 93.0271 437.818 93.2764 438.259L93.5256 438.7L85.6483 460.608L85.2096 460.856L52.7487 453.588ZM91.9603 439.002L54.314 453.286L84.0233 459.78L91.9603 439.002Z" fill="white" stroke="white" stroke-width="0.3"/>
<path d="M52.7497 453.589C52.5005 453.147 52.5005 453.147 52.7497 453.589L65.6914 433.475L66.1301 433.227L92.7789 437.377L93.0281 437.818C93.0281 437.818 93.2773 438.259 92.5894 438.066L52.7497 453.589C52.7497 453.589 53.1883 453.341 52.7497 453.589ZM66.1899 434.357L54.5044 452.597L91.712 438.561L66.1899 434.357Z" fill="white"/>
<path d="M52.7497 453.589C52.5005 453.147 52.5005 453.147 52.7497 453.589L65.6914 433.475L66.1301 433.227L92.7789 437.377L93.0281 437.818C93.0281 437.818 93.2773 438.259 92.5894 438.066L52.7497 453.589ZM52.7497 453.589C53.1883 453.341 52.7497 453.589 52.7497 453.589ZM66.1899 434.357L54.5044 452.597L91.712 438.561L66.1899 434.357Z" stroke="white" stroke-width="0.3"/>
<path d="M65.5027 434.165C65.2535 433.724 65.6922 433.476 65.5027 434.165L79.3816 414.686L79.8203 414.438C79.8203 414.438 79.8203 414.438 80.0695 414.879L93.278 438.26L93.5272 438.701L93.0885 438.949L65.5027 434.165C65.5027 434.165 65.9414 433.917 65.5027 434.165ZM79.4414 415.816L66.3801 433.669L91.9023 437.873L79.4414 415.816Z" fill="white"/>
<path d="M65.5027 434.165C65.2535 433.724 65.6922 433.476 65.5027 434.165L79.3816 414.686L79.8203 414.438C79.8203 414.438 79.8203 414.438 80.0695 414.879L93.278 438.26L93.5272 438.701L93.0885 438.949L65.5027 434.165ZM65.5027 434.165C65.9414 433.917 65.5027 434.165 65.5027 434.165ZM79.4414 415.816L66.3801 433.669L91.9023 437.873L79.4414 415.816Z" stroke="white" stroke-width="0.3"/>
<path d="M92.1505 438.314L78.942 414.933C78.942 414.933 78.6927 414.491 79.1314 414.244L96.9978 401.823L97.4365 401.575L97.6857 402.016L92.7786 437.377C93.2771 438.259 92.8384 438.507 92.1505 438.314C92.3997 438.755 92.8384 438.507 92.1505 438.314ZM80.0686 414.878L92.5294 436.936L97.3068 403.394L80.0686 414.878Z" fill="white"/>
<path d="M92.1505 438.314L78.942 414.933C78.942 414.933 78.6927 414.491 79.1314 414.244L96.9978 401.823L97.4365 401.575L97.6857 402.016L92.7786 437.377C93.2771 438.259 92.8384 438.507 92.1505 438.314ZM92.1505 438.314C92.8384 438.507 92.3997 438.755 92.1505 438.314ZM80.0686 414.878L92.5294 436.936L97.3068 403.394L80.0686 414.878Z" stroke="white" stroke-width="0.3"/>
<path d="M84.2763 460.225C84.2763 460.225 84.027 459.784 84.2763 460.225L92.5922 438.069C92.5922 438.069 92.5922 438.069 93.0309 437.821C93.0309 437.821 93.031 437.821 93.4696 437.573L121.095 451.646L121.344 452.087L120.905 452.335L84.2763 460.225ZM92.8414 438.51L84.9044 459.288L118.842 451.755L92.8414 438.51Z" fill="white" stroke="white" stroke-width="0.3"/>
<path d="M120.214 452.142C120.214 452.142 119.965 451.701 120.214 452.142C119.965 451.701 120.404 451.453 120.214 452.142L156.854 440.173C156.854 440.173 157.292 439.925 157.542 440.366C157.542 440.366 157.791 440.807 157.352 441.055L133.703 463.726L133.264 463.974L120.214 452.142ZM155.538 440.916L121.341 452.088L133.643 462.596L155.538 440.916Z" fill="white"/>
<path d="M120.214 452.142C120.214 452.142 119.965 451.701 120.214 452.142C119.965 451.701 120.404 451.453 120.214 452.142ZM120.214 452.142L156.854 440.173C156.854 440.173 157.292 439.925 157.542 440.366C157.542 440.366 157.791 440.807 157.352 441.055L133.703 463.726L133.264 463.974L120.214 452.142ZM155.538 440.916L121.341 452.088L133.643 462.596L155.538 440.916Z" stroke="white" stroke-width="0.3"/>
<path d="M92.1494 438.314C92.5881 438.067 92.3389 437.625 92.1494 438.314L127.423 421.879C127.423 421.879 127.862 421.631 128.111 422.072L128.36 422.514L121.34 452.085C121.34 452.085 121.34 452.085 120.901 452.333C120.901 452.333 120.901 452.333 120.463 452.581L92.1494 438.314ZM126.795 422.816L93.7147 438.012L120.154 451.009L126.795 422.816Z" fill="white" stroke="white" stroke-width="0.3"/>
<path d="M92.1515 438.316C92.1515 438.316 92.5902 438.068 92.1515 438.316L96.8095 402.514C96.8095 402.514 96.8094 402.514 97.2481 402.266L97.6868 402.019L127.425 421.881L127.674 422.322C127.674 422.322 127.674 422.322 127.236 422.57L92.1515 438.316C92.8394 438.51 92.8394 438.51 92.1515 438.316ZM97.7466 403.149L93.2184 437.132L126.737 421.688L97.7466 403.149Z" fill="white"/>
<path d="M92.1515 438.316C92.1515 438.316 92.5902 438.068 92.1515 438.316L96.8095 402.514C96.8095 402.514 96.8094 402.514 97.2481 402.266L97.6868 402.019L127.425 421.881L127.674 422.322C127.674 422.322 127.674 422.322 127.236 422.57L92.1515 438.316ZM92.1515 438.316C92.8394 438.51 92.8394 438.51 92.1515 438.316ZM97.7466 403.149L93.2184 437.132L126.737 421.688L97.7466 403.149Z" stroke="white" stroke-width="0.3"/>
<path d="M120.216 452.141C120.216 452.141 119.967 451.699 120.216 452.141L126.987 422.128C126.987 422.128 126.987 422.128 127.426 421.88L148.104 411.363C148.104 411.363 148.542 411.115 148.792 411.556L149.041 411.997L121.343 452.086C120.904 452.334 120.465 452.582 120.216 452.141ZM127.924 422.762L121.472 450.267L146.847 413.236L127.924 422.762Z" fill="white" stroke="white" stroke-width="0.3"/>
<path d="M120.214 452.138C120.214 452.138 119.965 451.697 120.214 452.138L147.663 411.608L148.102 411.36L148.351 411.802L157.292 439.921C157.292 439.921 157.541 440.362 157.103 440.61L120.214 452.138C120.214 452.138 120.463 452.579 120.214 452.138ZM148.161 412.49L121.719 450.706L157.043 439.48L148.161 412.49Z" fill="white"/>
<path d="M120.214 452.138C120.214 452.138 119.965 451.697 120.214 452.138L147.663 411.608L148.102 411.36L148.351 411.802L157.292 439.921C157.292 439.921 157.541 440.362 157.103 440.61L120.214 452.138ZM120.214 452.138C120.463 452.579 120.214 452.138 120.214 452.138ZM148.161 412.49L121.719 450.706L157.043 439.48L148.161 412.49Z" stroke="white" stroke-width="0.3"/>
<path d="M156.414 440.417L147.224 411.857C147.224 411.857 147.224 411.857 146.975 411.415L147.413 411.168L176.754 414.96C176.754 414.96 176.754 414.96 177.003 415.402C177.003 415.402 177.252 415.843 176.814 416.091L155.976 440.665C157.102 440.611 157.102 440.611 156.414 440.417C156.414 440.417 157.102 440.611 156.414 440.417ZM148.6 412.243L157.042 439.481L176.814 416.091L148.6 412.243Z" fill="white"/>
<path d="M156.414 440.417L147.224 411.857C147.224 411.857 147.224 411.857 146.975 411.415L147.413 411.168L176.754 414.96C176.754 414.96 176.754 414.96 177.003 415.402C177.003 415.402 177.252 415.843 176.814 416.091L155.976 440.665C157.102 440.611 157.102 440.611 156.414 440.417ZM156.414 440.417C157.102 440.611 156.414 440.417 156.414 440.417ZM148.6 412.243L157.042 439.481L176.814 416.091L148.6 412.243Z" stroke="white" stroke-width="0.3"/>
<path d="M127.236 422.568C127.236 422.568 126.986 422.127 127.236 422.568L134.386 391.178L134.824 390.93C134.824 390.93 135.263 390.682 135.512 391.123L149.04 411.996C149.04 411.996 149.04 411.996 149.289 412.437C149.289 412.437 149.289 412.437 148.851 412.685L127.236 422.568C127.236 422.568 127.485 423.009 127.236 422.568ZM134.884 392.06L127.864 421.631L147.225 411.857L134.884 392.06Z" fill="white"/>
<path d="M127.236 422.568C127.236 422.568 126.986 422.127 127.236 422.568L134.386 391.178L134.824 390.93C134.824 390.93 135.263 390.682 135.512 391.123L149.04 411.996C149.04 411.996 149.04 411.996 149.289 412.437C149.289 412.437 149.289 412.437 148.851 412.685L127.236 422.568ZM127.236 422.568C127.485 423.009 127.236 422.568 127.236 422.568ZM134.884 392.06L127.864 421.631L147.225 411.857L134.884 392.06Z" stroke="white" stroke-width="0.3"/>
<path d="M97.0599 402.951C97.0599 402.951 97.2494 402.262 97.0599 402.951C97.2494 402.262 97.2494 402.262 97.0599 402.951L134.138 390.734C134.138 390.734 134.138 390.734 134.826 390.928L135.075 391.369L127.925 422.759C127.925 422.759 127.925 422.759 127.486 423.007C127.486 423.007 127.486 423.007 127.048 423.255L97.0599 402.951ZM134.198 391.864L98.1865 402.897L127.426 421.877L134.198 391.864Z" fill="white"/>
<path d="M97.0599 402.951C97.0599 402.951 97.2494 402.262 97.0599 402.951C97.2494 402.262 97.2494 402.262 97.0599 402.951ZM97.0599 402.951L134.138 390.734C134.138 390.734 134.138 390.734 134.826 390.928L135.075 391.369L127.925 422.759C127.925 422.759 127.925 422.759 127.486 423.007C127.486 423.007 127.486 423.007 127.048 423.255L97.0599 402.951ZM134.198 391.864L98.1865 402.897L127.426 421.877L134.198 391.864Z" stroke="white" stroke-width="0.3"/>
<path d="M97.0591 402.954L88.7956 379.107C88.7956 379.107 88.5464 378.666 88.9851 378.418L110.421 365.145L110.859 364.897L111.109 365.338L98.3751 402.21C98.1857 402.899 97.747 403.147 97.0591 402.954C97.0591 402.954 97.4978 402.706 97.0591 402.954ZM89.4835 379.3L97.438 401.576L109.603 366.77L89.4835 379.3Z" fill="white"/>
<path d="M97.0591 402.954L88.7956 379.107C88.7956 379.107 88.5464 378.666 88.9851 378.418L110.421 365.145L110.859 364.897L111.109 365.338L98.3751 402.21C98.1857 402.899 97.747 403.147 97.0591 402.954ZM97.0591 402.954C97.4978 402.706 97.0591 402.954 97.0591 402.954ZM89.4835 379.3L97.438 401.576L109.603 366.77L89.4835 379.3Z" stroke="white" stroke-width="0.3"/>
<path d="M97.0565 402.953C97.0565 402.953 97.246 402.264 97.0565 402.953L110.229 365.833C110.229 365.833 110.229 365.833 110.667 365.585C110.667 365.585 110.667 365.585 111.355 365.778L135.51 391.123L135.759 391.564C135.759 391.564 135.759 391.564 135.321 391.812L97.0565 402.953C97.4952 402.705 97.4952 402.705 97.0565 402.953ZM110.727 366.715L98.3725 402.21L134.384 391.177L110.727 366.715Z" fill="white"/>
<path d="M97.0565 402.953C97.0565 402.953 97.246 402.264 97.0565 402.953L110.229 365.833C110.229 365.833 110.229 365.833 110.667 365.585C110.667 365.585 110.667 365.585 111.355 365.778L135.51 391.123L135.759 391.564C135.759 391.564 135.759 391.564 135.321 391.812L97.0565 402.953ZM97.0565 402.953C97.4952 402.705 97.4952 402.705 97.0565 402.953ZM110.727 366.715L98.3725 402.21L134.384 391.177L110.727 366.715Z" stroke="white" stroke-width="0.3"/>
<path d="M73.0629 363.552C72.8137 363.111 72.8137 363.111 73.0629 363.552L93.0731 344.683L93.5117 344.435L93.7609 344.876L89.6715 378.611C89.6715 378.611 89.6715 378.611 89.2328 378.859C89.2328 378.859 88.7941 379.107 88.5449 378.666L73.0629 363.552ZM92.6941 346.061L73.7507 363.745L88.9836 378.418L92.6941 346.061Z" fill="white" stroke="white" stroke-width="0.3"/>
<path d="M88.7959 379.107L92.6362 344.93L93.0749 344.683C93.0749 344.683 93.5136 344.435 93.7628 344.876L111.358 365.779C111.358 365.779 111.358 365.779 111.607 366.22C111.607 366.22 111.607 366.22 111.169 366.468L88.7959 379.107C89.0451 379.548 89.4838 379.3 88.7959 379.107ZM93.5734 345.565L89.8628 377.922L109.982 365.392L93.5734 345.565Z" fill="white"/>
<path d="M88.7959 379.107L92.6362 344.93L93.0749 344.683C93.0749 344.683 93.5136 344.435 93.7628 344.876L111.358 365.779C111.358 365.779 111.358 365.779 111.607 366.22C111.607 366.22 111.607 366.22 111.169 366.468L88.7959 379.107ZM88.7959 379.107C89.4838 379.3 89.0451 379.548 88.7959 379.107ZM93.5734 345.565L89.8628 377.922L109.982 365.392L93.5734 345.565Z" stroke="white" stroke-width="0.3"/>
<path d="M134.386 391.176C134.575 390.487 134.575 390.487 134.575 390.487L170.696 385.794C170.696 385.794 170.696 385.794 170.945 386.235C170.945 386.235 171.194 386.676 170.755 386.924L148.163 412.49C148.163 412.49 148.163 412.49 147.724 412.738C147.724 412.738 147.724 412.738 147.475 412.297L134.386 391.176ZM169.629 386.979L135.074 391.369L147.854 410.919L169.629 386.979Z" fill="white" stroke="white" stroke-width="0.3"/>
<path d="M147.916 412.051C147.667 411.61 147.667 411.61 147.916 412.051L170.698 385.796L171.137 385.549L171.386 385.99L178.134 415.349C178.134 415.349 178.134 415.348 177.944 416.037L177.506 416.285L147.916 412.051ZM170.319 387.174L148.793 411.556L177.007 415.403L170.319 387.174Z" fill="white" stroke="white" stroke-width="0.3"/>
<path d="M177.256 415.844L170.258 386.045C170.258 386.045 170.258 386.045 170.697 385.797L190.607 382.115C190.607 382.115 190.607 382.115 191.295 382.308L191.544 382.749L178.631 416.231C177.943 416.038 177.943 416.038 177.256 415.844C177.256 415.844 177.505 416.286 177.256 415.844ZM171.196 386.679L177.634 414.467L189.979 383.051L171.196 386.679Z" fill="white"/>
<path d="M177.256 415.844L170.258 386.045C170.258 386.045 170.258 386.045 170.697 385.797L190.607 382.115C190.607 382.115 190.607 382.115 191.295 382.308L191.544 382.749L178.631 416.231C177.943 416.038 177.943 416.038 177.256 415.844ZM177.256 415.844C177.505 416.286 177.256 415.844 177.256 415.844ZM171.196 386.679L177.634 414.467L189.979 383.051L171.196 386.679Z" stroke="white" stroke-width="0.3"/>
<path d="M92.8851 345.373C92.6358 344.932 92.6358 344.932 92.8851 345.373L111.35 318.647L111.789 318.399L112.038 318.841L110.919 366.028C110.919 366.028 110.919 366.028 110.48 366.276C110.48 366.276 110.042 366.524 109.792 366.083L92.8851 345.373ZM110.972 320.025L93.7624 344.877L110.171 364.705L110.972 320.025Z" fill="white" stroke="white" stroke-width="0.3"/>
<path d="M110.231 365.834C109.982 365.392 110.421 365.145 110.421 365.145L140.659 360.283C140.659 360.283 140.659 360.283 140.909 360.724L141.158 361.165L135.074 391.371C135.074 391.371 135.074 391.371 134.636 391.619C134.636 391.619 134.197 391.867 133.948 391.426L110.231 365.834ZM140.47 360.972L111.358 365.779L134.327 390.048L140.47 360.972Z" fill="white" stroke="white" stroke-width="0.3"/>
<path d="M134.385 391.176L140.468 360.97L140.907 360.722L164.685 361.838C164.685 361.838 164.685 361.838 164.934 362.28C164.934 362.28 165.183 362.721 164.744 362.969L134.385 391.176C134.634 391.617 135.073 391.369 134.385 391.176ZM141.156 361.163L135.203 389.55L163.558 361.893L141.156 361.163Z" fill="white"/>
<path d="M134.385 391.176L140.468 360.97L140.907 360.722L164.685 361.838C164.685 361.838 164.685 361.838 164.934 362.28C164.934 362.28 165.183 362.721 164.744 362.969L134.385 391.176ZM134.385 391.176C135.073 391.369 134.634 391.617 134.385 391.176ZM141.156 361.163L135.203 389.55L163.558 361.893L141.156 361.163Z" stroke="white" stroke-width="0.3"/>
<path d="M134.384 391.18C134.384 391.18 134.135 390.739 134.384 391.18L164.434 361.401L164.873 361.154C164.873 361.154 164.873 361.154 165.122 361.595L171.382 385.992C171.382 385.992 171.382 385.992 170.943 386.24L134.384 391.18C134.384 391.18 134.633 391.621 134.384 391.18ZM164.494 362.532L135.7 390.437L170.255 386.046L164.494 362.532Z" fill="white"/>
<path d="M134.384 391.18C134.384 391.18 134.135 390.739 134.384 391.18L164.434 361.401L164.873 361.154C164.873 361.154 164.873 361.154 165.122 361.595L171.382 385.992C171.382 385.992 171.382 385.992 170.943 386.24L134.384 391.18ZM134.384 391.18C134.633 391.621 134.384 391.18 134.384 391.18ZM164.494 362.532L135.7 390.437L170.255 386.046L164.494 362.532Z" stroke="white" stroke-width="0.3"/>
<path d="M110.229 365.832L133.719 331.612L134.158 331.364L134.407 331.805L141.345 360.475C141.345 360.475 141.345 360.475 140.906 360.723L110.229 365.832C110.229 365.832 110.478 366.273 110.229 365.832ZM133.779 332.742L111.545 365.089L140.657 360.282L133.779 332.742Z" fill="white"/>
<path d="M110.229 365.832L133.719 331.612L134.158 331.364L134.407 331.805L141.345 360.475C141.345 360.475 141.345 360.475 140.906 360.723L110.229 365.832ZM110.229 365.832C110.478 366.273 110.229 365.832 110.229 365.832ZM133.779 332.742L111.545 365.089L140.657 360.282L133.779 332.742Z" stroke="white" stroke-width="0.3"/>
<path d="M110.229 365.832L111.099 318.204C111.099 318.204 111.099 318.204 111.537 317.956C111.976 317.708 111.976 317.708 111.976 317.708L134.597 331.117C134.597 331.117 134.597 331.117 134.846 331.558L111.106 365.337C110.917 366.026 110.478 366.274 110.229 365.832C110.229 365.832 110.478 366.274 110.229 365.832ZM111.597 319.086L110.608 364.455L133.281 331.86L111.597 319.086Z" fill="white"/>
<path d="M110.229 365.832L111.099 318.204C111.099 318.204 111.099 318.204 111.537 317.956C111.976 317.708 111.976 317.708 111.976 317.708L134.597 331.117C134.597 331.117 134.597 331.117 134.846 331.558L111.106 365.337C110.917 366.026 110.478 366.274 110.229 365.832ZM110.229 365.832C110.478 366.274 110.229 365.832 110.229 365.832ZM111.597 319.086L110.608 364.455L133.281 331.86L111.597 319.086Z" stroke="white" stroke-width="0.3"/>
<path d="M111.35 318.646C111.35 318.646 111.101 318.205 111.35 318.646L128.201 287.013L128.64 286.765L128.889 287.207L134.848 331.559C134.848 331.559 134.848 331.559 134.41 331.807L133.971 332.055L111.35 318.646ZM128.071 288.832L112.038 318.84L133.722 331.614L128.071 288.832Z" fill="white" stroke="white" stroke-width="0.3"/>
<path d="M140.469 360.97L133.282 331.859C133.282 331.859 133.282 331.859 133.721 331.612L164.956 328.515C164.956 328.515 164.956 328.515 165.205 328.956L165.454 329.397L140.967 361.853C141.156 361.164 141.156 361.164 140.469 360.97C140.469 360.97 140.718 361.412 140.469 360.97ZM134.658 332.246L141.097 360.034L164.328 329.452L134.658 332.246Z" fill="white"/>
<path d="M140.469 360.97L133.282 331.859C133.282 331.859 133.282 331.859 133.721 331.612L164.956 328.515C164.956 328.515 164.956 328.515 165.205 328.956L165.454 329.397L140.967 361.853C141.156 361.164 141.156 361.164 140.469 360.97ZM140.469 360.97C140.718 361.412 140.469 360.97 140.469 360.97ZM134.658 332.246L141.097 360.034L164.328 329.452L134.658 332.246Z" stroke="white" stroke-width="0.3"/>
<path d="M140.469 360.972L164.957 328.517L165.396 328.269L165.645 328.71L165.124 361.593C165.124 361.593 165.125 361.593 164.686 361.841L140.469 360.972C140.469 360.972 140.719 361.413 140.469 360.972ZM165.017 329.647L141.786 360.229L164.437 361.399L165.017 329.647Z" fill="white"/>
<path d="M140.469 360.972L164.957 328.517L165.396 328.269L165.645 328.71L165.124 361.593C165.124 361.593 165.125 361.593 164.686 361.841L140.469 360.972ZM140.469 360.972C140.719 361.413 140.469 360.972 140.469 360.972ZM165.017 329.647L141.786 360.229L164.437 361.399L165.017 329.647Z" stroke="white" stroke-width="0.3"/>
<path d="M170.507 386.486C170.507 386.486 170.258 386.045 170.507 386.486L190.828 343.581L191.267 343.333L191.516 343.775L191.294 382.308L190.856 382.556L170.507 386.486ZM190.698 345.4L171.823 385.742L190.606 382.115L190.698 345.4Z" fill="white" stroke="white" stroke-width="0.3"/>
<path d="M170.506 386.484L164.247 362.087C164.247 362.087 163.998 361.646 164.436 361.398L190.578 343.138C190.578 343.138 191.017 342.89 191.266 343.332L191.515 343.773L171.633 386.429C171.194 386.677 170.756 386.925 170.506 386.484ZM165.373 362.032L170.885 385.106L189.76 344.764L165.373 362.032Z" fill="white" stroke="white" stroke-width="0.3"/>
<path d="M164.247 362.087L164.956 328.515C164.956 328.515 164.956 328.515 165.395 328.267L165.834 328.02L191.704 343.084L191.953 343.525C191.953 343.525 191.953 343.525 191.515 343.773L164.247 362.087C164.934 362.28 164.934 362.28 164.247 362.087ZM165.455 329.398L164.875 361.15L189.949 344.075L165.455 329.398Z" fill="white"/>
<path d="M164.247 362.087L164.956 328.515C164.956 328.515 164.956 328.515 165.395 328.267L165.834 328.02L191.704 343.084L191.953 343.525C191.953 343.525 191.953 343.525 191.515 343.773L164.247 362.087ZM164.247 362.087C164.934 362.28 164.934 362.28 164.247 362.087ZM165.455 329.398L164.875 361.15L189.949 344.075L165.455 329.398Z" stroke="white" stroke-width="0.3"/>
<path d="M133.533 332.304C133.284 331.863 133.722 331.615 133.533 332.304L156.265 300.84L156.704 300.592C156.704 300.592 156.704 300.592 156.953 301.033L165.645 328.712C165.645 328.712 165.645 328.712 165.895 329.153C165.895 329.153 165.895 329.153 165.456 329.401L133.533 332.304C133.533 332.304 133.971 332.057 133.533 332.304ZM156.764 301.722L134.849 331.561L164.957 328.519L156.764 301.722Z" fill="white"/>
<path d="M133.533 332.304C133.284 331.863 133.722 331.615 133.533 332.304L156.265 300.84L156.704 300.592C156.704 300.592 156.704 300.592 156.953 301.033L165.645 328.712C165.645 328.712 165.645 328.712 165.895 329.153C165.895 329.153 165.895 329.153 165.456 329.401L133.533 332.304ZM133.533 332.304C133.971 332.057 133.533 332.304 133.533 332.304ZM156.764 301.722L134.849 331.561L164.957 328.519L156.764 301.722Z" stroke="white" stroke-width="0.3"/>
<path d="M133.531 332.302L128.011 287.701C128.011 287.701 128.011 287.701 128.449 287.453L128.888 287.205L157.142 300.342C157.142 300.342 157.142 300.342 157.391 300.783C157.391 300.783 157.391 300.783 157.64 301.224L134.907 332.688C134.219 332.495 134.219 332.495 133.531 332.302ZM128.699 287.894L134.349 330.676L156.264 300.837L128.699 287.894Z" fill="white" stroke="white" stroke-width="0.3"/>
<path d="M165.207 328.956C164.957 328.515 164.957 328.515 165.207 328.956C164.957 328.515 164.957 328.515 165.207 328.956L198.068 301.081L198.507 300.833L198.756 301.274L191.516 343.773C191.516 343.773 191.516 343.773 191.077 344.02C191.077 344.02 191.077 344.02 190.638 344.268L165.207 328.956ZM197.44 302.018L166.084 328.46L191.017 342.89L197.44 302.018Z" fill="white"/>
<path d="M165.207 328.956C164.957 328.515 164.957 328.515 165.207 328.956C164.957 328.515 164.957 328.515 165.207 328.956ZM165.207 328.956L198.068 301.081L198.507 300.833L198.756 301.274L191.516 343.773C191.516 343.773 191.516 343.773 191.077 344.02C191.077 344.02 191.077 344.02 190.638 344.268L165.207 328.956ZM197.44 302.018L166.084 328.46L191.017 342.89L197.44 302.018Z" stroke="white" stroke-width="0.3"/>
<path d="M165.206 328.957C165.206 328.957 164.957 328.515 165.206 328.957L156.265 300.837C156.265 300.837 156.265 300.837 156.016 300.396C156.016 300.396 156.016 300.396 156.454 300.148L197.818 300.64L198.068 301.081C198.068 301.081 198.317 301.522 197.878 301.77L165.206 328.957ZM156.953 301.03L165.146 327.826L196.502 301.384L156.953 301.03Z" fill="white" stroke="white" stroke-width="0.3"/>
<path d="M128.014 287.702C127.765 287.26 127.765 287.26 128.014 287.702L141.535 261.441L141.973 261.194L161.863 265.67L162.112 266.111C162.112 266.111 162.361 266.553 161.922 266.8L128.014 287.702ZM141.784 261.883L129.081 286.517L160.547 266.414L141.784 261.883Z" fill="white" stroke="white" stroke-width="0.3"/>
<path d="M128.01 287.7C127.761 287.259 127.761 287.259 128.01 287.7C127.761 287.259 127.761 287.259 128.01 287.7L161.858 265.669L162.297 265.421L162.546 265.862L157.39 300.782C157.39 300.782 157.39 300.782 156.951 301.03C156.951 301.03 156.951 301.03 156.512 301.277L128.01 287.7ZM161.23 266.606L128.887 287.204L156.453 300.147L161.23 266.606Z" fill="white"/>
<path d="M128.01 287.7C127.761 287.259 127.761 287.259 128.01 287.7C127.761 287.259 127.761 287.259 128.01 287.7ZM128.01 287.7L161.858 265.669L162.297 265.421L162.546 265.862L157.39 300.782C157.39 300.782 157.39 300.782 156.951 301.03C156.951 301.03 156.951 301.03 156.512 301.277L128.01 287.7ZM161.23 266.606L128.887 287.204L156.453 300.147L161.23 266.606Z" stroke="white" stroke-width="0.3"/>
<path d="M156.264 300.836L161.42 265.916C161.42 265.916 161.42 265.916 161.859 265.668C161.859 265.668 161.859 265.668 162.298 265.42L185.188 271.111L185.437 271.552C185.437 271.552 185.437 271.552 185.248 272.241L157.64 301.222C156.952 301.029 156.513 301.277 156.264 300.836C156.264 300.836 156.513 301.277 156.264 300.836ZM162.357 266.55L157.331 299.651L183.872 271.855L162.357 266.55Z" fill="white"/>
<path d="M156.264 300.836L161.42 265.916C161.42 265.916 161.42 265.916 161.859 265.668C161.859 265.668 161.859 265.668 162.298 265.42L185.188 271.111L185.437 271.552C185.437 271.552 185.437 271.552 185.248 272.241L157.64 301.222C156.952 301.029 156.513 301.277 156.264 300.836ZM156.264 300.836C156.513 301.277 156.264 300.836 156.264 300.836ZM162.357 266.55L157.331 299.651L183.872 271.855L162.357 266.55Z" stroke="white" stroke-width="0.3"/>
<path d="M156.263 300.837L184.06 271.167L184.499 270.919C184.499 270.919 184.499 270.919 184.748 271.36L198.066 301.081L198.315 301.522L197.877 301.77L156.263 300.837C156.263 300.837 156.512 301.278 156.263 300.837ZM184.12 272.297L157.14 300.341L196.69 300.694L184.12 272.297Z" fill="white"/>
<path d="M156.263 300.837L184.06 271.167L184.499 270.919C184.499 270.919 184.499 270.919 184.748 271.36L198.066 301.081L198.315 301.522L197.877 301.77L156.263 300.837ZM156.263 300.837C156.512 301.278 156.263 300.837 156.263 300.837ZM184.12 272.297L157.14 300.341L196.69 300.694L184.12 272.297Z" stroke="white" stroke-width="0.3"/>
<path d="M141.531 261.439L156.129 229.915L156.567 229.667L156.817 230.108L162.547 265.861C162.547 265.861 162.547 265.861 162.108 266.109L161.67 266.357L141.531 261.439ZM155.999 231.734L141.97 261.191L161.171 265.475L155.999 231.734Z" fill="white" stroke="white" stroke-width="0.3"/>
<path d="M161.421 265.917L156.129 229.916C156.129 229.916 156.129 229.916 156.568 229.668L179.04 227.449C179.04 227.449 179.04 227.449 179.289 227.89L179.538 228.331L162.548 265.862C162.109 266.11 161.67 266.358 161.421 265.917C161.67 266.358 161.67 266.358 161.421 265.917ZM157.066 230.551L162.488 264.732L178.661 228.827L157.066 230.551Z" fill="white"/>
<path d="M161.421 265.917L156.129 229.916C156.129 229.916 156.129 229.916 156.568 229.668L179.04 227.449C179.04 227.449 179.04 227.449 179.289 227.89L179.538 228.331L162.548 265.862C162.109 266.11 161.67 266.358 161.421 265.917ZM161.421 265.917C161.67 266.358 161.67 266.358 161.421 265.917ZM157.066 230.551L162.488 264.732L178.661 228.827L157.066 230.551Z" stroke="white" stroke-width="0.3"/>
<path d="M161.417 265.916L178.597 227.696L179.036 227.448C179.036 227.448 179.036 227.448 179.285 227.889L192.055 251.518C192.055 251.518 192.055 251.518 192.304 251.959C192.304 251.959 192.304 251.959 191.866 252.207L161.417 265.916C161.667 266.357 161.667 266.357 161.417 265.916C161.417 265.916 161.667 266.357 161.417 265.916ZM178.906 229.267L162.734 265.173L190.929 251.573L178.906 229.267Z" fill="white"/>
<path d="M161.417 265.916L178.597 227.696L179.036 227.448C179.036 227.448 179.036 227.448 179.285 227.889L192.055 251.518C192.055 251.518 192.055 251.518 192.304 251.959C192.304 251.959 192.304 251.959 191.866 252.207L161.417 265.916ZM161.417 265.916C161.667 266.357 161.667 266.357 161.417 265.916ZM161.417 265.916C161.667 266.357 161.417 265.916 161.417 265.916ZM178.906 229.267L162.734 265.173L190.929 251.573L178.906 229.267Z" stroke="white" stroke-width="0.3"/>
<path d="M161.422 265.916L191.372 251.325C191.372 251.325 191.81 251.077 192.06 251.518L192.309 251.959L185.438 271.553L185 271.801L161.422 265.916C161.671 266.358 161.671 266.358 161.422 265.916ZM190.993 252.703L163.236 266.055L184.751 271.36L190.993 252.703Z" fill="white"/>
<path d="M161.422 265.916L191.372 251.325C191.372 251.325 191.81 251.077 192.06 251.518L192.309 251.959L185.438 271.553L185 271.801L161.422 265.916ZM161.422 265.916C161.671 266.358 161.671 266.358 161.422 265.916ZM190.993 252.703L163.236 266.055L184.751 271.36L190.993 252.703Z" stroke="white" stroke-width="0.3"/>
<path d="M197.631 301.328L184.313 271.608C184.313 271.608 184.313 271.608 184.064 271.166C184.064 271.166 184.064 271.166 184.502 270.919L206.725 268.258C206.725 268.258 206.725 268.258 206.974 268.699L207.223 269.14L198.319 301.522C198.319 301.522 198.319 301.522 197.631 301.328C197.631 301.328 197.88 301.77 197.631 301.328ZM185.001 271.801L198.01 299.95L206.097 269.194L185.001 271.801Z" fill="white"/>
<path d="M197.631 301.328L184.313 271.608C184.313 271.608 184.313 271.608 184.064 271.166C184.064 271.166 184.064 271.166 184.502 270.919L206.725 268.258C206.725 268.258 206.725 268.258 206.974 268.699L207.223 269.14L198.319 301.522C198.319 301.522 198.319 301.522 197.631 301.328ZM197.631 301.328C197.88 301.77 197.631 301.328 197.631 301.328ZM185.001 271.801L198.01 299.95L206.097 269.194L185.001 271.801Z" stroke="white" stroke-width="0.3"/>
<path d="M184.311 271.609L190.932 251.574C190.932 251.574 190.932 251.574 191.371 251.326C191.371 251.326 191.371 251.326 192.059 251.519L207.411 268.452L207.66 268.893L207.222 269.141L184.311 271.609C184.56 272.05 184.56 272.05 184.311 271.609ZM191.431 252.456L185.188 271.113L205.846 268.754L191.431 252.456Z" fill="white"/>
<path d="M184.311 271.609L190.932 251.574C190.932 251.574 190.932 251.574 191.371 251.326C191.371 251.326 191.371 251.326 192.059 251.519L207.411 268.452L207.66 268.893L207.222 269.141L184.311 271.609ZM184.311 271.609C184.56 272.05 184.56 272.05 184.311 271.609ZM191.431 252.456L185.188 271.113L205.846 268.754L191.431 252.456Z" stroke="white" stroke-width="0.3"/>
<path d="M191.181 252.015C190.932 251.574 190.932 251.574 191.181 252.015L214.989 240.893C214.989 240.893 215.428 240.646 215.677 241.087L215.926 241.528L207.909 269.335L207.47 269.582C207.47 269.582 207.47 269.582 206.783 269.389L191.181 252.015ZM214.361 241.83L192.308 251.961L206.723 268.259L214.361 241.83Z" fill="white" stroke="white" stroke-width="0.3"/>
<path d="M191.179 252.015C191.179 252.015 190.93 251.573 191.179 252.015L206.026 220.932L206.465 220.684C206.465 220.684 206.465 220.684 206.714 221.125L215.237 241.334C215.237 241.334 215.486 241.775 215.048 242.023L191.179 252.015C191.179 252.015 191.429 252.456 191.179 252.015ZM206.525 221.814L192.246 250.83L214.3 240.699L206.525 221.814Z" fill="white"/>
<path d="M191.179 252.015C191.179 252.015 190.93 251.573 191.179 252.015L206.026 220.932L206.465 220.684C206.465 220.684 206.465 220.684 206.714 221.125L215.237 241.334C215.237 241.334 215.486 241.775 215.048 242.023L191.179 252.015ZM191.179 252.015C191.429 252.456 191.179 252.015 191.179 252.015ZM206.525 221.814L192.246 250.83L214.3 240.699L206.525 221.814Z" stroke="white" stroke-width="0.3"/>
<path d="M191.181 252.014L178.411 228.385C178.411 228.385 178.411 228.385 178.162 227.943C178.162 227.943 178.162 227.943 178.601 227.696L206.467 220.683C206.467 220.683 206.905 220.435 207.154 220.876L207.404 221.317L192.308 251.959C191.869 252.207 191.43 252.455 191.181 252.014ZM179.538 228.33L191.56 250.636L205.838 221.62L179.538 228.33Z" fill="white" stroke="white" stroke-width="0.3"/>
<path d="M214.554 241.142L206.031 220.933L205.781 220.492L206.22 220.244L219.859 221.85C219.859 221.85 219.859 221.85 220.108 222.291C220.108 222.291 220.108 222.291 220.357 222.733L215.242 241.335C215.242 241.335 215.242 241.335 214.554 241.142C214.803 241.583 214.803 241.583 214.554 241.142ZM206.968 221.567L214.494 240.011L219.23 222.787L206.968 221.567Z" fill="white"/>
<path d="M214.554 241.142L206.031 220.933L205.781 220.492L206.22 220.244L219.859 221.85C219.859 221.85 219.859 221.85 220.108 222.291C220.108 222.291 220.108 222.291 220.357 222.733L215.242 241.335C215.242 241.335 215.242 241.335 214.554 241.142ZM214.554 241.142C214.803 241.583 214.803 241.583 214.554 241.142ZM206.968 221.567L214.494 240.011L219.23 222.787L206.968 221.567Z" stroke="white" stroke-width="0.3"/>
<path d="M161.652 449.686L156.418 440.421C156.418 440.421 156.418 440.421 156.169 439.98C156.169 439.98 156.169 439.98 156.608 439.732L181.722 431.946C181.722 431.946 182.16 431.698 182.41 432.14C182.41 432.14 182.659 432.581 182.22 432.829L161.652 449.686C162.339 449.879 162.339 449.879 161.652 449.686C161.901 450.127 162.339 449.879 161.652 449.686ZM157.545 440.367L162.28 448.749L179.967 432.938L157.545 440.367Z" fill="white"/>
<path d="M161.652 449.686L156.418 440.421C156.418 440.421 156.418 440.421 156.169 439.98C156.169 439.98 156.169 439.98 156.608 439.732L181.722 431.946C181.722 431.946 182.16 431.698 182.41 432.14C182.41 432.14 182.659 432.581 182.22 432.829L161.652 449.686ZM161.652 449.686C162.339 449.879 162.339 449.879 161.652 449.686ZM161.652 449.686C162.339 449.879 161.901 450.127 161.652 449.686ZM157.545 440.367L162.28 448.749L179.967 432.938L157.545 440.367Z" stroke="white" stroke-width="0.3"/>
<path d="M161.65 449.682C161.65 449.682 162.089 449.434 161.65 449.682L181.471 431.502L181.91 431.254L190.035 435.393L190.284 435.834C190.284 435.834 190.284 435.834 189.846 436.082L161.65 449.682C161.9 450.123 162.338 449.875 161.65 449.682C161.65 449.682 161.9 450.123 161.65 449.682ZM182.219 432.825L164.97 448.389L189.656 436.771L182.219 432.825Z" fill="white"/>
<path d="M161.65 449.682C161.65 449.682 162.089 449.434 161.65 449.682L181.471 431.502L181.91 431.254L190.035 435.393L190.284 435.834C190.284 435.834 190.284 435.834 189.846 436.082L161.65 449.682ZM161.65 449.682C162.338 449.875 161.9 450.123 161.65 449.682ZM161.65 449.682C161.9 450.123 161.65 449.682 161.65 449.682ZM182.219 432.825L164.97 448.389L189.656 436.771L182.219 432.825Z" stroke="white" stroke-width="0.3"/>
<path d="M156.417 440.418C156.417 440.418 156.606 439.729 156.417 440.418L177.006 415.402L177.444 415.155L177.694 415.596L181.72 431.943L181.531 432.632L156.417 440.418C156.666 440.859 157.105 440.611 156.417 440.418ZM177.504 416.285L158.172 439.427L181.72 431.943L177.504 416.285Z" fill="white"/>
<path d="M156.417 440.418C156.417 440.418 156.606 439.729 156.417 440.418L177.006 415.402L177.444 415.155L177.694 415.596L181.72 431.943L181.531 432.632L156.417 440.418ZM156.417 440.418C157.105 440.611 156.666 440.859 156.417 440.418ZM177.504 416.285L158.172 439.427L181.72 431.943L177.504 416.285Z" stroke="white" stroke-width="0.3"/>
<path d="M181.53 432.632C181.53 432.632 181.281 432.19 181.53 432.632L177.254 415.843C177.254 415.843 177.254 415.843 177.693 415.595L205.18 409.96L205.868 410.154C205.868 410.154 206.117 410.595 205.678 410.843C203.046 412.33 183.285 431.64 181.53 432.632C181.969 432.384 181.969 432.384 181.53 432.632ZM178.381 415.789L182.597 431.447C184.98 429.519 196.147 418.555 204.302 410.456L178.381 415.789Z" fill="white"/>
<path d="M181.53 432.632C181.53 432.632 181.281 432.19 181.53 432.632L177.254 415.843C177.254 415.843 177.254 415.843 177.693 415.595L205.18 409.96L205.868 410.154C205.868 410.154 206.117 410.595 205.678 410.843C203.046 412.33 183.285 431.64 181.53 432.632ZM181.53 432.632C181.969 432.384 181.969 432.384 181.53 432.632ZM178.381 415.789L182.597 431.447C184.98 429.519 196.147 418.555 204.302 410.456L178.381 415.789Z" stroke="white" stroke-width="0.3"/>
<path d="M177.254 415.843L190.167 382.361L190.605 382.113C190.605 382.113 190.605 382.113 190.855 382.554L205.18 409.96C205.18 409.96 205.18 409.96 205.429 410.401C205.429 410.401 205.429 410.401 204.99 410.649L177.254 415.843C177.503 416.284 177.942 416.036 177.254 415.843ZM190.665 383.243L178.57 415.099L204.93 409.519L190.665 383.243Z" fill="white"/>
<path d="M177.254 415.843L190.167 382.361L190.605 382.113C190.605 382.113 190.605 382.113 190.855 382.554L205.18 409.96C205.18 409.96 205.18 409.96 205.429 410.401C205.429 410.401 205.429 410.401 204.99 410.649L177.254 415.843ZM177.254 415.843C177.942 416.036 177.503 416.284 177.254 415.843ZM190.665 383.243L178.57 415.099L204.93 409.519L190.665 383.243Z" stroke="white" stroke-width="0.3"/>
<path d="M181.529 432.634C181.529 432.634 181.28 432.193 181.529 432.634C181.719 431.945 181.719 431.945 181.529 432.634L204.491 409.77L204.93 409.522L205.179 409.963L190.093 436.525L189.655 436.773L181.529 432.634ZM203.484 412.084L182.407 432.138L189.844 436.084L203.484 412.084Z" fill="white"/>
<path d="M181.529 432.634C181.529 432.634 181.28 432.193 181.529 432.634C181.719 431.945 181.719 431.945 181.529 432.634ZM181.529 432.634L204.491 409.77L204.93 409.522L205.179 409.963L190.093 436.525L189.655 436.773L181.529 432.634ZM203.484 412.084L182.407 432.138L189.844 436.084L203.484 412.084Z" stroke="white" stroke-width="0.3"/>
<path d="M190.094 436.526C190.094 436.526 189.845 436.085 190.094 436.526L204.931 409.522C204.931 409.522 204.931 409.522 205.37 409.275L220.553 418.738L220.802 419.179C220.802 419.179 220.802 419.179 220.363 419.426L190.094 436.526C190.094 436.526 190.344 436.967 190.094 436.526ZM205.429 410.405L191.6 435.094L219.865 418.544L205.429 410.405Z" fill="white"/>
<path d="M190.094 436.526C190.094 436.526 189.845 436.085 190.094 436.526L204.931 409.522C204.931 409.522 204.931 409.522 205.37 409.275L220.553 418.738L220.802 419.179C220.802 419.179 220.802 419.179 220.363 419.426L190.094 436.526ZM190.094 436.526C190.344 436.967 190.094 436.526 190.094 436.526ZM205.429 410.405L191.6 435.094L219.865 418.544L205.429 410.405Z" stroke="white" stroke-width="0.3"/>
<path d="M204.742 410.211C204.742 410.211 204.492 409.77 204.742 410.211C204.492 409.77 204.931 409.522 204.931 409.522L234.78 410.118L235.029 410.559C235.029 410.559 235.279 411 234.84 411.248L220.174 420.115L219.735 420.363L204.742 410.211ZM233.464 410.861L206.556 410.35L220.553 418.737L233.464 410.861Z" fill="white" stroke="white" stroke-width="0.3"/>
<path d="M204.741 410.209L190.416 382.803L190.166 382.362L190.605 382.114L217.623 388.965C217.623 388.965 217.623 388.965 217.872 389.406C217.872 389.406 217.872 389.406 218.121 389.847L206.116 410.595C205.428 410.402 205.428 410.402 204.741 410.209ZM191.542 382.748L205.12 408.831L216.745 389.46L191.542 382.748Z" fill="white" stroke="white" stroke-width="0.3"/>
<path d="M204.741 410.207C204.492 409.765 204.492 409.765 204.741 410.207L217.184 389.21C217.184 389.21 217.184 389.21 217.623 388.963C217.623 388.963 217.623 388.963 217.872 389.404L235.717 410.748L235.966 411.189L235.527 411.437L204.741 410.207ZM217.433 389.652L205.808 409.022L233.842 409.479L217.433 389.652Z" fill="white" stroke="white" stroke-width="0.3"/>
<path d="M190.417 382.804C190.168 382.363 190.168 382.363 190.417 382.804L190.389 343.83C190.389 343.83 190.389 343.83 190.828 343.582L191.267 343.334L218.962 354.458C218.962 354.458 218.962 354.458 219.211 354.899C219.211 354.899 219.211 354.899 219.022 355.588L190.417 382.804C190.417 382.804 190.856 382.557 190.417 382.804ZM191.327 344.464L191.045 381.868L218.085 354.954L191.327 344.464Z" fill="white"/>
<path d="M190.417 382.804C190.168 382.363 190.168 382.363 190.417 382.804L190.389 343.83C190.389 343.83 190.389 343.83 190.828 343.582L191.267 343.334L218.962 354.458C218.962 354.458 218.962 354.458 219.211 354.899C219.211 354.899 219.211 354.899 219.022 355.588L190.417 382.804ZM190.417 382.804C190.856 382.557 190.417 382.804 190.417 382.804ZM191.327 344.464L191.045 381.868L218.085 354.954L191.327 344.464Z" stroke="white" stroke-width="0.3"/>
<path d="M190.416 382.802C190.167 382.361 190.167 382.361 190.416 382.802C190.167 382.361 190.167 382.361 190.416 382.802L218.522 354.704L218.961 354.456L219.21 354.897L217.872 389.405C217.872 389.405 217.872 389.405 217.433 389.653C217.433 389.653 217.433 389.653 216.995 389.901L190.416 382.802ZM218.333 355.393L191.732 382.059L217.374 388.523L218.333 355.393Z" fill="white"/>
<path d="M190.416 382.802C190.167 382.361 190.167 382.361 190.416 382.802C190.167 382.361 190.167 382.361 190.416 382.802ZM190.416 382.802L218.522 354.704L218.961 354.456L219.21 354.897L217.872 389.405C217.872 389.405 217.872 389.405 217.433 389.653C217.433 389.653 217.433 389.653 216.995 389.901L190.416 382.802ZM218.333 355.393L191.732 382.059L217.374 388.523L218.333 355.393Z" stroke="white" stroke-width="0.3"/>
<path d="M190.388 343.827C190.388 343.827 190.827 343.579 190.388 343.827L216.301 316.967L216.739 316.719L216.988 317.161L218.96 354.455C218.96 354.455 218.96 354.455 218.522 354.703L218.083 354.951L190.388 343.827C190.388 343.827 190.637 344.268 190.388 343.827ZM216.36 318.097L191.265 343.331L218.023 353.82L216.36 318.097Z" fill="white"/>
<path d="M190.388 343.827C190.388 343.827 190.827 343.579 190.388 343.827L216.301 316.967L216.739 316.719L216.988 317.161L218.96 354.455C218.96 354.455 218.96 354.455 218.522 354.703L218.083 354.951L190.388 343.827ZM190.388 343.827C190.637 344.268 190.388 343.827 190.388 343.827ZM216.36 318.097L191.265 343.331L218.023 353.82L216.36 318.097Z" stroke="white" stroke-width="0.3"/>
<path d="M190.39 343.829L197.381 300.889C197.381 300.889 197.381 300.889 197.82 300.641L198.258 300.393L217.18 316.474C217.18 316.474 217.18 316.474 217.429 316.915L190.39 343.829C191.077 344.022 191.077 344.022 190.39 343.829C190.39 343.829 190.639 344.27 190.39 343.829ZM198.129 302.212L191.456 342.644L216.552 317.41L198.129 302.212Z" fill="white"/>
<path d="M190.39 343.829L197.381 300.889C197.381 300.889 197.381 300.889 197.82 300.641L198.258 300.393L217.18 316.474C217.18 316.474 217.18 316.474 217.429 316.915L190.39 343.829ZM190.39 343.829C191.077 344.022 191.077 344.022 190.39 343.829ZM190.39 343.829C190.639 344.27 190.39 343.829 190.39 343.829ZM198.129 302.212L191.456 342.644L216.552 317.41L198.129 302.212Z" stroke="white" stroke-width="0.3"/>
<path d="M197.629 301.33L206.285 268.507C206.285 268.507 206.285 268.507 206.723 268.259C206.723 268.259 206.723 268.259 207.162 268.011L223.412 276.29C223.412 276.29 223.412 276.29 223.661 276.731C223.661 276.731 223.661 276.731 223.223 276.979L197.629 301.33C197.878 301.771 197.878 301.771 197.629 301.33ZM206.783 269.389L198.447 299.704L222.096 277.033L206.783 269.389Z" fill="white"/>
<path d="M197.629 301.33L206.285 268.507C206.285 268.507 206.285 268.507 206.723 268.259C206.723 268.259 206.723 268.259 207.162 268.011L223.412 276.29C223.412 276.29 223.412 276.29 223.661 276.731C223.661 276.731 223.661 276.731 223.223 276.979L197.629 301.33ZM197.629 301.33C197.878 301.771 197.878 301.771 197.629 301.33ZM206.783 269.389L198.447 299.704L222.096 277.033L206.783 269.389Z" stroke="white" stroke-width="0.3"/>
<path d="M197.627 301.328C197.378 300.887 197.378 300.887 197.627 301.328L222.533 276.784L222.972 276.536L223.221 276.977L216.988 317.161C216.988 317.161 216.988 317.161 216.549 317.409L216.11 317.656L197.627 301.328ZM222.593 277.914L198.505 300.833L216.489 316.278L222.593 277.914Z" fill="white" stroke="white" stroke-width="0.3"/>
<path d="M206.095 269.196C206.095 269.196 205.846 268.754 206.095 269.196L214.551 241.141C214.551 241.141 214.551 241.141 214.989 240.893C214.989 240.893 214.989 240.893 215.428 240.645L233.303 249.751L233.552 250.193C233.552 250.193 233.552 250.193 233.114 250.44L206.095 269.196C206.534 268.948 206.783 269.389 206.095 269.196ZM215.049 242.023L207.162 268.011L231.987 250.495L215.049 242.023Z" fill="white"/>
<path d="M206.095 269.196C206.095 269.196 205.846 268.754 206.095 269.196L214.551 241.141C214.551 241.141 214.551 241.141 214.989 240.893C214.989 240.893 214.989 240.893 215.428 240.645L233.303 249.751L233.552 250.193C233.552 250.193 233.552 250.193 233.114 250.44L206.095 269.196ZM206.095 269.196C206.783 269.389 206.534 268.948 206.095 269.196ZM215.049 242.023L207.162 268.011L231.987 250.495L215.049 242.023Z" stroke="white" stroke-width="0.3"/>
<path d="M206.095 269.198C206.285 268.509 206.285 268.509 206.095 269.198L232.427 250.249L232.865 250.001L233.114 250.443L223.223 276.98C223.223 276.98 223.223 276.98 222.784 277.228C222.784 277.228 222.784 277.228 222.346 277.476L206.095 269.198ZM232.048 251.627L207.222 269.143L222.535 276.787L232.048 251.627Z" fill="white" stroke="white" stroke-width="0.3"/>
<path d="M214.551 241.144L219.667 222.541L220.105 222.293C220.105 222.293 220.105 222.293 220.355 222.735L233.114 250.443C233.114 250.443 233.364 250.884 232.925 251.132L232.486 251.38L214.551 241.144C214.551 241.144 214.8 241.585 214.551 241.144ZM219.976 224.113L215.239 241.337L231.739 250.056L219.976 224.113Z" fill="white"/>
<path d="M214.551 241.144L219.667 222.541L220.105 222.293C220.105 222.293 220.105 222.293 220.355 222.735L233.114 250.443C233.114 250.443 233.364 250.884 232.925 251.132L232.486 251.38L214.551 241.144ZM214.551 241.144C214.8 241.585 214.551 241.144 214.551 241.144ZM219.976 224.113L215.239 241.337L231.739 250.056L219.976 224.113Z" stroke="white" stroke-width="0.3"/>
<path d="M232.676 250.69L219.917 222.981C219.917 222.981 219.917 222.981 219.668 222.54C219.668 222.54 219.668 222.54 220.106 222.292L248.839 218.863C248.839 218.863 248.839 218.863 249.088 219.305L249.338 219.746L233.803 250.635C233.364 250.883 232.926 251.131 232.676 250.69ZM220.605 223.175L232.866 250.001L247.772 220.048L220.605 223.175Z" fill="white" stroke="white" stroke-width="0.3"/>
<path d="M217.184 389.213C217.373 388.524 217.373 388.524 217.373 388.524L261.429 388.659L261.678 389.1C261.678 389.1 261.928 389.541 261.489 389.789L234.589 410.804C234.589 410.804 234.151 411.052 233.902 410.611L217.184 389.213ZM260.362 389.843L218.121 389.847L234.779 410.116L260.362 389.843Z" fill="white" stroke="white" stroke-width="0.3"/>
<path d="M217.185 389.211L218.523 354.703C218.523 354.703 218.523 354.703 218.962 354.455L219.4 354.207L241.901 365.355C241.901 365.355 241.901 365.355 242.151 365.797C242.151 365.797 242.151 365.797 241.712 366.044L217.185 389.211C217.434 389.652 217.434 389.652 217.185 389.211ZM219.022 355.585L217.813 388.274L240.585 366.099L219.022 355.585Z" fill="white"/>
<path d="M217.185 389.211L218.523 354.703C218.523 354.703 218.523 354.703 218.962 354.455L219.4 354.207L241.901 365.355C241.901 365.355 241.901 365.355 242.151 365.797C242.151 365.797 242.151 365.797 241.712 366.044L217.185 389.211ZM217.185 389.211C217.434 389.652 217.434 389.652 217.185 389.211ZM219.022 355.585L217.813 388.274L240.585 366.099L219.022 355.585Z" stroke="white" stroke-width="0.3"/>
<path d="M217.184 389.215C217.184 389.215 216.935 388.773 217.184 389.215L240.774 365.413C240.774 365.413 240.774 365.413 241.212 365.166C241.212 365.166 241.212 365.165 241.462 365.607L261.679 389.102L261.928 389.543L261.489 389.791L217.184 389.215C217.184 389.215 217.433 389.656 217.184 389.215ZM241.272 366.296L218.5 388.471L260.991 388.909L241.272 366.296Z" fill="white"/>
<path d="M217.184 389.215C217.184 389.215 216.935 388.773 217.184 389.215L240.774 365.413C240.774 365.413 240.774 365.413 241.212 365.166C241.212 365.166 241.212 365.165 241.462 365.607L261.679 389.102L261.928 389.543L261.489 389.791L217.184 389.215ZM217.184 389.215C217.433 389.656 217.184 389.215 217.184 389.215ZM241.272 366.296L218.5 388.471L260.991 388.909L241.272 366.296Z" stroke="white" stroke-width="0.3"/>
<path d="M218.524 354.704C218.524 354.704 218.275 354.263 218.524 354.704L244.865 331.676L245.304 331.428L245.553 331.87L241.902 365.357C241.902 365.357 241.902 365.357 241.463 365.605C241.463 365.605 241.463 365.605 241.025 365.853L218.524 354.704ZM244.486 333.054L219.65 354.65L240.776 365.411L244.486 333.054Z" fill="white" stroke="white" stroke-width="0.3"/>
<path d="M240.583 366.101L243.985 332.173C243.985 332.173 243.985 332.173 244.423 331.925L244.862 331.677L272.527 355.039L272.776 355.48C272.776 355.48 272.776 355.48 272.337 355.728L240.583 366.101C240.832 366.542 241.271 366.294 240.583 366.101ZM244.922 332.807L241.211 365.164L270.961 355.341L244.922 332.807Z" fill="white"/>
<path d="M240.583 366.101L243.985 332.173C243.985 332.173 243.985 332.173 244.423 331.925L244.862 331.677L272.527 355.039L272.776 355.48C272.776 355.48 272.776 355.48 272.337 355.728L240.583 366.101ZM240.583 366.101C241.271 366.294 240.832 366.542 240.583 366.101ZM244.922 332.807L241.211 365.164L270.961 355.341L244.922 332.807Z" stroke="white" stroke-width="0.3"/>
<path d="M240.584 366.102C241.022 365.854 240.773 365.413 240.584 366.102L272.088 355.287C272.088 355.287 272.527 355.039 272.776 355.481L273.026 355.922L262.177 389.984L261.738 390.232C261.738 390.232 261.738 390.232 261.05 390.038L240.584 366.102ZM271.46 356.224L241.71 366.047L261.429 388.66L271.46 356.224Z" fill="white" stroke="white" stroke-width="0.3"/>
<path d="M218.523 354.704L216.99 317.162C216.99 317.162 216.99 317.162 217.429 316.914L217.867 316.666L245.552 331.87C245.552 331.87 245.552 331.87 245.801 332.311C245.801 332.311 245.802 332.311 245.363 332.558L218.523 354.704C218.772 355.145 218.772 355.145 218.523 354.704ZM217.488 318.044L219.151 353.767L243.987 332.172L217.488 318.044Z" fill="white"/>
<path d="M218.523 354.704L216.99 317.162C216.99 317.162 216.99 317.162 217.429 316.914L217.867 316.666L245.552 331.87C245.552 331.87 245.552 331.87 245.801 332.311C245.801 332.311 245.802 332.311 245.363 332.558L218.523 354.704ZM218.523 354.704C218.772 355.145 218.772 355.145 218.523 354.704ZM217.488 318.044L219.151 353.767L243.987 332.172L217.488 318.044Z" stroke="white" stroke-width="0.3"/>
<path d="M216.547 317.409L222.531 276.784C222.531 276.784 222.531 276.784 222.97 276.537C222.97 276.537 223.409 276.289 223.658 276.73L243.875 300.225C243.875 300.225 243.875 300.225 244.124 300.667C244.124 300.667 244.124 300.667 243.686 300.914L216.547 317.409C216.796 317.85 217.235 317.603 216.547 317.409ZM223.279 278.108L217.175 316.472L242.31 300.528L223.279 278.108Z" fill="white"/>
<path d="M216.547 317.409L222.531 276.784C222.531 276.784 222.531 276.784 222.97 276.537C222.97 276.537 223.409 276.289 223.658 276.73L243.875 300.225C243.875 300.225 243.875 300.225 244.124 300.667C244.124 300.667 244.124 300.667 243.686 300.914L216.547 317.409ZM216.547 317.409C217.235 317.603 216.796 317.85 216.547 317.409ZM223.279 278.108L217.175 316.472L242.31 300.528L223.279 278.108Z" stroke="white" stroke-width="0.3"/>
<path d="M216.549 317.409C216.549 317.409 216.739 316.72 216.549 317.409L243.189 300.032L243.628 299.784L243.877 300.225L244.862 331.675C244.862 331.675 244.862 331.675 244.424 331.923L243.985 332.171L216.549 317.409ZM243.249 301.162L218.115 317.107L244.613 331.234L243.249 301.162Z" fill="white" stroke="white" stroke-width="0.3"/>
<path d="M222.785 277.228L232.427 250.249C232.427 250.249 232.427 250.249 232.866 250.001C232.866 250.001 232.866 250.001 233.304 249.753L261.059 262.007L261.308 262.448C261.308 262.448 261.308 262.448 260.87 262.696L222.785 277.228C223.034 277.669 223.034 277.669 222.785 277.228ZM232.925 251.131L223.662 276.732L259.743 262.75L232.925 251.131Z" fill="white"/>
<path d="M222.785 277.228L232.427 250.249C232.427 250.249 232.427 250.249 232.866 250.001C232.866 250.001 232.866 250.001 233.304 249.753L261.059 262.007L261.308 262.448C261.308 262.448 261.308 262.448 260.87 262.696L222.785 277.228ZM222.785 277.228C223.034 277.669 223.034 277.669 222.785 277.228ZM232.925 251.131L223.662 276.732L259.743 262.75L232.925 251.131Z" stroke="white" stroke-width="0.3"/>
<path d="M222.782 277.225C222.972 276.536 222.972 276.536 222.972 276.536L257.686 283.695C257.686 283.695 257.686 283.695 257.935 284.136C257.935 284.136 257.935 284.136 258.184 284.577L244.126 300.666C244.126 300.666 244.126 300.666 243.687 300.914C243.687 300.914 243.687 300.914 243.438 300.473L222.782 277.225ZM257.058 284.632L224.407 278.053L243.877 300.225L257.058 284.632Z" fill="white" stroke="white" stroke-width="0.3"/>
<path d="M222.787 277.228C222.537 276.787 222.537 276.787 222.787 277.228L260.622 262.255L261.061 262.007L261.31 262.448L257.939 284.139C257.939 284.139 257.939 284.139 257.501 284.387C257.501 284.387 257.501 284.387 257.062 284.634L222.787 277.228C222.787 277.228 223.036 277.669 222.787 277.228ZM259.994 263.192L224.352 276.926L257.251 283.945L259.994 263.192Z" fill="white"/>
<path d="M222.787 277.228C222.537 276.787 222.537 276.787 222.787 277.228L260.622 262.255L261.061 262.007L261.31 262.448L257.939 284.139C257.939 284.139 257.939 284.139 257.501 284.387C257.501 284.387 257.501 284.387 257.062 284.634L222.787 277.228ZM222.787 277.228C223.036 277.669 222.787 277.228 222.787 277.228ZM259.994 263.192L224.352 276.926L257.251 283.945L259.994 263.192Z" stroke="white" stroke-width="0.3"/>
<path d="M261.238 389.346L272.087 355.284L272.526 355.036L293.861 356.95C293.861 356.95 293.861 356.95 294.11 357.391C294.11 357.391 294.36 357.832 293.921 358.08L261.238 389.346C261.488 389.787 261.488 389.787 261.238 389.346C261.488 389.787 261.488 389.787 261.238 389.346ZM272.586 356.166L262.305 388.161L292.545 357.693L272.586 356.166Z" fill="white"/>
<path d="M261.238 389.346L272.087 355.284L272.526 355.036L293.861 356.95C293.861 356.95 293.861 356.95 294.11 357.391C294.11 357.391 294.36 357.832 293.921 358.08L261.238 389.346ZM261.238 389.346C261.488 389.787 261.488 389.787 261.238 389.346ZM261.238 389.346C261.488 389.787 261.488 389.787 261.238 389.346ZM272.586 356.166L262.305 388.161L292.545 357.693L272.586 356.166Z" stroke="white" stroke-width="0.3"/>
<path d="M271.903 355.976C271.903 355.976 271.654 355.535 271.903 355.976L268.576 310.137C268.576 310.137 268.576 310.137 269.015 309.889C269.015 309.889 269.453 309.641 269.703 310.082L290.807 329.003L291.057 329.444L273.279 356.363C272.591 356.17 272.342 355.729 271.903 355.976ZM269.513 310.771L272.472 353.91L289.87 328.368L269.513 310.771Z" fill="white" stroke="white" stroke-width="0.3"/>
<path d="M244.675 332.367C244.426 331.926 244.426 331.926 244.675 332.367L269.451 309.642L269.89 309.394L270.139 309.835L273.217 355.233C273.217 355.233 273.217 355.233 272.778 355.481C272.778 355.481 272.34 355.729 272.09 355.288L244.675 332.367ZM269.072 311.02L245.363 332.561L271.841 354.847L269.072 311.02Z" fill="white" stroke="white" stroke-width="0.3"/>
<path d="M244.674 332.365L243.44 300.474C243.44 300.474 243.44 300.474 243.878 300.226L244.317 299.978L269.889 309.392L270.138 309.833C270.138 309.833 270.138 309.833 269.949 310.522L244.674 332.365C244.674 332.365 244.923 332.807 244.674 332.365ZM243.938 301.356L245.302 331.429L268.573 310.135L243.938 301.356Z" fill="white"/>
<path d="M244.674 332.365L243.44 300.474C243.44 300.474 243.44 300.474 243.878 300.226L244.317 299.978L269.889 309.392L270.138 309.833C270.138 309.833 270.138 309.833 269.949 310.522L244.674 332.365ZM244.674 332.365C244.923 332.807 244.674 332.365 244.674 332.365ZM243.938 301.356L245.302 331.429L268.573 310.135L243.938 301.356Z" stroke="white" stroke-width="0.3"/>
<path d="M242.999 300.722L257.247 283.944L257.686 283.696C257.686 283.696 257.686 283.696 257.935 284.137L269.448 309.64C269.448 309.64 269.698 310.081 269.259 310.329L268.82 310.577L242.999 300.722C243.248 301.163 243.248 301.163 242.999 300.722ZM257.307 285.074L244.126 300.668L268.322 309.695L257.307 285.074Z" fill="white"/>
<path d="M242.999 300.722L257.247 283.944L257.686 283.696C257.686 283.696 257.686 283.696 257.935 284.137L269.448 309.64C269.448 309.64 269.698 310.081 269.259 310.329L268.82 310.577L242.999 300.722ZM242.999 300.722C243.248 301.163 243.248 301.163 242.999 300.722ZM257.307 285.074L244.126 300.668L268.322 309.695L257.307 285.074Z" stroke="white" stroke-width="0.3"/>
<path d="M232.674 250.686C232.674 250.686 232.425 250.245 232.674 250.686L248.019 220.485L248.458 220.237C248.458 220.237 248.458 220.237 248.707 220.678L256.034 243.891C256.034 243.891 256.034 243.891 255.595 244.139L232.674 250.686ZM248.079 221.615L233.552 250.19L254.907 243.945L248.079 221.615Z" fill="white" stroke="white" stroke-width="0.3"/>
<path d="M232.676 250.686C232.427 250.245 232.427 250.245 232.676 250.686L255.787 243.45C255.787 243.45 255.787 243.45 256.036 243.892L260.87 262.692C260.87 262.692 261.119 263.134 260.681 263.381L260.242 263.629L232.676 250.686ZM255.158 244.387L233.803 250.632L259.933 262.058L255.158 244.387Z" fill="white" stroke="white" stroke-width="0.3"/>
<path d="M260.43 262.942C260.43 262.942 260.181 262.501 260.43 262.942L255.596 244.141C255.596 244.141 255.596 244.141 256.034 243.893L272.813 240.816C272.813 240.816 272.813 240.816 273.501 241.009L273.751 241.45L261.806 263.329C260.868 262.694 260.869 262.694 260.43 262.942ZM256.034 243.893L260.809 261.564L271.936 241.311L256.034 243.893Z" fill="white" stroke="white" stroke-width="0.3"/>
<path d="M255.347 243.699L248.02 220.487C248.02 220.487 248.02 220.487 247.771 220.046C247.771 220.046 247.771 220.046 248.21 219.798L261.918 218.455C261.918 218.455 261.918 218.455 262.167 218.896L262.417 219.337L256.035 243.893C256.035 243.893 255.596 244.14 255.347 243.699C255.596 244.14 255.596 244.14 255.347 243.699ZM248.708 220.68L255.726 242.321L261.978 219.585L248.708 220.68Z" fill="white"/>
<path d="M255.347 243.699L248.02 220.487C248.02 220.487 248.02 220.487 247.771 220.046C247.771 220.046 247.771 220.046 248.21 219.798L261.918 218.455C261.918 218.455 261.918 218.455 262.167 218.896L262.417 219.337L256.035 243.893C256.035 243.893 255.596 244.14 255.347 243.699ZM255.347 243.699C255.596 244.14 255.596 244.14 255.347 243.699ZM248.708 220.68L255.726 242.321L261.978 219.585L248.708 220.68Z" stroke="white" stroke-width="0.3"/>
<path d="M255.348 243.701L262.169 218.897L262.607 218.65C262.607 218.65 262.607 218.65 262.857 219.091L273.254 240.569C273.254 240.569 273.254 240.569 273.503 241.01C273.503 241.01 273.503 241.01 273.064 241.258L255.348 243.701C255.597 244.142 255.597 244.142 255.348 243.701ZM262.478 220.469L256.225 243.205L272.127 240.623L262.478 220.469Z" fill="white"/>
<path d="M255.348 243.701L262.169 218.897L262.607 218.65C262.607 218.65 262.607 218.65 262.857 219.091L273.254 240.569C273.254 240.569 273.254 240.569 273.503 241.01C273.503 241.01 273.503 241.01 273.064 241.258L255.348 243.701ZM255.348 243.701C255.597 244.142 255.597 244.142 255.348 243.701ZM262.478 220.469L256.225 243.205L272.127 240.623L262.478 220.469Z" stroke="white" stroke-width="0.3"/>
</g>
<path d="M175.596 429.143H215.64L233.592 349.537M175.596 429.143L199.056 331.991M175.596 429.143L73.4795 435L94.1872 367.496M218.86 243.596L251.544 269.93L233.592 349.537M218.86 243.596L199.056 331.991M218.86 243.596L119 284L94.1872 367.496M199.056 331.991L182.596 337.399M199.056 331.991L233.592 349.537M182.596 337.399L170.37 329.169L120.992 343.983L108.295 362.558M182.596 337.399L165.432 358.796L115.349 370.788L108.295 362.558M108.295 362.558L94.1872 367.496" stroke="white" stroke-width="3"/>
<path d="M123 215.333L147.299 207.49L153.57 191.804L177.673 183.765M123 215.333L177.869 30.6274L256.254 2M123 215.333L160.391 240.775M256.254 2L235.482 178.078M256.254 2L288 30.6274L273.499 203.569M235.482 178.078L213.142 185.529L201.777 175.726L177.673 183.765M235.482 178.078L273.499 203.569M273.499 203.569L249.2 212.98L239.793 203.569L187.667 220.431L180.613 236.902L162.192 242L160.391 240.775M160.391 240.775L177.673 183.765" stroke="white" stroke-width="3"/>
</svg>
