<svg width="267" height="258" viewBox="0 0 267 258" fill="none" xmlns="http://www.w3.org/2000/svg">
<path d="M18.1435 76.587L14.1836 67.7284L12.8635 58.4267L10.6639 50.6754M10.6639 50.6754L7.58438 48.2397H2.74558L0.546005 51.1188L0.765511 59.9771L2.30549 70.6072L4.72584 81.0163L9.78476 91.2039L16.1631 98.512L22.762 106.706L29.801 115.787L36.3999 126.86C36.3999 126.86 41.6286 134.419 44.9789 139.262C47.7279 143.413 52.0181 149.892 52.0181 149.892L60.1559 163.18C60.1559 163.18 63.9102 170.874 66.3158 175.803C67.3463 180.387 68.9546 187.541 68.9546 187.541L67.1949 197.064L67.6346 207.251L66.7548 220.539L72.6938 228.512L81.2725 222.754L91.6114 223.64L98.4304 228.733L106.569 218.324L118.007 221.204L118.227 210.352L118.666 197.507L119.327 185.991L120.427 172.039L121.526 158.529L121.307 143.248V135.718L118.887 120.88L113.827 101.612L109.648 88.3245L109.429 75.4798L107.449 62.635L102.169 52.0043L95.1305 48.9039L88.9718 53.7764L87.872 63.5207L88.3121 75.4798L90.2911 86.1099C90.2911 86.1099 90.4255 95.1536 90.5117 100.948C85.7869 100.516 78.4131 99.8408 78.4131 99.8408L70.9347 93.8611L65.2156 84.56L57.0767 78.1373L53.3369 66.621L47.1779 56.4336M10.6639 50.6754L10.2249 41.8168L8.9044 32.0724L6.48531 15.02L8.46499 10.8117L14.1834 10.1475L17.7031 12.8053M39.9196 81.2379L36.1804 71.272L31.341 63.2991L27.6015 50.4544L24.9625 36.5017L21.223 19.6703L17.7031 12.8053M17.7031 12.8053L16.8238 6.38242L18.5835 1.2889H25.1822L30.9012 9.48313M30.9012 9.48313L32.4403 20.5565L32.8803 29.8581L33.9801 42.4813L35.5201 54.8836L41.4593 67.2858L44.539 78.58M30.9012 9.48313L37.2798 13.0268L41.4594 23.6567L42.7793 35.8376L45.6389 46.2464L47.1789 56.4335M91.831 229.398L98.4299 233.606L92.9309 238.7L91.831 229.398ZM85.0122 228.955L76.4336 234.049L85.4522 241.578L85.0122 228.955ZM98.2099 242.464L95.3503 247.336L92.4908 242.243L98.2099 242.464ZM102.389 230.505L107.888 222.754L110.748 235.378L102.389 230.505ZM120.647 246.451L116.907 241.578L119.327 234.713L120.647 246.451ZM71.8146 234.713L73.7942 237.592L70.2748 240.028L71.8146 234.713ZM66.5352 224.526L70.7145 230.284L65.4354 236.263L66.5352 224.526ZM70.7149 248.887L75.5541 240.693L80.1734 250.437L70.7149 248.887ZM86.1125 256.638L88.7521 251.544L91.6116 256.195L86.1125 256.638ZM104.369 248.665L107.669 244.457L110.528 249.773L104.369 248.665ZM112.947 222.532L113.607 228.512L118.226 223.861L112.947 222.532Z" stroke="white"/>
<path d="M248.255 76.587L252.215 67.7284L253.535 58.4267L255.734 50.6754M255.734 50.6754L258.814 48.2398H263.653L265.852 51.1188L265.633 59.9771L264.093 70.6072L261.672 81.0164L256.613 91.2039L250.235 98.512L243.636 106.706L236.597 115.787L229.998 126.86C229.998 126.86 224.77 134.419 221.419 139.262C218.67 143.413 214.38 149.892 214.38 149.892L206.242 163.18C206.242 163.18 202.488 170.874 200.082 175.803C199.052 180.387 197.444 187.541 197.444 187.541L199.203 197.064L198.764 207.251L199.643 220.539L193.704 228.512L185.126 222.754L174.787 223.64L167.968 228.733L159.83 218.324L148.391 221.204L148.171 210.352L147.732 197.507L147.071 185.991L145.971 172.039L144.872 158.529L145.092 143.248V135.718L147.512 120.88L152.571 101.612L156.75 88.3245L156.97 75.4798L158.949 62.635L164.229 52.0043L171.268 48.904L177.426 53.7764L178.526 63.5207L178.086 75.4798L176.107 86.1099C176.107 86.1099 175.973 95.1536 175.887 100.948C180.611 100.516 187.985 99.8408 187.985 99.8408L195.464 93.8611L201.183 84.5601L209.322 78.1373L213.061 66.621L219.22 56.4336M255.734 50.6754L256.173 41.8168L257.494 32.0724L259.913 15.02L257.933 10.8117L252.215 10.1475L248.695 12.8053M226.479 81.2379L230.218 71.272L235.057 63.2991L238.797 50.4544L241.436 36.5018L245.175 19.6703L248.695 12.8053M248.695 12.8053L249.574 6.38242L247.815 1.28891H241.216L235.497 9.48314M235.497 9.48314L233.958 20.5566L233.518 29.8581L232.418 42.4813L230.878 54.8836L224.939 67.2858L221.859 78.58M235.497 9.48314L229.118 13.0268L224.939 23.6567L223.619 35.8376L220.759 46.2464L219.219 56.4335M174.567 229.398L167.968 233.606L173.467 238.7L174.567 229.398ZM181.386 228.955L189.965 234.049L180.946 241.578L181.386 228.955ZM168.188 242.464L171.048 247.336L173.907 242.243L168.188 242.464ZM164.009 230.505L158.51 222.754L155.65 235.378L164.009 230.505ZM145.751 246.451L149.491 241.578L147.071 234.713L145.751 246.451ZM194.584 234.713L192.604 237.592L196.123 240.028L194.584 234.713ZM199.863 224.526L195.684 230.284L200.963 236.263L199.863 224.526ZM195.683 248.887L190.844 240.693L186.225 250.437L195.683 248.887ZM180.286 256.638L177.646 251.544L174.787 256.195L180.286 256.638ZM162.029 248.665L158.73 244.457L155.87 249.773L162.029 248.665ZM153.451 222.533L152.791 228.512L148.172 223.861L153.451 222.533Z" stroke="white"/>
</svg>
