<svg width="262" height="262" viewBox="0 0 262 262" fill="none" xmlns="http://www.w3.org/2000/svg">
<path d="M188.978 228.064L185.019 213.226M188.978 228.064L194.697 220.091M188.978 228.064L180.18 222.306M185.019 213.226L194.697 220.091M185.019 213.226L193.818 206.804M185.019 213.226L183.039 197.723M185.019 213.226L180.18 222.306M185.019 213.226L174.24 213.004M194.697 220.091L193.818 206.804M193.818 206.804L183.039 197.723M193.818 206.804L188.098 195.952M193.818 206.804L194.257 196.616M183.039 197.723L188.098 195.952M183.039 197.723L183.258 184.214M183.039 197.723L174.24 213.004M183.039 197.723L171.821 195.731M183.039 197.723L172.701 186.208M183.039 197.723L167.641 205.032M180.18 222.306L169.841 223.192M180.18 222.306L174.24 213.004M188.098 195.952L194.257 196.616M188.098 195.952L192.717 187.093M188.098 195.952L183.258 184.214M194.257 196.616L192.717 187.093M192.717 187.093L183.258 184.214M192.717 187.093L195.357 175.355M183.258 184.214L172.701 186.208M183.258 184.214L183.699 173.141M183.258 184.214L195.357 175.355M169.841 223.192L174.24 213.004M169.841 223.192L163.023 214.112M169.841 223.192L163.243 228.285M174.24 213.004L167.641 205.032M174.24 213.004L163.023 214.112M171.821 195.731L172.701 186.208M171.821 195.731L167.641 205.032M172.701 186.208L160.163 195.73M172.701 186.208L158.843 178.899M172.701 186.208L168.961 169.376M172.701 186.208L183.699 173.141M167.641 205.032L163.023 214.112M167.641 205.032L163.022 214.112L160.163 195.73M167.641 205.032L160.163 195.73M167.641 205.032L171.82 195.73M163.023 214.112L163.243 228.285M163.023 214.112L155.103 217.877M163.023 214.112L153.784 203.482M163.023 214.112L160.163 195.73M163.243 228.285L155.103 217.877M155.103 217.877L143.445 209.904M155.103 217.877L143.665 220.756L143.445 209.904M155.103 217.877L153.784 203.482M143.445 209.904L153.784 203.482M143.445 209.904L143.005 197.059M153.784 203.482L160.163 195.73M153.784 203.482L143.005 197.059M153.784 203.482L149.164 187.979M160.163 195.73H171.82M160.163 195.73L172.7 186.208L171.82 195.73M160.163 195.73L149.164 187.979M160.163 195.73L158.843 178.899M143.005 197.059L149.164 187.979M143.005 197.059L142.126 185.543M149.164 187.979L142.126 185.543M149.164 187.979L145.645 171.591M149.164 187.979L158.843 178.899M149.164 187.979L158.403 168.711M142.126 185.543L145.645 171.591M142.126 185.543L141.026 171.591M145.645 171.591L158.403 168.711M145.645 171.591L150.484 158.303M145.645 171.591H141.026M145.645 171.591L143.446 160.296M158.843 178.899L158.403 168.711M158.843 178.899L168.961 169.376M158.403 168.711L150.484 158.303M158.403 168.711L168.961 169.376M158.403 168.711L163.242 154.538M150.484 158.303L163.242 154.538M150.484 158.303L160.383 146.122M150.484 158.303L143.446 160.296M150.484 158.303L146.965 146.565M168.961 169.376L183.699 173.141M168.961 169.376L163.242 154.538M168.961 169.376L179.079 160.517M168.961 169.376L173.8 151.659M183.699 173.141L195.357 175.355M183.699 173.141L201.516 162.732M183.699 173.141L179.079 160.517M183.699 173.141L191.618 156.974M195.357 175.355L201.516 162.732M163.242 154.538L160.383 146.122M163.242 154.538L173.8 151.659M163.242 154.538L174.9 137.706M160.383 146.122L174.9 137.706M160.383 146.122L146.965 146.565M160.383 146.122L152.024 137.485M160.383 146.122L164.782 129.512M201.516 162.732L191.618 156.974M201.516 162.732L209.655 149.444M179.079 160.517L173.8 151.659M179.079 160.517L191.618 156.974M179.079 160.517L186.119 144.35M173.8 151.659L186.119 144.35M173.8 151.659L174.9 137.706M191.618 156.974L209.655 149.444M191.618 156.974L186.119 144.35M191.618 156.974L198.437 141.471M209.655 149.444L198.437 141.471M209.655 149.444L216.473 138.814M209.655 149.444L210.534 131.949M186.119 144.35L174.9 137.706M186.119 144.35L198.437 141.471M186.119 144.35L189.638 125.747M174.9 137.706L189.638 125.747M174.9 137.706L164.782 129.512M174.9 137.706L179.3 121.983M198.437 141.471L189.638 125.747M198.437 141.471L210.534 131.949M198.437 141.471L203.496 124.64M189.638 125.747L203.496 124.64M189.638 125.747L199.976 115.56M189.638 125.747L179.3 121.983M189.638 125.747L193.157 110.909M216.473 138.814L210.534 131.949M216.473 138.814L225.272 126.412M210.534 131.949L203.496 124.64M210.534 131.949L225.272 126.412M210.534 131.949L221.313 117.332M210.534 131.949L209.654 117.553M203.496 124.64L209.654 117.553M203.496 124.64L199.976 115.56M225.272 126.412L221.313 117.332M225.272 126.412L231.871 115.339M221.313 117.332L209.654 117.553M221.313 117.332L218.013 105.151M221.313 117.332L231.871 115.339M221.313 117.332L227.912 107.587M209.654 117.553L199.976 115.56M209.654 117.553L208.555 106.258M209.654 117.553L218.013 105.151M199.976 115.56L208.555 106.258M199.976 115.56L193.157 110.909M199.976 115.56L201.296 101.386M208.555 106.258L218.013 105.151M208.555 106.258L214.493 100.5M208.555 106.258L201.296 101.386M218.013 105.151L227.912 107.587M218.013 105.151L214.493 100.5M218.013 105.151L223.732 95.6278M218.013 105.151L230.552 99.6144M231.871 115.339L227.912 107.587M231.871 115.339L238.91 106.258M227.912 107.587L230.552 99.6144M227.912 107.587L238.91 106.258M214.493 100.5L223.732 95.6278M214.493 100.5L201.296 101.386M214.493 100.5L209.654 88.7628M223.732 95.6278L218.014 105.151L230.552 99.6144M223.732 95.6278L230.552 99.6144M223.732 95.6278L231.651 86.9907M223.732 95.6278L209.654 88.7628M223.732 95.6278L221.532 80.7899M230.552 99.6144L238.91 106.258M230.552 99.6144L238.69 95.8494M230.552 99.6144L231.651 86.9907M238.91 106.258L245.509 98.064M238.91 106.258L238.69 95.8494M245.509 98.064L238.69 95.8494M245.509 98.064L245.948 85.4408M245.509 98.064L251.668 90.756L245.948 85.4408M238.69 95.8494L231.651 86.9907M238.69 95.8494L245.948 85.4408M238.69 95.8494V87.2125M231.651 86.9907L238.69 87.2125M231.651 86.9907L239.789 79.461M231.651 86.9907L221.532 80.7899M231.651 86.9907L231.871 76.1392M245.948 85.4408L238.69 87.2125M245.948 85.4408L239.789 79.461M245.948 85.4408L256.726 80.5684M245.948 85.4408L251.667 90.7558L256.726 80.5684M245.948 85.4408L251.667 75.9175M245.948 85.4408L243.529 76.1391M238.69 87.2125L239.789 79.461M239.789 79.461L243.529 76.1391M239.789 79.461L231.871 76.1392M239.789 79.461L236.71 65.509M256.726 80.5684L251.667 75.9175M256.726 80.5684L259.367 70.1593M251.667 75.9175L243.529 76.1391M251.667 75.9175L247.268 67.2805M251.667 75.9175L259.367 70.1593M251.667 75.9175L254.308 63.737M243.529 76.1391L247.268 67.2805M243.529 76.1391L239.79 79.4613L236.71 65.509M243.529 76.1391L236.71 65.509M247.268 67.2805L254.308 63.737M247.268 67.2805L248.808 57.9787M247.268 67.2805L236.71 65.509M247.268 67.2805L243.97 61.0796M259.367 70.1593L254.308 63.737M259.367 70.1593L260.687 59.5292M254.308 63.737L248.808 57.9787M254.308 63.737L260.687 59.5292M254.308 63.737L254.308 53.5494M248.808 57.9787L254.308 53.5494M248.808 57.9787L250.788 50.2275M248.808 57.9787L243.97 61.0796M248.808 57.9787L244.629 47.1271M260.687 59.5292L254.308 53.5494M260.687 59.5292L260.907 50.6709M254.308 53.5494L250.788 50.2275M254.308 53.5494L254.087 47.7918M254.308 53.5494L258.926 47.7918M254.308 53.5494L260.907 50.6709M250.788 50.2275L254.087 47.7918M250.788 50.2275L244.629 47.1271M250.788 50.2275L251.448 41.3689M254.087 47.7918H258.926M258.926 47.7918L260.907 50.6709M141.026 171.591L143.446 160.296M141.026 171.591L140.146 158.081M143.446 160.296L140.146 158.081M143.446 160.296C143.446 159.631 146.965 146.565 146.965 146.565M143.446 160.296L150.704 158.302L146.965 146.565M143.446 160.296L146.965 146.565M140.146 158.081L146.965 146.565M140.146 158.081V142.8M146.965 146.565L140.146 142.8M146.965 146.565L140.366 135.27M146.965 146.565L152.024 137.485M140.146 142.8L140.366 135.27M140.366 135.27L152.024 137.485M140.366 135.27L142.565 120.432M152.024 137.485L164.782 129.512M152.024 137.485L142.565 120.432M152.024 137.485L155.764 123.311M164.782 129.512L179.3 121.983M164.782 129.512L155.764 123.311M164.782 129.512L152.024 137.485L155.764 123.311M164.782 129.512L167.861 114.674M179.3 121.983L193.157 110.909M179.3 121.983L167.861 114.674M179.3 121.983L179.959 108.251M193.157 110.909L201.296 101.386M193.157 110.909L179.959 108.251M193.157 110.909L190.738 93.4132M193.157 110.909L183.259 99.3929M201.296 101.386L209.654 88.7628M201.296 101.386L190.738 93.4132M201.296 101.386L209.215 89.2054M201.296 101.386L198.877 91.4201M209.654 88.7628L221.532 80.7899M221.532 80.7899L231.871 76.1392M221.532 80.7899L225.492 70.824M221.532 80.7899L216.914 78.1321M231.871 76.1392L225.492 70.824M231.871 76.1392L236.71 65.509M225.492 70.824L236.71 65.509M225.492 70.824L230.331 62.8512M225.492 70.824L220.213 66.8378M225.492 70.824L216.914 78.1321M236.71 65.509L230.331 62.8512M236.71 65.509L237.811 55.3215M236.71 65.509L243.97 61.0796M230.331 62.8512L237.811 55.3215M230.331 62.8512L234.071 50.0064M230.331 62.8512L226.151 54.4356M230.331 62.8512L220.213 66.8378M237.811 55.3215L243.97 61.0796M237.811 55.3215L244.629 47.1271M237.811 55.3215L234.071 50.0064M243.97 61.0796L244.629 47.1271M244.629 47.1271L234.071 50.0064M244.629 47.1271L251.448 41.3689M244.629 47.1271L245.729 32.0677M244.629 47.1271L240.45 41.1479M234.071 50.0064L240.45 41.1479M234.071 50.0064L236.71 36.0538M234.071 50.0064L227.472 42.0334M234.071 50.0064L226.151 54.4356M251.448 41.3689L245.729 32.0677M251.448 41.3689L252.548 31.6245M245.729 32.0677L240.45 41.1479M245.729 32.0677L236.71 36.0538M245.729 32.0677L252.548 31.6245M245.729 32.0677L240.45 19.2224M245.729 32.0677L249.028 19.2224M245.729 32.0677L240.449 19.2224M240.45 41.1479L236.71 36.0538M236.71 36.0538L240.45 19.2224M236.71 36.0538L233.411 21.4374M236.71 36.0538L228.791 29.4102M236.71 36.0538L227.472 42.0334M252.548 31.6245L249.028 19.2224M252.548 31.6245L255.187 14.572M240.45 19.2224L233.411 21.4374M240.45 19.2224L243.749 12.3573M249.028 19.2224H240.449M249.028 19.2224L255.187 14.572M249.028 19.2224L252.987 10.3637M249.028 19.2224L247.488 9.69952M249.028 19.2224L243.749 12.3573M240.449 19.2224L243.749 12.3573M255.187 14.572L252.987 10.3637M252.987 10.3637L247.488 9.69952M247.488 9.69952L243.749 12.3573M243.749 12.3573L235.83 12.1355M243.749 12.3573L244.849 5.93446M243.749 12.3573L233.411 21.4374M142.565 120.432L155.764 123.311M142.565 120.432L153.123 109.137M142.565 120.432L147.844 101.164M155.764 123.311L167.861 114.674M155.764 123.311L153.124 109.137M155.764 123.311L153.123 109.137M167.861 114.674L153.124 109.137M167.861 114.674L179.959 108.251M167.861 114.674L170.941 100.5M153.124 109.137L159.503 96.5141M153.124 109.137L147.844 101.164M153.124 109.137L170.941 100.5M153.123 109.137L147.844 101.164M179.959 108.251L183.259 99.3929M179.959 108.251L170.941 100.5M190.738 93.4132L183.259 99.3929M190.738 93.4132L198.877 91.4201M190.738 93.4132L196.456 84.112M183.259 99.3929L170.941 100.5M147.844 101.164L159.503 96.5141M147.844 101.164L151.804 87.8765M159.503 96.5141L170.941 100.5M159.503 96.5141L171.161 85.6618M159.503 96.5141L151.804 87.8765M159.503 96.5141L162.362 81.2326M170.941 100.5L171.161 85.6618M244.849 5.93446L235.83 12.1355M244.849 5.93446L242.869 0.840942M235.83 12.1355L242.869 0.840942M235.83 12.1355L236.27 0.840942M235.83 12.1355L230.771 9.03517M235.83 12.1355L233.411 21.4374M242.869 0.840942H236.27M236.27 0.840942L230.771 9.03517M230.771 9.03517L233.411 21.4374M230.771 9.03517L229.231 20.1086M230.771 9.03517L224.392 12.5788M233.411 21.4374L229.231 20.1086M233.411 21.4374L228.791 29.4102M229.231 20.1086L228.791 29.4102M229.231 20.1086L224.392 12.5788M229.231 20.1086L220.213 23.2087M228.791 29.4102L227.472 42.0334M228.791 29.4102L220.213 23.2087M228.791 29.4102L218.673 35.3896M227.472 42.0334L226.151 54.4356M227.472 42.0334L218.673 35.3896M227.472 42.0334L216.034 45.7985M226.151 54.4356L220.213 66.8378M226.151 54.4356L216.034 45.7985M226.151 54.4356L214.494 55.9856M220.213 66.8378L216.914 78.1321M220.213 66.8378L214.494 55.9856M220.213 66.8378L208.115 66.173M216.914 78.1321L209.215 89.2054M216.914 78.1321L221.533 80.7897L209.215 89.2054M216.914 78.1321L206.795 83.4473M216.914 78.1321L208.115 66.173M216.914 78.1321L204.376 77.6893M209.215 89.2054L206.795 83.4473M209.215 89.2054L198.877 91.4201M206.795 83.4473L204.376 77.6893M206.795 83.4473L196.456 84.112M206.795 83.4473L198.877 91.4201M224.392 12.5788L220.213 23.2087M220.213 23.2087L218.673 35.3896M218.673 35.3896L216.034 45.7985M216.034 45.7985L214.494 55.9856M214.494 55.9856L208.115 66.173M208.115 66.173L204.376 77.6893M204.376 77.6893L196.456 84.112M196.456 84.112L198.877 91.4201M171.161 85.6618L162.362 81.2326M171.161 85.6618L173.36 75.0317M151.804 87.8765L162.362 81.2326M151.804 87.8765L152.024 75.0317M162.362 81.2326L152.024 75.0317M162.362 81.2326L154.224 62.187M162.362 81.2326L173.36 75.0317M162.362 81.2326L165.001 64.6227L173.36 75.0317M162.362 81.2326L165.002 64.6231M152.024 75.0317L154.224 62.187M154.224 62.187L165.002 64.6231M154.224 62.187L159.503 51.5563M173.36 75.0317L173.8 63.0728M173.36 75.0317L165.002 64.6231M165.002 64.6231L173.8 63.0728M165.002 64.6231L172.7 53.3284M165.002 64.6231L159.503 51.5563M165.002 64.6231L166.321 48.456M173.8 63.0728L172.7 53.3284M172.7 53.3284L166.321 48.456M159.503 51.5563L166.321 48.456M143.885 226.293L155.324 223.857L151.584 237.587L143.885 226.293ZM147.405 237.809L144.326 245.117L151.365 243.345L147.405 237.809ZM168.741 229.614L161.483 236.258L168.961 241.795L168.741 229.614ZM176.44 228.286L185.238 230.058L184.579 238.473L176.44 228.286ZM176.66 250.875L181.499 244.896L182.819 255.083L176.66 250.875ZM188.758 236.701L191.838 241.795L186.119 245.117L188.758 236.701ZM195.797 224.078L198.217 236.48L191.178 231.386L195.797 224.078ZM168.742 254.418L167.862 260.841L164.122 258.405L168.742 254.418ZM167.861 212.561L177.539 209.904L172.7 225.406L167.861 212.561ZM157.524 242.459L163.243 246.446L158.183 249.768L157.524 242.459Z" stroke="white"/>
<path d="M73.0544 228.064L76.7937 213.226M73.0544 228.064L67.1153 220.091M73.0544 228.064L81.6331 222.306M76.7937 213.226L67.1153 220.091M76.7937 213.226L67.9952 206.804M76.7937 213.226L78.9937 197.723M76.7937 213.226L81.6331 222.306M76.7937 213.226L87.5726 213.004M67.1153 220.091L67.9952 206.804M67.9952 206.804L78.9937 197.723M67.9952 206.804L73.7144 195.952M67.9952 206.804L67.5554 196.616M78.9937 197.723L73.7144 195.952M78.9937 197.723L78.5534 184.214M78.9937 197.723L87.5726 213.004M78.9937 197.723L90.2119 195.731M78.9937 197.723L89.3321 186.208M78.9937 197.723L94.3913 205.032M81.6331 222.306L91.9719 223.192M81.6331 222.306L87.5726 213.004M73.7144 195.952L67.5554 196.616M73.7144 195.952L69.3151 187.093M73.7144 195.952L78.5534 184.214M67.5554 196.616L69.3151 187.093M69.3151 187.093L78.5534 184.214M69.3151 187.093L78.5544 184.214M69.3151 187.093L66.6763 175.355M78.5534 184.214L89.3321 186.208M78.5534 184.214L78.1136 173.141M91.9719 223.192L87.5726 213.004M91.9719 223.192L99.0109 214.112M91.9719 223.192L98.791 228.285M87.5726 213.004L94.3913 205.032M87.5726 213.004L99.0109 214.112M90.2119 195.731L89.3321 186.208M90.2119 195.731L101.65 195.73M90.2119 195.731L94.3913 205.032M89.3321 186.208L101.65 195.73M89.3321 186.208L103.19 178.899M89.3321 186.208L92.8514 169.376M89.3321 186.208L78.1136 173.141M94.3913 205.032L99.0109 214.112M94.3913 205.032L101.65 195.73M99.0109 214.112L98.791 228.285M99.0109 214.112L106.929 217.877M99.0109 214.112L108.249 203.482M99.0109 214.112L101.65 195.73M98.791 228.285L106.929 217.877M106.929 217.877L118.587 209.904M106.929 217.877L118.367 220.756L118.587 209.904M106.929 217.877L108.249 203.482M118.587 209.904L108.249 203.482M118.587 209.904L119.027 197.059M108.249 203.482L101.65 195.73M108.249 203.482L119.027 197.059M108.249 203.482L112.868 187.979M101.65 195.73L112.868 187.979M101.65 195.73L103.19 178.899M119.027 197.059L112.868 187.979M119.027 197.059L119.688 185.543M112.868 187.979L119.688 185.543M112.868 187.979L116.168 171.591M112.868 187.979L103.19 178.899M112.868 187.979L103.63 168.711M119.688 185.543L116.168 171.591M119.688 185.543L120.787 171.591M116.168 171.591L103.63 168.711M116.168 171.591L111.329 158.303M116.168 171.591H120.787M116.168 171.591L118.588 160.296M103.19 178.899L103.63 168.711M103.19 178.899L92.8514 169.376M103.63 168.711L111.329 158.303M103.63 168.711L92.8514 169.376M103.63 168.711L98.7904 154.538M111.329 158.303L98.7904 154.538M111.329 158.303L101.65 146.122M111.329 158.303L118.588 160.296M111.329 158.303L115.068 146.565M92.8514 169.376L78.1136 173.141M92.8514 169.376L98.7904 154.538M92.8514 169.376L82.7328 160.518M92.8514 169.376L88.2324 151.659M78.1136 173.141L78.5544 184.214M78.1136 173.141L66.6763 175.355M78.1136 173.141L60.5164 162.732M78.1136 173.141L66.6754 175.356L60.5164 162.732M78.1136 173.141L82.7328 160.518M78.1136 173.141L70.4148 156.974M78.5544 184.214L66.6763 175.355M98.7904 154.538L101.65 146.122M98.7904 154.538L88.2324 151.659M98.7904 154.538L86.9121 137.706M101.65 146.122L86.9121 137.706M101.65 146.122L115.068 146.565M101.65 146.122L109.789 137.485M101.65 146.122L97.0304 129.512M60.5164 162.732L70.4148 156.974M60.5164 162.732L52.3786 149.444M82.7328 160.518L88.2324 151.659M82.7328 160.518L70.4148 156.974M82.7328 160.518L75.9139 144.35M88.2324 151.659L75.9139 144.35M88.2324 151.659L86.9121 137.706M70.4148 156.974L52.3786 149.444M70.4148 156.974L75.9139 144.35M52.3786 149.444L63.3769 141.471M52.3786 149.444L70.4157 156.974M52.3786 149.444L45.3394 138.814M52.3786 149.444L51.2785 131.949M75.9139 144.35L86.9121 137.706M86.9121 137.706L75.9148 144.35M86.9121 137.706L72.3949 125.747M86.9121 137.706L97.0304 129.512M86.9121 137.706L82.5127 121.983M70.4157 156.974L63.3769 141.471M70.4157 156.974L75.9148 144.35M63.3769 141.471L75.9148 144.35M63.3769 141.471L72.3949 125.747M63.3769 141.471L51.2785 131.949M63.3769 141.471L58.3176 124.64M75.9148 144.35L72.3949 125.747M72.3949 125.747L63.3758 141.471L58.3167 124.64M72.3949 125.747L58.3167 124.64M72.3949 125.747L62.0561 115.56L58.3167 124.64M72.3949 125.747L82.5127 121.983M72.3949 125.747L68.6553 110.909M72.3949 125.747L62.057 115.56M45.3394 138.814L51.2785 131.949M45.3394 138.814L36.7605 126.412M51.2785 131.949L58.3176 124.64M51.2785 131.949L36.7605 126.412M51.2785 131.949L40.7198 117.332M51.2785 131.949L52.3778 117.553M58.3176 124.64L52.3778 117.553M58.3176 124.64L62.057 115.56M36.7605 126.412L40.7198 117.332M36.7605 126.412L30.1615 115.339M40.7198 117.332L52.3778 117.553M40.7198 117.332L44.0191 105.151M40.7198 117.332L30.1615 115.339M40.7198 117.332L33.9009 107.587M52.3778 117.553L62.057 115.56M52.3778 117.553L53.2585 106.259M52.3778 117.553L44.0191 105.151M62.057 115.56L53.2585 106.259M62.057 115.56L68.6553 110.909M62.057 115.56L60.7365 101.386M53.2585 106.259L44.0191 105.151M53.2585 106.259L47.5386 100.5M53.2585 106.259L60.7365 101.386M44.0191 105.151L33.9009 107.587M44.0191 105.151L47.5386 100.5M44.0191 105.151L38.3004 95.6279M44.0191 105.151L31.482 99.6146M30.1615 115.339L33.9009 107.587M30.1615 115.339L23.1225 106.259M33.9009 107.587L31.482 99.6146M33.9009 107.587L23.1225 106.259M47.5386 100.5L38.3004 95.6279M47.5386 100.5L60.7365 101.386M47.5386 100.5L52.3784 88.7629M38.3004 95.6279L44.02 105.151L31.482 99.6146M38.3004 95.6279L31.482 99.6146M38.3004 95.6279L30.1615 86.9908M38.3004 95.6279L52.3784 88.7629M38.3004 95.6279L40.2801 80.7901M31.482 99.6146L23.1225 106.259M31.482 99.6146L23.1226 95.8495M31.482 99.6146L30.1615 86.9908M23.1225 106.259L16.5236 98.0641M23.1225 106.259L23.1226 95.8495M16.5236 98.0641L23.1226 95.8495M16.5236 98.0641L16.0844 85.4409M16.5236 98.0641L10.1453 90.7561M23.1226 95.8495L30.1615 86.9908M23.1226 95.8495L16.0844 85.4409M23.1226 95.8495L23.3433 87.2127M30.1615 86.9908L23.3433 87.2127M30.1615 86.9908L22.2432 79.4612M30.1615 86.9908L40.2801 80.7901M30.1615 86.9908L29.942 76.1393M16.0844 85.4409L23.3433 87.2127M16.0844 85.4409L22.2432 79.4612M16.0844 85.4409L10.1453 90.7561M16.0844 85.4409L5.08639 80.5685M16.0844 85.4409L10.3655 75.9176M16.0844 85.4409L18.504 76.1392M23.3433 87.2127L22.2432 79.4612M22.2432 79.4612L18.504 76.1392M22.2432 79.4612L29.942 76.1393M22.2432 79.4612L25.1028 65.5091M10.1453 90.7561L5.08639 80.5685M5.08639 80.5685L10.3655 75.9176M5.08639 80.5685L2.66604 70.1594M10.3655 75.9176L18.504 76.1392M10.3655 75.9176L14.5441 67.2806M10.3655 75.9176L2.66604 70.1594M10.3655 75.9176L7.72522 63.7371M18.504 76.1392L14.5441 67.2806M18.504 76.1392L25.1028 65.5091M14.5441 67.2806L10.3645 75.9177L7.72522 63.7371M14.5441 67.2806L7.72522 63.7371M14.5441 67.2806L13.2241 57.9789M14.5441 67.2806L25.1028 65.5091M14.5441 67.2806L17.8439 61.0797M2.66604 70.1594L7.72522 63.7371M2.66604 70.1594L1.12606 59.5293M7.72522 63.7371L13.2241 57.9789M7.72522 63.7371L1.12606 59.5293M7.72522 63.7371L7.72497 53.5495M13.2241 57.9789L7.72497 53.5495M13.2241 57.9789L11.0244 50.2276M13.2241 57.9789L17.8439 61.0797M13.2241 57.9789L17.4034 47.1272M1.12606 59.5293L7.72497 53.5495M1.12606 59.5293L0.906555 50.671M7.72497 53.5495L11.0244 50.2276M7.72497 53.5495L7.94493 47.7919M7.72497 53.5495L3.10613 47.7919M7.72497 53.5495L0.906555 50.671M11.0244 50.2276L7.94493 47.7919M11.0244 50.2276L17.4034 47.1272M7.94493 47.7919H3.10613M3.10613 47.7919L0.906555 50.671M120.787 171.591L118.588 160.296M120.787 171.591L121.887 158.081M118.588 160.296L121.887 158.081M118.588 160.296C118.588 159.632 115.068 146.565 115.068 146.565M118.588 160.296L115.068 146.565M121.887 158.081L115.068 146.565M121.887 158.081L121.667 142.8M115.068 146.565L121.667 142.8M115.068 146.565L121.667 135.271M115.068 146.565L109.789 137.485M121.667 142.8V135.271M121.667 135.271L109.789 137.485M121.667 135.271L119.247 120.432M109.789 137.485L97.0304 129.512M109.789 137.485L119.247 120.432M109.789 137.485L106.05 123.311M97.0304 129.512L82.5127 121.983M97.0304 129.512L106.05 123.311M97.0304 129.512L94.1708 114.674L82.5127 121.983M82.5127 121.983L68.6553 110.909M82.5127 121.983L81.8531 108.252M82.5127 121.983L94.1718 114.674M68.6553 110.909L60.7365 101.386M68.6553 110.909L81.8531 108.252M68.6553 110.909L71.2953 93.4132M68.6553 110.909L78.7737 99.393M60.7365 101.386L52.3784 88.7629M60.7365 101.386L71.2953 93.4132M60.7365 101.386L52.5985 89.2055M60.7365 101.386L62.9364 91.4202M52.3784 88.7629L40.2801 80.7901M40.2801 80.7901L29.942 76.1393M40.2801 80.7901L36.541 70.8241M40.2801 80.7901L44.8996 78.1322M40.2801 80.7901L52.5985 89.2055M29.942 76.1393L36.541 70.8241M29.942 76.1393L25.1028 65.5091M36.541 70.8241L25.1028 65.5091M36.541 70.8241L31.7015 62.8513M36.541 70.8241L41.8199 66.8379M36.541 70.8241L44.8996 78.1322M25.1028 65.5091L31.7015 62.8513M25.1028 65.5091L24.0029 55.3216M25.1028 65.5091L17.8439 61.0797M31.7015 62.8513L24.0029 55.3216M31.7015 62.8513L27.9621 50.0066M31.7015 62.8513L35.8807 54.4358M31.7015 62.8513L41.8199 66.8379M24.0029 55.3216L17.8439 61.0797M24.0029 55.3216L17.4034 47.1272M24.0029 55.3216L27.9621 50.0066M17.8439 61.0797L17.4034 47.1272M17.4034 47.1272L27.9621 50.0066M27.9621 50.0066L21.5831 41.148M27.9621 50.0066L17.4043 47.1271M27.9621 50.0066L25.323 36.0539M27.9621 50.0066L25.3221 36.0538M27.9621 50.0066L34.3407 42.0335M27.9621 50.0066L35.8807 54.4358M17.4043 47.1271L10.5854 41.369M17.4043 47.1271L11.0253 50.2276L10.5854 41.369M17.4043 47.1271L16.0845 32.0678M17.4043 47.1271L21.5831 41.148M10.5854 41.369L16.0845 32.0678M10.5854 41.369L9.26494 31.6246M16.0845 32.0678L21.5831 41.148M16.0845 32.0678L25.323 36.0539M16.0845 32.0678L9.26494 31.6246M16.0845 32.0678L21.5835 19.2225M16.0845 32.0678L13.0043 19.2225M21.5831 41.148L25.323 36.0539M25.323 36.0539L21.5835 19.2225M25.323 36.0539L28.6221 21.4375M9.26494 31.6246L13.0043 19.2225M9.26494 31.6246L6.84586 14.5722M21.5835 19.2225H13.0043M21.5835 19.2225L18.0637 12.3574M21.5835 19.2225L28.6221 21.4375M13.0043 19.2225L6.84586 14.5722M13.0043 19.2225L8.82554 10.3638M13.0043 19.2225L14.5439 9.69964M13.0043 19.2225L18.0637 12.3574M6.84586 14.5722L8.82554 10.3638M8.82554 10.3638L14.5439 9.69964M14.5439 9.69964L18.0637 12.3574M18.0637 12.3574L26.2028 12.1356M18.0637 12.3574L17.1843 5.93458M18.0637 12.3574L28.6221 21.4375M119.247 120.432L106.05 123.311M119.247 120.432L108.909 109.137M119.247 120.432L114.188 101.165M106.05 123.311L94.1718 114.674M106.05 123.311L97.0314 129.512L94.1718 114.674M106.05 123.311L108.909 109.137M94.1718 114.674L108.909 109.137M94.1718 114.674L81.8531 108.252M94.1718 114.674L90.8722 100.501M108.909 109.137L114.188 101.165M108.909 109.137L102.53 96.5142M108.909 109.137L90.8722 100.501M81.8531 108.252L78.7737 99.393M81.8531 108.252L90.8722 100.501M71.2953 93.4132L78.7737 99.393M71.2953 93.4132L62.9364 91.4202M71.2953 93.4132L65.5761 84.1122M78.7737 99.393L90.8722 100.501M114.188 101.165L102.53 96.5142M114.188 101.165L110.009 87.8767M102.53 96.5142L90.8722 100.501M102.53 96.5142L90.6516 85.662M102.53 96.5142L110.009 87.8767M102.53 96.5142L99.6701 81.2327M90.8722 100.501L90.6516 85.662M17.1843 5.93458L26.2028 12.1356M17.1843 5.93458L18.944 0.841064M26.2028 12.1356L18.944 0.841064M26.2028 12.1356L25.5427 0.841064M26.2028 12.1356L31.2618 9.03529M26.2028 12.1356L28.6221 21.4375M18.944 0.841064H25.5427M25.5427 0.841064L31.2618 9.03529M31.2618 9.03529L28.6221 21.4375M31.2618 9.03529L32.8009 20.1087M31.2618 9.03529L37.6404 12.5789M28.6221 21.4375L32.8009 20.1087M28.6221 21.4375L33.2408 29.4103M28.6221 21.4375L25.3221 36.0538M32.8009 20.1087L33.2408 29.4103M32.8009 20.1087L37.6404 12.5789M32.8009 20.1087L41.8199 23.2088M33.2408 29.4103L25.3221 36.0538M33.2408 29.4103L34.3407 42.0335M33.2408 29.4103L41.8199 23.2088M33.2408 29.4103L43.1399 35.3898M25.3221 36.0538L34.3407 42.0335M34.3407 42.0335L35.8807 54.4358M34.3407 42.0335L43.1399 35.3898M34.3407 42.0335L45.9995 45.7986M35.8807 54.4358L41.8199 66.8379M35.8807 54.4358L45.9995 45.7986M35.8807 54.4358L47.5394 55.9857M41.8199 66.8379L44.8996 78.1322M41.8199 66.8379L47.5394 55.9857M41.8199 66.8379L53.6974 66.1732M41.8199 66.8379L47.5384 55.9858L53.6974 66.1732M44.8996 78.1322L52.5985 89.2055M44.8996 78.1322L55.2377 83.4474M44.8996 78.1322L53.6974 66.1732M44.8996 78.1322L57.4373 77.6895M52.5985 89.2055L55.2377 83.4474M52.5985 89.2055L62.9364 91.4202M55.2377 83.4474L57.4373 77.6895M55.2377 83.4474L65.5761 84.1122M55.2377 83.4474L62.9364 91.4202M37.6404 12.5789L41.8199 23.2088M41.8199 23.2088L43.1399 35.3898M43.1399 35.3898L45.9995 45.7986M45.9995 45.7986L47.5394 55.9857M53.6974 66.1732L57.4373 77.6895M57.4373 77.6895L65.5761 84.1122M65.5761 84.1122L62.9364 91.4202M90.6516 85.662L99.6701 81.2327M90.6516 85.662L88.6726 75.0319M110.009 87.8767L99.6701 81.2327M110.009 87.8767L109.789 75.0319M99.6701 81.2327L109.789 75.0319M99.6701 81.2327L107.81 62.1871L109.789 75.0319M99.6701 81.2327L88.6726 75.0319M99.6701 81.2327L96.8113 64.6228M99.6701 81.2327L107.809 62.1871M99.6701 81.2327L96.8104 64.6232M88.6726 75.0319L96.8113 64.6228M88.6726 75.0319L88.2325 63.0728M96.8113 64.6228L88.2325 63.0728M96.8113 64.6228L89.3324 53.3285M96.8113 64.6228L102.529 51.5565M96.8113 64.6228L95.491 48.4561M107.809 62.1871L96.8104 64.6232M107.809 62.1871L102.529 51.5565M96.8104 64.6232L102.529 51.5565M88.2325 63.0728L89.3324 53.3285M89.3324 53.3285L95.491 48.4561M102.529 51.5565L95.491 48.4561M93.9514 212.562L84.493 209.904L89.1122 225.407L93.9514 212.562ZM92.1916 228.95L98.7905 233.158L93.2914 238.252L92.1916 228.95ZM85.3728 228.507L76.7942 233.601L85.8127 241.131L85.3728 228.507ZM98.5704 242.016L95.7109 246.889L92.8514 241.795L98.5704 242.016ZM102.75 230.057L108.249 222.306L111.108 234.93L102.75 230.057ZM121.007 246.003L117.268 241.131L119.688 234.265L121.007 246.003ZM72.1751 234.265L74.1548 237.144L70.6354 239.58L72.1751 234.265ZM66.8958 224.078L71.0751 229.836L65.796 235.815L66.8958 224.078ZM71.0755 248.439L75.9147 240.245L80.5339 249.989L71.0755 248.439ZM86.4731 256.19L89.1126 251.097L91.9721 255.747L86.4731 256.19ZM104.73 248.217L108.029 244.01L110.889 249.325L104.73 248.217ZM113.308 222.085L113.968 228.064L118.587 223.413L113.308 222.085Z" stroke="white"/>
</svg>
