<svg width="20" height="20" viewBox="0 0 20 20" fill="none" xmlns="http://www.w3.org/2000/svg">
<path d="M10.0052 15.5C10.2642 15.5 10.5233 15.3977 10.6995 15.2035L18.7202 7.09509C18.8964 6.92127 19 6.69632 19 6.4407C19 5.909 18.5959 5.5 18.057 5.5C17.7979 5.5 17.5596 5.60225 17.3834 5.76585L10.0052 13.2096L2.61658 5.76585C2.45078 5.60225 2.21244 5.5 1.94301 5.5C1.40415 5.5 1 5.909 1 6.4407C1 6.69632 1.10363 6.92127 1.27979 7.10532L9.30052 15.2035C9.49741 15.3977 9.73575 15.5 10.0052 15.5Z" fill="#070D13"/>
</svg>
