<svg width="30" height="30" viewBox="0 0 30 30" fill="none" xmlns="http://www.w3.org/2000/svg">
<path d="M21.6905 9.84625H17.9877V8.25H5.25V18.9165H7.09025V18.9167C7.09025 20.3692 8.27175 21.5502 9.72375 21.5502C11.1758 21.5502 12.3573 20.3685 12.3573 18.9167V18.9165H16.4877H17.9555V18.9167C17.9555 20.3692 19.137 21.5502 20.5888 21.5502C22.041 21.5502 23.2225 20.3685 23.2225 18.9167V18.9165H24.8213V15.2568L21.6905 9.84625ZM9.72375 20.0502C9.09875 20.0502 8.59025 19.5417 8.59025 18.9167C8.59025 18.2917 9.09875 17.7832 9.72375 17.7832C10.3488 17.7832 10.8573 18.2917 10.8573 18.9167C10.8573 19.5417 10.3488 20.0502 9.72375 20.0502ZM16.4877 17.4165H11.8853C11.409 16.733 10.6183 16.2832 9.72375 16.2832C8.82925 16.2832 8.03825 16.733 7.56225 17.4165H6.75V9.75H16.488V9.84625L16.4877 17.4165ZM20.5888 20.0502C19.9638 20.0502 19.4555 19.5417 19.4555 18.9167C19.4555 18.2917 19.9638 17.7832 20.5888 17.7832C21.2138 17.7832 21.7225 18.2917 21.7225 18.9167C21.7225 19.5417 21.2138 20.0502 20.5888 20.0502ZM23.3213 17.4165H22.7507C22.275 16.733 21.484 16.2832 20.5893 16.2832C19.6943 16.2832 18.9037 16.733 18.4277 17.4165H17.988V11.3462H20.825L23.3213 15.6595V17.4165Z" fill="#1660FE"/>
<path d="M21.6905 9.84625H17.9877V8.25H5.25V18.9165H7.09025V18.9167C7.09025 20.3692 8.27175 21.5502 9.72375 21.5502C11.1758 21.5502 12.3573 20.3685 12.3573 18.9167V18.9165H16.4877H17.9555V18.9167C17.9555 20.3692 19.137 21.5502 20.5888 21.5502C22.041 21.5502 23.2225 20.3685 23.2225 18.9167V18.9165H24.8213V15.2568L21.6905 9.84625ZM9.72375 20.0502C9.09875 20.0502 8.59025 19.5417 8.59025 18.9167C8.59025 18.2917 9.09875 17.7832 9.72375 17.7832C10.3488 17.7832 10.8573 18.2917 10.8573 18.9167C10.8573 19.5417 10.3488 20.0502 9.72375 20.0502ZM16.4877 17.4165H11.8853C11.409 16.733 10.6183 16.2832 9.72375 16.2832C8.82925 16.2832 8.03825 16.733 7.56225 17.4165H6.75V9.75H16.488V9.84625L16.4877 17.4165ZM20.5888 20.0502C19.9638 20.0502 19.4555 19.5417 19.4555 18.9167C19.4555 18.2917 19.9638 17.7832 20.5888 17.7832C21.2138 17.7832 21.7225 18.2917 21.7225 18.9167C21.7225 19.5417 21.2138 20.0502 20.5888 20.0502ZM23.3213 17.4165H22.7507C22.275 16.733 21.484 16.2832 20.5893 16.2832C19.6943 16.2832 18.9037 16.733 18.4277 17.4165H17.988V11.3462H20.825L23.3213 15.6595V17.4165Z" fill="#1660FE"/>
</svg>
