<svg width="20" height="20" viewBox="0 0 20 20" fill="none" xmlns="http://www.w3.org/2000/svg">
<path d="M0 10C0 4.47715 4.47715 0 10 0V0C15.5228 0 20 4.47715 20 10V10C20 15.5228 15.5228 20 10 20V20C4.47715 20 0 15.5228 0 10V10Z" fill="#D5D9DE"/>
<path d="M9.02359 11.18C9.02359 10.828 9.12759 10.492 9.33559 10.172C9.55159 9.852 9.78359 9.596 10.0316 9.404C10.2796 9.204 10.5076 8.972 10.7156 8.708C10.9316 8.444 11.0396 8.18 11.0396 7.916C11.0396 7.636 10.9436 7.42 10.7516 7.268C10.5596 7.116 10.2916 7.04 9.94759 7.04C9.27559 7.04 8.79959 7.396 8.51959 8.108L7.10359 7.292C7.34359 6.7 7.72359 6.244 8.24359 5.924C8.77159 5.596 9.35959 5.432 10.0076 5.432C10.7356 5.432 11.3636 5.644 11.8916 6.068C12.4276 6.484 12.6956 7.06 12.6956 7.796C12.6956 8.132 12.6236 8.444 12.4796 8.732C12.3436 9.02 12.1756 9.268 11.9756 9.476C11.7836 9.676 11.5876 9.868 11.3876 10.052C11.1956 10.228 11.0276 10.412 10.8836 10.604C10.7476 10.796 10.6796 10.988 10.6796 11.18H9.02359ZM10.5716 13.856C10.3716 14.056 10.1316 14.156 9.85159 14.156C9.57159 14.156 9.33159 14.056 9.13159 13.856C8.93159 13.656 8.83159 13.416 8.83159 13.136C8.83159 12.856 8.93159 12.616 9.13159 12.416C9.33159 12.216 9.57159 12.116 9.85159 12.116C10.1316 12.116 10.3716 12.216 10.5716 12.416C10.7716 12.616 10.8716 12.856 10.8716 13.136C10.8716 13.416 10.7716 13.656 10.5716 13.856Z" fill="white"/>
</svg>
