<svg width="540" height="620" viewBox="0 0 540 620" fill="none" xmlns="http://www.w3.org/2000/svg">
<path d="M68.4111 526.087L125.135 507.789L139.774 471.193L196.041 452.437M68.4111 526.087L196.499 95.164L379.481 28.3755M68.4111 526.087L155.698 585.443M379.481 28.3755L330.991 439.171M379.481 28.3755L453.589 95.164L419.737 498.64M330.991 439.171L278.841 456.554L252.308 433.681L196.041 452.437M330.991 439.171L419.737 498.64M419.737 498.64L363.013 520.598L341.055 498.64L219.371 537.981L202.903 576.408L159.902 588.301L155.698 585.443M155.698 585.443L196.041 452.437" stroke="white" stroke-width="5"/>
</svg>
