<svg width="300" height="260" viewBox="0 0 300 260" fill="none" xmlns="http://www.w3.org/2000/svg">
<path d="M71.2012 222.993L95.362 215.199L101.597 199.611L125.563 191.623M71.2012 222.993L125.758 39.4475L203.697 11M71.2012 222.993L108.38 248.274M203.697 11L183.043 185.972M203.697 11L235.262 39.4475L220.843 211.302M183.043 185.972L160.83 193.376L149.529 183.634L125.563 191.623M183.043 185.972L220.843 211.302M220.843 211.302L196.682 220.655L187.33 211.302L135.5 228.059L128.486 244.426L110.17 249.492L108.38 248.274M108.38 248.274L125.563 191.623" stroke="white" stroke-width="5"/>
</svg>
