<svg width="670" height="150" viewBox="0 0 670 150" fill="none" xmlns="http://www.w3.org/2000/svg">
<path fill-rule="evenodd" clip-rule="evenodd" d="M33.868 99H20.3772L0 51.0427H10.7575C13.4939 51.0427 15.9545 52.6885 16.9575 55.174L20.9226 65.342L27.0756 83.0153L33.3226 65.342L37.3316 55.1282C38.2907 52.6427 40.7513 51 43.4845 51H54.2891L33.868 99Z" fill="white"/>
<path fill-rule="evenodd" clip-rule="evenodd" d="M71.1059 64.3668L64.8123 79.5995H77.3525L71.1059 64.3668ZM82.05 90.8805H60.1147L58.5656 94.6978C57.5622 97.1409 55.1444 98.7381 52.4539 98.7381H42.1934L64.1757 51H78.1741L100.109 98.7381H89.7109C87.0204 98.7381 84.6026 97.1409 83.5991 94.6978L82.05 90.8805Z" fill="white"/>
<path fill-rule="evenodd" clip-rule="evenodd" d="M116.535 74.4461H126.484C130.319 74.4461 132.28 71.7375 132.28 68.5861C132.28 65.4317 130.228 62.5887 126.484 62.5887H116.535V74.4461ZM116.535 85.8577V92.3407C116.535 95.8951 113.614 98.7381 109.964 98.7381H102.664V51H126.484C139.674 51 146.202 59.0373 146.202 68.406C146.202 78.1777 139.627 85.7264 126.484 85.8577H116.535Z" fill="white"/>
<path fill-rule="evenodd" clip-rule="evenodd" d="M175.786 98.7381H150.904V51H200.623L195.145 62.3261H164.599V69.1633H192.815L187.795 80.1321H164.599V87.3693H185.192L181.858 94.8752C180.762 97.2266 178.389 98.7381 175.786 98.7381Z" fill="white"/>
<path fill-rule="evenodd" clip-rule="evenodd" d="M217.735 64.3668L211.446 79.5995H223.977L217.735 64.3668ZM228.627 90.8805H206.708L205.157 94.6978C204.158 97.1409 201.742 98.7381 199.053 98.7381H188.801L210.81 51H224.798L246.717 98.7381H236.326C233.637 98.7381 231.222 97.1409 230.219 94.6978L228.627 90.8805Z" fill="#1660FE"/>
<path fill-rule="evenodd" clip-rule="evenodd" d="M217.735 64.3668L211.446 79.5995H223.977L217.735 64.3668ZM228.627 90.8805H206.708L205.157 94.6978C204.158 97.1409 201.742 98.7381 199.053 98.7381H188.801L210.81 51H224.798L246.717 98.7381H236.326C233.637 98.7381 231.222 97.1409 230.219 94.6978L228.627 90.8805Z" fill="#2791F3" fill-opacity="0.35"/>
<path fill-rule="evenodd" clip-rule="evenodd" d="M306.321 51.1309H317.261L294.832 98.7382H283.576L274.915 75.91L266.527 98.7382H255.314L234.754 51.1309H245.377C248.067 51.1309 250.527 52.7251 251.483 55.2094L261.01 78.9247L269.674 52.2404C269.9 51.5759 270.536 51.1309 271.222 51.1309H278.426C279.153 51.1309 279.745 51.5759 279.974 52.2404L288.908 78.9247L300.306 54.8558C301.443 52.594 303.769 51.1309 306.321 51.1309Z" fill="#1660FE"/>
<path fill-rule="evenodd" clip-rule="evenodd" d="M306.321 51.1309H317.261L294.832 98.7382H283.576L274.915 75.91L266.527 98.7382H255.314L234.754 51.1309H245.377C248.067 51.1309 250.527 52.7251 251.483 55.2094L261.01 78.9247L269.674 52.2404C269.9 51.5759 270.536 51.1309 271.222 51.1309H278.426C279.153 51.1309 279.745 51.5759 279.974 52.2404L288.908 78.9247L300.306 54.8558C301.443 52.594 303.769 51.1309 306.321 51.1309Z" fill="#2791F3" fill-opacity="0.35"/>
<path fill-rule="evenodd" clip-rule="evenodd" d="M333.456 64.3668L327.162 79.5995H339.703L333.456 64.3668ZM344.357 90.8805H322.417L320.868 94.6978C319.868 97.1409 317.45 98.7381 314.759 98.7381H304.498L326.478 51H340.478L362.414 98.7381H352.015C349.327 98.7381 346.91 97.1409 345.906 94.6978L344.357 90.8805Z" fill="#1660FE"/>
<path fill-rule="evenodd" clip-rule="evenodd" d="M333.456 64.3668L327.162 79.5995H339.703L333.456 64.3668ZM344.357 90.8805H322.417L320.868 94.6978C319.868 97.1409 317.45 98.7381 314.759 98.7381H304.498L326.478 51H340.478L362.414 98.7381H352.015C349.327 98.7381 346.91 97.1409 345.906 94.6978L344.357 90.8805Z" fill="#2791F3" fill-opacity="0.35"/>
<path fill-rule="evenodd" clip-rule="evenodd" d="M351.664 51.5339V51H365.019L374.271 71.8092L388.949 51H403.668L381.016 82.8102L387.852 98.7381H372.175L351.664 51.5339Z" fill="#1660FE"/>
<path fill-rule="evenodd" clip-rule="evenodd" d="M351.664 51.5339V51H365.019L374.271 71.8092L388.949 51H403.668L381.016 82.8102L387.852 98.7381H372.175L351.664 51.5339Z" fill="#2791F3" fill-opacity="0.35"/>
</svg>
