<svg width="20" height="21" viewBox="0 0 20 21" fill="none" xmlns="http://www.w3.org/2000/svg">
<g clip-path="url(#clip0_846_17389)">
<path d="M10 0.0678711C7.28333 0.0678711 6.94417 0.0803711 5.8775 0.127871C4.8125 0.177871 4.0875 0.345371 3.45 0.592871C2.7925 0.847871 2.23417 1.19037 1.67833 1.7462C1.1225 2.30204 0.779167 2.85954 0.525 3.51787C0.2775 4.15537 0.109167 4.88037 0.06 5.94537C0.01 7.01204 0 7.3512 0 10.0679C0 12.7845 0.0125 13.1237 0.06 14.1904C0.11 15.2545 0.2775 15.9804 0.525 16.6179C0.78 17.2745 1.1225 17.8337 1.67833 18.3895C2.23417 18.9445 2.79167 19.2887 3.45 19.5429C4.08833 19.7895 4.81333 19.9587 5.8775 20.0079C6.94417 20.0579 7.28333 20.0679 10 20.0679C12.7167 20.0679 13.0558 20.0554 14.1225 20.0079C15.1867 19.9579 15.9125 19.7895 16.55 19.5429C17.2067 19.2879 17.7658 18.9445 18.3217 18.3895C18.8767 17.8337 19.2208 17.277 19.475 16.6179C19.7217 15.9804 19.8908 15.2545 19.94 14.1904C19.99 13.1237 20 12.7845 20 10.0679C20 7.3512 19.9875 7.01204 19.94 5.94537C19.89 4.8812 19.7217 4.15454 19.475 3.51787C19.22 2.86037 18.8767 2.30204 18.3217 1.7462C17.7658 1.19037 17.2092 0.847038 16.55 0.592871C15.9125 0.345371 15.1867 0.177038 14.1225 0.127871C13.0558 0.0778711 12.7167 0.0678711 10 0.0678711ZM10 1.86787C12.6692 1.86787 12.9875 1.8812 14.0417 1.92704C15.0167 1.97287 15.5458 2.13454 15.8975 2.27287C16.3658 2.4537 16.6975 2.67037 17.0492 3.01954C17.3983 3.36954 17.615 3.70204 17.7958 4.17037C17.9325 4.52204 18.0958 5.0512 18.14 6.0262C18.1875 7.0812 18.1983 7.39787 18.1983 10.0679C18.1983 12.7379 18.1858 13.0554 18.1367 14.1095C18.0858 15.0845 17.9233 15.6137 17.7858 15.9654C17.5992 16.4337 17.3867 16.7654 17.0367 17.117C16.6875 17.4662 16.35 17.6829 15.8867 17.8637C15.5367 18.0004 14.9992 18.1637 14.0242 18.2079C12.9625 18.2554 12.65 18.2662 9.975 18.2662C7.29917 18.2662 6.98667 18.2537 5.92583 18.2045C4.95 18.1537 4.4125 17.9912 4.0625 17.8537C3.58833 17.667 3.2625 17.4545 2.91333 17.1045C2.5625 16.7554 2.33833 16.4179 2.16333 15.9545C2.02583 15.6045 1.86417 15.067 1.81333 14.092C1.77583 13.042 1.7625 12.7179 1.7625 10.0554C1.7625 7.39204 1.77583 7.06704 1.81333 6.00454C1.86417 5.02954 2.02583 4.49287 2.16333 4.14287C2.33833 3.66787 2.5625 3.34287 2.91333 2.99204C3.2625 2.64287 3.58833 2.41787 4.0625 2.2437C4.4125 2.10537 4.93833 1.94287 5.91333 1.89287C6.97583 1.85537 7.28833 1.84287 9.9625 1.84287L10 1.86787V1.86787ZM10 4.93287C7.1625 4.93287 4.865 7.23287 4.865 10.0679C4.865 12.9054 7.165 15.2029 10 15.2029C12.8375 15.2029 15.135 12.9029 15.135 10.0679C15.135 7.23037 12.835 4.93287 10 4.93287ZM10 13.4012C8.15833 13.4012 6.66667 11.9095 6.66667 10.0679C6.66667 8.2262 8.15833 6.73454 10 6.73454C11.8417 6.73454 13.3333 8.2262 13.3333 10.0679C13.3333 11.9095 11.8417 13.4012 10 13.4012ZM16.5383 4.73037C16.5383 5.39287 16 5.93037 15.3383 5.93037C14.6758 5.93037 14.1383 5.39204 14.1383 4.73037C14.1383 4.0687 14.6767 3.5312 15.3383 3.5312C15.9992 3.53037 16.5383 4.0687 16.5383 4.73037Z" fill="#1660FE"/>
<path d="M10 0.0678711C7.28333 0.0678711 6.94417 0.0803711 5.8775 0.127871C4.8125 0.177871 4.0875 0.345371 3.45 0.592871C2.7925 0.847871 2.23417 1.19037 1.67833 1.7462C1.1225 2.30204 0.779167 2.85954 0.525 3.51787C0.2775 4.15537 0.109167 4.88037 0.06 5.94537C0.01 7.01204 0 7.3512 0 10.0679C0 12.7845 0.0125 13.1237 0.06 14.1904C0.11 15.2545 0.2775 15.9804 0.525 16.6179C0.78 17.2745 1.1225 17.8337 1.67833 18.3895C2.23417 18.9445 2.79167 19.2887 3.45 19.5429C4.08833 19.7895 4.81333 19.9587 5.8775 20.0079C6.94417 20.0579 7.28333 20.0679 10 20.0679C12.7167 20.0679 13.0558 20.0554 14.1225 20.0079C15.1867 19.9579 15.9125 19.7895 16.55 19.5429C17.2067 19.2879 17.7658 18.9445 18.3217 18.3895C18.8767 17.8337 19.2208 17.277 19.475 16.6179C19.7217 15.9804 19.8908 15.2545 19.94 14.1904C19.99 13.1237 20 12.7845 20 10.0679C20 7.3512 19.9875 7.01204 19.94 5.94537C19.89 4.8812 19.7217 4.15454 19.475 3.51787C19.22 2.86037 18.8767 2.30204 18.3217 1.7462C17.7658 1.19037 17.2092 0.847038 16.55 0.592871C15.9125 0.345371 15.1867 0.177038 14.1225 0.127871C13.0558 0.0778711 12.7167 0.0678711 10 0.0678711ZM10 1.86787C12.6692 1.86787 12.9875 1.8812 14.0417 1.92704C15.0167 1.97287 15.5458 2.13454 15.8975 2.27287C16.3658 2.4537 16.6975 2.67037 17.0492 3.01954C17.3983 3.36954 17.615 3.70204 17.7958 4.17037C17.9325 4.52204 18.0958 5.0512 18.14 6.0262C18.1875 7.0812 18.1983 7.39787 18.1983 10.0679C18.1983 12.7379 18.1858 13.0554 18.1367 14.1095C18.0858 15.0845 17.9233 15.6137 17.7858 15.9654C17.5992 16.4337 17.3867 16.7654 17.0367 17.117C16.6875 17.4662 16.35 17.6829 15.8867 17.8637C15.5367 18.0004 14.9992 18.1637 14.0242 18.2079C12.9625 18.2554 12.65 18.2662 9.975 18.2662C7.29917 18.2662 6.98667 18.2537 5.92583 18.2045C4.95 18.1537 4.4125 17.9912 4.0625 17.8537C3.58833 17.667 3.2625 17.4545 2.91333 17.1045C2.5625 16.7554 2.33833 16.4179 2.16333 15.9545C2.02583 15.6045 1.86417 15.067 1.81333 14.092C1.77583 13.042 1.7625 12.7179 1.7625 10.0554C1.7625 7.39204 1.77583 7.06704 1.81333 6.00454C1.86417 5.02954 2.02583 4.49287 2.16333 4.14287C2.33833 3.66787 2.5625 3.34287 2.91333 2.99204C3.2625 2.64287 3.58833 2.41787 4.0625 2.2437C4.4125 2.10537 4.93833 1.94287 5.91333 1.89287C6.97583 1.85537 7.28833 1.84287 9.9625 1.84287L10 1.86787V1.86787ZM10 4.93287C7.1625 4.93287 4.865 7.23287 4.865 10.0679C4.865 12.9054 7.165 15.2029 10 15.2029C12.8375 15.2029 15.135 12.9029 15.135 10.0679C15.135 7.23037 12.835 4.93287 10 4.93287ZM10 13.4012C8.15833 13.4012 6.66667 11.9095 6.66667 10.0679C6.66667 8.2262 8.15833 6.73454 10 6.73454C11.8417 6.73454 13.3333 8.2262 13.3333 10.0679C13.3333 11.9095 11.8417 13.4012 10 13.4012ZM16.5383 4.73037C16.5383 5.39287 16 5.93037 15.3383 5.93037C14.6758 5.93037 14.1383 5.39204 14.1383 4.73037C14.1383 4.0687 14.6767 3.5312 15.3383 3.5312C15.9992 3.53037 16.5383 4.0687 16.5383 4.73037Z" fill="#2791F3" fill-opacity="0.35"/>
</g>
<defs>
<clipPath id="clip0_846_17389">
<rect width="20" height="20" fill="white" transform="translate(0 0.0678711)"/>
</clipPath>
</defs>
</svg>
