<svg width="1640" height="1000" viewBox="0 0 1640 1000" fill="none" xmlns="http://www.w3.org/2000/svg">
<g opacity="0.8">
<path d="M565.717 305.661H627.584L723.444 385.935" stroke="white" stroke-dasharray="1 6"/>
<path d="M517.429 413.885H588.25L700.714 481.234" stroke="white" stroke-dasharray="1 6"/>
<path d="M517.429 634.995H575.151L671.128 598.063" stroke="white" stroke-dasharray="1 6"/>
<path d="M499.185 524.995H565.296L676.438 552.545" stroke="white" stroke-dasharray="1 6"/>
<path d="M527.86 746.761H592.178L641.451 702.87" stroke="white" stroke-dasharray="1 6"/>
<path d="M1099.8 305.661H1047.14L982.03 351.429" stroke="white" stroke-dasharray="1 6"/>
<path d="M1116.73 413.885H1049.95L972.213 453.823" stroke="white" stroke-dasharray="1 6"/>
<path d="M1125.7 643.995H1056.93L964.239 599.967" stroke="white" stroke-dasharray="1 6"/>
<path d="M1143.64 524.995L976.2 524.995" stroke="white" stroke-dasharray="1 6"/>
<path d="M1088.55 761.761H1037.07L955.221 692.693" stroke="white" stroke-dasharray="1 6"/>
</g>
<path d="M229.424 311.655C227.318 311.655 225.578 310.955 224.204 309.555C222.831 308.155 222.144 306.429 222.144 304.375C222.144 302.309 222.831 300.582 224.204 299.195C225.578 297.795 227.318 297.095 229.424 297.095C230.691 297.095 231.858 297.395 232.924 297.995C234.004 298.582 234.844 299.382 235.444 300.395L233.064 301.775C232.718 301.149 232.224 300.662 231.584 300.315C230.944 299.955 230.224 299.775 229.424 299.775C228.064 299.775 226.964 300.202 226.124 301.055C225.298 301.909 224.884 303.015 224.884 304.375C224.884 305.722 225.298 306.822 226.124 307.675C226.964 308.529 228.064 308.955 229.424 308.955C230.224 308.955 230.944 308.782 231.584 308.435C232.238 308.075 232.731 307.589 233.064 306.975L235.444 308.355C234.844 309.369 234.011 310.175 232.944 310.775C231.878 311.362 230.704 311.655 229.424 311.655ZM248.081 311.375L247.241 308.855H241.661L240.821 311.375H237.841L242.741 297.375H246.161L251.081 311.375H248.081ZM242.541 306.275H246.381L244.461 300.555L242.541 306.275ZM259.661 297.375C261.007 297.375 262.141 297.829 263.061 298.735C263.981 299.642 264.441 300.755 264.441 302.075C264.441 303.395 263.981 304.509 263.061 305.415C262.141 306.322 261.007 306.775 259.661 306.775H257.201V311.375H254.441V297.375H259.661ZM259.661 304.195C260.247 304.195 260.734 303.995 261.121 303.595C261.507 303.182 261.701 302.675 261.701 302.075C261.701 301.462 261.507 300.955 261.121 300.555C260.734 300.155 260.247 299.955 259.661 299.955H257.201V304.195H259.661ZM277.244 297.375V300.015H273.464V311.375H270.704V300.015H266.944V297.375H277.244ZM286.004 311.655C284.444 311.655 283.164 311.215 282.164 310.335C281.164 309.455 280.664 308.275 280.664 306.795V297.375H283.404V306.575C283.404 307.309 283.611 307.889 284.024 308.315C284.451 308.742 285.111 308.955 286.004 308.955C286.898 308.955 287.551 308.742 287.964 308.315C288.391 307.889 288.604 307.309 288.604 306.575V297.375H291.364V306.795C291.364 308.275 290.864 309.455 289.864 310.335C288.864 311.215 287.578 311.655 286.004 311.655ZM303.531 311.375L300.711 306.515H298.611V311.375H295.851V297.375H301.451C302.744 297.375 303.844 297.829 304.751 298.735C305.657 299.642 306.111 300.735 306.111 302.015C306.111 302.882 305.864 303.689 305.371 304.435C304.877 305.169 304.224 305.722 303.411 306.095L306.511 311.375H303.531ZM298.611 299.955V304.095H301.451C301.971 304.095 302.417 303.895 302.791 303.495C303.164 303.082 303.351 302.589 303.351 302.015C303.351 301.442 303.164 300.955 302.791 300.555C302.417 300.155 301.971 299.955 301.451 299.955H298.611ZM312.896 308.735H318.796V311.375H310.136V297.375H318.696V300.015H312.896V302.995H318.196V305.595H312.896V308.735ZM327.521 311.655C326.135 311.655 324.968 311.349 324.021 310.735C323.075 310.109 322.408 309.262 322.021 308.195L324.381 306.815C324.928 308.242 326.001 308.955 327.601 308.955C328.375 308.955 328.941 308.815 329.301 308.535C329.661 308.255 329.841 307.902 329.841 307.475C329.841 306.982 329.621 306.602 329.181 306.335C328.741 306.055 327.955 305.755 326.821 305.435C326.195 305.249 325.661 305.062 325.221 304.875C324.795 304.689 324.361 304.442 323.921 304.135C323.495 303.815 323.168 303.415 322.941 302.935C322.715 302.455 322.601 301.895 322.601 301.255C322.601 299.989 323.048 298.982 323.941 298.235C324.848 297.475 325.935 297.095 327.201 297.095C328.335 297.095 329.328 297.375 330.181 297.935C331.048 298.482 331.721 299.249 332.201 300.235L329.881 301.575C329.321 300.375 328.428 299.775 327.201 299.775C326.628 299.775 326.175 299.909 325.841 300.175C325.521 300.429 325.361 300.762 325.361 301.175C325.361 301.615 325.541 301.975 325.901 302.255C326.275 302.522 326.981 302.815 328.021 303.135C328.448 303.269 328.768 303.375 328.981 303.455C329.208 303.522 329.508 303.635 329.881 303.795C330.268 303.942 330.561 304.082 330.761 304.215C330.975 304.349 331.215 304.529 331.481 304.755C331.748 304.982 331.948 305.215 332.081 305.455C332.228 305.695 332.348 305.989 332.441 306.335C332.548 306.669 332.601 307.035 332.601 307.435C332.601 308.729 332.128 309.755 331.181 310.515C330.248 311.275 329.028 311.655 327.521 311.655ZM351.362 297.375H354.102V311.375H351.362V305.575H346.162V311.375H343.402V297.375H346.162V302.935H351.362V297.375ZM367.702 311.375L366.862 308.855H361.282L360.442 311.375H357.462L362.362 297.375H365.782L370.702 311.375H367.702ZM362.162 306.275H366.002L364.082 300.555L362.162 306.275ZM381.742 311.375L378.922 306.515H376.822V311.375H374.062V297.375H379.662C380.955 297.375 382.055 297.829 382.962 298.735C383.868 299.642 384.322 300.735 384.322 302.015C384.322 302.882 384.075 303.689 383.582 304.435C383.088 305.169 382.435 305.722 381.622 306.095L384.722 311.375H381.742ZM376.822 299.955V304.095H379.662C380.182 304.095 380.628 303.895 381.002 303.495C381.375 303.082 381.562 302.589 381.562 302.015C381.562 301.442 381.375 300.955 381.002 300.555C380.628 300.155 380.182 299.955 379.662 299.955H376.822ZM402.047 297.375V311.375H399.307V302.295L395.367 308.795H395.047L391.107 302.315V311.375H388.347V297.375H391.187L395.207 303.995L399.207 297.375H402.047ZM415.015 300.015H409.415V303.335H414.855V305.975H409.415V311.375H406.655V297.375H415.015V300.015ZM424.247 311.655C422.687 311.655 421.407 311.215 420.407 310.335C419.407 309.455 418.907 308.275 418.907 306.795V297.375H421.647V306.575C421.647 307.309 421.853 307.889 422.267 308.315C422.693 308.742 423.353 308.955 424.247 308.955C425.14 308.955 425.793 308.742 426.207 308.315C426.633 307.889 426.847 307.309 426.847 306.575V297.375H429.607V306.795C429.607 308.275 429.107 309.455 428.107 310.335C427.107 311.215 425.82 311.655 424.247 311.655ZM436.853 308.735H442.193V311.375H434.093V297.375H436.853V308.735ZM462.021 297.375V300.015H458.241V311.375H455.481V300.015H451.721V297.375H462.021ZM476.541 309.555C475.128 310.955 473.408 311.655 471.381 311.655C469.354 311.655 467.634 310.955 466.221 309.555C464.821 308.142 464.121 306.415 464.121 304.375C464.121 302.335 464.821 300.615 466.221 299.215C467.634 297.802 469.354 297.095 471.381 297.095C473.408 297.095 475.128 297.802 476.541 299.215C477.954 300.615 478.661 302.335 478.661 304.375C478.661 306.415 477.954 308.142 476.541 309.555ZM468.161 307.675C469.028 308.529 470.101 308.955 471.381 308.955C472.661 308.955 473.734 308.529 474.601 307.675C475.468 306.809 475.901 305.709 475.901 304.375C475.901 303.042 475.468 301.942 474.601 301.075C473.734 300.209 472.661 299.775 471.381 299.775C470.101 299.775 469.028 300.209 468.161 301.075C467.294 301.942 466.861 303.042 466.861 304.375C466.861 305.709 467.294 306.809 468.161 307.675ZM492.499 311.375H489.359L486.639 306.815L483.919 311.375H480.799L485.079 304.195L481.019 297.375H484.139L486.639 301.575L489.139 297.375H492.259L488.199 304.175L492.499 311.375ZM496.046 297.375H498.806V311.375H496.046V297.375ZM511.498 297.375H514.258V311.375H512.158L506.158 302.815V311.375H503.398V297.375H505.498L511.498 305.915V297.375ZM523.42 311.655C522.033 311.655 520.867 311.349 519.92 310.735C518.973 310.109 518.307 309.262 517.92 308.195L520.28 306.815C520.827 308.242 521.9 308.955 523.5 308.955C524.273 308.955 524.84 308.815 525.2 308.535C525.56 308.255 525.74 307.902 525.74 307.475C525.74 306.982 525.52 306.602 525.08 306.335C524.64 306.055 523.853 305.755 522.72 305.435C522.093 305.249 521.56 305.062 521.12 304.875C520.693 304.689 520.26 304.442 519.82 304.135C519.393 303.815 519.067 303.415 518.84 302.935C518.613 302.455 518.5 301.895 518.5 301.255C518.5 299.989 518.947 298.982 519.84 298.235C520.747 297.475 521.833 297.095 523.1 297.095C524.233 297.095 525.227 297.375 526.08 297.935C526.947 298.482 527.62 299.249 528.1 300.235L525.78 301.575C525.22 300.375 524.327 299.775 523.1 299.775C522.527 299.775 522.073 299.909 521.74 300.175C521.42 300.429 521.26 300.762 521.26 301.175C521.26 301.615 521.44 301.975 521.8 302.255C522.173 302.522 522.88 302.815 523.92 303.135C524.347 303.269 524.667 303.375 524.88 303.455C525.107 303.522 525.407 303.635 525.78 303.795C526.167 303.942 526.46 304.082 526.66 304.215C526.873 304.349 527.113 304.529 527.38 304.755C527.647 304.982 527.847 305.215 527.98 305.455C528.127 305.695 528.247 305.989 528.34 306.335C528.447 306.669 528.5 307.035 528.5 307.435C528.5 308.729 528.027 309.755 527.08 310.515C526.147 311.275 524.927 311.655 523.42 311.655Z" fill="white"/>
<circle opacity="0.15" cx="569" cy="304.375" r="20" fill="white"/>
<circle cx="569" cy="304.375" r="9" fill="white"/>
<path d="M128.646 407.375H131.406V421.375H129.306L123.306 412.815V421.375H120.546V407.375H122.646L128.646 415.915V407.375ZM147.783 419.555C146.37 420.955 144.65 421.655 142.623 421.655C140.596 421.655 138.876 420.955 137.463 419.555C136.063 418.142 135.363 416.415 135.363 414.375C135.363 412.335 136.063 410.615 137.463 409.215C138.876 407.802 140.596 407.095 142.623 407.095C144.65 407.095 146.37 407.802 147.783 409.215C149.196 410.615 149.903 412.335 149.903 414.375C149.903 416.415 149.196 418.142 147.783 419.555ZM139.403 417.675C140.27 418.529 141.343 418.955 142.623 418.955C143.903 418.955 144.976 418.529 145.843 417.675C146.71 416.809 147.143 415.709 147.143 414.375C147.143 413.042 146.71 411.942 145.843 411.075C144.976 410.209 143.903 409.775 142.623 409.775C141.343 409.775 140.27 410.209 139.403 411.075C138.536 411.942 138.103 413.042 138.103 414.375C138.103 415.709 138.536 416.809 139.403 417.675ZM161.943 407.375H164.703V421.375H162.603L156.603 412.815V421.375H153.843V407.375H155.943L161.943 415.915V407.375ZM169.3 416.575V414.095H176.8V416.575H169.3ZM189.642 407.375V410.015H185.862V421.375H183.102V410.015H179.342V407.375H189.642ZM204.162 419.555C202.749 420.955 201.029 421.655 199.002 421.655C196.975 421.655 195.255 420.955 193.842 419.555C192.442 418.142 191.742 416.415 191.742 414.375C191.742 412.335 192.442 410.615 193.842 409.215C195.255 407.802 196.975 407.095 199.002 407.095C201.029 407.095 202.749 407.802 204.162 409.215C205.575 410.615 206.282 412.335 206.282 414.375C206.282 416.415 205.575 418.142 204.162 419.555ZM195.782 417.675C196.649 418.529 197.722 418.955 199.002 418.955C200.282 418.955 201.355 418.529 202.222 417.675C203.089 416.809 203.522 415.709 203.522 414.375C203.522 413.042 203.089 411.942 202.222 411.075C201.355 410.209 200.282 409.775 199.002 409.775C197.722 409.775 196.649 410.209 195.782 411.075C194.915 411.942 194.482 413.042 194.482 414.375C194.482 415.709 194.915 416.809 195.782 417.675ZM220.12 421.375H216.98L214.26 416.815L211.54 421.375H208.42L212.7 414.195L208.64 407.375H211.76L214.26 411.575L216.76 407.375H219.88L215.82 414.175L220.12 421.375ZM223.667 407.375H226.427V421.375H223.667V407.375ZM237.659 421.655C235.552 421.655 233.812 420.955 232.439 419.555C231.065 418.155 230.379 416.429 230.379 414.375C230.379 412.309 231.065 410.582 232.439 409.195C233.812 407.795 235.552 407.095 237.659 407.095C238.925 407.095 240.092 407.395 241.159 407.995C242.239 408.582 243.079 409.382 243.679 410.395L241.299 411.775C240.952 411.149 240.459 410.662 239.819 410.315C239.179 409.955 238.459 409.775 237.659 409.775C236.299 409.775 235.199 410.202 234.359 411.055C233.532 411.909 233.119 413.015 233.119 414.375C233.119 415.722 233.532 416.822 234.359 417.675C235.199 418.529 236.299 418.955 237.659 418.955C238.459 418.955 239.179 418.782 239.819 418.435C240.472 418.075 240.965 417.589 241.299 416.975L243.679 418.355C243.079 419.369 242.245 420.175 241.179 420.775C240.112 421.362 238.939 421.655 237.659 421.655ZM255.03 423.375H253.89L261.89 405.375H263.03L255.03 423.375ZM282.359 410.015H276.759V413.335H282.199V415.975H276.759V421.375H273.999V407.375H282.359V410.015ZM298.15 419.555C296.737 420.955 295.017 421.655 292.99 421.655C290.964 421.655 289.244 420.955 287.83 419.555C286.43 418.142 285.73 416.415 285.73 414.375C285.73 412.335 286.43 410.615 287.83 409.215C289.244 407.802 290.964 407.095 292.99 407.095C295.017 407.095 296.737 407.802 298.15 409.215C299.564 410.615 300.27 412.335 300.27 414.375C300.27 416.415 299.564 418.142 298.15 419.555ZM289.77 417.675C290.637 418.529 291.71 418.955 292.99 418.955C294.27 418.955 295.344 418.529 296.21 417.675C297.077 416.809 297.51 415.709 297.51 414.375C297.51 413.042 297.077 411.942 296.21 411.075C295.344 410.209 294.27 409.775 292.99 409.775C291.71 409.775 290.637 410.209 289.77 411.075C288.904 411.942 288.47 413.042 288.47 414.375C288.47 415.709 288.904 416.809 289.77 417.675ZM315.99 419.555C314.577 420.955 312.857 421.655 310.83 421.655C308.803 421.655 307.083 420.955 305.67 419.555C304.27 418.142 303.57 416.415 303.57 414.375C303.57 412.335 304.27 410.615 305.67 409.215C307.083 407.802 308.803 407.095 310.83 407.095C312.857 407.095 314.577 407.802 315.99 409.215C317.403 410.615 318.11 412.335 318.11 414.375C318.11 416.415 317.403 418.142 315.99 419.555ZM307.61 417.675C308.477 418.529 309.55 418.955 310.83 418.955C312.11 418.955 313.183 418.529 314.05 417.675C314.917 416.809 315.35 415.709 315.35 414.375C315.35 413.042 314.917 411.942 314.05 411.075C313.183 410.209 312.11 409.775 310.83 409.775C309.55 409.775 308.477 410.209 307.61 411.075C306.743 411.942 306.31 413.042 306.31 414.375C306.31 415.709 306.743 416.809 307.61 417.675ZM327.61 407.375C329.53 407.375 331.13 408.049 332.41 409.395C333.703 410.742 334.35 412.402 334.35 414.375C334.35 416.349 333.703 418.009 332.41 419.355C331.13 420.702 329.53 421.375 327.61 421.375H322.05V407.375H327.61ZM327.61 418.735C328.823 418.735 329.81 418.335 330.57 417.535C331.33 416.722 331.71 415.669 331.71 414.375C331.71 413.082 331.33 412.035 330.57 411.235C329.81 410.422 328.823 410.015 327.61 410.015H324.81V418.735H327.61ZM359.048 413.855V414.935C359.048 416.935 358.408 418.555 357.128 419.795C355.848 421.035 354.194 421.655 352.168 421.655C350.008 421.655 348.214 420.955 346.788 419.555C345.374 418.142 344.668 416.422 344.668 414.395C344.668 412.355 345.368 410.629 346.768 409.215C348.181 407.802 349.928 407.095 352.008 407.095C353.314 407.095 354.508 407.395 355.588 407.995C356.668 408.582 357.508 409.369 358.108 410.355L355.748 411.715C355.414 411.142 354.908 410.675 354.228 410.315C353.561 409.955 352.814 409.775 351.988 409.775C350.654 409.775 349.554 410.215 348.688 411.095C347.834 411.962 347.408 413.062 347.408 414.395C347.408 415.715 347.841 416.809 348.708 417.675C349.588 418.529 350.748 418.955 352.188 418.955C353.254 418.955 354.134 418.722 354.828 418.255C355.534 417.775 356.014 417.122 356.268 416.295H352.028V413.855H359.048ZM370.691 421.375L367.871 416.515H365.771V421.375H363.011V407.375H368.611C369.904 407.375 371.004 407.829 371.911 408.735C372.818 409.642 373.271 410.735 373.271 412.015C373.271 412.882 373.024 413.689 372.531 414.435C372.038 415.169 371.384 415.722 370.571 416.095L373.671 421.375H370.691ZM365.771 409.955V414.095H368.611C369.131 414.095 369.578 413.895 369.951 413.495C370.324 413.082 370.511 412.589 370.511 412.015C370.511 411.442 370.324 410.955 369.951 410.555C369.578 410.155 369.131 409.955 368.611 409.955H365.771ZM386.296 421.375L385.456 418.855H379.876L379.036 421.375H376.056L380.956 407.375H384.376L389.296 421.375H386.296ZM380.756 416.275H384.596L382.676 410.555L380.756 416.275ZM398.215 407.375C400.135 407.375 401.735 408.049 403.015 409.395C404.309 410.742 404.955 412.402 404.955 414.375C404.955 416.349 404.309 418.009 403.015 419.355C401.735 420.702 400.135 421.375 398.215 421.375H392.655V407.375H398.215ZM398.215 418.735C399.429 418.735 400.415 418.335 401.175 417.535C401.935 416.722 402.315 415.669 402.315 414.375C402.315 413.082 401.935 412.035 401.175 411.235C400.415 410.422 399.429 410.015 398.215 410.015H395.415V418.735H398.215ZM411.673 418.735H417.573V421.375H408.913V407.375H417.473V410.015H411.673V412.995H416.973V415.595H411.673V418.735ZM433.299 421.655C431.912 421.655 430.745 421.349 429.799 420.735C428.852 420.109 428.185 419.262 427.799 418.195L430.159 416.815C430.705 418.242 431.779 418.955 433.379 418.955C434.152 418.955 434.719 418.815 435.079 418.535C435.439 418.255 435.619 417.902 435.619 417.475C435.619 416.982 435.399 416.602 434.959 416.335C434.519 416.055 433.732 415.755 432.599 415.435C431.972 415.249 431.439 415.062 430.999 414.875C430.572 414.689 430.139 414.442 429.699 414.135C429.272 413.815 428.945 413.415 428.719 412.935C428.492 412.455 428.379 411.895 428.379 411.255C428.379 409.989 428.825 408.982 429.719 408.235C430.625 407.475 431.712 407.095 432.979 407.095C434.112 407.095 435.105 407.375 435.959 407.935C436.825 408.482 437.499 409.249 437.979 410.235L435.659 411.575C435.099 410.375 434.205 409.775 432.979 409.775C432.405 409.775 431.952 409.909 431.619 410.175C431.299 410.429 431.139 410.762 431.139 411.175C431.139 411.615 431.319 411.975 431.679 412.255C432.052 412.522 432.759 412.815 433.799 413.135C434.225 413.269 434.545 413.375 434.759 413.455C434.985 413.522 435.285 413.635 435.659 413.795C436.045 413.942 436.339 414.082 436.539 414.215C436.752 414.349 436.992 414.529 437.259 414.755C437.525 414.982 437.725 415.215 437.859 415.455C438.005 415.695 438.125 415.989 438.219 416.335C438.325 416.669 438.379 417.035 438.379 417.435C438.379 418.729 437.905 419.755 436.959 420.515C436.025 421.275 434.805 421.655 433.299 421.655ZM450.964 421.375L450.124 418.855H444.544L443.704 421.375H440.724L445.624 407.375H449.044L453.964 421.375H450.964ZM445.424 416.275H449.264L447.344 410.555L445.424 416.275ZM465.683 410.015H460.083V413.335H465.523V415.975H460.083V421.375H457.323V407.375H465.683V410.015ZM472.455 418.735H478.355V421.375H469.695V407.375H478.255V410.015H472.455V412.995H477.755V415.595H472.455V418.735Z" fill="white"/>
<circle opacity="0.15" cx="519" cy="414.375" r="20" fill="white"/>
<circle cx="519" cy="414.375" r="9" fill="white"/>
<path d="M93.6248 520.015H88.0248V523.335H93.4648V525.975H88.0248V531.375H85.2648V517.375H93.6248V520.015ZM105.316 531.375L102.496 526.515H100.396V531.375H97.6359V517.375H103.236C104.529 517.375 105.629 517.829 106.536 518.735C107.443 519.642 107.896 520.735 107.896 522.015C107.896 522.882 107.649 523.689 107.156 524.435C106.663 525.169 106.009 525.722 105.196 526.095L108.296 531.375H105.316ZM100.396 519.955V524.095H103.236C103.756 524.095 104.203 523.895 104.576 523.495C104.949 523.082 105.136 522.589 105.136 522.015C105.136 521.442 104.949 520.955 104.576 520.555C104.203 520.155 103.756 519.955 103.236 519.955H100.396ZM114.681 528.735H120.581V531.375H111.921V517.375H120.481V520.015H114.681V522.995H119.981V525.595H114.681V528.735ZM127.287 528.735H133.187V531.375H124.527V517.375H133.087V520.015H127.287V522.995H132.587V525.595H127.287V528.735ZM140.072 528.735H146.012V531.375H136.552V529.175L142.372 520.015H136.692V517.375H145.892V519.555L140.072 528.735ZM152.595 528.735H158.495V531.375H149.835V517.375H158.395V520.015H152.595V522.995H157.895V525.595H152.595V528.735ZM167.221 531.655C165.834 531.655 164.667 531.349 163.721 530.735C162.774 530.109 162.107 529.262 161.721 528.195L164.081 526.815C164.627 528.242 165.701 528.955 167.301 528.955C168.074 528.955 168.641 528.815 169.001 528.535C169.361 528.255 169.541 527.902 169.541 527.475C169.541 526.982 169.321 526.602 168.881 526.335C168.441 526.055 167.654 525.755 166.521 525.435C165.894 525.249 165.361 525.062 164.921 524.875C164.494 524.689 164.061 524.442 163.621 524.135C163.194 523.815 162.867 523.415 162.641 522.935C162.414 522.455 162.301 521.895 162.301 521.255C162.301 519.989 162.747 518.982 163.641 518.235C164.547 517.475 165.634 517.095 166.901 517.095C168.034 517.095 169.027 517.375 169.881 517.935C170.747 518.482 171.421 519.249 171.901 520.235L169.581 521.575C169.021 520.375 168.127 519.775 166.901 519.775C166.327 519.775 165.874 519.909 165.541 520.175C165.221 520.429 165.061 520.762 165.061 521.175C165.061 521.615 165.241 521.975 165.601 522.255C165.974 522.522 166.681 522.815 167.721 523.135C168.147 523.269 168.467 523.375 168.681 523.455C168.907 523.522 169.207 523.635 169.581 523.795C169.967 523.942 170.261 524.082 170.461 524.215C170.674 524.349 170.914 524.529 171.181 524.755C171.447 524.982 171.647 525.215 171.781 525.455C171.927 525.695 172.047 525.989 172.141 526.335C172.247 526.669 172.301 527.035 172.301 527.435C172.301 528.729 171.827 529.755 170.881 530.515C169.947 531.275 168.727 531.655 167.221 531.655ZM189.741 531.655C187.634 531.655 185.894 530.955 184.521 529.555C183.147 528.155 182.461 526.429 182.461 524.375C182.461 522.309 183.147 520.582 184.521 519.195C185.894 517.795 187.634 517.095 189.741 517.095C191.007 517.095 192.174 517.395 193.241 517.995C194.321 518.582 195.161 519.382 195.761 520.395L193.381 521.775C193.034 521.149 192.541 520.662 191.901 520.315C191.261 519.955 190.541 519.775 189.741 519.775C188.381 519.775 187.281 520.202 186.441 521.055C185.614 521.909 185.201 523.015 185.201 524.375C185.201 525.722 185.614 526.822 186.441 527.675C187.281 528.529 188.381 528.955 189.741 528.955C190.541 528.955 191.261 528.782 191.901 528.435C192.554 528.075 193.047 527.589 193.381 526.975L195.761 528.355C195.161 529.369 194.327 530.175 193.261 530.775C192.194 531.362 191.021 531.655 189.741 531.655ZM207.416 517.375H210.156V531.375H207.416V525.575H202.216V531.375H199.456V517.375H202.216V522.935H207.416V517.375ZM217.517 528.735H223.417V531.375H214.757V517.375H223.317V520.015H217.517V522.995H222.817V525.595H217.517V528.735ZM241.063 517.375V531.375H238.323V522.295L234.383 528.795H234.063L230.123 522.315V531.375H227.363V517.375H230.203L234.223 523.995L238.223 517.375H241.063ZM245.671 517.375H248.431V531.375H245.671V517.375ZM259.663 531.655C257.556 531.655 255.816 530.955 254.443 529.555C253.069 528.155 252.383 526.429 252.383 524.375C252.383 522.309 253.069 520.582 254.443 519.195C255.816 517.795 257.556 517.095 259.663 517.095C260.929 517.095 262.096 517.395 263.163 517.995C264.243 518.582 265.083 519.382 265.683 520.395L263.303 521.775C262.956 521.149 262.463 520.662 261.823 520.315C261.183 519.955 260.463 519.775 259.663 519.775C258.303 519.775 257.203 520.202 256.363 521.055C255.536 521.909 255.123 523.015 255.123 524.375C255.123 525.722 255.536 526.822 256.363 527.675C257.203 528.529 258.303 528.955 259.663 528.955C260.463 528.955 261.183 528.782 261.823 528.435C262.476 528.075 262.969 527.589 263.303 526.975L265.683 528.355C265.083 529.369 264.249 530.175 263.183 530.775C262.116 531.362 260.943 531.655 259.663 531.655ZM278.32 531.375L277.48 528.855H271.9L271.06 531.375H268.08L272.98 517.375H276.4L281.32 531.375H278.32ZM272.78 526.275H276.62L274.7 520.555L272.78 526.275ZM287.439 528.735H292.779V531.375H284.679V517.375H287.439V528.735ZM300.873 531.655C299.486 531.655 298.32 531.349 297.373 530.735C296.426 530.109 295.76 529.262 295.373 528.195L297.733 526.815C298.28 528.242 299.353 528.955 300.953 528.955C301.726 528.955 302.293 528.815 302.653 528.535C303.013 528.255 303.193 527.902 303.193 527.475C303.193 526.982 302.973 526.602 302.533 526.335C302.093 526.055 301.306 525.755 300.173 525.435C299.546 525.249 299.013 525.062 298.573 524.875C298.146 524.689 297.713 524.442 297.273 524.135C296.846 523.815 296.52 523.415 296.293 522.935C296.066 522.455 295.953 521.895 295.953 521.255C295.953 519.989 296.4 518.982 297.293 518.235C298.2 517.475 299.286 517.095 300.553 517.095C301.686 517.095 302.68 517.375 303.533 517.935C304.4 518.482 305.073 519.249 305.553 520.235L303.233 521.575C302.673 520.375 301.78 519.775 300.553 519.775C299.98 519.775 299.526 519.909 299.193 520.175C298.873 520.429 298.713 520.762 298.713 521.175C298.713 521.615 298.893 521.975 299.253 522.255C299.626 522.522 300.333 522.815 301.373 523.135C301.8 523.269 302.12 523.375 302.333 523.455C302.56 523.522 302.86 523.635 303.233 523.795C303.62 523.942 303.913 524.082 304.113 524.215C304.326 524.349 304.566 524.529 304.833 524.755C305.1 524.982 305.3 525.215 305.433 525.455C305.58 525.695 305.7 525.989 305.793 526.335C305.9 526.669 305.953 527.035 305.953 527.435C305.953 528.729 305.48 529.755 304.533 530.515C303.6 531.275 302.38 531.655 300.873 531.655ZM328.533 529.555C327.12 530.955 325.4 531.655 323.373 531.655C321.346 531.655 319.626 530.955 318.213 529.555C316.813 528.142 316.113 526.415 316.113 524.375C316.113 522.335 316.813 520.615 318.213 519.215C319.626 517.802 321.346 517.095 323.373 517.095C325.4 517.095 327.12 517.802 328.533 519.215C329.946 520.615 330.653 522.335 330.653 524.375C330.653 526.415 329.946 528.142 328.533 529.555ZM320.153 527.675C321.02 528.529 322.093 528.955 323.373 528.955C324.653 528.955 325.726 528.529 326.593 527.675C327.46 526.809 327.893 525.709 327.893 524.375C327.893 523.042 327.46 521.942 326.593 521.075C325.726 520.209 324.653 519.775 323.373 519.775C322.093 519.775 321.02 520.209 320.153 521.075C319.286 521.942 318.853 523.042 318.853 524.375C318.853 525.709 319.286 526.809 320.153 527.675ZM342.693 517.375H345.453V531.375H343.353L337.353 522.815V531.375H334.593V517.375H336.693L342.693 525.915V517.375ZM363.69 531.655C361.583 531.655 359.843 530.955 358.47 529.555C357.097 528.155 356.41 526.429 356.41 524.375C356.41 522.309 357.097 520.582 358.47 519.195C359.843 517.795 361.583 517.095 363.69 517.095C364.957 517.095 366.123 517.395 367.19 517.995C368.27 518.582 369.11 519.382 369.71 520.395L367.33 521.775C366.983 521.149 366.49 520.662 365.85 520.315C365.21 519.955 364.49 519.775 363.69 519.775C362.33 519.775 361.23 520.202 360.39 521.055C359.563 521.909 359.15 523.015 359.15 524.375C359.15 525.722 359.563 526.822 360.39 527.675C361.23 528.529 362.33 528.955 363.69 528.955C364.49 528.955 365.21 528.782 365.85 528.435C366.503 528.075 366.997 527.589 367.33 526.975L369.71 528.355C369.11 529.369 368.277 530.175 367.21 530.775C366.143 531.362 364.97 531.655 363.69 531.655ZM385.049 529.555C383.635 530.955 381.915 531.655 379.889 531.655C377.862 531.655 376.142 530.955 374.729 529.555C373.329 528.142 372.629 526.415 372.629 524.375C372.629 522.335 373.329 520.615 374.729 519.215C376.142 517.802 377.862 517.095 379.889 517.095C381.915 517.095 383.635 517.802 385.049 519.215C386.462 520.615 387.169 522.335 387.169 524.375C387.169 526.415 386.462 528.142 385.049 529.555ZM376.669 527.675C377.535 528.529 378.609 528.955 379.889 528.955C381.169 528.955 382.242 528.529 383.109 527.675C383.975 526.809 384.409 525.709 384.409 524.375C384.409 523.042 383.975 521.942 383.109 521.075C382.242 520.209 381.169 519.775 379.889 519.775C378.609 519.775 377.535 520.209 376.669 521.075C375.802 521.942 375.369 523.042 375.369 524.375C375.369 525.709 375.802 526.809 376.669 527.675ZM399.209 517.375H401.969V531.375H399.869L393.869 522.815V531.375H391.109V517.375H393.209L399.209 525.915V517.375ZM415.826 517.375V520.015H412.046V531.375H409.286V520.015H405.526V517.375H415.826ZM427.351 531.375L426.511 528.855H420.931L420.091 531.375H417.111L422.011 517.375H425.431L430.351 531.375H427.351ZM421.811 526.275H425.651L423.731 520.555L421.811 526.275ZM439.842 531.655C437.736 531.655 435.996 530.955 434.622 529.555C433.249 528.155 432.562 526.429 432.562 524.375C432.562 522.309 433.249 520.582 434.622 519.195C435.996 517.795 437.736 517.095 439.842 517.095C441.109 517.095 442.276 517.395 443.342 517.995C444.422 518.582 445.262 519.382 445.862 520.395L443.482 521.775C443.136 521.149 442.642 520.662 442.002 520.315C441.362 519.955 440.642 519.775 439.842 519.775C438.482 519.775 437.382 520.202 436.542 521.055C435.716 521.909 435.302 523.015 435.302 524.375C435.302 525.722 435.716 526.822 436.542 527.675C437.382 528.529 438.482 528.955 439.842 528.955C440.642 528.955 441.362 528.782 442.002 528.435C442.656 528.075 443.149 527.589 443.482 526.975L445.862 528.355C445.262 529.369 444.429 530.175 443.362 530.775C442.296 531.362 441.122 531.655 439.842 531.655ZM458.759 517.375V520.015H454.979V531.375H452.219V520.015H448.459V517.375H458.759Z" fill="white"/>
<circle opacity="0.15" cx="499" cy="524.375" r="20" fill="white"/>
<circle cx="499" cy="524.375" r="9" fill="white"/>
<path d="M175.532 641.655C173.972 641.655 172.692 641.215 171.692 640.335C170.692 639.455 170.192 638.275 170.192 636.795V627.375H172.932V636.575C172.932 637.309 173.138 637.889 173.552 638.315C173.978 638.742 174.638 638.955 175.532 638.955C176.425 638.955 177.078 638.742 177.492 638.315C177.918 637.889 178.132 637.309 178.132 636.575V627.375H180.892V636.795C180.892 638.275 180.392 639.455 179.392 640.335C178.392 641.215 177.105 641.655 175.532 641.655ZM190.158 641.655C188.771 641.655 187.605 641.349 186.658 640.735C185.711 640.109 185.045 639.262 184.658 638.195L187.018 636.815C187.565 638.242 188.638 638.955 190.238 638.955C191.011 638.955 191.578 638.815 191.938 638.535C192.298 638.255 192.478 637.902 192.478 637.475C192.478 636.982 192.258 636.602 191.818 636.335C191.378 636.055 190.591 635.755 189.458 635.435C188.831 635.249 188.298 635.062 187.858 634.875C187.431 634.689 186.998 634.442 186.558 634.135C186.131 633.815 185.805 633.415 185.578 632.935C185.351 632.455 185.238 631.895 185.238 631.255C185.238 629.989 185.685 628.982 186.578 628.235C187.485 627.475 188.571 627.095 189.838 627.095C190.971 627.095 191.965 627.375 192.818 627.935C193.685 628.482 194.358 629.249 194.838 630.235L192.518 631.575C191.958 630.375 191.065 629.775 189.838 629.775C189.265 629.775 188.811 629.909 188.478 630.175C188.158 630.429 187.998 630.762 187.998 631.175C187.998 631.615 188.178 631.975 188.538 632.255C188.911 632.522 189.618 632.815 190.658 633.135C191.085 633.269 191.405 633.375 191.618 633.455C191.845 633.522 192.145 633.635 192.518 633.795C192.905 633.942 193.198 634.082 193.398 634.215C193.611 634.349 193.851 634.529 194.118 634.755C194.385 634.982 194.585 635.215 194.718 635.455C194.865 635.695 194.985 635.989 195.078 636.335C195.185 636.669 195.238 637.035 195.238 637.435C195.238 638.729 194.765 639.755 193.818 640.515C192.885 641.275 191.665 641.655 190.158 641.655ZM211.258 627.375C212.605 627.375 213.738 627.829 214.658 628.735C215.578 629.642 216.038 630.755 216.038 632.075C216.038 633.395 215.578 634.509 214.658 635.415C213.738 636.322 212.605 636.775 211.258 636.775H208.798V641.375H206.038V627.375H211.258ZM211.258 634.195C211.845 634.195 212.332 633.995 212.718 633.595C213.105 633.182 213.298 632.675 213.298 632.075C213.298 631.462 213.105 630.955 212.718 630.555C212.332 630.155 211.845 629.955 211.258 629.955H208.798V634.195H211.258ZM227.409 641.375L226.569 638.855H220.989L220.149 641.375H217.169L222.069 627.375H225.489L230.409 641.375H227.409ZM221.869 636.275H225.709L223.789 630.555L221.869 636.275ZM242.013 627.375V630.015H238.233V641.375H235.473V630.015H231.713V627.375H242.013ZM248.314 638.735H254.214V641.375H245.554V627.375H254.114V630.015H248.314V632.995H253.614V635.595H248.314V638.735ZM266.259 627.375H269.019V641.375H266.919L260.919 632.815V641.375H258.159V627.375H260.259L266.259 635.915V627.375ZM282.876 627.375V630.015H279.096V641.375H276.336V630.015H272.576V627.375H282.876ZM289.177 638.735H295.077V641.375H286.417V627.375H294.977V630.015H289.177V632.995H294.477V635.595H289.177V638.735ZM304.583 627.375C306.503 627.375 308.103 628.049 309.383 629.395C310.676 630.742 311.323 632.402 311.323 634.375C311.323 636.349 310.676 638.009 309.383 639.355C308.103 640.702 306.503 641.375 304.583 641.375H299.023V627.375H304.583ZM304.583 638.735C305.796 638.735 306.783 638.335 307.543 637.535C308.303 636.722 308.683 635.669 308.683 634.375C308.683 633.082 308.303 632.035 307.543 631.235C306.783 630.422 305.796 630.015 304.583 630.015H301.783V638.735H304.583ZM331.54 627.375V630.015H327.76V641.375H325V630.015H321.24V627.375H331.54ZM337.841 638.735H343.741V641.375H335.081V627.375H343.641V630.015H337.841V632.995H343.141V635.595H337.841V638.735ZM354.229 641.655C352.122 641.655 350.382 640.955 349.009 639.555C347.636 638.155 346.949 636.429 346.949 634.375C346.949 632.309 347.636 630.582 349.009 629.195C350.382 627.795 352.122 627.095 354.229 627.095C355.496 627.095 356.662 627.395 357.729 627.995C358.809 628.582 359.649 629.382 360.249 630.395L357.869 631.775C357.522 631.149 357.029 630.662 356.389 630.315C355.749 629.955 355.029 629.775 354.229 629.775C352.869 629.775 351.769 630.202 350.929 631.055C350.102 631.909 349.689 633.015 349.689 634.375C349.689 635.722 350.102 636.822 350.929 637.675C351.769 638.529 352.869 638.955 354.229 638.955C355.029 638.955 355.749 638.782 356.389 638.435C357.042 638.075 357.536 637.589 357.869 636.975L360.249 638.355C359.649 639.369 358.816 640.175 357.749 640.775C356.682 641.362 355.509 641.655 354.229 641.655ZM371.905 627.375H374.645V641.375H371.905V635.575H366.705V641.375H363.945V627.375H366.705V632.935H371.905V627.375ZM387.345 627.375H390.105V641.375H388.005L382.005 632.815V641.375H379.245V627.375H381.345L387.345 635.915V627.375ZM406.482 639.555C405.069 640.955 403.349 641.655 401.322 641.655C399.296 641.655 397.576 640.955 396.162 639.555C394.762 638.142 394.062 636.415 394.062 634.375C394.062 632.335 394.762 630.615 396.162 629.215C397.576 627.802 399.296 627.095 401.322 627.095C403.349 627.095 405.069 627.802 406.482 629.215C407.896 630.615 408.602 632.335 408.602 634.375C408.602 636.415 407.896 638.142 406.482 639.555ZM398.102 637.675C398.969 638.529 400.042 638.955 401.322 638.955C402.602 638.955 403.676 638.529 404.542 637.675C405.409 636.809 405.842 635.709 405.842 634.375C405.842 633.042 405.409 631.942 404.542 631.075C403.676 630.209 402.602 629.775 401.322 629.775C400.042 629.775 398.969 630.209 398.102 631.075C397.236 631.942 396.802 633.042 396.802 634.375C396.802 635.709 397.236 636.809 398.102 637.675ZM415.302 638.735H420.642V641.375H412.542V627.375H415.302V638.735ZM435.131 639.555C433.717 640.955 431.997 641.655 429.971 641.655C427.944 641.655 426.224 640.955 424.811 639.555C423.411 638.142 422.711 636.415 422.711 634.375C422.711 632.335 423.411 630.615 424.811 629.215C426.224 627.802 427.944 627.095 429.971 627.095C431.997 627.095 433.717 627.802 435.131 629.215C436.544 630.615 437.251 632.335 437.251 634.375C437.251 636.415 436.544 638.142 435.131 639.555ZM426.751 637.675C427.617 638.529 428.691 638.955 429.971 638.955C431.251 638.955 432.324 638.529 433.191 637.675C434.057 636.809 434.491 635.709 434.491 634.375C434.491 633.042 434.057 631.942 433.191 631.075C432.324 630.209 431.251 629.775 429.971 629.775C428.691 629.775 427.617 630.209 426.751 631.075C425.884 631.942 425.451 633.042 425.451 634.375C425.451 635.709 425.884 636.809 426.751 637.675ZM454.931 633.855V634.935C454.931 636.935 454.291 638.555 453.011 639.795C451.731 641.035 450.077 641.655 448.051 641.655C445.891 641.655 444.097 640.955 442.671 639.555C441.257 638.142 440.551 636.422 440.551 634.395C440.551 632.355 441.251 630.629 442.651 629.215C444.064 627.802 445.811 627.095 447.891 627.095C449.197 627.095 450.391 627.395 451.471 627.995C452.551 628.582 453.391 629.369 453.991 630.355L451.631 631.715C451.297 631.142 450.791 630.675 450.111 630.315C449.444 629.955 448.697 629.775 447.871 629.775C446.537 629.775 445.437 630.215 444.571 631.095C443.717 631.962 443.291 633.062 443.291 634.395C443.291 635.715 443.724 636.809 444.591 637.675C445.471 638.529 446.631 638.955 448.071 638.955C449.137 638.955 450.017 638.722 450.711 638.255C451.417 637.775 451.897 637.122 452.151 636.295H447.911V633.855H454.931ZM468.958 627.375L464.158 635.915V641.375H461.418V635.915L456.638 627.375H459.758L462.798 633.215L465.838 627.375H468.958Z" fill="white"/>
<circle opacity="0.15" cx="509" cy="634.375" r="20" fill="white"/>
<circle cx="509" cy="634.375" r="9" fill="white"/>
<path d="M207.67 751.655C206.283 751.655 205.117 751.349 204.17 750.735C203.223 750.109 202.557 749.262 202.17 748.195L204.53 746.815C205.077 748.242 206.15 748.955 207.75 748.955C208.523 748.955 209.09 748.815 209.45 748.535C209.81 748.255 209.99 747.902 209.99 747.475C209.99 746.982 209.77 746.602 209.33 746.335C208.89 746.055 208.103 745.755 206.97 745.435C206.343 745.249 205.81 745.062 205.37 744.875C204.943 744.689 204.51 744.442 204.07 744.135C203.643 743.815 203.317 743.415 203.09 742.935C202.863 742.455 202.75 741.895 202.75 741.255C202.75 739.989 203.197 738.982 204.09 738.235C204.997 737.475 206.083 737.095 207.35 737.095C208.483 737.095 209.477 737.375 210.33 737.935C211.197 738.482 211.87 739.249 212.35 740.235L210.03 741.575C209.47 740.375 208.577 739.775 207.35 739.775C206.777 739.775 206.323 739.909 205.99 740.175C205.67 740.429 205.51 740.762 205.51 741.175C205.51 741.615 205.69 741.975 206.05 742.255C206.423 742.522 207.13 742.815 208.17 743.135C208.597 743.269 208.917 743.375 209.13 743.455C209.357 743.522 209.657 743.635 210.03 743.795C210.417 743.942 210.71 744.082 210.91 744.215C211.123 744.349 211.363 744.529 211.63 744.755C211.897 744.982 212.097 745.215 212.23 745.455C212.377 745.695 212.497 745.989 212.59 746.335C212.697 746.669 212.75 747.035 212.75 747.435C212.75 748.729 212.277 749.755 211.33 750.515C210.397 751.275 209.177 751.655 207.67 751.655ZM225.335 751.375L224.495 748.855H218.915L218.075 751.375H215.095L219.995 737.375H223.415L228.335 751.375H225.335ZM219.795 746.275H223.635L221.715 740.555L219.795 746.275ZM245.395 737.375V751.375H242.655V742.295L238.715 748.795H238.395L234.455 742.315V751.375H231.695V737.375H234.535L238.555 743.995L242.555 737.375H245.395ZM252.763 748.735H258.663V751.375H250.003V737.375H258.563V740.015H252.763V742.995H258.063V745.595H252.763V748.735ZM273.069 751.375L268.369 737.375H271.369L274.789 748.135L278.189 737.375H281.209L276.489 751.375H273.069ZM292.757 751.375L291.917 748.855H286.337L285.497 751.375H282.517L287.417 737.375H290.837L295.757 751.375H292.757ZM287.217 746.275H291.057L289.137 740.555L287.217 746.275ZM304.336 737.375C305.683 737.375 306.816 737.829 307.736 738.735C308.656 739.642 309.116 740.755 309.116 742.075C309.116 743.395 308.656 744.509 307.736 745.415C306.816 746.322 305.683 746.775 304.336 746.775H301.876V751.375H299.116V737.375H304.336ZM304.336 744.195C304.923 744.195 305.41 743.995 305.796 743.595C306.183 743.182 306.376 742.675 306.376 742.075C306.376 741.462 306.183 740.955 305.796 740.555C305.41 740.155 304.923 739.955 304.336 739.955H301.876V744.195H304.336ZM312.913 737.375H315.673V751.375H312.913V737.375ZM328.365 737.375H331.125V751.375H329.025L323.025 742.815V751.375H320.265V737.375H322.365L328.365 745.915V737.375ZM349.462 743.855V744.935C349.462 746.935 348.822 748.555 347.542 749.795C346.262 751.035 344.609 751.655 342.582 751.655C340.422 751.655 338.629 750.955 337.202 749.555C335.789 748.142 335.082 746.422 335.082 744.395C335.082 742.355 335.782 740.629 337.182 739.215C338.595 737.802 340.342 737.095 342.422 737.095C343.729 737.095 344.922 737.395 346.002 737.995C347.082 738.582 347.922 739.369 348.522 740.355L346.162 741.715C345.829 741.142 345.322 740.675 344.642 740.315C343.975 739.955 343.229 739.775 342.402 739.775C341.069 739.775 339.969 740.215 339.102 741.095C338.249 741.962 337.822 743.062 337.822 744.395C337.822 745.715 338.255 746.809 339.122 747.675C340.002 748.529 341.162 748.955 342.602 748.955C343.669 748.955 344.549 748.722 345.242 748.255C345.949 747.775 346.429 747.122 346.682 746.295H342.442V743.855H349.462ZM363.185 748.735H369.085V751.375H360.425V737.375H368.985V740.015H363.185V742.995H368.485V745.595H363.185V748.735ZM383.69 751.375H380.55L377.83 746.815L375.11 751.375H371.99L376.27 744.195L372.21 737.375H375.33L377.83 741.575L380.33 737.375H383.45L379.39 744.175L383.69 751.375ZM392.458 737.375C393.804 737.375 394.938 737.829 395.858 738.735C396.778 739.642 397.237 740.755 397.237 742.075C397.237 743.395 396.778 744.509 395.858 745.415C394.938 746.322 393.804 746.775 392.458 746.775H389.998V751.375H387.238V737.375H392.458ZM392.458 744.195C393.044 744.195 393.531 743.995 393.918 743.595C394.304 743.182 394.498 742.675 394.498 742.075C394.498 741.462 394.304 740.955 393.918 740.555C393.531 740.155 393.044 739.955 392.458 739.955H389.998V744.195H392.458ZM403.794 748.735H409.694V751.375H401.034V737.375H409.594V740.015H403.794V742.995H409.094V745.595H403.794V748.735ZM421.32 751.375L418.5 746.515H416.4V751.375H413.64V737.375H419.24C420.533 737.375 421.633 737.829 422.54 738.735C423.447 739.642 423.9 740.735 423.9 742.015C423.9 742.882 423.653 743.689 423.16 744.435C422.667 745.169 422.013 745.722 421.2 746.095L424.3 751.375H421.32ZM416.4 739.955V744.095H419.24C419.76 744.095 420.207 743.895 420.58 743.495C420.953 743.082 421.14 742.589 421.14 742.015C421.14 741.442 420.953 740.955 420.58 740.555C420.207 740.155 419.76 739.955 419.24 739.955H416.4ZM427.925 737.375H430.685V751.375H427.925V737.375ZM438.037 748.735H443.937V751.375H435.277V737.375H443.837V740.015H438.037V742.995H443.337V745.595H438.037V748.735ZM455.982 737.375H458.742V751.375H456.642L450.642 742.815V751.375H447.882V737.375H449.982L455.982 745.915V737.375ZM469.979 751.655C467.872 751.655 466.132 750.955 464.759 749.555C463.386 748.155 462.699 746.429 462.699 744.375C462.699 742.309 463.386 740.582 464.759 739.195C466.132 737.795 467.872 737.095 469.979 737.095C471.246 737.095 472.412 737.395 473.479 737.995C474.559 738.582 475.399 739.382 475.999 740.395L473.619 741.775C473.272 741.149 472.779 740.662 472.139 740.315C471.499 739.955 470.779 739.775 469.979 739.775C468.619 739.775 467.519 740.202 466.679 741.055C465.852 741.909 465.439 743.015 465.439 744.375C465.439 745.722 465.852 746.822 466.679 747.675C467.519 748.529 468.619 748.955 469.979 748.955C470.779 748.955 471.499 748.782 472.139 748.435C472.792 748.075 473.286 747.589 473.619 746.975L475.999 748.355C475.399 749.369 474.566 750.175 473.499 750.775C472.432 751.362 471.259 751.655 469.979 751.655ZM482.455 748.735H488.355V751.375H479.695V737.375H488.255V740.015H482.455V742.995H487.755V745.595H482.455V748.735Z" fill="white"/>
<circle opacity="0.15" cx="529" cy="744.375" r="20" fill="white"/>
<circle cx="529" cy="744.375" r="9" fill="white"/>
<path d="M638.127 725.968L688.455 709.733L701.443 677.263L751.366 660.623M638.127 725.968L751.772 343.633L914.122 284.375M638.127 725.968L715.572 778.631M914.122 284.375L871.1 648.852M914.122 284.375L979.874 343.633L949.84 701.616M871.1 648.852L824.83 664.275L801.289 643.982L751.366 660.623M871.1 648.852L949.84 701.616M949.84 701.616L899.511 721.098L880.029 701.616L772.066 736.521L757.454 770.615L719.302 781.168L715.572 778.631M715.572 778.631L751.366 660.623" stroke="white" stroke-width="5"/>
<circle opacity="0.15" cx="1095.14" cy="304.375" r="20" fill="white"/>
<circle cx="1095.14" cy="304.375" r="9" fill="white"/>
<path d="M1141.22 311.655C1139.83 311.655 1138.67 311.349 1137.72 310.735C1136.77 310.109 1136.11 309.262 1135.72 308.195L1138.08 306.815C1138.63 308.242 1139.7 308.955 1141.3 308.955C1142.07 308.955 1142.64 308.815 1143 308.535C1143.36 308.255 1143.54 307.902 1143.54 307.475C1143.54 306.982 1143.32 306.602 1142.88 306.335C1142.44 306.055 1141.65 305.755 1140.52 305.435C1139.89 305.249 1139.36 305.062 1138.92 304.875C1138.49 304.689 1138.06 304.442 1137.62 304.135C1137.19 303.815 1136.87 303.415 1136.64 302.935C1136.41 302.455 1136.3 301.895 1136.3 301.255C1136.3 299.989 1136.75 298.982 1137.64 298.235C1138.55 297.475 1139.63 297.095 1140.9 297.095C1142.03 297.095 1143.03 297.375 1143.88 297.935C1144.75 298.482 1145.42 299.249 1145.9 300.235L1143.58 301.575C1143.02 300.375 1142.13 299.775 1140.9 299.775C1140.33 299.775 1139.87 299.909 1139.54 300.175C1139.22 300.429 1139.06 300.762 1139.06 301.175C1139.06 301.615 1139.24 301.975 1139.6 302.255C1139.97 302.522 1140.68 302.815 1141.72 303.135C1142.15 303.269 1142.47 303.375 1142.68 303.455C1142.91 303.522 1143.21 303.635 1143.58 303.795C1143.97 303.942 1144.26 304.082 1144.46 304.215C1144.67 304.349 1144.91 304.529 1145.18 304.755C1145.45 304.982 1145.65 305.215 1145.78 305.455C1145.93 305.695 1146.05 305.989 1146.14 306.335C1146.25 306.669 1146.3 307.035 1146.3 307.435C1146.3 308.729 1145.83 309.755 1144.88 310.515C1143.95 311.275 1142.73 311.655 1141.22 311.655ZM1156.64 311.655C1154.54 311.655 1152.8 310.955 1151.42 309.555C1150.05 308.155 1149.36 306.429 1149.36 304.375C1149.36 302.309 1150.05 300.582 1151.42 299.195C1152.8 297.795 1154.54 297.095 1156.64 297.095C1157.91 297.095 1159.08 297.395 1160.14 297.995C1161.22 298.582 1162.06 299.382 1162.66 300.395L1160.28 301.775C1159.94 301.149 1159.44 300.662 1158.8 300.315C1158.16 299.955 1157.44 299.775 1156.64 299.775C1155.28 299.775 1154.18 300.202 1153.34 301.055C1152.52 301.909 1152.1 303.015 1152.1 304.375C1152.1 305.722 1152.52 306.822 1153.34 307.675C1154.18 308.529 1155.28 308.955 1156.64 308.955C1157.44 308.955 1158.16 308.782 1158.8 308.435C1159.46 308.075 1159.95 307.589 1160.28 306.975L1162.66 308.355C1162.06 309.369 1161.23 310.175 1160.16 310.775C1159.1 311.362 1157.92 311.655 1156.64 311.655ZM1166.36 297.375H1169.12V311.375H1166.36V297.375ZM1176.47 308.735H1182.37V311.375H1173.71V297.375H1182.27V300.015H1176.47V302.995H1181.77V305.595H1176.47V308.735ZM1194.42 297.375H1197.18V311.375H1195.08L1189.08 302.815V311.375H1186.32V297.375H1188.42L1194.42 305.915V297.375ZM1211.03 297.375V300.015H1207.25V311.375H1204.49V300.015H1200.73V297.375H1211.03ZM1214.57 297.375H1217.33V311.375H1214.57V297.375ZM1230.29 300.015H1224.69V303.335H1230.13V305.975H1224.69V311.375H1221.93V297.375H1230.29V300.015ZM1234.3 297.375H1237.06V311.375H1234.3V297.375ZM1248.29 311.655C1246.18 311.655 1244.44 310.955 1243.07 309.555C1241.7 308.155 1241.01 306.429 1241.01 304.375C1241.01 302.309 1241.7 300.582 1243.07 299.195C1244.44 297.795 1246.18 297.095 1248.29 297.095C1249.56 297.095 1250.72 297.395 1251.79 297.995C1252.87 298.582 1253.71 299.382 1254.31 300.395L1251.93 301.775C1251.58 301.149 1251.09 300.662 1250.45 300.315C1249.81 299.955 1249.09 299.775 1248.29 299.775C1246.93 299.775 1245.83 300.202 1244.99 301.055C1244.16 301.909 1243.75 303.015 1243.75 304.375C1243.75 305.722 1244.16 306.822 1244.99 307.675C1245.83 308.529 1246.93 308.955 1248.29 308.955C1249.09 308.955 1249.81 308.782 1250.45 308.435C1251.1 308.075 1251.6 307.589 1251.93 306.975L1254.31 308.355C1253.71 309.369 1252.88 310.175 1251.81 310.775C1250.74 311.362 1249.57 311.655 1248.29 311.655ZM1266.95 311.375L1266.11 308.855H1260.53L1259.69 311.375H1256.71L1261.61 297.375H1265.03L1269.95 311.375H1266.95ZM1261.41 306.275H1265.25L1263.33 300.555L1261.41 306.275ZM1276.06 308.735H1281.4V311.375H1273.3V297.375H1276.06V308.735ZM1287.73 308.735H1293.07V311.375H1284.97V297.375H1287.73V308.735ZM1305.9 297.375L1301.1 305.915V311.375H1298.36V305.915L1293.58 297.375H1296.7L1299.74 303.215L1302.78 297.375H1305.9ZM1321.47 297.375C1322.81 297.375 1323.95 297.829 1324.87 298.735C1325.79 299.642 1326.25 300.755 1326.25 302.075C1326.25 303.395 1325.79 304.509 1324.87 305.415C1323.95 306.322 1322.81 306.775 1321.47 306.775H1319.01V311.375H1316.25V297.375H1321.47ZM1321.47 304.195C1322.05 304.195 1322.54 303.995 1322.93 303.595C1323.31 303.182 1323.51 302.675 1323.51 302.075C1323.51 301.462 1323.31 300.955 1322.93 300.555C1322.54 300.155 1322.05 299.955 1321.47 299.955H1319.01V304.195H1321.47ZM1337.72 311.375L1334.9 306.515H1332.8V311.375H1330.04V297.375H1335.64C1336.94 297.375 1338.04 297.829 1338.94 298.735C1339.85 299.642 1340.3 300.735 1340.3 302.015C1340.3 302.882 1340.06 303.689 1339.56 304.435C1339.07 305.169 1338.42 305.722 1337.6 306.095L1340.7 311.375H1337.72ZM1332.8 299.955V304.095H1335.64C1336.16 304.095 1336.61 303.895 1336.98 303.495C1337.36 303.082 1337.54 302.589 1337.54 302.015C1337.54 301.442 1337.36 300.955 1336.98 300.555C1336.61 300.155 1336.16 299.955 1335.64 299.955H1332.8ZM1355.95 309.555C1354.54 310.955 1352.82 311.655 1350.79 311.655C1348.77 311.655 1347.05 310.955 1345.63 309.555C1344.23 308.142 1343.53 306.415 1343.53 304.375C1343.53 302.335 1344.23 300.615 1345.63 299.215C1347.05 297.802 1348.77 297.095 1350.79 297.095C1352.82 297.095 1354.54 297.802 1355.95 299.215C1357.37 300.615 1358.07 302.335 1358.07 304.375C1358.07 306.415 1357.37 308.142 1355.95 309.555ZM1347.57 307.675C1348.44 308.529 1349.51 308.955 1350.79 308.955C1352.07 308.955 1353.15 308.529 1354.01 307.675C1354.88 306.809 1355.31 305.709 1355.31 304.375C1355.31 303.042 1354.88 301.942 1354.01 301.075C1353.15 300.209 1352.07 299.775 1350.79 299.775C1349.51 299.775 1348.44 300.209 1347.57 301.075C1346.71 301.942 1346.27 303.042 1346.27 304.375C1346.27 305.709 1346.71 306.809 1347.57 307.675ZM1364.85 311.375L1360.15 297.375H1363.15L1366.57 308.135L1369.97 297.375H1372.99L1368.27 311.375H1364.85ZM1379.1 308.735H1385V311.375H1376.34V297.375H1384.9V300.015H1379.1V302.995H1384.4V305.595H1379.1V308.735ZM1397.04 297.375H1399.8V311.375H1397.7L1391.7 302.815V311.375H1388.94V297.375H1391.04L1397.04 305.915V297.375ZM1419.08 311.375L1416.26 306.515H1414.16V311.375H1411.4V297.375H1417C1418.29 297.375 1419.39 297.829 1420.3 298.735C1421.21 299.642 1421.66 300.735 1421.66 302.015C1421.66 302.882 1421.41 303.689 1420.92 304.435C1420.43 305.169 1419.77 305.722 1418.96 306.095L1422.06 311.375H1419.08ZM1414.16 299.955V304.095H1417C1417.52 304.095 1417.97 303.895 1418.34 303.495C1418.71 303.082 1418.9 302.589 1418.9 302.015C1418.9 301.442 1418.71 300.955 1418.34 300.555C1417.97 300.155 1417.52 299.955 1417 299.955H1414.16ZM1428.44 308.735H1434.34V311.375H1425.68V297.375H1434.24V300.015H1428.44V302.995H1433.74V305.595H1428.44V308.735ZM1443.07 311.655C1441.68 311.655 1440.52 311.349 1439.57 310.735C1438.62 310.109 1437.96 309.262 1437.57 308.195L1439.93 306.815C1440.48 308.242 1441.55 308.955 1443.15 308.955C1443.92 308.955 1444.49 308.815 1444.85 308.535C1445.21 308.255 1445.39 307.902 1445.39 307.475C1445.39 306.982 1445.17 306.602 1444.73 306.335C1444.29 306.055 1443.5 305.755 1442.37 305.435C1441.74 305.249 1441.21 305.062 1440.77 304.875C1440.34 304.689 1439.91 304.442 1439.47 304.135C1439.04 303.815 1438.72 303.415 1438.49 302.935C1438.26 302.455 1438.15 301.895 1438.15 301.255C1438.15 299.989 1438.6 298.982 1439.49 298.235C1440.4 297.475 1441.48 297.095 1442.75 297.095C1443.88 297.095 1444.88 297.375 1445.73 297.935C1446.6 298.482 1447.27 299.249 1447.75 300.235L1445.43 301.575C1444.87 300.375 1443.98 299.775 1442.75 299.775C1442.18 299.775 1441.72 299.909 1441.39 300.175C1441.07 300.429 1440.91 300.762 1440.91 301.175C1440.91 301.615 1441.09 301.975 1441.45 302.255C1441.82 302.522 1442.53 302.815 1443.57 303.135C1444 303.269 1444.32 303.375 1444.53 303.455C1444.76 303.522 1445.06 303.635 1445.43 303.795C1445.82 303.942 1446.11 304.082 1446.31 304.215C1446.52 304.349 1446.76 304.529 1447.03 304.755C1447.3 304.982 1447.5 305.215 1447.63 305.455C1447.78 305.695 1447.9 305.989 1447.99 306.335C1448.1 306.669 1448.15 307.035 1448.15 307.435C1448.15 308.729 1447.68 309.755 1446.73 310.515C1445.8 311.275 1444.58 311.655 1443.07 311.655ZM1457.17 311.655C1455.61 311.655 1454.33 311.215 1453.33 310.335C1452.33 309.455 1451.83 308.275 1451.83 306.795V297.375H1454.57V306.575C1454.57 307.309 1454.78 307.889 1455.19 308.315C1455.62 308.742 1456.28 308.955 1457.17 308.955C1458.06 308.955 1458.72 308.742 1459.13 308.315C1459.56 307.889 1459.77 307.309 1459.77 306.575V297.375H1462.53V306.795C1462.53 308.275 1462.03 309.455 1461.03 310.335C1460.03 311.215 1458.74 311.655 1457.17 311.655ZM1469.78 308.735H1475.12V311.375H1467.02V297.375H1469.78V308.735ZM1486.52 297.375V300.015H1482.74V311.375H1479.98V300.015H1476.22V297.375H1486.52ZM1494.45 311.655C1493.06 311.655 1491.89 311.349 1490.95 310.735C1490 310.109 1489.33 309.262 1488.95 308.195L1491.31 306.815C1491.85 308.242 1492.93 308.955 1494.53 308.955C1495.3 308.955 1495.87 308.815 1496.23 308.535C1496.59 308.255 1496.77 307.902 1496.77 307.475C1496.77 306.982 1496.55 306.602 1496.11 306.335C1495.67 306.055 1494.88 305.755 1493.75 305.435C1493.12 305.249 1492.59 305.062 1492.15 304.875C1491.72 304.689 1491.29 304.442 1490.85 304.135C1490.42 303.815 1490.09 303.415 1489.87 302.935C1489.64 302.455 1489.53 301.895 1489.53 301.255C1489.53 299.989 1489.97 298.982 1490.87 298.235C1491.77 297.475 1492.86 297.095 1494.13 297.095C1495.26 297.095 1496.25 297.375 1497.11 297.935C1497.97 298.482 1498.65 299.249 1499.13 300.235L1496.81 301.575C1496.25 300.375 1495.35 299.775 1494.13 299.775C1493.55 299.775 1493.1 299.909 1492.77 300.175C1492.45 300.429 1492.29 300.762 1492.29 301.175C1492.29 301.615 1492.47 301.975 1492.83 302.255C1493.2 302.522 1493.91 302.815 1494.95 303.135C1495.37 303.269 1495.69 303.375 1495.91 303.455C1496.13 303.522 1496.43 303.635 1496.81 303.795C1497.19 303.942 1497.49 304.082 1497.69 304.215C1497.9 304.349 1498.14 304.529 1498.41 304.755C1498.67 304.982 1498.87 305.215 1499.01 305.455C1499.15 305.695 1499.27 305.989 1499.37 306.335C1499.47 306.669 1499.53 307.035 1499.53 307.435C1499.53 308.729 1499.05 309.755 1498.11 310.515C1497.17 311.275 1495.95 311.655 1494.45 311.655Z" fill="white"/>
<circle opacity="0.15" cx="1115.14" cy="414.375" r="20" fill="white"/>
<circle cx="1115.14" cy="414.375" r="9" fill="white"/>
<path d="M1165.7 407.375V410.015H1161.92V421.375H1159.16V410.015H1155.4V407.375H1165.7ZM1177.23 421.375L1176.39 418.855H1170.81L1169.97 421.375H1166.99L1171.89 407.375H1175.31L1180.23 421.375H1177.23ZM1171.69 416.275H1175.53L1173.61 410.555L1171.69 416.275ZM1191.27 421.375L1188.45 416.515H1186.35V421.375H1183.59V407.375H1189.19C1190.48 407.375 1191.58 407.829 1192.49 408.735C1193.39 409.642 1193.85 410.735 1193.85 412.015C1193.85 412.882 1193.6 413.689 1193.11 414.435C1192.61 415.169 1191.96 415.722 1191.15 416.095L1194.25 421.375H1191.27ZM1186.35 409.955V414.095H1189.19C1189.71 414.095 1190.15 413.895 1190.53 413.495C1190.9 413.082 1191.09 412.589 1191.09 412.015C1191.09 411.442 1190.9 410.955 1190.53 410.555C1190.15 410.155 1189.71 409.955 1189.19 409.955H1186.35ZM1211.46 413.855V414.935C1211.46 416.935 1210.82 418.555 1209.54 419.795C1208.26 421.035 1206.6 421.655 1204.58 421.655C1202.42 421.655 1200.62 420.955 1199.2 419.555C1197.78 418.142 1197.08 416.422 1197.08 414.395C1197.08 412.355 1197.78 410.629 1199.18 409.215C1200.59 407.802 1202.34 407.095 1204.42 407.095C1205.72 407.095 1206.92 407.395 1208 407.995C1209.08 408.582 1209.92 409.369 1210.52 410.355L1208.16 411.715C1207.82 411.142 1207.32 410.675 1206.64 410.315C1205.97 409.955 1205.22 409.775 1204.4 409.775C1203.06 409.775 1201.96 410.215 1201.1 411.095C1200.24 411.962 1199.82 413.062 1199.82 414.395C1199.82 415.715 1200.25 416.809 1201.12 417.675C1202 418.529 1203.16 418.955 1204.6 418.955C1205.66 418.955 1206.54 418.722 1207.24 418.255C1207.94 417.775 1208.42 417.122 1208.68 416.295H1204.44V413.855H1211.46ZM1218.18 418.735H1224.08V421.375H1215.42V407.375H1223.98V410.015H1218.18V412.995H1223.48V415.595H1218.18V418.735ZM1237.28 407.375V410.015H1233.5V421.375H1230.74V410.015H1226.98V407.375H1237.28ZM1245.21 421.655C1243.83 421.655 1242.66 421.349 1241.71 420.735C1240.77 420.109 1240.1 419.262 1239.71 418.195L1242.07 416.815C1242.62 418.242 1243.69 418.955 1245.29 418.955C1246.07 418.955 1246.63 418.815 1246.99 418.535C1247.35 418.255 1247.53 417.902 1247.53 417.475C1247.53 416.982 1247.31 416.602 1246.87 416.335C1246.43 416.055 1245.65 415.755 1244.51 415.435C1243.89 415.249 1243.35 415.062 1242.91 414.875C1242.49 414.689 1242.05 414.442 1241.61 414.135C1241.19 413.815 1240.86 413.415 1240.63 412.935C1240.41 412.455 1240.29 411.895 1240.29 411.255C1240.29 409.989 1240.74 408.982 1241.63 408.235C1242.54 407.475 1243.63 407.095 1244.89 407.095C1246.03 407.095 1247.02 407.375 1247.87 407.935C1248.74 408.482 1249.41 409.249 1249.89 410.235L1247.57 411.575C1247.01 410.375 1246.12 409.775 1244.89 409.775C1244.32 409.775 1243.87 409.909 1243.53 410.175C1243.21 410.429 1243.05 410.762 1243.05 411.175C1243.05 411.615 1243.23 411.975 1243.59 412.255C1243.97 412.522 1244.67 412.815 1245.71 413.135C1246.14 413.269 1246.46 413.375 1246.67 413.455C1246.9 413.522 1247.2 413.635 1247.57 413.795C1247.96 413.942 1248.25 414.082 1248.45 414.215C1248.67 414.349 1248.91 414.529 1249.17 414.755C1249.44 414.982 1249.64 415.215 1249.77 415.455C1249.92 415.695 1250.04 415.989 1250.13 416.335C1250.24 416.669 1250.29 417.035 1250.29 417.435C1250.29 418.729 1249.82 419.755 1248.87 420.515C1247.94 421.275 1246.72 421.655 1245.21 421.655ZM1266.31 407.375C1267.66 407.375 1268.79 407.829 1269.71 408.735C1270.63 409.642 1271.09 410.755 1271.09 412.075C1271.09 413.395 1270.63 414.509 1269.71 415.415C1268.79 416.322 1267.66 416.775 1266.31 416.775H1263.85V421.375H1261.09V407.375H1266.31ZM1266.31 414.195C1266.9 414.195 1267.39 413.995 1267.77 413.595C1268.16 413.182 1268.35 412.675 1268.35 412.075C1268.35 411.462 1268.16 410.955 1267.77 410.555C1267.39 410.155 1266.9 409.955 1266.31 409.955H1263.85V414.195H1266.31ZM1282.57 421.375L1279.75 416.515H1277.65V421.375H1274.89V407.375H1280.49C1281.78 407.375 1282.88 407.829 1283.79 408.735C1284.7 409.642 1285.15 410.735 1285.15 412.015C1285.15 412.882 1284.9 413.689 1284.41 414.435C1283.92 415.169 1283.26 415.722 1282.45 416.095L1285.55 421.375H1282.57ZM1277.65 409.955V414.095H1280.49C1281.01 414.095 1281.46 413.895 1281.83 413.495C1282.2 413.082 1282.39 412.589 1282.39 412.015C1282.39 411.442 1282.2 410.955 1281.83 410.555C1281.46 410.155 1281.01 409.955 1280.49 409.955H1277.65ZM1300.8 419.555C1299.39 420.955 1297.67 421.655 1295.64 421.655C1293.61 421.655 1291.89 420.955 1290.48 419.555C1289.08 418.142 1288.38 416.415 1288.38 414.375C1288.38 412.335 1289.08 410.615 1290.48 409.215C1291.89 407.802 1293.61 407.095 1295.64 407.095C1297.67 407.095 1299.39 407.802 1300.8 409.215C1302.21 410.615 1302.92 412.335 1302.92 414.375C1302.92 416.415 1302.21 418.142 1300.8 419.555ZM1292.42 417.675C1293.29 418.529 1294.36 418.955 1295.64 418.955C1296.92 418.955 1297.99 418.529 1298.86 417.675C1299.73 416.809 1300.16 415.709 1300.16 414.375C1300.16 413.042 1299.73 411.942 1298.86 411.075C1297.99 410.209 1296.92 409.775 1295.64 409.775C1294.36 409.775 1293.29 410.209 1292.42 411.075C1291.55 411.942 1291.12 413.042 1291.12 414.375C1291.12 415.709 1291.55 416.809 1292.42 417.675ZM1315.32 414.115C1316.55 414.822 1317.16 415.889 1317.16 417.315C1317.16 418.502 1316.74 419.475 1315.9 420.235C1315.06 420.995 1314.03 421.375 1312.8 421.375H1306.86V407.375H1312.38C1313.58 407.375 1314.59 407.749 1315.4 408.495C1316.23 409.229 1316.64 410.169 1316.64 411.315C1316.64 412.475 1316.2 413.409 1315.32 414.115ZM1312.38 409.955H1309.62V413.035H1312.38C1312.81 413.035 1313.16 412.889 1313.44 412.595C1313.73 412.302 1313.88 411.935 1313.88 411.495C1313.88 411.055 1313.74 410.689 1313.46 410.395C1313.18 410.102 1312.82 409.955 1312.38 409.955ZM1312.8 418.795C1313.27 418.795 1313.65 418.642 1313.96 418.335C1314.27 418.015 1314.42 417.615 1314.42 417.135C1314.42 416.669 1314.27 416.282 1313.96 415.975C1313.65 415.655 1313.27 415.495 1312.8 415.495H1309.62V418.795H1312.8ZM1323.73 418.735H1329.07V421.375H1320.97V407.375H1323.73V418.735ZM1335.4 418.735H1341.3V421.375H1332.64V407.375H1341.2V410.015H1335.4V412.995H1340.7V415.595H1335.4V418.735ZM1358.94 407.375V421.375H1356.2V412.295L1352.26 418.795H1351.94L1348 412.315V421.375H1345.24V407.375H1348.08L1352.1 413.995L1356.1 407.375H1358.94ZM1379.55 421.375L1378.71 418.855H1373.13L1372.29 421.375H1369.31L1374.21 407.375H1377.63L1382.55 421.375H1379.55ZM1374.01 416.275H1377.85L1375.93 410.555L1374.01 416.275ZM1394.15 407.375V410.015H1390.37V421.375H1387.61V410.015H1383.85V407.375H1394.15ZM1404.7 407.375H1407.46V421.375H1404.7V407.375ZM1421.31 407.375V410.015H1417.53V421.375H1414.77V410.015H1411.01V407.375H1421.31ZM1429.24 421.655C1427.85 421.655 1426.68 421.349 1425.74 420.735C1424.79 420.109 1424.12 419.262 1423.74 418.195L1426.1 416.815C1426.64 418.242 1427.72 418.955 1429.32 418.955C1430.09 418.955 1430.66 418.815 1431.02 418.535C1431.38 418.255 1431.56 417.902 1431.56 417.475C1431.56 416.982 1431.34 416.602 1430.9 416.335C1430.46 416.055 1429.67 415.755 1428.54 415.435C1427.91 415.249 1427.38 415.062 1426.94 414.875C1426.51 414.689 1426.08 414.442 1425.64 414.135C1425.21 413.815 1424.88 413.415 1424.66 412.935C1424.43 412.455 1424.32 411.895 1424.32 411.255C1424.32 409.989 1424.76 408.982 1425.66 408.235C1426.56 407.475 1427.65 407.095 1428.92 407.095C1430.05 407.095 1431.04 407.375 1431.9 407.935C1432.76 408.482 1433.44 409.249 1433.92 410.235L1431.6 411.575C1431.04 410.375 1430.14 409.775 1428.92 409.775C1428.34 409.775 1427.89 409.909 1427.56 410.175C1427.24 410.429 1427.08 410.762 1427.08 411.175C1427.08 411.615 1427.26 411.975 1427.62 412.255C1427.99 412.522 1428.7 412.815 1429.74 413.135C1430.16 413.269 1430.48 413.375 1430.7 413.455C1430.92 413.522 1431.22 413.635 1431.6 413.795C1431.98 413.942 1432.28 414.082 1432.48 414.215C1432.69 414.349 1432.93 414.529 1433.2 414.755C1433.46 414.982 1433.66 415.215 1433.8 415.455C1433.94 415.695 1434.06 415.989 1434.16 416.335C1434.26 416.669 1434.32 417.035 1434.32 417.435C1434.32 418.729 1433.84 419.755 1432.9 420.515C1431.96 421.275 1430.74 421.655 1429.24 421.655ZM1449.9 421.655C1448.51 421.655 1447.34 421.349 1446.4 420.735C1445.45 420.109 1444.78 419.262 1444.4 418.195L1446.76 416.815C1447.3 418.242 1448.38 418.955 1449.98 418.955C1450.75 418.955 1451.32 418.815 1451.68 418.535C1452.04 418.255 1452.22 417.902 1452.22 417.475C1452.22 416.982 1452 416.602 1451.56 416.335C1451.12 416.055 1450.33 415.755 1449.2 415.435C1448.57 415.249 1448.04 415.062 1447.6 414.875C1447.17 414.689 1446.74 414.442 1446.3 414.135C1445.87 413.815 1445.54 413.415 1445.32 412.935C1445.09 412.455 1444.98 411.895 1444.98 411.255C1444.98 409.989 1445.42 408.982 1446.32 408.235C1447.22 407.475 1448.31 407.095 1449.58 407.095C1450.71 407.095 1451.7 407.375 1452.56 407.935C1453.42 408.482 1454.1 409.249 1454.58 410.235L1452.26 411.575C1451.7 410.375 1450.8 409.775 1449.58 409.775C1449 409.775 1448.55 409.909 1448.22 410.175C1447.9 410.429 1447.74 410.762 1447.74 411.175C1447.74 411.615 1447.92 411.975 1448.28 412.255C1448.65 412.522 1449.36 412.815 1450.4 413.135C1450.82 413.269 1451.14 413.375 1451.36 413.455C1451.58 413.522 1451.88 413.635 1452.26 413.795C1452.64 413.942 1452.94 414.082 1453.14 414.215C1453.35 414.349 1453.59 414.529 1453.86 414.755C1454.12 414.982 1454.32 415.215 1454.46 415.455C1454.6 415.695 1454.72 415.989 1454.82 416.335C1454.92 416.669 1454.98 417.035 1454.98 417.435C1454.98 418.729 1454.5 419.755 1453.56 420.515C1452.62 421.275 1451.4 421.655 1449.9 421.655ZM1470.46 419.555C1469.05 420.955 1467.33 421.655 1465.3 421.655C1463.27 421.655 1461.55 420.955 1460.14 419.555C1458.74 418.142 1458.04 416.415 1458.04 414.375C1458.04 412.335 1458.74 410.615 1460.14 409.215C1461.55 407.802 1463.27 407.095 1465.3 407.095C1467.33 407.095 1469.05 407.802 1470.46 409.215C1471.87 410.615 1472.58 412.335 1472.58 414.375C1472.58 416.415 1471.87 418.142 1470.46 419.555ZM1462.08 417.675C1462.95 418.529 1464.02 418.955 1465.3 418.955C1466.58 418.955 1467.65 418.529 1468.52 417.675C1469.39 416.809 1469.82 415.709 1469.82 414.375C1469.82 413.042 1469.39 411.942 1468.52 411.075C1467.65 410.209 1466.58 409.775 1465.3 409.775C1464.02 409.775 1462.95 410.209 1462.08 411.075C1461.21 411.942 1460.78 413.042 1460.78 414.375C1460.78 415.709 1461.21 416.809 1462.08 417.675ZM1481.64 421.655C1480.08 421.655 1478.8 421.215 1477.8 420.335C1476.8 419.455 1476.3 418.275 1476.3 416.795V407.375H1479.04V416.575C1479.04 417.309 1479.25 417.889 1479.66 418.315C1480.09 418.742 1480.75 418.955 1481.64 418.955C1482.54 418.955 1483.19 418.742 1483.6 418.315C1484.03 417.889 1484.24 417.309 1484.24 416.575V407.375H1487V416.795C1487 418.275 1486.5 419.455 1485.5 420.335C1484.5 421.215 1483.22 421.655 1481.64 421.655ZM1499.17 421.375L1496.35 416.515H1494.25V421.375H1491.49V407.375H1497.09C1498.38 407.375 1499.48 407.829 1500.39 408.735C1501.3 409.642 1501.75 410.735 1501.75 412.015C1501.75 412.882 1501.5 413.689 1501.01 414.435C1500.52 415.169 1499.86 415.722 1499.05 416.095L1502.15 421.375H1499.17ZM1494.25 409.955V414.095H1497.09C1497.61 414.095 1498.06 413.895 1498.43 413.495C1498.8 413.082 1498.99 412.589 1498.99 412.015C1498.99 411.442 1498.8 410.955 1498.43 410.555C1498.06 410.155 1497.61 409.955 1497.09 409.955H1494.25ZM1512.26 421.655C1510.15 421.655 1508.41 420.955 1507.04 419.555C1505.66 418.155 1504.98 416.429 1504.98 414.375C1504.98 412.309 1505.66 410.582 1507.04 409.195C1508.41 407.795 1510.15 407.095 1512.26 407.095C1513.52 407.095 1514.69 407.395 1515.76 407.995C1516.84 408.582 1517.68 409.382 1518.28 410.395L1515.9 411.775C1515.55 411.149 1515.06 410.662 1514.42 410.315C1513.78 409.955 1513.06 409.775 1512.26 409.775C1510.9 409.775 1509.8 410.202 1508.96 411.055C1508.13 411.909 1507.72 413.015 1507.72 414.375C1507.72 415.722 1508.13 416.822 1508.96 417.675C1509.8 418.529 1510.9 418.955 1512.26 418.955C1513.06 418.955 1513.78 418.782 1514.42 418.435C1515.07 418.075 1515.56 417.589 1515.9 416.975L1518.28 418.355C1517.68 419.369 1516.84 420.175 1515.78 420.775C1514.71 421.362 1513.54 421.655 1512.26 421.655ZM1524.73 418.735H1530.63V421.375H1521.97V407.375H1530.53V410.015H1524.73V412.995H1530.03V415.595H1524.73V418.735Z" fill="white"/>
<circle opacity="0.15" cx="1145.14" cy="524.375" r="20" fill="white"/>
<circle cx="1145.14" cy="524.375" r="9" fill="white"/>
<path d="M1200.34 524.375C1200.34 526.189 1199.77 527.762 1198.62 529.095L1200.06 530.595L1198.1 532.335L1196.58 530.755C1195.5 531.355 1194.33 531.655 1193.06 531.655C1191.05 531.655 1189.33 530.955 1187.92 529.555C1186.51 528.142 1185.8 526.415 1185.8 524.375C1185.8 522.335 1186.51 520.615 1187.92 519.215C1189.33 517.802 1191.05 517.095 1193.06 517.095C1195.07 517.095 1196.79 517.802 1198.2 519.215C1199.63 520.615 1200.34 522.335 1200.34 524.375ZM1193.06 528.955C1193.58 528.955 1194.1 528.869 1194.62 528.695L1192.32 526.295L1194.28 524.555L1196.74 527.115C1197.3 526.315 1197.58 525.402 1197.58 524.375C1197.58 523.042 1197.15 521.942 1196.28 521.075C1195.41 520.209 1194.34 519.775 1193.06 519.775C1191.78 519.775 1190.71 520.209 1189.84 521.075C1188.97 521.942 1188.54 523.042 1188.54 524.375C1188.54 525.695 1188.97 526.789 1189.84 527.655C1190.71 528.522 1191.78 528.955 1193.06 528.955ZM1209.5 531.655C1207.94 531.655 1206.66 531.215 1205.66 530.335C1204.66 529.455 1204.16 528.275 1204.16 526.795V517.375H1206.9V526.575C1206.9 527.309 1207.11 527.889 1207.52 528.315C1207.95 528.742 1208.61 528.955 1209.5 528.955C1210.39 528.955 1211.05 528.742 1211.46 528.315C1211.89 527.889 1212.1 527.309 1212.1 526.575V517.375H1214.86V526.795C1214.86 528.275 1214.36 529.455 1213.36 530.335C1212.36 531.215 1211.07 531.655 1209.5 531.655ZM1219.35 517.375H1222.11V531.375H1219.35V517.375ZM1235.96 517.375V520.015H1232.18V531.375H1229.42V520.015H1225.66V517.375H1235.96ZM1249.96 531.375L1245.26 517.375H1248.26L1251.68 528.135L1255.08 517.375H1258.1L1253.38 531.375H1249.96ZM1269.65 531.375L1268.81 528.855H1263.23L1262.39 531.375H1259.41L1264.31 517.375H1267.73L1272.65 531.375H1269.65ZM1264.11 526.275H1267.95L1266.03 520.555L1264.11 526.275ZM1281.23 517.375C1282.57 517.375 1283.71 517.829 1284.63 518.735C1285.55 519.642 1286.01 520.755 1286.01 522.075C1286.01 523.395 1285.55 524.509 1284.63 525.415C1283.71 526.322 1282.57 526.775 1281.23 526.775H1278.77V531.375H1276.01V517.375H1281.23ZM1281.23 524.195C1281.81 524.195 1282.3 523.995 1282.69 523.595C1283.07 523.182 1283.27 522.675 1283.27 522.075C1283.27 521.462 1283.07 520.955 1282.69 520.555C1282.3 520.155 1281.81 519.955 1281.23 519.955H1278.77V524.195H1281.23ZM1289.8 517.375H1292.56V531.375H1289.8V517.375ZM1305.26 517.375H1308.02V531.375H1305.92L1299.92 522.815V531.375H1297.16V517.375H1299.26L1305.26 525.915V517.375ZM1326.35 523.855V524.935C1326.35 526.935 1325.71 528.555 1324.43 529.795C1323.15 531.035 1321.5 531.655 1319.47 531.655C1317.31 531.655 1315.52 530.955 1314.09 529.555C1312.68 528.142 1311.97 526.422 1311.97 524.395C1311.97 522.355 1312.67 520.629 1314.07 519.215C1315.49 517.802 1317.23 517.095 1319.31 517.095C1320.62 517.095 1321.81 517.395 1322.89 517.995C1323.97 518.582 1324.81 519.369 1325.41 520.355L1323.05 521.715C1322.72 521.142 1322.21 520.675 1321.53 520.315C1320.87 519.955 1320.12 519.775 1319.29 519.775C1317.96 519.775 1316.86 520.215 1315.99 521.095C1315.14 521.962 1314.71 523.062 1314.71 524.395C1314.71 525.715 1315.15 526.809 1316.01 527.675C1316.89 528.529 1318.05 528.955 1319.49 528.955C1320.56 528.955 1321.44 528.722 1322.13 528.255C1322.84 527.775 1323.32 527.122 1323.57 526.295H1319.33V523.855H1326.35ZM1340.24 531.375L1336.32 517.375H1339.22L1341.9 527.755L1344.82 517.375H1347.18L1350.12 527.755L1352.8 517.375H1355.7L1351.78 531.375H1348.64L1346 522.135L1343.38 531.375H1340.24ZM1367.26 517.375H1370V531.375H1367.26V525.575H1362.06V531.375H1359.3V517.375H1362.06V522.935H1367.26V517.375ZM1374.6 517.375H1377.36V531.375H1374.6V517.375ZM1384.71 528.735H1390.05V531.375H1381.95V517.375H1384.71V528.735ZM1396.38 528.735H1402.28V531.375H1393.62V517.375H1402.18V520.015H1396.38V522.995H1401.68V525.595H1396.38V528.735ZM1416.68 531.375L1411.98 517.375H1414.98L1418.4 528.135L1421.8 517.375H1424.82L1420.1 531.375H1416.68ZM1436.37 531.375L1435.53 528.855H1429.95L1429.11 531.375H1426.13L1431.03 517.375H1434.45L1439.37 531.375H1436.37ZM1430.83 526.275H1434.67L1432.75 520.555L1430.83 526.275ZM1447.95 517.375C1449.3 517.375 1450.43 517.829 1451.35 518.735C1452.27 519.642 1452.73 520.755 1452.73 522.075C1452.73 523.395 1452.27 524.509 1451.35 525.415C1450.43 526.322 1449.3 526.775 1447.95 526.775H1445.49V531.375H1442.73V517.375H1447.95ZM1447.95 524.195C1448.54 524.195 1449.02 523.995 1449.41 523.595C1449.8 523.182 1449.99 522.675 1449.99 522.075C1449.99 521.462 1449.8 520.955 1449.41 520.555C1449.02 520.155 1448.54 519.955 1447.95 519.955H1445.49V524.195H1447.95ZM1456.53 517.375H1459.29V531.375H1456.53V517.375ZM1471.98 517.375H1474.74V531.375H1472.64L1466.64 522.815V531.375H1463.88V517.375H1465.98L1471.98 525.915V517.375ZM1493.08 523.855V524.935C1493.08 526.935 1492.44 528.555 1491.16 529.795C1489.88 531.035 1488.22 531.655 1486.2 531.655C1484.04 531.655 1482.24 530.955 1480.82 529.555C1479.4 528.142 1478.7 526.422 1478.7 524.395C1478.7 522.355 1479.4 520.629 1480.8 519.215C1482.21 517.802 1483.96 517.095 1486.04 517.095C1487.34 517.095 1488.54 517.395 1489.62 517.995C1490.7 518.582 1491.54 519.369 1492.14 520.355L1489.78 521.715C1489.44 521.142 1488.94 520.675 1488.26 520.315C1487.59 519.955 1486.84 519.775 1486.02 519.775C1484.68 519.775 1483.58 520.215 1482.72 521.095C1481.86 521.962 1481.44 523.062 1481.44 524.395C1481.44 525.715 1481.87 526.809 1482.74 527.675C1483.62 528.529 1484.78 528.955 1486.22 528.955C1487.28 528.955 1488.16 528.722 1488.86 528.255C1489.56 527.775 1490.04 527.122 1490.3 526.295H1486.06V523.855H1493.08Z" fill="white"/>
<circle opacity="0.15" cx="1125.14" cy="642.375" r="20" fill="white"/>
<circle cx="1125.14" cy="642.375" r="9" fill="white"/>
<path d="M1174.9 628.115C1176.13 628.822 1176.74 629.889 1176.74 631.315C1176.74 632.502 1176.32 633.475 1175.48 634.235C1174.64 634.995 1173.61 635.375 1172.38 635.375H1166.44V621.375H1171.96C1173.16 621.375 1174.17 621.749 1174.98 622.495C1175.81 623.229 1176.22 624.169 1176.22 625.315C1176.22 626.475 1175.78 627.409 1174.9 628.115ZM1171.96 623.955H1169.2V627.035H1171.96C1172.39 627.035 1172.74 626.889 1173.02 626.595C1173.31 626.302 1173.46 625.935 1173.46 625.495C1173.46 625.055 1173.32 624.689 1173.04 624.395C1172.76 624.102 1172.4 623.955 1171.96 623.955ZM1172.38 632.795C1172.85 632.795 1173.23 632.642 1173.54 632.335C1173.85 632.015 1174 631.615 1174 631.135C1174 630.669 1173.85 630.282 1173.54 629.975C1173.23 629.655 1172.85 629.495 1172.38 629.495H1169.2V632.795H1172.38ZM1189.55 635.375L1188.71 632.855H1183.13L1182.29 635.375H1179.31L1184.21 621.375H1187.63L1192.55 635.375H1189.55ZM1184.01 630.275H1187.85L1185.93 624.555L1184.01 630.275ZM1202.04 635.655C1199.94 635.655 1198.2 634.955 1196.82 633.555C1195.45 632.155 1194.76 630.429 1194.76 628.375C1194.76 626.309 1195.45 624.582 1196.82 623.195C1198.2 621.795 1199.94 621.095 1202.04 621.095C1203.31 621.095 1204.48 621.395 1205.54 621.995C1206.62 622.582 1207.46 623.382 1208.06 624.395L1205.68 625.775C1205.34 625.149 1204.84 624.662 1204.2 624.315C1203.56 623.955 1202.84 623.775 1202.04 623.775C1200.68 623.775 1199.58 624.202 1198.74 625.055C1197.92 625.909 1197.5 627.015 1197.5 628.375C1197.5 629.722 1197.92 630.822 1198.74 631.675C1199.58 632.529 1200.68 632.955 1202.04 632.955C1202.84 632.955 1203.56 632.782 1204.2 632.435C1204.86 632.075 1205.35 631.589 1205.68 630.975L1208.06 632.355C1207.46 633.369 1206.63 634.175 1205.56 634.775C1204.5 635.362 1203.32 635.655 1202.04 635.655ZM1222.7 635.375H1219.52L1214.52 628.815V635.375H1211.76V621.375H1214.52V627.555L1219.32 621.375H1222.5L1217.32 628.175L1222.7 635.375ZM1228.82 632.735H1234.72V635.375H1226.06V621.375H1234.62V624.015H1228.82V626.995H1234.12V629.595H1228.82V632.735ZM1244.23 621.375C1246.15 621.375 1247.75 622.049 1249.03 623.395C1250.32 624.742 1250.97 626.402 1250.97 628.375C1250.97 630.349 1250.32 632.009 1249.03 633.355C1247.75 634.702 1246.15 635.375 1244.23 635.375H1238.67V621.375H1244.23ZM1244.23 632.735C1245.44 632.735 1246.43 632.335 1247.19 631.535C1247.95 630.722 1248.33 629.669 1248.33 628.375C1248.33 627.082 1247.95 626.035 1247.19 625.235C1246.43 624.422 1245.44 624.015 1244.23 624.015H1241.43V632.735H1244.23ZM1270.39 628.115C1271.61 628.822 1272.23 629.889 1272.23 631.315C1272.23 632.502 1271.81 633.475 1270.97 634.235C1270.13 634.995 1269.09 635.375 1267.87 635.375H1261.93V621.375H1267.45C1268.65 621.375 1269.65 621.749 1270.47 622.495C1271.29 623.229 1271.71 624.169 1271.71 625.315C1271.71 626.475 1271.27 627.409 1270.39 628.115ZM1267.45 623.955H1264.69V627.035H1267.45C1267.87 627.035 1268.23 626.889 1268.51 626.595C1268.8 626.302 1268.95 625.935 1268.95 625.495C1268.95 625.055 1268.81 624.689 1268.53 624.395C1268.25 624.102 1267.89 623.955 1267.45 623.955ZM1267.87 632.795C1268.33 632.795 1268.72 632.642 1269.03 632.335C1269.33 632.015 1269.49 631.615 1269.49 631.135C1269.49 630.669 1269.33 630.282 1269.03 629.975C1268.72 629.655 1268.33 629.495 1267.87 629.495H1264.69V632.795H1267.87ZM1286.47 621.375L1281.67 629.915V635.375H1278.93V629.915L1274.15 621.375H1277.27L1280.31 627.215L1283.35 621.375H1286.47ZM1305.27 628.115C1306.5 628.822 1307.11 629.889 1307.11 631.315C1307.11 632.502 1306.69 633.475 1305.85 634.235C1305.01 634.995 1303.98 635.375 1302.75 635.375H1296.81V621.375H1302.33C1303.53 621.375 1304.54 621.749 1305.35 622.495C1306.18 623.229 1306.59 624.169 1306.59 625.315C1306.59 626.475 1306.15 627.409 1305.27 628.115ZM1302.33 623.955H1299.57V627.035H1302.33C1302.76 627.035 1303.11 626.889 1303.39 626.595C1303.69 626.302 1303.83 625.935 1303.83 625.495C1303.83 625.055 1303.69 624.689 1303.41 624.395C1303.13 624.102 1302.77 623.955 1302.33 623.955ZM1302.75 632.795C1303.22 632.795 1303.61 632.642 1303.91 632.335C1304.22 632.015 1304.37 631.615 1304.37 631.135C1304.37 630.669 1304.22 630.282 1303.91 629.975C1303.61 629.655 1303.22 629.495 1302.75 629.495H1299.57V632.795H1302.75ZM1322.7 633.555C1321.29 634.955 1319.57 635.655 1317.54 635.655C1315.52 635.655 1313.8 634.955 1312.38 633.555C1310.98 632.142 1310.28 630.415 1310.28 628.375C1310.28 626.335 1310.98 624.615 1312.38 623.215C1313.8 621.802 1315.52 621.095 1317.54 621.095C1319.57 621.095 1321.29 621.802 1322.7 623.215C1324.12 624.615 1324.82 626.335 1324.82 628.375C1324.82 630.415 1324.12 632.142 1322.7 633.555ZM1314.32 631.675C1315.19 632.529 1316.26 632.955 1317.54 632.955C1318.82 632.955 1319.9 632.529 1320.76 631.675C1321.63 630.809 1322.06 629.709 1322.06 628.375C1322.06 627.042 1321.63 625.942 1320.76 625.075C1319.9 624.209 1318.82 623.775 1317.54 623.775C1316.26 623.775 1315.19 624.209 1314.32 625.075C1313.46 625.942 1313.02 627.042 1313.02 628.375C1313.02 629.709 1313.46 630.809 1314.32 631.675ZM1337.25 635.375L1336.41 632.855H1330.83L1329.99 635.375H1327.01L1331.91 621.375H1335.33L1340.25 635.375H1337.25ZM1331.71 630.275H1335.55L1333.63 624.555L1331.71 630.275ZM1351.29 635.375L1348.47 630.515H1346.37V635.375H1343.61V621.375H1349.21C1350.51 621.375 1351.61 621.829 1352.51 622.735C1353.42 623.642 1353.87 624.735 1353.87 626.015C1353.87 626.882 1353.63 627.689 1353.13 628.435C1352.64 629.169 1351.99 629.722 1351.17 630.095L1354.27 635.375H1351.29ZM1346.37 623.955V628.095H1349.21C1349.73 628.095 1350.18 627.895 1350.55 627.495C1350.93 627.082 1351.11 626.589 1351.11 626.015C1351.11 625.442 1350.93 624.955 1350.55 624.555C1350.18 624.155 1349.73 623.955 1349.21 623.955H1346.37ZM1363.46 621.375C1365.38 621.375 1366.98 622.049 1368.26 623.395C1369.55 624.742 1370.2 626.402 1370.2 628.375C1370.2 630.349 1369.55 632.009 1368.26 633.355C1366.98 634.702 1365.38 635.375 1363.46 635.375H1357.9V621.375H1363.46ZM1363.46 632.735C1364.67 632.735 1365.66 632.335 1366.42 631.535C1367.18 630.722 1367.56 629.669 1367.56 628.375C1367.56 627.082 1367.18 626.035 1366.42 625.235C1365.66 624.422 1364.67 624.015 1363.46 624.015H1360.66V632.735H1363.46ZM1387.8 635.655C1385.69 635.655 1383.95 634.955 1382.58 633.555C1381.2 632.155 1380.52 630.429 1380.52 628.375C1380.52 626.309 1381.2 624.582 1382.58 623.195C1383.95 621.795 1385.69 621.095 1387.8 621.095C1389.06 621.095 1390.23 621.395 1391.3 621.995C1392.38 622.582 1393.22 623.382 1393.82 624.395L1391.44 625.775C1391.09 625.149 1390.6 624.662 1389.96 624.315C1389.32 623.955 1388.6 623.775 1387.8 623.775C1386.44 623.775 1385.34 624.202 1384.5 625.055C1383.67 625.909 1383.26 627.015 1383.26 628.375C1383.26 629.722 1383.67 630.822 1384.5 631.675C1385.34 632.529 1386.44 632.955 1387.8 632.955C1388.6 632.955 1389.32 632.782 1389.96 632.435C1390.61 632.075 1391.1 631.589 1391.44 630.975L1393.82 632.355C1393.22 633.369 1392.38 634.175 1391.32 634.775C1390.25 635.362 1389.08 635.655 1387.8 635.655ZM1400.27 632.735H1406.17V635.375H1397.51V621.375H1406.07V624.015H1400.27V626.995H1405.57V629.595H1400.27V632.735ZM1417.8 635.375L1414.98 630.515H1412.88V635.375H1410.12V621.375H1415.72C1417.01 621.375 1418.11 621.829 1419.02 622.735C1419.92 623.642 1420.38 624.735 1420.38 626.015C1420.38 626.882 1420.13 627.689 1419.64 628.435C1419.14 629.169 1418.49 629.722 1417.68 630.095L1420.78 635.375H1417.8ZM1412.88 623.955V628.095H1415.72C1416.24 628.095 1416.68 627.895 1417.06 627.495C1417.43 627.082 1417.62 626.589 1417.62 626.015C1417.62 625.442 1417.43 624.955 1417.06 624.555C1416.68 624.155 1416.24 623.955 1415.72 623.955H1412.88ZM1433.37 621.375V624.015H1429.59V635.375H1426.83V624.015H1423.07V621.375H1433.37ZM1436.91 621.375H1439.67V635.375H1436.91V621.375ZM1452.62 624.015H1447.02V627.335H1452.46V629.975H1447.02V635.375H1444.26V621.375H1452.62V624.015ZM1456.63 621.375H1459.39V635.375H1456.63V621.375ZM1466.74 632.735H1472.64V635.375H1463.98V621.375H1472.54V624.015H1466.74V626.995H1472.04V629.595H1466.74V632.735ZM1482.15 621.375C1484.07 621.375 1485.67 622.049 1486.95 623.395C1488.24 624.742 1488.89 626.402 1488.89 628.375C1488.89 630.349 1488.24 632.009 1486.95 633.355C1485.67 634.702 1484.07 635.375 1482.15 635.375H1476.59V621.375H1482.15ZM1482.15 632.735C1483.36 632.735 1484.35 632.335 1485.11 631.535C1485.87 630.722 1486.25 629.669 1486.25 628.375C1486.25 627.082 1485.87 626.035 1485.11 625.235C1484.35 624.422 1483.36 624.015 1482.15 624.015H1479.35V632.735H1482.15ZM1172 649.375C1173.92 649.375 1175.52 650.049 1176.8 651.395C1178.09 652.742 1178.74 654.402 1178.74 656.375C1178.74 658.349 1178.09 660.009 1176.8 661.355C1175.52 662.702 1173.92 663.375 1172 663.375H1166.44V649.375H1172ZM1172 660.735C1173.21 660.735 1174.2 660.335 1174.96 659.535C1175.72 658.722 1176.1 657.669 1176.1 656.375C1176.1 655.082 1175.72 654.035 1174.96 653.235C1174.2 652.422 1173.21 652.015 1172 652.015H1169.2V660.735H1172ZM1194.48 661.555C1193.07 662.955 1191.35 663.655 1189.32 663.655C1187.29 663.655 1185.57 662.955 1184.16 661.555C1182.76 660.142 1182.06 658.415 1182.06 656.375C1182.06 654.335 1182.76 652.615 1184.16 651.215C1185.57 649.802 1187.29 649.095 1189.32 649.095C1191.35 649.095 1193.07 649.802 1194.48 651.215C1195.89 652.615 1196.6 654.335 1196.6 656.375C1196.6 658.415 1195.89 660.142 1194.48 661.555ZM1186.1 659.675C1186.97 660.529 1188.04 660.955 1189.32 660.955C1190.6 660.955 1191.67 660.529 1192.54 659.675C1193.41 658.809 1193.84 657.709 1193.84 656.375C1193.84 655.042 1193.41 653.942 1192.54 653.075C1191.67 652.209 1190.6 651.775 1189.32 651.775C1188.04 651.775 1186.97 652.209 1186.1 653.075C1185.23 653.942 1184.8 655.042 1184.8 656.375C1184.8 657.709 1185.23 658.809 1186.1 659.675ZM1207.18 663.655C1205.07 663.655 1203.33 662.955 1201.96 661.555C1200.59 660.155 1199.9 658.429 1199.9 656.375C1199.9 654.309 1200.59 652.582 1201.96 651.195C1203.33 649.795 1205.07 649.095 1207.18 649.095C1208.45 649.095 1209.61 649.395 1210.68 649.995C1211.76 650.582 1212.6 651.382 1213.2 652.395L1210.82 653.775C1210.47 653.149 1209.98 652.662 1209.34 652.315C1208.7 651.955 1207.98 651.775 1207.18 651.775C1205.82 651.775 1204.72 652.202 1203.88 653.055C1203.05 653.909 1202.64 655.015 1202.64 656.375C1202.64 657.722 1203.05 658.822 1203.88 659.675C1204.72 660.529 1205.82 660.955 1207.18 660.955C1207.98 660.955 1208.7 660.782 1209.34 660.435C1209.99 660.075 1210.49 659.589 1210.82 658.975L1213.2 660.355C1212.6 661.369 1211.77 662.175 1210.7 662.775C1209.63 663.362 1208.46 663.655 1207.18 663.655ZM1226.1 649.375V652.015H1222.32V663.375H1219.56V652.015H1215.8V649.375H1226.1ZM1240.62 661.555C1239.2 662.955 1237.48 663.655 1235.46 663.655C1233.43 663.655 1231.71 662.955 1230.3 661.555C1228.9 660.142 1228.2 658.415 1228.2 656.375C1228.2 654.335 1228.9 652.615 1230.3 651.215C1231.71 649.802 1233.43 649.095 1235.46 649.095C1237.48 649.095 1239.2 649.802 1240.62 651.215C1242.03 652.615 1242.74 654.335 1242.74 656.375C1242.74 658.415 1242.03 660.142 1240.62 661.555ZM1232.24 659.675C1233.1 660.529 1234.18 660.955 1235.46 660.955C1236.74 660.955 1237.81 660.529 1238.68 659.675C1239.54 658.809 1239.98 657.709 1239.98 656.375C1239.98 655.042 1239.54 653.942 1238.68 653.075C1237.81 652.209 1236.74 651.775 1235.46 651.775C1234.18 651.775 1233.1 652.209 1232.24 653.075C1231.37 653.942 1230.94 655.042 1230.94 656.375C1230.94 657.709 1231.37 658.809 1232.24 659.675ZM1254.36 663.375L1251.54 658.515H1249.44V663.375H1246.68V649.375H1252.28C1253.57 649.375 1254.67 649.829 1255.58 650.735C1256.48 651.642 1256.94 652.735 1256.94 654.015C1256.94 654.882 1256.69 655.689 1256.2 656.435C1255.7 657.169 1255.05 657.722 1254.24 658.095L1257.34 663.375H1254.36ZM1249.44 651.955V656.095H1252.28C1252.8 656.095 1253.24 655.895 1253.62 655.495C1253.99 655.082 1254.18 654.589 1254.18 654.015C1254.18 653.442 1253.99 652.955 1253.62 652.555C1253.24 652.155 1252.8 651.955 1252.28 651.955H1249.44ZM1265.53 663.655C1264.14 663.655 1262.97 663.349 1262.03 662.735C1261.08 662.109 1260.41 661.262 1260.03 660.195L1262.39 658.815C1262.93 660.242 1264.01 660.955 1265.61 660.955C1266.38 660.955 1266.95 660.815 1267.31 660.535C1267.67 660.255 1267.85 659.902 1267.85 659.475C1267.85 658.982 1267.63 658.602 1267.19 658.335C1266.75 658.055 1265.96 657.755 1264.83 657.435C1264.2 657.249 1263.67 657.062 1263.23 656.875C1262.8 656.689 1262.37 656.442 1261.93 656.135C1261.5 655.815 1261.17 655.415 1260.95 654.935C1260.72 654.455 1260.61 653.895 1260.61 653.255C1260.61 651.989 1261.05 650.982 1261.95 650.235C1262.85 649.475 1263.94 649.095 1265.21 649.095C1266.34 649.095 1267.33 649.375 1268.19 649.935C1269.05 650.482 1269.73 651.249 1270.21 652.235L1267.89 653.575C1267.33 652.375 1266.43 651.775 1265.21 651.775C1264.63 651.775 1264.18 651.909 1263.85 652.175C1263.53 652.429 1263.37 652.762 1263.37 653.175C1263.37 653.615 1263.55 653.975 1263.91 654.255C1264.28 654.522 1264.99 654.815 1266.03 655.135C1266.45 655.269 1266.77 655.375 1266.99 655.455C1267.21 655.522 1267.51 655.635 1267.89 655.795C1268.27 655.942 1268.57 656.082 1268.77 656.215C1268.98 656.349 1269.22 656.529 1269.49 656.755C1269.75 656.982 1269.95 657.215 1270.09 657.455C1270.23 657.695 1270.35 657.989 1270.45 658.335C1270.55 658.669 1270.61 659.035 1270.61 659.435C1270.61 660.729 1270.13 661.755 1269.19 662.515C1268.25 663.275 1267.03 663.655 1265.53 663.655ZM1290.41 663.375L1289.57 660.855H1283.99L1283.15 663.375H1280.17L1285.07 649.375H1288.49L1293.41 663.375H1290.41ZM1284.87 658.275H1288.71L1286.79 652.555L1284.87 658.275ZM1304.87 649.375H1307.63V663.375H1305.53L1299.53 654.815V663.375H1296.77V649.375H1298.87L1304.87 657.915V649.375ZM1317.78 649.375C1319.7 649.375 1321.3 650.049 1322.58 651.395C1323.88 652.742 1324.52 654.402 1324.52 656.375C1324.52 658.349 1323.88 660.009 1322.58 661.355C1321.3 662.702 1319.7 663.375 1317.78 663.375H1312.22V649.375H1317.78ZM1317.78 660.735C1319 660.735 1319.98 660.335 1320.74 659.535C1321.5 658.722 1321.88 657.669 1321.88 656.375C1321.88 655.082 1321.5 654.035 1320.74 653.235C1319.98 652.422 1319 652.015 1317.78 652.015H1314.98V660.735H1317.78ZM1344.48 663.375L1343.64 660.855H1338.06L1337.22 663.375H1334.24L1339.14 649.375H1342.56L1347.48 663.375H1344.48ZM1338.94 658.275H1342.78L1340.86 652.555L1338.94 658.275ZM1356.4 649.375C1358.32 649.375 1359.92 650.049 1361.2 651.395C1362.49 652.742 1363.14 654.402 1363.14 656.375C1363.14 658.349 1362.49 660.009 1361.2 661.355C1359.92 662.702 1358.32 663.375 1356.4 663.375H1350.84V649.375H1356.4ZM1356.4 660.735C1357.61 660.735 1358.6 660.335 1359.36 659.535C1360.12 658.722 1360.5 657.669 1360.5 656.375C1360.5 655.082 1360.12 654.035 1359.36 653.235C1358.6 652.422 1357.61 652.015 1356.4 652.015H1353.6V660.735H1356.4ZM1369.93 663.375L1365.23 649.375H1368.23L1371.65 660.135L1375.05 649.375H1378.07L1373.35 663.375H1369.93ZM1381.42 649.375H1384.18V663.375H1381.42V649.375ZM1393.34 663.655C1391.95 663.655 1390.79 663.349 1389.84 662.735C1388.89 662.109 1388.23 661.262 1387.84 660.195L1390.2 658.815C1390.75 660.242 1391.82 660.955 1393.42 660.955C1394.19 660.955 1394.76 660.815 1395.12 660.535C1395.48 660.255 1395.66 659.902 1395.66 659.475C1395.66 658.982 1395.44 658.602 1395 658.335C1394.56 658.055 1393.77 657.755 1392.64 657.435C1392.01 657.249 1391.48 657.062 1391.04 656.875C1390.61 656.689 1390.18 656.442 1389.74 656.135C1389.31 655.815 1388.99 655.415 1388.76 654.935C1388.53 654.455 1388.42 653.895 1388.42 653.255C1388.42 651.989 1388.87 650.982 1389.76 650.235C1390.67 649.475 1391.75 649.095 1393.02 649.095C1394.15 649.095 1395.15 649.375 1396 649.935C1396.87 650.482 1397.54 651.249 1398.02 652.235L1395.7 653.575C1395.14 652.375 1394.25 651.775 1393.02 651.775C1392.45 651.775 1391.99 651.909 1391.66 652.175C1391.34 652.429 1391.18 652.762 1391.18 653.175C1391.18 653.615 1391.36 653.975 1391.72 654.255C1392.09 654.522 1392.8 654.815 1393.84 655.135C1394.27 655.269 1394.59 655.375 1394.8 655.455C1395.03 655.522 1395.33 655.635 1395.7 655.795C1396.09 655.942 1396.38 656.082 1396.58 656.215C1396.79 656.349 1397.03 656.529 1397.3 656.755C1397.57 656.982 1397.77 657.215 1397.9 657.455C1398.05 657.695 1398.17 657.989 1398.26 658.335C1398.37 658.669 1398.42 659.035 1398.42 659.435C1398.42 660.729 1397.95 661.755 1397 662.515C1396.07 663.275 1394.85 663.655 1393.34 663.655ZM1413.9 661.555C1412.49 662.955 1410.77 663.655 1408.74 663.655C1406.71 663.655 1404.99 662.955 1403.58 661.555C1402.18 660.142 1401.48 658.415 1401.48 656.375C1401.48 654.335 1402.18 652.615 1403.58 651.215C1404.99 649.802 1406.71 649.095 1408.74 649.095C1410.77 649.095 1412.49 649.802 1413.9 651.215C1415.31 652.615 1416.02 654.335 1416.02 656.375C1416.02 658.415 1415.31 660.142 1413.9 661.555ZM1405.52 659.675C1406.39 660.529 1407.46 660.955 1408.74 660.955C1410.02 660.955 1411.09 660.529 1411.96 659.675C1412.83 658.809 1413.26 657.709 1413.26 656.375C1413.26 655.042 1412.83 653.942 1411.96 653.075C1411.09 652.209 1410.02 651.775 1408.74 651.775C1407.46 651.775 1406.39 652.209 1405.52 653.075C1404.65 653.942 1404.22 655.042 1404.22 656.375C1404.22 657.709 1404.65 658.809 1405.52 659.675ZM1427.64 663.375L1424.82 658.515H1422.72V663.375H1419.96V649.375H1425.56C1426.85 649.375 1427.95 649.829 1428.86 650.735C1429.77 651.642 1430.22 652.735 1430.22 654.015C1430.22 654.882 1429.97 655.689 1429.48 656.435C1428.99 657.169 1428.33 657.722 1427.52 658.095L1430.62 663.375H1427.64ZM1422.72 651.955V656.095H1425.56C1426.08 656.095 1426.53 655.895 1426.9 655.495C1427.27 655.082 1427.46 654.589 1427.46 654.015C1427.46 653.442 1427.27 652.955 1426.9 652.555C1426.53 652.155 1426.08 651.955 1425.56 651.955H1422.72ZM1438.81 663.655C1437.42 663.655 1436.26 663.349 1435.31 662.735C1434.36 662.109 1433.7 661.262 1433.31 660.195L1435.67 658.815C1436.22 660.242 1437.29 660.955 1438.89 660.955C1439.66 660.955 1440.23 660.815 1440.59 660.535C1440.95 660.255 1441.13 659.902 1441.13 659.475C1441.13 658.982 1440.91 658.602 1440.47 658.335C1440.03 658.055 1439.24 657.755 1438.11 657.435C1437.48 657.249 1436.95 657.062 1436.51 656.875C1436.08 656.689 1435.65 656.442 1435.21 656.135C1434.78 655.815 1434.46 655.415 1434.23 654.935C1434 654.455 1433.89 653.895 1433.89 653.255C1433.89 651.989 1434.34 650.982 1435.23 650.235C1436.14 649.475 1437.22 649.095 1438.49 649.095C1439.62 649.095 1440.62 649.375 1441.47 649.935C1442.34 650.482 1443.01 651.249 1443.49 652.235L1441.17 653.575C1440.61 652.375 1439.72 651.775 1438.49 651.775C1437.92 651.775 1437.46 651.909 1437.13 652.175C1436.81 652.429 1436.65 652.762 1436.65 653.175C1436.65 653.615 1436.83 653.975 1437.19 654.255C1437.56 654.522 1438.27 654.815 1439.31 655.135C1439.74 655.269 1440.06 655.375 1440.27 655.455C1440.5 655.522 1440.8 655.635 1441.17 655.795C1441.56 655.942 1441.85 656.082 1442.05 656.215C1442.26 656.349 1442.5 656.529 1442.77 656.755C1443.04 656.982 1443.24 657.215 1443.37 657.455C1443.52 657.695 1443.64 657.989 1443.73 658.335C1443.84 658.669 1443.89 659.035 1443.89 659.435C1443.89 660.729 1443.42 661.755 1442.47 662.515C1441.54 663.275 1440.32 663.655 1438.81 663.655Z" fill="white"/>
<circle opacity="0.15" cx="1085.14" cy="760.375" r="20" fill="white"/>
<circle cx="1085.14" cy="760.375" r="9" fill="white"/>
<path d="M1129.04 753.375H1131.44V767.375H1128.68V756.295L1126.04 757.035L1125.36 754.675L1129.04 753.375ZM1151.54 756.015H1145.94V759.335H1151.38V761.975H1145.94V767.375H1143.18V753.375H1151.54V756.015ZM1155.55 753.375H1158.31V767.375H1155.55V753.375ZM1165.66 764.735H1171V767.375H1162.9V753.375H1165.66V764.735ZM1182.4 753.375V756.015H1178.62V767.375H1175.86V756.015H1172.1V753.375H1182.4ZM1188.7 764.735H1194.6V767.375H1185.94V753.375H1194.5V756.015H1188.7V758.995H1194V761.595H1188.7V764.735ZM1206.23 767.375L1203.41 762.515H1201.31V767.375H1198.55V753.375H1204.15C1205.44 753.375 1206.54 753.829 1207.45 754.735C1208.35 755.642 1208.81 756.735 1208.81 758.015C1208.81 758.882 1208.56 759.689 1208.07 760.435C1207.57 761.169 1206.92 761.722 1206.11 762.095L1209.21 767.375H1206.23ZM1201.31 755.955V760.095H1204.15C1204.67 760.095 1205.11 759.895 1205.49 759.495C1205.86 759.082 1206.05 758.589 1206.05 758.015C1206.05 757.442 1205.86 756.955 1205.49 756.555C1205.11 756.155 1204.67 755.955 1204.15 755.955H1201.31ZM1225.05 753.375C1226.4 753.375 1227.53 753.829 1228.45 754.735C1229.37 755.642 1229.83 756.755 1229.83 758.075C1229.83 759.395 1229.37 760.509 1228.45 761.415C1227.53 762.322 1226.4 762.775 1225.05 762.775H1222.59V767.375H1219.83V753.375H1225.05ZM1225.05 760.195C1225.64 760.195 1226.13 759.995 1226.51 759.595C1226.9 759.182 1227.09 758.675 1227.09 758.075C1227.09 757.462 1226.9 756.955 1226.51 756.555C1226.13 756.155 1225.64 755.955 1225.05 755.955H1222.59V760.195H1225.05ZM1236.39 764.735H1242.29V767.375H1233.63V753.375H1242.19V756.015H1236.39V758.995H1241.69V761.595H1236.39V764.735ZM1253.91 767.375L1251.09 762.515H1248.99V767.375H1246.23V753.375H1251.83C1253.13 753.375 1254.23 753.829 1255.13 754.735C1256.04 755.642 1256.49 756.735 1256.49 758.015C1256.49 758.882 1256.25 759.689 1255.75 760.435C1255.26 761.169 1254.61 761.722 1253.79 762.095L1256.89 767.375H1253.91ZM1248.99 755.955V760.095H1251.83C1252.35 760.095 1252.8 759.895 1253.17 759.495C1253.55 759.082 1253.73 758.589 1253.73 758.015C1253.73 757.442 1253.55 756.955 1253.17 756.555C1252.8 756.155 1252.35 755.955 1251.83 755.955H1248.99ZM1272.74 753.375C1274.09 753.375 1275.22 753.829 1276.14 754.735C1277.06 755.642 1277.52 756.755 1277.52 758.075C1277.52 759.395 1277.06 760.509 1276.14 761.415C1275.22 762.322 1274.09 762.775 1272.74 762.775H1270.28V767.375H1267.52V753.375H1272.74ZM1272.74 760.195C1273.33 760.195 1273.81 759.995 1274.2 759.595C1274.59 759.182 1274.78 758.675 1274.78 758.075C1274.78 757.462 1274.59 756.955 1274.2 756.555C1273.81 756.155 1273.33 755.955 1272.74 755.955H1270.28V760.195H1272.74ZM1293 765.555C1291.59 766.955 1289.87 767.655 1287.84 767.655C1285.81 767.655 1284.09 766.955 1282.68 765.555C1281.28 764.142 1280.58 762.415 1280.58 760.375C1280.58 758.335 1281.28 756.615 1282.68 755.215C1284.09 753.802 1285.81 753.095 1287.84 753.095C1289.87 753.095 1291.59 753.802 1293 755.215C1294.41 756.615 1295.12 758.335 1295.12 760.375C1295.12 762.415 1294.41 764.142 1293 765.555ZM1284.62 763.675C1285.49 764.529 1286.56 764.955 1287.84 764.955C1289.12 764.955 1290.19 764.529 1291.06 763.675C1291.93 762.809 1292.36 761.709 1292.36 760.375C1292.36 759.042 1291.93 757.942 1291.06 757.075C1290.19 756.209 1289.12 755.775 1287.84 755.775C1286.56 755.775 1285.49 756.209 1284.62 757.075C1283.75 757.942 1283.32 759.042 1283.32 760.375C1283.32 761.709 1283.75 762.809 1284.62 763.675ZM1304.62 753.375C1306.54 753.375 1308.14 754.049 1309.42 755.395C1310.71 756.742 1311.36 758.402 1311.36 760.375C1311.36 762.349 1310.71 764.009 1309.42 765.355C1308.14 766.702 1306.54 767.375 1304.62 767.375H1299.06V753.375H1304.62ZM1304.62 764.735C1305.83 764.735 1306.82 764.335 1307.58 763.535C1308.34 762.722 1308.72 761.669 1308.72 760.375C1308.72 759.082 1308.34 758.035 1307.58 757.235C1306.82 756.422 1305.83 756.015 1304.62 756.015H1301.82V764.735H1304.62Z" fill="white"/>
</svg>
