<svg width="642" height="740" viewBox="0 0 642 740" fill="none" xmlns="http://www.w3.org/2000/svg">
<path d="M92 629.277L159.502 607.502L176.922 563.953L243.88 541.634M92 629.277L244.424 116.478L462.173 37M92 629.277L195.871 699.91M462.173 37L404.47 525.847M462.173 37L550.362 116.478L510.078 596.615M404.47 525.847L342.411 546.533L310.838 519.314L243.88 541.634M404.47 525.847L510.078 596.615M510.078 596.615L442.576 622.745L416.446 596.615L271.643 643.431L252.045 689.158L200.874 703.312L195.871 699.91M195.871 699.91L243.88 541.634" stroke="white" stroke-width="8"/>
<path fill-rule="evenodd" clip-rule="evenodd" d="M493.643 466.857L492.425 478.448L442.043 490.856L443.015 481.612C443.262 479.261 445.15 477.322 447.756 476.724L458.406 474.399L476.85 470.992L459.526 463.744L449.55 459.213C447.121 458.125 445.68 455.836 445.927 453.487L446.903 444.203L493.643 466.857Z" fill="white"/>
<path fill-rule="evenodd" clip-rule="evenodd" d="M461.951 431.176L476.801 438.204L477.933 427.429L461.951 431.176ZM489.776 424.593L487.795 443.441L491.519 445.178C493.901 446.3 495.299 448.548 495.056 450.859L494.13 459.676L447.796 435.709L449.06 423.681L499.36 409.911L498.421 418.846C498.178 421.158 496.343 423.066 493.78 423.668L489.776 424.593Z" fill="white"/>
<path fill-rule="evenodd" clip-rule="evenodd" d="M476.257 393.213L477.155 384.664C477.502 381.369 474.937 379.396 471.747 379.06C468.554 378.725 465.492 380.186 465.153 383.403L464.255 391.951L476.257 393.213ZM487.807 394.427L494.369 395.116C497.967 395.494 500.581 398.307 500.251 401.444L499.592 407.716L451.272 402.637L453.424 382.17C454.615 370.836 463.34 366.082 472.822 367.079C482.713 368.119 489.76 374.571 488.706 385.878L487.807 394.427Z" fill="white"/>
<path fill-rule="evenodd" clip-rule="evenodd" d="M506.196 344.888L503.949 366.267L455.63 361.188L460.12 318.467L471.089 324.38L468.331 350.626L475.251 351.353L477.799 327.109L488.448 332.589L486.353 352.52L493.679 353.29L495.538 335.596L502.835 339.259C505.116 340.451 506.431 342.651 506.196 344.888Z" fill="white"/>
<path fill-rule="evenodd" clip-rule="evenodd" d="M475.193 305.185L490.044 312.209L491.175 301.442L475.193 305.185ZM503.014 298.647L501.034 317.48L504.758 319.219C507.14 320.338 508.539 322.584 508.296 324.894L507.37 333.704L461.038 309.713L462.302 297.694L512.6 283.94L511.662 292.868C511.419 295.178 509.585 297.084 507.021 297.685L503.014 298.647Z" fill="white"/>
<path fill-rule="evenodd" clip-rule="evenodd" d="M469.798 227.66L470.786 218.26L516.948 242.596L515.931 252.268L492.043 257.282L514.391 266.918L513.379 276.552L463.335 289.154L464.294 280.026C464.537 277.715 466.373 275.77 468.974 275.213L493.838 269.55L467.612 259.267C466.959 259.002 466.566 258.408 466.628 257.818L467.279 251.629C467.345 251.004 467.849 250.542 468.542 250.416L496.358 245.579L473.025 233.225C470.839 232.007 469.568 229.852 469.798 227.66Z" fill="white"/>
<path fill-rule="evenodd" clip-rule="evenodd" d="M485.645 205.752L500.494 212.781L501.627 202.005L485.645 205.752ZM513.466 199.206L511.484 218.058L515.208 219.795C517.591 220.915 518.989 223.162 518.746 225.474L517.819 234.291L471.485 210.326L472.749 198.297L523.05 184.527L522.111 193.462C521.868 195.771 520.033 197.679 517.469 198.281L513.466 199.206Z" fill="white"/>
<path fill-rule="evenodd" clip-rule="evenodd" d="M474.302 188.741L473.762 188.684L474.968 177.209L496.866 171.473L477.129 156.647L478.458 144L508.61 166.847L525.349 162.668L523.933 176.139L474.302 188.741Z" fill="white"/>
</svg>
