<svg width="33" height="32" viewBox="0 0 33 32" fill="none" xmlns="http://www.w3.org/2000/svg">
<path d="M26.8672 23H12.6872L12.2872 21H25.1072C26.109 20.9946 27.0727 20.6156 27.8098 19.9372C28.547 19.2588 29.0045 18.3299 29.093 17.332L29.864 8.083C29.8755 7.94514 29.8582 7.8064 29.8133 7.67554C29.7685 7.54469 29.6969 7.42457 29.6032 7.32278C29.5095 7.22099 29.3957 7.13975 29.2691 7.08419C29.1424 7.02863 29.0055 6.99997 28.8672 7H9.48719L8.84719 3.8037C8.80183 3.57715 8.67943 3.37329 8.50077 3.22677C8.32212 3.08026 8.09824 3.00013 7.86719 3H4.86719C4.60197 3 4.34762 3.10536 4.16008 3.29289C3.97254 3.48043 3.86719 3.73478 3.86719 4C3.86719 4.26522 3.97254 4.51957 4.16008 4.70711C4.34762 4.89464 4.60197 5 4.86719 5H7.04719L10.6953 23.239C10.1962 23.4508 9.76379 23.7939 9.44411 24.2318C9.12443 24.6698 8.92941 25.1861 8.87978 25.7261C8.83015 26.266 8.92778 26.8092 9.16227 27.2981C9.39677 27.787 9.75937 28.2032 10.2115 28.5024C10.6637 28.8016 11.1884 28.9727 11.7301 28.9975C12.2717 29.0223 12.8099 28.8998 13.2875 28.6431C13.7651 28.3864 14.1642 28.0051 14.4423 27.5397C14.7205 27.0743 14.8673 26.5422 14.8672 26C14.8638 25.6585 14.8015 25.3202 14.6829 25H24.0514C23.9329 25.3202 23.8705 25.6585 23.8672 26C23.8672 26.5933 24.0431 27.1734 24.3728 27.6667C24.7024 28.1601 25.171 28.5446 25.7191 28.7716C26.2673 28.9987 26.8705 29.0581 27.4525 28.9424C28.0344 28.8266 28.569 28.5409 28.9885 28.1213C29.4081 27.7018 29.6938 27.1672 29.8095 26.5853C29.9253 26.0033 29.8659 25.4001 29.6388 24.8519C29.4118 24.3038 29.0272 23.8352 28.5339 23.5056C28.0405 23.1759 27.4605 23 26.8672 23ZM25.1072 19H11.8872L10.6872 13H27.4472L27.1 17.166C27.0558 17.6649 26.8271 18.1295 26.4585 18.4686C26.0899 18.8078 25.6081 18.9973 25.1072 19V19ZM27.7803 9L27.6136 11H10.2872L9.88719 9H27.7803ZM12.8672 26C12.8672 26.1978 12.8085 26.3911 12.6987 26.5556C12.5888 26.72 12.4326 26.8482 12.2499 26.9239C12.0671 26.9996 11.8661 27.0194 11.6721 26.9808C11.4781 26.9422 11.2999 26.847 11.1601 26.7071C11.0202 26.5673 10.925 26.3891 10.8864 26.1951C10.8478 26.0011 10.8676 25.8 10.9433 25.6173C11.019 25.4346 11.1472 25.2784 11.3116 25.1685C11.4761 25.0586 11.6694 25 11.8672 25C12.1323 25.0003 12.3865 25.1058 12.5739 25.2933C12.7614 25.4807 12.8668 25.7349 12.8672 26ZM26.8672 27C26.6694 27 26.4761 26.9414 26.3116 26.8315C26.1472 26.7216 26.019 26.5654 25.9433 26.3827C25.8676 26.2 25.8478 25.9989 25.8864 25.8049C25.925 25.6109 26.0202 25.4327 26.1601 25.2929C26.2999 25.153 26.4781 25.0578 26.6721 25.0192C26.8661 24.9806 27.0671 25.0004 27.2499 25.0761C27.4326 25.1518 27.5888 25.28 27.6987 25.4444C27.8085 25.6089 27.8672 25.8022 27.8672 26C27.8668 26.2651 27.7614 26.5193 27.5739 26.7067C27.3865 26.8942 27.1323 26.9997 26.8672 27V27Z" fill="#1660FE"/>
<path d="M26.8672 23H12.6872L12.2872 21H25.1072C26.109 20.9946 27.0727 20.6156 27.8098 19.9372C28.547 19.2588 29.0045 18.3299 29.093 17.332L29.864 8.083C29.8755 7.94514 29.8582 7.8064 29.8133 7.67554C29.7685 7.54469 29.6969 7.42457 29.6032 7.32278C29.5095 7.22099 29.3957 7.13975 29.2691 7.08419C29.1424 7.02863 29.0055 6.99997 28.8672 7H9.48719L8.84719 3.8037C8.80183 3.57715 8.67943 3.37329 8.50077 3.22677C8.32212 3.08026 8.09824 3.00013 7.86719 3H4.86719C4.60197 3 4.34762 3.10536 4.16008 3.29289C3.97254 3.48043 3.86719 3.73478 3.86719 4C3.86719 4.26522 3.97254 4.51957 4.16008 4.70711C4.34762 4.89464 4.60197 5 4.86719 5H7.04719L10.6953 23.239C10.1962 23.4508 9.76379 23.7939 9.44411 24.2318C9.12443 24.6698 8.92941 25.1861 8.87978 25.7261C8.83015 26.266 8.92778 26.8092 9.16227 27.2981C9.39677 27.787 9.75937 28.2032 10.2115 28.5024C10.6637 28.8016 11.1884 28.9727 11.7301 28.9975C12.2717 29.0223 12.8099 28.8998 13.2875 28.6431C13.7651 28.3864 14.1642 28.0051 14.4423 27.5397C14.7205 27.0743 14.8673 26.5422 14.8672 26C14.8638 25.6585 14.8015 25.3202 14.6829 25H24.0514C23.9329 25.3202 23.8705 25.6585 23.8672 26C23.8672 26.5933 24.0431 27.1734 24.3728 27.6667C24.7024 28.1601 25.171 28.5446 25.7191 28.7716C26.2673 28.9987 26.8705 29.0581 27.4525 28.9424C28.0344 28.8266 28.569 28.5409 28.9885 28.1213C29.4081 27.7018 29.6938 27.1672 29.8095 26.5853C29.9253 26.0033 29.8659 25.4001 29.6388 24.8519C29.4118 24.3038 29.0272 23.8352 28.5339 23.5056C28.0405 23.1759 27.4605 23 26.8672 23ZM25.1072 19H11.8872L10.6872 13H27.4472L27.1 17.166C27.0558 17.6649 26.8271 18.1295 26.4585 18.4686C26.0899 18.8078 25.6081 18.9973 25.1072 19V19ZM27.7803 9L27.6136 11H10.2872L9.88719 9H27.7803ZM12.8672 26C12.8672 26.1978 12.8085 26.3911 12.6987 26.5556C12.5888 26.72 12.4326 26.8482 12.2499 26.9239C12.0671 26.9996 11.8661 27.0194 11.6721 26.9808C11.4781 26.9422 11.2999 26.847 11.1601 26.7071C11.0202 26.5673 10.925 26.3891 10.8864 26.1951C10.8478 26.0011 10.8676 25.8 10.9433 25.6173C11.019 25.4346 11.1472 25.2784 11.3116 25.1685C11.4761 25.0586 11.6694 25 11.8672 25C12.1323 25.0003 12.3865 25.1058 12.5739 25.2933C12.7614 25.4807 12.8668 25.7349 12.8672 26ZM26.8672 27C26.6694 27 26.4761 26.9414 26.3116 26.8315C26.1472 26.7216 26.019 26.5654 25.9433 26.3827C25.8676 26.2 25.8478 25.9989 25.8864 25.8049C25.925 25.6109 26.0202 25.4327 26.1601 25.2929C26.2999 25.153 26.4781 25.0578 26.6721 25.0192C26.8661 24.9806 27.0671 25.0004 27.2499 25.0761C27.4326 25.1518 27.5888 25.28 27.6987 25.4444C27.8085 25.6089 27.8672 25.8022 27.8672 26C27.8668 26.2651 27.7614 26.5193 27.5739 26.7067C27.3865 26.8942 27.1323 26.9997 26.8672 27V27Z" fill="#2791F3" fill-opacity="0.35"/>
</svg>
