<svg width="20" height="21" viewBox="0 0 20 21" fill="none" xmlns="http://www.w3.org/2000/svg">
<g clip-path="url(#clip0_846_17393)">
<path d="M19.9994 10.0671C19.9994 4.54467 15.5226 0.0678711 10.0002 0.0678711C4.47778 0.0678711 0.000976562 4.54467 0.000976562 10.0671C0.000976562 15.058 3.65755 19.1947 8.43781 19.9449V12.9575H5.89896V10.0671H8.43781V7.86415C8.43781 5.35809 9.93064 3.97382 12.2146 3.97382C13.3086 3.97382 14.453 4.16911 14.453 4.16911V6.62986H13.1921C11.95 6.62986 11.5626 7.40065 11.5626 8.19141V10.0671H14.3358L13.8925 12.9575H11.5626V19.9449C16.3429 19.1947 19.9994 15.058 19.9994 10.0671Z" fill="#1660FE"/>
<path d="M19.9994 10.0671C19.9994 4.54467 15.5226 0.0678711 10.0002 0.0678711C4.47778 0.0678711 0.000976562 4.54467 0.000976562 10.0671C0.000976562 15.058 3.65755 19.1947 8.43781 19.9449V12.9575H5.89896V10.0671H8.43781V7.86415C8.43781 5.35809 9.93064 3.97382 12.2146 3.97382C13.3086 3.97382 14.453 4.16911 14.453 4.16911V6.62986H13.1921C11.95 6.62986 11.5626 7.40065 11.5626 8.19141V10.0671H14.3358L13.8925 12.9575H11.5626V19.9449C16.3429 19.1947 19.9994 15.058 19.9994 10.0671Z" fill="#2791F3" fill-opacity="0.35"/>
</g>
<defs>
<clipPath id="clip0_846_17393">
<rect width="20" height="20" fill="white" transform="translate(0.000976562 0.0678711)"/>
</clipPath>
</defs>
</svg>
