<svg width="20" height="21" viewBox="0 0 20 21" fill="none" xmlns="http://www.w3.org/2000/svg">
<g clip-path="url(#clip0_846_17397)">
<path d="M19.9617 3.87577C19.2242 4.19994 18.4367 4.42077 17.6075 4.52161C18.4525 4.01244 19.1025 3.20994 19.41 2.25244C18.6175 2.71494 17.7392 3.05161 16.8042 3.23911C16.0575 2.43994 14.9933 1.93994 13.8117 1.93994C11.5475 1.93994 9.71167 3.77577 9.71167 6.03744C9.71167 6.36244 9.74917 6.67494 9.8175 6.97411C6.40917 6.81327 3.38833 5.17661 1.36667 2.70244C1.01083 3.30411 0.811667 4.00327 0.811667 4.76494C0.811667 6.18994 1.53667 7.44244 2.635 8.17828C1.9625 8.15661 1.33 7.97161 0.778333 7.66494V7.71577C0.778333 9.70327 2.18917 11.3608 4.06667 11.7383C3.7225 11.8308 3.35917 11.8808 2.98667 11.8808C2.725 11.8808 2.47417 11.8558 2.22333 11.8091C2.74917 13.4366 4.26083 14.6233 6.06 14.6566C4.66 15.7558 2.88583 16.4108 0.975 16.4108C0.65 16.4108 0.325833 16.3916 0 16.3549C1.82417 17.5166 3.97333 18.1958 6.2975 18.1958C13.8425 18.1958 17.9633 11.9491 17.9633 6.54077C17.9633 6.36661 17.9633 6.19077 17.9508 6.01577C18.7517 5.44161 19.4508 4.71577 20.0008 3.89244L19.9617 3.87577Z" fill="#1660FE"/>
<path d="M19.9617 3.87577C19.2242 4.19994 18.4367 4.42077 17.6075 4.52161C18.4525 4.01244 19.1025 3.20994 19.41 2.25244C18.6175 2.71494 17.7392 3.05161 16.8042 3.23911C16.0575 2.43994 14.9933 1.93994 13.8117 1.93994C11.5475 1.93994 9.71167 3.77577 9.71167 6.03744C9.71167 6.36244 9.74917 6.67494 9.8175 6.97411C6.40917 6.81327 3.38833 5.17661 1.36667 2.70244C1.01083 3.30411 0.811667 4.00327 0.811667 4.76494C0.811667 6.18994 1.53667 7.44244 2.635 8.17828C1.9625 8.15661 1.33 7.97161 0.778333 7.66494V7.71577C0.778333 9.70327 2.18917 11.3608 4.06667 11.7383C3.7225 11.8308 3.35917 11.8808 2.98667 11.8808C2.725 11.8808 2.47417 11.8558 2.22333 11.8091C2.74917 13.4366 4.26083 14.6233 6.06 14.6566C4.66 15.7558 2.88583 16.4108 0.975 16.4108C0.65 16.4108 0.325833 16.3916 0 16.3549C1.82417 17.5166 3.97333 18.1958 6.2975 18.1958C13.8425 18.1958 17.9633 11.9491 17.9633 6.54077C17.9633 6.36661 17.9633 6.19077 17.9508 6.01577C18.7517 5.44161 19.4508 4.71577 20.0008 3.89244L19.9617 3.87577Z" fill="#2791F3" fill-opacity="0.35"/>
</g>
<defs>
<clipPath id="clip0_846_17397">
<rect width="20" height="20" fill="white" transform="translate(0 0.0683594)"/>
</clipPath>
</defs>
</svg>
