<svg width="642" height="850" viewBox="0 0 642 850" fill="none" xmlns="http://www.w3.org/2000/svg">
<g clip-path="url(#clip0_968_9907)">
<path d="M95 637.277L162.502 615.502L179.922 571.953L246.88 549.634M95 637.277L247.424 124.478L465.173 45M95 637.277L198.871 707.91M465.173 45L407.47 533.847M465.173 45L553.362 124.478L513.078 604.615M407.47 533.847L345.411 554.533L313.838 527.314L246.88 549.634M407.47 533.847L513.078 604.615M513.078 604.615L445.576 630.745L419.446 604.615L274.643 651.431L255.045 697.158L203.874 711.312L198.871 707.91M198.871 707.91L246.88 549.634" stroke="white" stroke-width="8"/>
<path fill-rule="evenodd" clip-rule="evenodd" d="M496.643 474.857L495.425 486.448L445.043 498.856L446.015 489.612C446.262 487.261 448.15 485.322 450.756 484.724L461.406 482.399L479.85 478.992L462.526 471.744L452.55 467.213C450.121 466.125 448.68 463.836 448.927 461.487L449.903 452.203L496.643 474.857Z" fill="white"/>
<path fill-rule="evenodd" clip-rule="evenodd" d="M464.951 439.176L479.801 446.204L480.933 435.429L464.951 439.176ZM492.776 432.593L490.795 451.441L494.519 453.178C496.901 454.3 498.299 456.548 498.056 458.859L497.13 467.676L450.796 443.709L452.06 431.681L502.36 417.911L501.421 426.846C501.178 429.158 499.343 431.066 496.78 431.668L492.776 432.593Z" fill="white"/>
<path fill-rule="evenodd" clip-rule="evenodd" d="M479.257 401.213L480.155 392.664C480.502 389.369 477.937 387.396 474.747 387.06C471.554 386.725 468.492 388.186 468.153 391.403L467.255 399.951L479.257 401.213ZM490.807 402.427L497.369 403.116C500.967 403.494 503.581 406.307 503.251 409.444L502.592 415.716L454.272 410.637L456.424 390.17C457.615 378.836 466.34 374.082 475.822 375.079C485.713 376.119 492.76 382.571 491.706 393.878L490.807 402.427Z" fill="white"/>
<path fill-rule="evenodd" clip-rule="evenodd" d="M509.196 352.888L506.949 374.267L458.63 369.188L463.12 326.467L474.089 332.38L471.331 358.626L478.251 359.353L480.799 335.109L491.448 340.589L489.353 360.52L496.679 361.29L498.538 343.596L505.835 347.259C508.116 348.451 509.431 350.651 509.196 352.888Z" fill="white"/>
<path fill-rule="evenodd" clip-rule="evenodd" d="M478.193 313.185L493.044 320.209L494.175 309.442L478.193 313.185ZM506.014 306.647L504.034 325.48L507.758 327.219C510.14 328.338 511.539 330.584 511.296 332.894L510.37 341.704L464.038 317.713L465.302 305.694L515.6 291.94L514.662 300.868C514.419 303.178 512.585 305.084 510.021 305.685L506.014 306.647Z" fill="white"/>
<path fill-rule="evenodd" clip-rule="evenodd" d="M472.798 235.66L473.786 226.26L519.948 250.596L518.931 260.268L495.043 265.282L517.391 274.918L516.379 284.552L466.335 297.154L467.294 288.026C467.537 285.715 469.373 283.77 471.974 283.213L496.838 277.55L470.612 267.267C469.959 267.002 469.566 266.408 469.628 265.818L470.279 259.629C470.345 259.004 470.849 258.542 471.542 258.416L499.358 253.579L476.025 241.225C473.839 240.007 472.568 237.852 472.798 235.66Z" fill="white"/>
<path fill-rule="evenodd" clip-rule="evenodd" d="M488.645 213.752L503.494 220.781L504.627 210.005L488.645 213.752ZM516.466 207.206L514.484 226.058L518.208 227.795C520.591 228.915 521.989 231.162 521.746 233.474L520.819 242.291L474.485 218.326L475.749 206.297L526.05 192.527L525.111 201.462C524.868 203.771 523.033 205.679 520.469 206.281L516.466 207.206Z" fill="white"/>
<path fill-rule="evenodd" clip-rule="evenodd" d="M477.302 196.741L476.762 196.684L477.968 185.209L499.866 179.473L480.129 164.647L481.458 152L511.61 174.847L528.349 170.668L526.933 184.139L477.302 196.741Z" fill="white"/>
<path d="M292.977 1173H403.63L446.84 952.451M292.977 1173L357.02 907.651M292.977 1173H25L70.7295 1004.62M412.109 671L489 736.871L467.169 848.5M412.109 671L357.02 907.651M412.109 671L138.774 766.548L115.351 848.5M357.02 907.651L312.087 922.421M357.02 907.651L446.84 952.451M312.087 922.421L278.708 899.944L143.907 940.403L109.244 991.137M312.087 922.421L265.228 980.862L128.501 1013.61L109.244 991.137M109.244 991.137L70.7295 1004.62M70.7295 1004.62L115.351 848.5M446.84 952.451L467.169 848.5M115.351 848.5H467.169" stroke="white" stroke-width="7"/>
</g>
<defs>
<clipPath id="clip0_968_9907">
<rect width="642" height="850" fill="white"/>
</clipPath>
</defs>
</svg>
