<svg width="375" height="732" viewBox="0 0 375 732" fill="none" xmlns="http://www.w3.org/2000/svg">
<g clip-path="url(#clip0_949_10374)">
<path d="M104.201 376.108L128.362 368.314L134.597 352.726L158.563 344.738M104.201 376.108L158.758 192.563L236.697 164.115M104.201 376.108L141.38 401.389M236.697 164.115L216.043 339.087M236.697 164.115L268.262 192.563L253.843 364.417M216.043 339.087L193.83 346.491L182.529 336.749L158.563 344.738M216.043 339.087L253.843 364.417M253.843 364.417L229.682 373.77L220.33 364.417L168.5 381.174L161.486 397.541L143.17 402.607L141.38 401.389M141.38 401.389L158.563 344.738" stroke="white" stroke-width="5"/>
<circle opacity="0.15" cx="48.5" cy="467" r="15" fill="white"/>
<circle cx="48.5" cy="467" r="6.75" fill="white"/>
<path d="M89.058 467.196C87.5833 467.196 86.3653 466.706 85.404 465.726C84.4427 464.746 83.962 463.537 83.962 462.1C83.962 460.653 84.4427 459.445 85.404 458.474C86.3653 457.494 87.5833 457.004 89.058 457.004C89.9447 457.004 90.7613 457.214 91.508 457.634C92.264 458.045 92.852 458.605 93.272 459.314L91.606 460.28C91.3633 459.841 91.018 459.501 90.57 459.258C90.122 459.006 89.618 458.88 89.058 458.88C88.106 458.88 87.336 459.179 86.748 459.776C86.1693 460.373 85.88 461.148 85.88 462.1C85.88 463.043 86.1693 463.813 86.748 464.41C87.336 465.007 88.106 465.306 89.058 465.306C89.618 465.306 90.122 465.185 90.57 464.942C91.0273 464.69 91.3727 464.349 91.606 463.92L93.272 464.886C92.852 465.595 92.2687 466.16 91.522 466.58C90.7753 466.991 89.954 467.196 89.058 467.196ZM102.118 467L101.53 465.236H97.6238L97.0358 467H94.9498L98.3798 457.2H100.774L104.218 467H102.118ZM98.2398 463.43H100.928L99.5838 459.426L98.2398 463.43ZM110.223 457.2C111.166 457.2 111.959 457.517 112.603 458.152C113.247 458.787 113.569 459.566 113.569 460.49C113.569 461.414 113.247 462.193 112.603 462.828C111.959 463.463 111.166 463.78 110.223 463.78H108.501V467H106.569V457.2H110.223ZM110.223 461.974C110.634 461.974 110.975 461.834 111.245 461.554C111.516 461.265 111.651 460.91 111.651 460.49C111.651 460.061 111.516 459.706 111.245 459.426C110.975 459.146 110.634 459.006 110.223 459.006H108.501V461.974H110.223ZM122.531 457.2V459.048H119.885V467H117.953V459.048H115.321V457.2H122.531ZM128.664 467.196C127.572 467.196 126.676 466.888 125.976 466.272C125.276 465.656 124.926 464.83 124.926 463.794V457.2H126.844V463.64C126.844 464.153 126.989 464.559 127.278 464.858C127.577 465.157 128.039 465.306 128.664 465.306C129.289 465.306 129.747 465.157 130.036 464.858C130.335 464.559 130.484 464.153 130.484 463.64V457.2H132.416V463.794C132.416 464.83 132.066 465.656 131.366 466.272C130.666 466.888 129.765 467.196 128.664 467.196ZM140.932 467L138.958 463.598H137.488V467H135.556V457.2H139.476C140.382 457.2 141.152 457.517 141.786 458.152C142.421 458.787 142.738 459.552 142.738 460.448C142.738 461.055 142.566 461.619 142.22 462.142C141.875 462.655 141.418 463.043 140.848 463.304L143.018 467H140.932ZM137.488 459.006V461.904H139.476C139.84 461.904 140.153 461.764 140.414 461.484C140.676 461.195 140.806 460.849 140.806 460.448C140.806 460.047 140.676 459.706 140.414 459.426C140.153 459.146 139.84 459.006 139.476 459.006H137.488ZM147.488 465.152H151.618V467H145.556V457.2H151.548V459.048H147.488V461.134H151.198V462.954H147.488V465.152ZM157.726 467.196C156.755 467.196 155.939 466.981 155.276 466.552C154.613 466.113 154.147 465.521 153.876 464.774L155.528 463.808C155.911 464.807 156.662 465.306 157.782 465.306C158.323 465.306 158.72 465.208 158.972 465.012C159.224 464.816 159.35 464.569 159.35 464.27C159.35 463.925 159.196 463.659 158.888 463.472C158.58 463.276 158.029 463.066 157.236 462.842C156.797 462.711 156.424 462.581 156.116 462.45C155.817 462.319 155.514 462.147 155.206 461.932C154.907 461.708 154.679 461.428 154.52 461.092C154.361 460.756 154.282 460.364 154.282 459.916C154.282 459.029 154.595 458.325 155.22 457.802C155.855 457.27 156.615 457.004 157.502 457.004C158.295 457.004 158.991 457.2 159.588 457.592C160.195 457.975 160.666 458.511 161.002 459.202L159.378 460.14C158.986 459.3 158.361 458.88 157.502 458.88C157.101 458.88 156.783 458.973 156.55 459.16C156.326 459.337 156.214 459.571 156.214 459.86C156.214 460.168 156.34 460.42 156.592 460.616C156.853 460.803 157.348 461.008 158.076 461.232C158.375 461.325 158.599 461.4 158.748 461.456C158.907 461.503 159.117 461.582 159.378 461.694C159.649 461.797 159.854 461.895 159.994 461.988C160.143 462.081 160.311 462.207 160.498 462.366C160.685 462.525 160.825 462.688 160.918 462.856C161.021 463.024 161.105 463.229 161.17 463.472C161.245 463.705 161.282 463.962 161.282 464.242C161.282 465.147 160.951 465.866 160.288 466.398C159.635 466.93 158.781 467.196 157.726 467.196ZM174.414 457.2H176.332V467H174.414V462.94H170.774V467H168.842V457.2H170.774V461.092H174.414V457.2ZM185.853 467L185.265 465.236H181.359L180.771 467H178.685L182.115 457.2H184.509L187.953 467H185.853ZM181.975 463.43H184.663L183.319 459.426L181.975 463.43ZM195.68 467L193.706 463.598H192.236V467H190.304V457.2H194.224C195.129 457.2 195.899 457.517 196.534 458.152C197.169 458.787 197.486 459.552 197.486 460.448C197.486 461.055 197.313 461.619 196.968 462.142C196.623 462.655 196.165 463.043 195.596 463.304L197.766 467H195.68ZM192.236 459.006V461.904H194.224C194.588 461.904 194.901 461.764 195.162 461.484C195.423 461.195 195.554 460.849 195.554 460.448C195.554 460.047 195.423 459.706 195.162 459.426C194.901 459.146 194.588 459.006 194.224 459.006H192.236ZM209.894 457.2V467H207.976V460.644L205.218 465.194H204.994L202.236 460.658V467H200.304V457.2H202.292L205.106 461.834L207.906 457.2H209.894ZM218.972 459.048H215.052V461.372H218.86V463.22H215.052V467H213.12V457.2H218.972V459.048ZM225.434 467.196C224.342 467.196 223.446 466.888 222.746 466.272C222.046 465.656 221.696 464.83 221.696 463.794V457.2H223.614V463.64C223.614 464.153 223.758 464.559 224.048 464.858C224.346 465.157 224.808 465.306 225.434 465.306C226.059 465.306 226.516 465.157 226.806 464.858C227.104 464.559 227.254 464.153 227.254 463.64V457.2H229.186V463.794C229.186 464.83 228.836 465.656 228.136 466.272C227.436 466.888 226.535 467.196 225.434 467.196ZM234.258 465.152H237.996V467H232.326V457.2H234.258V465.152ZM251.876 457.2V459.048H249.23V467H247.298V459.048H244.666V457.2H251.876ZM262.04 465.726C261.05 466.706 259.846 467.196 258.428 467.196C257.009 467.196 255.805 466.706 254.816 465.726C253.836 464.737 253.346 463.528 253.346 462.1C253.346 460.672 253.836 459.468 254.816 458.488C255.805 457.499 257.009 457.004 258.428 457.004C259.846 457.004 261.05 457.499 262.04 458.488C263.029 459.468 263.524 460.672 263.524 462.1C263.524 463.528 263.029 464.737 262.04 465.726ZM256.174 464.41C256.78 465.007 257.532 465.306 258.428 465.306C259.324 465.306 260.075 465.007 260.682 464.41C261.288 463.803 261.592 463.033 261.592 462.1C261.592 461.167 261.288 460.397 260.682 459.79C260.075 459.183 259.324 458.88 258.428 458.88C257.532 458.88 256.78 459.183 256.174 459.79C255.567 460.397 255.264 461.167 255.264 462.1C255.264 463.033 255.567 463.803 256.174 464.41ZM273.21 467H271.012L269.108 463.808L267.204 467H265.02L268.016 461.974L265.174 457.2H267.358L269.108 460.14L270.858 457.2H273.042L270.2 461.96L273.21 467ZM275.693 457.2H277.625V467H275.693V457.2ZM286.509 457.2H288.441V467H286.971L282.771 461.008V467H280.839V457.2H282.309L286.509 463.178V457.2ZM294.855 467.196C293.884 467.196 293.067 466.981 292.405 466.552C291.742 466.113 291.275 465.521 291.005 464.774L292.657 463.808C293.039 464.807 293.791 465.306 294.911 465.306C295.452 465.306 295.849 465.208 296.101 465.012C296.353 464.816 296.479 464.569 296.479 464.27C296.479 463.925 296.325 463.659 296.017 463.472C295.709 463.276 295.158 463.066 294.365 462.842C293.926 462.711 293.553 462.581 293.245 462.45C292.946 462.319 292.643 462.147 292.335 461.932C292.036 461.708 291.807 461.428 291.649 461.092C291.49 460.756 291.411 460.364 291.411 459.916C291.411 459.029 291.723 458.325 292.349 457.802C292.983 457.27 293.744 457.004 294.631 457.004C295.424 457.004 296.119 457.2 296.717 457.592C297.323 457.975 297.795 458.511 298.131 459.202L296.507 460.14C296.115 459.3 295.489 458.88 294.631 458.88C294.229 458.88 293.912 458.973 293.679 459.16C293.455 459.337 293.343 459.571 293.343 459.86C293.343 460.168 293.469 460.42 293.721 460.616C293.982 460.803 294.477 461.008 295.205 461.232C295.503 461.325 295.727 461.4 295.877 461.456C296.035 461.503 296.245 461.582 296.507 461.694C296.777 461.797 296.983 461.895 297.123 461.988C297.272 462.081 297.44 462.207 297.627 462.366C297.813 462.525 297.953 462.688 298.047 462.856C298.149 463.024 298.233 463.229 298.299 463.472C298.373 463.705 298.411 463.962 298.411 464.242C298.411 465.147 298.079 465.866 297.417 466.398C296.763 466.93 295.909 467.196 294.855 467.196Z" fill="white"/>
<circle opacity="0.15" cx="48.5" cy="512" r="15" fill="white"/>
<circle cx="48.5" cy="512" r="6.75" fill="white"/>
<path d="M90.262 504.048H86.342V506.372H90.15V508.22H86.342V512H84.41V502.2H90.262V504.048ZM98.4458 512L96.4718 508.598H95.0018V512H93.0698V502.2H96.9898C97.8951 502.2 98.6651 502.517 99.2998 503.152C99.9344 503.787 100.252 504.552 100.252 505.448C100.252 506.055 100.079 506.619 99.7338 507.142C99.3884 507.655 98.9311 508.043 98.3618 508.304L100.532 512H98.4458ZM95.0018 504.006V506.904H96.9898C97.3538 506.904 97.6664 506.764 97.9278 506.484C98.1891 506.195 98.3198 505.849 98.3198 505.448C98.3198 505.047 98.1891 504.706 97.9278 504.426C97.6664 504.146 97.3538 504.006 96.9898 504.006H95.0018ZM105.001 510.152H109.131V512H103.069V502.2H109.061V504.048H105.001V506.134H108.711V507.954H105.001V510.152ZM113.825 510.152H117.955V512H111.893V502.2H117.885V504.048H113.825V506.134H117.535V507.954H113.825V510.152ZM122.775 510.152H126.933V512H120.311V510.46L124.385 504.048H120.409V502.2H126.849V503.726L122.775 510.152ZM131.541 510.152H135.671V512H129.609V502.2H135.601V504.048H131.541V506.134H135.251V507.954H131.541V510.152ZM141.779 512.196C140.808 512.196 139.992 511.981 139.329 511.552C138.666 511.113 138.2 510.521 137.929 509.774L139.581 508.808C139.964 509.807 140.715 510.306 141.835 510.306C142.376 510.306 142.773 510.208 143.025 510.012C143.277 509.816 143.403 509.569 143.403 509.27C143.403 508.925 143.249 508.659 142.941 508.472C142.633 508.276 142.082 508.066 141.289 507.842C140.85 507.711 140.477 507.581 140.169 507.45C139.87 507.319 139.567 507.147 139.259 506.932C138.96 506.708 138.732 506.428 138.573 506.092C138.414 505.756 138.335 505.364 138.335 504.916C138.335 504.029 138.648 503.325 139.273 502.802C139.908 502.27 140.668 502.004 141.555 502.004C142.348 502.004 143.044 502.2 143.641 502.592C144.248 502.975 144.719 503.511 145.055 504.202L143.431 505.14C143.039 504.3 142.414 503.88 141.555 503.88C141.154 503.88 140.836 503.973 140.603 504.16C140.379 504.337 140.267 504.571 140.267 504.86C140.267 505.168 140.393 505.42 140.645 505.616C140.906 505.803 141.401 506.008 142.129 506.232C142.428 506.325 142.652 506.4 142.801 506.456C142.96 506.503 143.17 506.582 143.431 506.694C143.702 506.797 143.907 506.895 144.047 506.988C144.196 507.081 144.364 507.207 144.551 507.366C144.738 507.525 144.878 507.688 144.971 507.856C145.074 508.024 145.158 508.229 145.223 508.472C145.298 508.705 145.335 508.962 145.335 509.242C145.335 510.147 145.004 510.866 144.341 511.398C143.688 511.93 142.834 512.196 141.779 512.196ZM157.543 512.196C156.068 512.196 154.85 511.706 153.889 510.726C152.928 509.746 152.447 508.537 152.447 507.1C152.447 505.653 152.928 504.445 153.889 503.474C154.85 502.494 156.068 502.004 157.543 502.004C158.43 502.004 159.246 502.214 159.993 502.634C160.749 503.045 161.337 503.605 161.757 504.314L160.091 505.28C159.848 504.841 159.503 504.501 159.055 504.258C158.607 504.006 158.103 503.88 157.543 503.88C156.591 503.88 155.821 504.179 155.233 504.776C154.654 505.373 154.365 506.148 154.365 507.1C154.365 508.043 154.654 508.813 155.233 509.41C155.821 510.007 156.591 510.306 157.543 510.306C158.103 510.306 158.607 510.185 159.055 509.942C159.512 509.69 159.858 509.349 160.091 508.92L161.757 509.886C161.337 510.595 160.754 511.16 160.007 511.58C159.26 511.991 158.439 512.196 157.543 512.196ZM169.916 502.2H171.834V512H169.916V507.94H166.276V512H164.344V502.2H166.276V506.092H169.916V502.2ZM176.987 510.152H181.117V512H175.055V502.2H181.047V504.048H176.987V506.134H180.697V507.954H176.987V510.152ZM193.468 502.2V512H191.55V505.644L188.792 510.194H188.568L185.81 505.658V512H183.878V502.2H185.866L188.68 506.834L191.48 502.2H193.468ZM196.694 502.2H198.626V512H196.694V502.2ZM206.488 512.196C205.014 512.196 203.796 511.706 202.834 510.726C201.873 509.746 201.392 508.537 201.392 507.1C201.392 505.653 201.873 504.445 202.834 503.474C203.796 502.494 205.014 502.004 206.488 502.004C207.375 502.004 208.192 502.214 208.938 502.634C209.694 503.045 210.282 503.605 210.702 504.314L209.036 505.28C208.794 504.841 208.448 504.501 208 504.258C207.552 504.006 207.048 503.88 206.488 503.88C205.536 503.88 204.766 504.179 204.178 504.776C203.6 505.373 203.31 506.148 203.31 507.1C203.31 508.043 203.6 508.813 204.178 509.41C204.766 510.007 205.536 510.306 206.488 510.306C207.048 510.306 207.552 510.185 208 509.942C208.458 509.69 208.803 509.349 209.036 508.92L210.702 509.886C210.282 510.595 209.699 511.16 208.952 511.58C208.206 511.991 207.384 512.196 206.488 512.196ZM219.548 512L218.96 510.236H215.054L214.466 512H212.38L215.81 502.2H218.204L221.648 512H219.548ZM215.67 508.43H218.358L217.014 504.426L215.67 508.43ZM225.932 510.152H229.67V512H224V502.2H225.932V510.152ZM235.336 512.196C234.365 512.196 233.548 511.981 232.886 511.552C232.223 511.113 231.756 510.521 231.486 509.774L233.138 508.808C233.52 509.807 234.272 510.306 235.392 510.306C235.933 510.306 236.33 510.208 236.582 510.012C236.834 509.816 236.96 509.569 236.96 509.27C236.96 508.925 236.806 508.659 236.498 508.472C236.19 508.276 235.639 508.066 234.846 507.842C234.407 507.711 234.034 507.581 233.726 507.45C233.427 507.319 233.124 507.147 232.816 506.932C232.517 506.708 232.288 506.428 232.13 506.092C231.971 505.756 231.892 505.364 231.892 504.916C231.892 504.029 232.204 503.325 232.83 502.802C233.464 502.27 234.225 502.004 235.112 502.004C235.905 502.004 236.6 502.2 237.198 502.592C237.804 502.975 238.276 503.511 238.612 504.202L236.988 505.14C236.596 504.3 235.97 503.88 235.112 503.88C234.71 503.88 234.393 503.973 234.16 504.16C233.936 504.337 233.824 504.571 233.824 504.86C233.824 505.168 233.95 505.42 234.202 505.616C234.463 505.803 234.958 506.008 235.686 506.232C235.984 506.325 236.208 506.4 236.358 506.456C236.516 506.503 236.726 506.582 236.988 506.694C237.258 506.797 237.464 506.895 237.604 506.988C237.753 507.081 237.921 507.207 238.108 507.366C238.294 507.525 238.434 507.688 238.528 507.856C238.63 508.024 238.714 508.229 238.78 508.472C238.854 508.705 238.892 508.962 238.892 509.242C238.892 510.147 238.56 510.866 237.898 511.398C237.244 511.93 236.39 512.196 235.336 512.196ZM254.698 510.726C253.708 511.706 252.504 512.196 251.086 512.196C249.667 512.196 248.463 511.706 247.474 510.726C246.494 509.737 246.004 508.528 246.004 507.1C246.004 505.672 246.494 504.468 247.474 503.488C248.463 502.499 249.667 502.004 251.086 502.004C252.504 502.004 253.708 502.499 254.698 503.488C255.687 504.468 256.182 505.672 256.182 507.1C256.182 508.528 255.687 509.737 254.698 510.726ZM248.832 509.41C249.438 510.007 250.19 510.306 251.086 510.306C251.982 510.306 252.733 510.007 253.34 509.41C253.946 508.803 254.25 508.033 254.25 507.1C254.25 506.167 253.946 505.397 253.34 504.79C252.733 504.183 251.982 503.88 251.086 503.88C250.19 503.88 249.438 504.183 248.832 504.79C248.225 505.397 247.922 506.167 247.922 507.1C247.922 508.033 248.225 508.803 248.832 509.41ZM264.61 502.2H266.542V512H265.072L260.872 506.008V512H258.94V502.2H260.41L264.61 508.178V502.2ZM89.058 532.196C87.5833 532.196 86.3653 531.706 85.404 530.726C84.4427 529.746 83.962 528.537 83.962 527.1C83.962 525.653 84.4427 524.445 85.404 523.474C86.3653 522.494 87.5833 522.004 89.058 522.004C89.9447 522.004 90.7613 522.214 91.508 522.634C92.264 523.045 92.852 523.605 93.272 524.314L91.606 525.28C91.3633 524.841 91.018 524.501 90.57 524.258C90.122 524.006 89.618 523.88 89.058 523.88C88.106 523.88 87.336 524.179 86.748 524.776C86.1693 525.373 85.88 526.148 85.88 527.1C85.88 528.043 86.1693 528.813 86.748 529.41C87.336 530.007 88.106 530.306 89.058 530.306C89.618 530.306 90.122 530.185 90.57 529.942C91.0273 529.69 91.3727 529.349 91.606 528.92L93.272 529.886C92.852 530.595 92.2687 531.16 91.522 531.58C90.7753 531.991 89.954 532.196 89.058 532.196ZM104.009 530.726C103.02 531.706 101.816 532.196 100.397 532.196C98.9785 532.196 97.7745 531.706 96.7851 530.726C95.8051 529.737 95.3151 528.528 95.3151 527.1C95.3151 525.672 95.8051 524.468 96.7851 523.488C97.7745 522.499 98.9785 522.004 100.397 522.004C101.816 522.004 103.02 522.499 104.009 523.488C104.998 524.468 105.493 525.672 105.493 527.1C105.493 528.528 104.998 529.737 104.009 530.726ZM98.1431 529.41C98.7498 530.007 99.5011 530.306 100.397 530.306C101.293 530.306 102.044 530.007 102.651 529.41C103.258 528.803 103.561 528.033 103.561 527.1C103.561 526.167 103.258 525.397 102.651 524.79C102.044 524.183 101.293 523.88 100.397 523.88C99.5011 523.88 98.7498 524.183 98.1431 524.79C97.5365 525.397 97.2331 526.167 97.2331 527.1C97.2331 528.033 97.5365 528.803 98.1431 529.41ZM113.921 522.2H115.853V532H114.383L110.183 526.008V532H108.251V522.2H109.721L113.921 528.178V522.2ZM125.553 522.2V524.048H122.907V532H120.975V524.048H118.343V522.2H125.553ZM133.621 532L133.033 530.236H129.127L128.539 532H126.453L129.883 522.2H132.277L135.721 532H133.621ZM129.743 528.43H132.431L131.087 524.426L129.743 528.43ZM142.365 532.196C140.89 532.196 139.672 531.706 138.711 530.726C137.749 529.746 137.269 528.537 137.269 527.1C137.269 525.653 137.749 524.445 138.711 523.474C139.672 522.494 140.89 522.004 142.365 522.004C143.251 522.004 144.068 522.214 144.815 522.634C145.571 523.045 146.159 523.605 146.579 524.314L144.913 525.28C144.67 524.841 144.325 524.501 143.877 524.258C143.429 524.006 142.925 523.88 142.365 523.88C141.413 523.88 140.643 524.179 140.055 524.776C139.476 525.373 139.187 526.148 139.187 527.1C139.187 528.043 139.476 528.813 140.055 529.41C140.643 530.007 141.413 530.306 142.365 530.306C142.925 530.306 143.429 530.185 143.877 529.942C144.334 529.69 144.679 529.349 144.913 528.92L146.579 529.886C146.159 530.595 145.575 531.16 144.829 531.58C144.082 531.991 143.261 532.196 142.365 532.196ZM155.606 522.2V524.048H152.96V532H151.028V524.048H148.396V522.2H155.606Z" fill="white"/>
<circle opacity="0.15" cx="48.5" cy="567" r="15" fill="white"/>
<circle cx="48.5" cy="567" r="6.75" fill="white"/>
<path d="M87.756 567.196C86.7853 567.196 85.9687 566.981 85.306 566.552C84.6433 566.113 84.1767 565.521 83.906 564.774L85.558 563.808C85.9407 564.807 86.692 565.306 87.812 565.306C88.3533 565.306 88.75 565.208 89.002 565.012C89.254 564.816 89.38 564.569 89.38 564.27C89.38 563.925 89.226 563.659 88.918 563.472C88.61 563.276 88.0593 563.066 87.266 562.842C86.8273 562.711 86.454 562.581 86.146 562.45C85.8473 562.319 85.544 562.147 85.236 561.932C84.9373 561.708 84.7087 561.428 84.55 561.092C84.3913 560.756 84.312 560.364 84.312 559.916C84.312 559.029 84.6247 558.325 85.25 557.802C85.8847 557.27 86.6453 557.004 87.532 557.004C88.3253 557.004 89.0207 557.2 89.618 557.592C90.2247 557.975 90.696 558.511 91.032 559.202L89.408 560.14C89.016 559.3 88.3907 558.88 87.532 558.88C87.1307 558.88 86.8133 558.973 86.58 559.16C86.356 559.337 86.244 559.571 86.244 559.86C86.244 560.168 86.37 560.42 86.622 560.616C86.8833 560.803 87.378 561.008 88.106 561.232C88.4047 561.325 88.6287 561.4 88.778 561.456C88.9367 561.503 89.1467 561.582 89.408 561.694C89.6787 561.797 89.884 561.895 90.024 561.988C90.1733 562.081 90.3413 562.207 90.528 562.366C90.7147 562.525 90.8547 562.688 90.948 562.856C91.0507 563.024 91.1347 563.229 91.2 563.472C91.2747 563.705 91.312 563.962 91.312 564.242C91.312 565.147 90.9807 565.866 90.318 566.398C89.6647 566.93 88.8107 567.196 87.756 567.196ZM98.5517 567.196C97.0771 567.196 95.8591 566.706 94.8977 565.726C93.9364 564.746 93.4557 563.537 93.4557 562.1C93.4557 560.653 93.9364 559.445 94.8977 558.474C95.8591 557.494 97.0771 557.004 98.5517 557.004C99.4384 557.004 100.255 557.214 101.002 557.634C101.758 558.045 102.346 558.605 102.766 559.314L101.1 560.28C100.857 559.841 100.512 559.501 100.064 559.258C99.6157 559.006 99.1117 558.88 98.5517 558.88C97.5997 558.88 96.8297 559.179 96.2417 559.776C95.6631 560.373 95.3737 561.148 95.3737 562.1C95.3737 563.043 95.6631 563.813 96.2417 564.41C96.8297 565.007 97.5997 565.306 98.5517 565.306C99.1117 565.306 99.6157 565.185 100.064 564.942C100.521 564.69 100.866 564.349 101.1 563.92L102.766 564.886C102.346 565.595 101.762 566.16 101.016 566.58C100.269 566.991 99.4477 567.196 98.5517 567.196ZM105.353 557.2H107.285V567H105.353V557.2ZM112.431 565.152H116.561V567H110.499V557.2H116.491V559.048H112.431V561.134H116.141V562.954H112.431V565.152ZM124.992 557.2H126.924V567H125.454L121.254 561.008V567H119.322V557.2H120.792L124.992 563.178V557.2ZM136.624 557.2V559.048H133.978V567H132.046V559.048H129.414V557.2H136.624ZM139.103 557.2H141.035V567H139.103V557.2ZM150.101 559.048H146.181V561.372H149.989V563.22H146.181V567H144.249V557.2H150.101V559.048ZM152.909 557.2H154.841V567H152.909V557.2ZM162.703 567.196C161.228 567.196 160.01 566.706 159.049 565.726C158.088 564.746 157.607 563.537 157.607 562.1C157.607 560.653 158.088 559.445 159.049 558.474C160.01 557.494 161.228 557.004 162.703 557.004C163.59 557.004 164.406 557.214 165.153 557.634C165.909 558.045 166.497 558.605 166.917 559.314L165.251 560.28C165.008 559.841 164.663 559.501 164.215 559.258C163.767 559.006 163.263 558.88 162.703 558.88C161.751 558.88 160.981 559.179 160.393 559.776C159.814 560.373 159.525 561.148 159.525 562.1C159.525 563.043 159.814 563.813 160.393 564.41C160.981 565.007 161.751 565.306 162.703 565.306C163.263 565.306 163.767 565.185 164.215 564.942C164.672 564.69 165.018 564.349 165.251 563.92L166.917 564.886C166.497 565.595 165.914 566.16 165.167 566.58C164.42 566.991 163.599 567.196 162.703 567.196ZM175.763 567L175.175 565.236H171.269L170.681 567H168.595L172.025 557.2H174.419L177.863 567H175.763ZM171.885 563.43H174.573L173.229 559.426L171.885 563.43ZM182.146 565.152H185.884V567H180.214V557.2H182.146V565.152ZM190.314 565.152H194.052V567H188.382V557.2H190.314V565.152ZM203.034 557.2L199.674 563.178V567H197.756V563.178L194.41 557.2H196.594L198.722 561.288L200.85 557.2H203.034ZM213.927 557.2C214.87 557.2 215.663 557.517 216.307 558.152C216.951 558.787 217.273 559.566 217.273 560.49C217.273 561.414 216.951 562.193 216.307 562.828C215.663 563.463 214.87 563.78 213.927 563.78H212.205V567H210.273V557.2H213.927ZM213.927 561.974C214.338 561.974 214.679 561.834 214.949 561.554C215.22 561.265 215.355 560.91 215.355 560.49C215.355 560.061 215.22 559.706 214.949 559.426C214.679 559.146 214.338 559.006 213.927 559.006H212.205V561.974H213.927ZM225.307 567L223.333 563.598H221.863V567H219.931V557.2H223.851C224.756 557.2 225.526 557.517 226.161 558.152C226.796 558.787 227.113 559.552 227.113 560.448C227.113 561.055 226.94 561.619 226.595 562.142C226.25 562.655 225.792 563.043 225.223 563.304L227.393 567H225.307ZM221.863 559.006V561.904H223.851C224.215 561.904 224.528 561.764 224.789 561.484C225.05 561.195 225.181 560.849 225.181 560.448C225.181 560.047 225.05 559.706 224.789 559.426C224.528 559.146 224.215 559.006 223.851 559.006H221.863ZM238.067 565.726C237.078 566.706 235.874 567.196 234.455 567.196C233.037 567.196 231.833 566.706 230.843 565.726C229.863 564.737 229.373 563.528 229.373 562.1C229.373 560.672 229.863 559.468 230.843 558.488C231.833 557.499 233.037 557.004 234.455 557.004C235.874 557.004 237.078 557.499 238.067 558.488C239.057 559.468 239.551 560.672 239.551 562.1C239.551 563.528 239.057 564.737 238.067 565.726ZM232.201 564.41C232.808 565.007 233.559 565.306 234.455 565.306C235.351 565.306 236.103 565.007 236.709 564.41C237.316 563.803 237.619 563.033 237.619 562.1C237.619 561.167 237.316 560.397 236.709 559.79C236.103 559.183 235.351 558.88 234.455 558.88C233.559 558.88 232.808 559.183 232.201 559.79C231.595 560.397 231.291 561.167 231.291 562.1C231.291 563.033 231.595 563.803 232.201 564.41ZM244.294 567L241.004 557.2H243.104L245.498 564.732L247.878 557.2H249.992L246.688 567H244.294ZM254.268 565.152H258.398V567H252.336V557.2H258.328V559.048H254.268V561.134H257.978V562.954H254.268V565.152ZM266.83 557.2H268.762V567H267.292L263.092 561.008V567H261.16V557.2H262.63L266.83 563.178V557.2ZM89.786 587L87.812 583.598H86.342V587H84.41V577.2H88.33C89.2353 577.2 90.0053 577.517 90.64 578.152C91.2747 578.787 91.592 579.552 91.592 580.448C91.592 581.055 91.4193 581.619 91.074 582.142C90.7287 582.655 90.2713 583.043 89.702 583.304L91.872 587H89.786ZM86.342 579.006V581.904H88.33C88.694 581.904 89.0067 581.764 89.268 581.484C89.5293 581.195 89.66 580.849 89.66 580.448C89.66 580.047 89.5293 579.706 89.268 579.426C89.0067 579.146 88.694 579.006 88.33 579.006H86.342ZM96.3416 585.152H100.472V587H94.4096V577.2H100.402V579.048H96.3416V581.134H100.052V582.954H96.3416V585.152ZM106.579 587.196C105.609 587.196 104.792 586.981 104.129 586.552C103.467 586.113 103 585.521 102.729 584.774L104.381 583.808C104.764 584.807 105.515 585.306 106.635 585.306C107.177 585.306 107.573 585.208 107.825 585.012C108.077 584.816 108.203 584.569 108.203 584.27C108.203 583.925 108.049 583.659 107.741 583.472C107.433 583.276 106.883 583.066 106.089 582.842C105.651 582.711 105.277 582.581 104.969 582.45C104.671 582.319 104.367 582.147 104.059 581.932C103.761 581.708 103.532 581.428 103.373 581.092C103.215 580.756 103.135 580.364 103.135 579.916C103.135 579.029 103.448 578.325 104.073 577.802C104.708 577.27 105.469 577.004 106.355 577.004C107.149 577.004 107.844 577.2 108.441 577.592C109.048 577.975 109.519 578.511 109.855 579.202L108.231 580.14C107.839 579.3 107.214 578.88 106.355 578.88C105.954 578.88 105.637 578.973 105.403 579.16C105.179 579.337 105.067 579.571 105.067 579.86C105.067 580.168 105.193 580.42 105.445 580.616C105.707 580.803 106.201 581.008 106.929 581.232C107.228 581.325 107.452 581.4 107.601 581.456C107.76 581.503 107.97 581.582 108.231 581.694C108.502 581.797 108.707 581.895 108.847 581.988C108.997 582.081 109.165 582.207 109.351 582.366C109.538 582.525 109.678 582.688 109.771 582.856C109.874 583.024 109.958 583.229 110.023 583.472C110.098 583.705 110.135 583.962 110.135 584.242C110.135 585.147 109.804 585.866 109.141 586.398C108.488 586.93 107.634 587.196 106.579 587.196ZM116.45 587.196C115.358 587.196 114.462 586.888 113.762 586.272C113.062 585.656 112.712 584.83 112.712 583.794V577.2H114.63V583.64C114.63 584.153 114.774 584.559 115.064 584.858C115.362 585.157 115.824 585.306 116.45 585.306C117.075 585.306 117.532 585.157 117.822 584.858C118.12 584.559 118.27 584.153 118.27 583.64V577.2H120.202V583.794C120.202 584.83 119.852 585.656 119.152 586.272C118.452 586.888 117.551 587.196 116.45 587.196ZM125.274 585.152H129.012V587H123.342V577.2H125.274V585.152ZM136.994 577.2V579.048H134.348V587H132.416V579.048H129.784V577.2H136.994ZM142.545 587.196C141.574 587.196 140.757 586.981 140.095 586.552C139.432 586.113 138.965 585.521 138.695 584.774L140.347 583.808C140.729 584.807 141.481 585.306 142.601 585.306C143.142 585.306 143.539 585.208 143.791 585.012C144.043 584.816 144.169 584.569 144.169 584.27C144.169 583.925 144.015 583.659 143.707 583.472C143.399 583.276 142.848 583.066 142.055 582.842C141.616 582.711 141.243 582.581 140.935 582.45C140.636 582.319 140.333 582.147 140.025 581.932C139.726 581.708 139.497 581.428 139.339 581.092C139.18 580.756 139.101 580.364 139.101 579.916C139.101 579.029 139.413 578.325 140.039 577.802C140.673 577.27 141.434 577.004 142.321 577.004C143.114 577.004 143.809 577.2 144.407 577.592C145.013 577.975 145.485 578.511 145.821 579.202L144.197 580.14C143.805 579.3 143.179 578.88 142.321 578.88C141.919 578.88 141.602 578.973 141.369 579.16C141.145 579.337 141.033 579.571 141.033 579.86C141.033 580.168 141.159 580.42 141.411 580.616C141.672 580.803 142.167 581.008 142.895 581.232C143.193 581.325 143.417 581.4 143.567 581.456C143.725 581.503 143.935 581.582 144.197 581.694C144.467 581.797 144.673 581.895 144.813 581.988C144.962 582.081 145.13 582.207 145.317 582.366C145.503 582.525 145.643 582.688 145.737 582.856C145.839 583.024 145.923 583.229 145.989 583.472C146.063 583.705 146.101 583.962 146.101 584.242C146.101 585.147 145.769 585.866 145.107 586.398C144.453 586.93 143.599 587.196 142.545 587.196Z" fill="white"/>
<circle opacity="0.15" cx="48.5" cy="622" r="15" fill="white"/>
<circle cx="48.5" cy="622" r="6.75" fill="white"/>
<path d="M87.756 622.196C86.7853 622.196 85.9687 621.981 85.306 621.552C84.6433 621.113 84.1767 620.521 83.906 619.774L85.558 618.808C85.9407 619.807 86.692 620.306 87.812 620.306C88.3533 620.306 88.75 620.208 89.002 620.012C89.254 619.816 89.38 619.569 89.38 619.27C89.38 618.925 89.226 618.659 88.918 618.472C88.61 618.276 88.0593 618.066 87.266 617.842C86.8273 617.711 86.454 617.581 86.146 617.45C85.8473 617.319 85.544 617.147 85.236 616.932C84.9373 616.708 84.7087 616.428 84.55 616.092C84.3913 615.756 84.312 615.364 84.312 614.916C84.312 614.029 84.6247 613.325 85.25 612.802C85.8847 612.27 86.6453 612.004 87.532 612.004C88.3253 612.004 89.0207 612.2 89.618 612.592C90.2247 612.975 90.696 613.511 91.032 614.202L89.408 615.14C89.016 614.3 88.3907 613.88 87.532 613.88C87.1307 613.88 86.8133 613.973 86.58 614.16C86.356 614.337 86.244 614.571 86.244 614.86C86.244 615.168 86.37 615.42 86.622 615.616C86.8833 615.803 87.378 616.008 88.106 616.232C88.4047 616.325 88.6287 616.4 88.778 616.456C88.9367 616.503 89.1467 616.582 89.408 616.694C89.6787 616.797 89.884 616.895 90.024 616.988C90.1733 617.081 90.3413 617.207 90.528 617.366C90.7147 617.525 90.8547 617.688 90.948 617.856C91.0507 618.024 91.1347 618.229 91.2 618.472C91.2747 618.705 91.312 618.962 91.312 619.242C91.312 620.147 90.9807 620.866 90.318 621.398C89.6647 621.93 88.8107 622.196 87.756 622.196ZM100.122 622L99.5337 620.236H95.6277L95.0397 622H92.9537L96.3837 612.2H98.7777L102.222 622H100.122ZM96.2437 618.43H98.9317L97.5877 614.426L96.2437 618.43ZM114.163 612.2V622H112.245V615.644L109.487 620.194H109.263L106.505 615.658V622H104.573V612.2H106.561L109.375 616.834L112.175 612.2H114.163ZM119.321 620.152H123.451V622H117.389V612.2H123.381V614.048H119.321V616.134H123.031V617.954H119.321V620.152ZM133.535 622L130.245 612.2H132.345L134.739 619.732L137.119 612.2H139.233L135.929 622H133.535ZM147.317 622L146.729 620.236H142.823L142.235 622H140.149L143.579 612.2H145.973L149.417 622H147.317ZM143.439 618.43H146.127L144.783 614.426L143.439 618.43ZM155.423 612.2C156.365 612.2 157.159 612.517 157.803 613.152C158.447 613.787 158.769 614.566 158.769 615.49C158.769 616.414 158.447 617.193 157.803 617.828C157.159 618.463 156.365 618.78 155.423 618.78H153.701V622H151.769V612.2H155.423ZM155.423 616.974C155.833 616.974 156.174 616.834 156.445 616.554C156.715 616.265 156.851 615.91 156.851 615.49C156.851 615.061 156.715 614.706 156.445 614.426C156.174 614.146 155.833 614.006 155.423 614.006H153.701V616.974H155.423ZM161.426 612.2H163.358V622H161.426V612.2ZM172.242 612.2H174.174V622H172.704L168.504 616.008V622H166.572V612.2H168.042L172.242 618.178V612.2ZM187.01 616.736V617.492C187.01 618.892 186.562 620.026 185.666 620.894C184.77 621.762 183.613 622.196 182.194 622.196C180.682 622.196 179.427 621.706 178.428 620.726C177.439 619.737 176.944 618.533 176.944 617.114C176.944 615.686 177.434 614.477 178.414 613.488C179.404 612.499 180.626 612.004 182.082 612.004C182.997 612.004 183.832 612.214 184.588 612.634C185.344 613.045 185.932 613.595 186.352 614.286L184.7 615.238C184.467 614.837 184.112 614.51 183.636 614.258C183.17 614.006 182.647 613.88 182.068 613.88C181.135 613.88 180.365 614.188 179.758 614.804C179.161 615.411 178.862 616.181 178.862 617.114C178.862 618.038 179.166 618.803 179.772 619.41C180.388 620.007 181.2 620.306 182.208 620.306C182.955 620.306 183.571 620.143 184.056 619.816C184.551 619.48 184.887 619.023 185.064 618.444H182.096V616.736H187.01ZM196.617 620.152H200.747V622H194.685V612.2H200.677V614.048H196.617V616.134H200.327V617.954H196.617V620.152ZM210.97 622H208.772L206.868 618.808L204.964 622H202.78L205.776 616.974L202.934 612.2H205.118L206.868 615.14L208.618 612.2H210.802L207.96 616.96L210.97 622ZM217.107 612.2C218.05 612.2 218.843 612.517 219.487 613.152C220.131 613.787 220.453 614.566 220.453 615.49C220.453 616.414 220.131 617.193 219.487 617.828C218.843 618.463 218.05 618.78 217.107 618.78H215.385V622H213.453V612.2H217.107ZM217.107 616.974C217.518 616.974 217.859 616.834 218.129 616.554C218.4 616.265 218.535 615.91 218.535 615.49C218.535 615.061 218.4 614.706 218.129 614.426C217.859 614.146 217.518 614.006 217.107 614.006H215.385V616.974H217.107ZM225.043 620.152H229.173V622H223.111V612.2H229.103V614.048H225.043V616.134H228.753V617.954H225.043V620.152ZM237.311 622L235.337 618.598H233.867V622H231.935V612.2H235.855C236.76 612.2 237.53 612.517 238.165 613.152C238.8 613.787 239.117 614.552 239.117 615.448C239.117 616.055 238.944 616.619 238.599 617.142C238.254 617.655 237.796 618.043 237.227 618.304L239.397 622H237.311ZM233.867 614.006V616.904H235.855C236.219 616.904 236.532 616.764 236.793 616.484C237.054 616.195 237.185 615.849 237.185 615.448C237.185 615.047 237.054 614.706 236.793 614.426C236.532 614.146 236.219 614.006 235.855 614.006H233.867ZM241.935 612.2H243.867V622H241.935V612.2ZM249.013 620.152H253.143V622H247.081V612.2H253.073V614.048H249.013V616.134H252.723V617.954H249.013V620.152ZM261.575 612.2H263.507V622H262.037L257.837 616.008V622H255.905V612.2H257.375L261.575 618.178V612.2ZM271.372 622.196C269.898 622.196 268.68 621.706 267.718 620.726C266.757 619.746 266.276 618.537 266.276 617.1C266.276 615.653 266.757 614.445 267.718 613.474C268.68 612.494 269.898 612.004 271.372 612.004C272.259 612.004 273.076 612.214 273.822 612.634C274.578 613.045 275.166 613.605 275.586 614.314L273.92 615.28C273.678 614.841 273.332 614.501 272.884 614.258C272.436 614.006 271.932 613.88 271.372 613.88C270.42 613.88 269.65 614.179 269.062 614.776C268.484 615.373 268.194 616.148 268.194 617.1C268.194 618.043 268.484 618.813 269.062 619.41C269.65 620.007 270.42 620.306 271.372 620.306C271.932 620.306 272.436 620.185 272.884 619.942C273.342 619.69 273.687 619.349 273.92 618.92L275.586 619.886C275.166 620.595 274.583 621.16 273.836 621.58C273.09 621.991 272.268 622.196 271.372 622.196ZM280.105 620.152H284.235V622H278.173V612.2H284.165V614.048H280.105V616.134H283.815V617.954H280.105V620.152Z" fill="white"/>
<circle opacity="0.15" cx="48.5" cy="667" r="15" fill="white"/>
<circle cx="48.5" cy="667" r="6.75" fill="white"/>
<path d="M90.08 657.2H92.012V667H90.542L86.342 661.008V667H84.41V657.2H85.88L90.08 663.178V657.2ZM103.476 665.726C102.487 666.706 101.283 667.196 99.8639 667.196C98.4453 667.196 97.2413 666.706 96.2519 665.726C95.2719 664.737 94.7819 663.528 94.7819 662.1C94.7819 660.672 95.2719 659.468 96.2519 658.488C97.2413 657.499 98.4453 657.004 99.8639 657.004C101.283 657.004 102.487 657.499 103.476 658.488C104.465 659.468 104.96 660.672 104.96 662.1C104.96 663.528 104.465 664.737 103.476 665.726ZM97.6099 664.41C98.2166 665.007 98.9679 665.306 99.8639 665.306C100.76 665.306 101.511 665.007 102.118 664.41C102.725 663.803 103.028 663.033 103.028 662.1C103.028 661.167 102.725 660.397 102.118 659.79C101.511 659.183 100.76 658.88 99.8639 658.88C98.9679 658.88 98.2166 659.183 97.6099 659.79C97.0033 660.397 96.6999 661.167 96.6999 662.1C96.6999 663.033 97.0033 663.803 97.6099 664.41ZM113.388 657.2H115.32V667H113.85L109.65 661.008V667H107.718V657.2H109.188L113.388 663.178V657.2ZM118.538 663.64V661.904H123.788V663.64H118.538ZM132.777 657.2V659.048H130.131V667H128.199V659.048H125.567V657.2H132.777ZM142.941 665.726C141.952 666.706 140.748 667.196 139.329 667.196C137.91 667.196 136.706 666.706 135.717 665.726C134.737 664.737 134.247 663.528 134.247 662.1C134.247 660.672 134.737 659.468 135.717 658.488C136.706 657.499 137.91 657.004 139.329 657.004C140.748 657.004 141.952 657.499 142.941 658.488C143.93 659.468 144.425 660.672 144.425 662.1C144.425 663.528 143.93 664.737 142.941 665.726ZM137.075 664.41C137.682 665.007 138.433 665.306 139.329 665.306C140.225 665.306 140.976 665.007 141.583 664.41C142.19 663.803 142.493 663.033 142.493 662.1C142.493 661.167 142.19 660.397 141.583 659.79C140.976 659.183 140.225 658.88 139.329 658.88C138.433 658.88 137.682 659.183 137.075 659.79C136.468 660.397 136.165 661.167 136.165 662.1C136.165 663.033 136.468 663.803 137.075 664.41ZM154.112 667H151.914L150.01 663.808L148.106 667H145.922L148.918 661.974L146.076 657.2H148.26L150.01 660.14L151.76 657.2H153.944L151.102 661.96L154.112 667ZM156.595 657.2H158.527V667H156.595V657.2ZM166.389 667.196C164.914 667.196 163.696 666.706 162.735 665.726C161.774 664.746 161.293 663.537 161.293 662.1C161.293 660.653 161.774 659.445 162.735 658.474C163.696 657.494 164.914 657.004 166.389 657.004C167.276 657.004 168.092 657.214 168.839 657.634C169.595 658.045 170.183 658.605 170.603 659.314L168.937 660.28C168.694 659.841 168.349 659.501 167.901 659.258C167.453 659.006 166.949 658.88 166.389 658.88C165.437 658.88 164.667 659.179 164.079 659.776C163.5 660.373 163.211 661.148 163.211 662.1C163.211 663.043 163.5 663.813 164.079 664.41C164.667 665.007 165.437 665.306 166.389 665.306C166.949 665.306 167.453 665.185 167.901 664.942C168.358 664.69 168.704 664.349 168.937 663.92L170.603 664.886C170.183 665.595 169.6 666.16 168.853 666.58C168.106 666.991 167.285 667.196 166.389 667.196ZM178.549 668.4H177.751L183.351 655.8H184.149L178.549 668.4ZM197.679 659.048H193.759V661.372H197.567V663.22H193.759V667H191.827V657.2H197.679V659.048ZM208.733 665.726C207.744 666.706 206.54 667.196 205.121 667.196C203.702 667.196 202.498 666.706 201.509 665.726C200.529 664.737 200.039 663.528 200.039 662.1C200.039 660.672 200.529 659.468 201.509 658.488C202.498 657.499 203.702 657.004 205.121 657.004C206.54 657.004 207.744 657.499 208.733 658.488C209.722 659.468 210.217 660.672 210.217 662.1C210.217 663.528 209.722 664.737 208.733 665.726ZM202.867 664.41C203.474 665.007 204.225 665.306 205.121 665.306C206.017 665.306 206.768 665.007 207.375 664.41C207.982 663.803 208.285 663.033 208.285 662.1C208.285 661.167 207.982 660.397 207.375 659.79C206.768 659.183 206.017 658.88 205.121 658.88C204.225 658.88 203.474 659.183 202.867 659.79C202.26 660.397 201.957 661.167 201.957 662.1C201.957 663.033 202.26 663.803 202.867 664.41ZM221.221 665.726C220.232 666.706 219.028 667.196 217.609 667.196C216.19 667.196 214.986 666.706 213.997 665.726C213.017 664.737 212.527 663.528 212.527 662.1C212.527 660.672 213.017 659.468 213.997 658.488C214.986 657.499 216.19 657.004 217.609 657.004C219.028 657.004 220.232 657.499 221.221 658.488C222.21 659.468 222.705 660.672 222.705 662.1C222.705 663.528 222.21 664.737 221.221 665.726ZM215.355 664.41C215.962 665.007 216.713 665.306 217.609 665.306C218.505 665.306 219.256 665.007 219.863 664.41C220.47 663.803 220.773 663.033 220.773 662.1C220.773 661.167 220.47 660.397 219.863 659.79C219.256 659.183 218.505 658.88 217.609 658.88C216.713 658.88 215.962 659.183 215.355 659.79C214.748 660.397 214.445 661.167 214.445 662.1C214.445 663.033 214.748 663.803 215.355 664.41ZM229.355 657.2C230.699 657.2 231.819 657.671 232.715 658.614C233.62 659.557 234.073 660.719 234.073 662.1C234.073 663.481 233.62 664.643 232.715 665.586C231.819 666.529 230.699 667 229.355 667H225.463V657.2H229.355ZM229.355 665.152C230.204 665.152 230.895 664.872 231.427 664.312C231.959 663.743 232.225 663.005 232.225 662.1C232.225 661.195 231.959 660.462 231.427 659.902C230.895 659.333 230.204 659.048 229.355 659.048H227.395V665.152H229.355ZM251.361 661.736V662.492C251.361 663.892 250.913 665.026 250.017 665.894C249.121 666.762 247.964 667.196 246.545 667.196C245.033 667.196 243.778 666.706 242.779 665.726C241.79 664.737 241.295 663.533 241.295 662.114C241.295 660.686 241.785 659.477 242.765 658.488C243.755 657.499 244.977 657.004 246.433 657.004C247.348 657.004 248.183 657.214 248.939 657.634C249.695 658.045 250.283 658.595 250.703 659.286L249.051 660.238C248.818 659.837 248.463 659.51 247.987 659.258C247.521 659.006 246.998 658.88 246.419 658.88C245.486 658.88 244.716 659.188 244.109 659.804C243.512 660.411 243.213 661.181 243.213 662.114C243.213 663.038 243.517 663.803 244.123 664.41C244.739 665.007 245.551 665.306 246.559 665.306C247.306 665.306 247.922 665.143 248.407 664.816C248.902 664.48 249.238 664.023 249.415 663.444H246.447V661.736H251.361ZM259.511 667L257.537 663.598H256.067V667H254.135V657.2H258.055C258.961 657.2 259.731 657.517 260.365 658.152C261 658.787 261.317 659.552 261.317 660.448C261.317 661.055 261.145 661.619 260.799 662.142C260.454 662.655 259.997 663.043 259.427 663.304L261.597 667H259.511ZM256.067 659.006V661.904H258.055C258.419 661.904 258.732 661.764 258.993 661.484C259.255 661.195 259.385 660.849 259.385 660.448C259.385 660.047 259.255 659.706 258.993 659.426C258.732 659.146 258.419 659.006 258.055 659.006H256.067ZM270.435 667L269.847 665.236H265.941L265.353 667H263.267L266.697 657.2H269.091L272.535 667H270.435ZM266.557 663.43H269.245L267.901 659.426L266.557 663.43ZM278.779 657.2C280.123 657.2 281.243 657.671 282.139 658.614C283.044 659.557 283.497 660.719 283.497 662.1C283.497 663.481 283.044 664.643 282.139 665.586C281.243 666.529 280.123 667 278.779 667H274.887V657.2H278.779ZM278.779 665.152C279.628 665.152 280.319 664.872 280.851 664.312C281.383 663.743 281.649 663.005 281.649 662.1C281.649 661.195 281.383 660.462 280.851 659.902C280.319 659.333 279.628 659.048 278.779 659.048H276.819V665.152H278.779ZM288.199 665.152H292.329V667H286.267V657.2H292.259V659.048H288.199V661.134H291.909V662.954H288.199V665.152ZM303.337 667.196C302.366 667.196 301.55 666.981 300.887 666.552C300.224 666.113 299.758 665.521 299.487 664.774L301.139 663.808C301.522 664.807 302.273 665.306 303.393 665.306C303.934 665.306 304.331 665.208 304.583 665.012C304.835 664.816 304.961 664.569 304.961 664.27C304.961 663.925 304.807 663.659 304.499 663.472C304.191 663.276 303.64 663.066 302.847 662.842C302.408 662.711 302.035 662.581 301.727 662.45C301.428 662.319 301.125 662.147 300.817 661.932C300.518 661.708 300.29 661.428 300.131 661.092C299.972 660.756 299.893 660.364 299.893 659.916C299.893 659.029 300.206 658.325 300.831 657.802C301.466 657.27 302.226 657.004 303.113 657.004C303.906 657.004 304.602 657.2 305.199 657.592C305.806 657.975 306.277 658.511 306.613 659.202L304.989 660.14C304.597 659.3 303.972 658.88 303.113 658.88C302.712 658.88 302.394 658.973 302.161 659.16C301.937 659.337 301.825 659.571 301.825 659.86C301.825 660.168 301.951 660.42 302.203 660.616C302.464 660.803 302.959 661.008 303.687 661.232C303.986 661.325 304.21 661.4 304.359 661.456C304.518 661.503 304.728 661.582 304.989 661.694C305.26 661.797 305.465 661.895 305.605 661.988C305.754 662.081 305.922 662.207 306.109 662.366C306.296 662.525 306.436 662.688 306.529 662.856C306.632 663.024 306.716 663.229 306.781 663.472C306.856 663.705 306.893 663.962 306.893 664.242C306.893 665.147 306.562 665.866 305.899 666.398C305.246 666.93 304.392 667.196 303.337 667.196ZM315.703 667L315.115 665.236H311.209L310.621 667H308.535L311.965 657.2H314.359L317.803 667H315.703ZM311.825 663.43H314.513L313.169 659.426L311.825 663.43ZM326.006 659.048H322.086V661.372H325.894V663.22H322.086V667H320.154V657.2H326.006V659.048ZM330.746 665.152H334.876V667H328.814V657.2H334.806V659.048H330.746V661.134H334.456V662.954H330.746V665.152Z" fill="white"/>
</g>
<defs>
<clipPath id="clip0_949_10374">
<rect width="375" height="732" fill="white"/>
</clipPath>
</defs>
</svg>
