<svg width="431" height="212" viewBox="0 0 431 212" fill="none" xmlns="http://www.w3.org/2000/svg">
<path d="M208.546 39.6483C210.373 39.6483 210.994 40.1076 210.994 40.5707C210.994 41.3367 209.919 41.794 208.546 42.1029C201.203 43.322 201.355 47.9143 201.355 55.1112C201.045 69.5033 201.045 89.2458 201.203 97.9728C201.355 109.762 204.266 118.645 209.308 123.843C215.115 130.126 223.684 132.117 230.564 132.117C247.228 132.117 257.903 123.384 258.971 92.9254C259.125 87.4068 259.271 80.2178 259.271 75.4751C259.271 46.5405 257.903 44.7038 253.771 43.0212C252.547 42.7125 251.02 42.2532 249.796 42.1029C248.418 41.9484 247.192 41.1843 247.192 40.7211C247.192 39.9572 248.112 39.6483 249.796 39.6483C253.316 39.6483 255.757 40.1076 260.653 40.1076C264.012 40.1076 268.637 39.6483 272.465 39.6483C274.298 39.6483 275.217 39.9572 275.217 40.4203C275.217 41.1764 274.454 41.6397 272.006 42.1029C265.891 43.1716 265.432 46.2357 264.967 52.9696C264.358 62.0034 264.204 81.8983 263.597 90.6253C262.828 105.782 261.149 119.255 252.43 128.443C244.48 136.86 232.858 138.388 225.364 138.388C217.102 138.388 207.319 136.09 201.203 131.347C191.875 124 188.512 115.12 188.053 95.6808C187.592 83.5886 187.899 60.9306 187.29 51.8929C186.827 44.3989 186.521 43.322 180.407 41.6397C179.337 41.3367 178.42 40.8776 178.42 40.2639C178.42 39.502 179.79 39.502 181.172 39.502C185.143 39.502 189.739 40.1076 195.549 40.1076C200.588 40.1076 204.719 39.6483 208.546 39.6483Z" fill="white"/>
<path d="M347.538 44.7038C353.958 49.4503 357.013 55.8774 357.013 63.2248C357.013 73.0208 352.216 78.1137 348.75 80.7878C346.423 82.5733 342.862 84.6555 340.713 85.3998C335.918 87.0507 332.931 87.5375 333.542 89.0695C336.448 94.7346 343.622 107.197 348.823 115.158C353.567 122.046 356.772 126.029 359.985 129.394C364.416 133.99 368.242 134.91 371.298 135.059C372.216 135.059 373.135 135.514 373.135 135.977C373.135 136.432 372.524 136.891 371.452 137.349C370.226 137.812 367.174 137.966 363.957 137.966C354.172 137.966 346.987 134.293 340.869 125.872C334.6 117.61 324.51 99.6553 320.839 93.6893C318.545 90.6253 316.862 89.897 314.871 89.5922C314.175 89.4179 306.251 89.2912 305.156 89.2458C304.327 89.2122 303.336 89.2219 302.089 89.2794C301.48 89.2794 300.869 90.0493 300.869 90.8114C300.564 92.957 300.564 109.649 300.715 115.158C300.715 123.883 301.328 128.626 301.937 130.312C302.397 131.844 303.619 133.679 308.971 134.597C310.502 135.059 311.263 135.514 311.263 136.127C311.263 136.743 310.043 137.204 308.363 137.204C305.913 137.204 300.258 136.432 294.445 136.432C288.946 136.432 282.825 137.204 280.071 137.204C278.39 137.204 277.321 136.891 277.321 136.127C277.321 135.514 278.236 135.059 280.227 134.597C285.271 133.679 286.797 132.155 287.256 126.029C287.717 117.295 288.027 103.947 288.027 86.6449C288.027 65.3685 287.414 54.9608 287.112 49.5948C286.797 45.1629 286.797 42.8648 280.375 41.794C279.003 41.4853 277.625 41.1843 277.625 40.4203C277.625 39.8048 278.695 39.502 280.375 39.502C282.519 39.502 287.414 39.9335 292.616 39.9572C296.923 39.9769 300.179 39.9452 302.736 39.8879C303.25 39.878 307.682 39.882 308.151 39.8621C315.581 39.6562 319.755 39.191 326.893 39.191C336.069 39.191 342.491 41.1764 347.538 44.7038ZM302.01 43.5993C301.577 43.9475 300.993 44.9095 300.837 47.6689C300.691 50.2657 300.564 80.6769 300.564 83.274C300.564 85.1128 301.017 85.8828 301.788 85.8828C302.55 86.1876 304.238 86.1876 305.15 86.1876C305.836 86.1599 313.485 86.1876 314.921 86.1994C317.301 86.2233 320.407 86.2172 323.298 85.865C328.02 85.2889 332.81 83.8243 334.503 82.6682C338.787 79.7545 343.404 73.9392 343.404 65.5189C343.404 58.019 341.573 52.8549 337.441 48.7178C332.856 44.1277 327.66 42.4393 320.775 42.4393C320.637 42.4393 318.707 42.4472 316.781 42.4551C314.858 42.461 305.816 42.4868 305.67 42.4868C303.607 42.4868 302.633 43.0964 302.01 43.5993Z" fill="white"/>
<path d="M180.524 150.019C182.709 150.019 183.638 150.197 186.825 150.197C186.896 150.197 187.185 150.519 187.221 150.7C187.505 151.594 187.865 152.418 188.616 153.924C190.263 157.33 193.271 163.674 194.022 164.678C194.093 164.749 194.309 164.785 194.346 164.749C195.382 162.849 198.105 157.259 199.536 153.817C199.788 153.243 200.539 151.523 200.681 150.771C200.719 150.591 201.041 150.197 201.112 150.197C204.228 150.197 207.056 150.019 207.378 150.019C207.807 150.019 208.345 150.125 208.345 150.482C208.345 150.878 207.951 151.056 207.271 151.236C206.698 151.38 206.269 151.559 205.66 151.881C205.015 152.204 204.908 152.992 204.908 154.821C204.908 158.906 205.051 167.223 205.337 169.373C205.482 170.343 205.766 171.095 207.593 171.525C208.202 171.669 208.558 172.061 208.558 172.314C208.558 172.742 207.987 172.886 207.451 172.886C207.056 172.886 203.404 172.706 202.15 172.706C201.506 172.706 199.214 172.815 198.427 172.815C197.783 172.815 197.352 172.671 197.352 172.314C197.352 171.99 197.854 171.596 198.356 171.489C199.859 171.202 200.001 169.947 200.11 168.443C200.254 166.614 200.361 157.904 200.361 156.147C200.361 155.715 200.11 155.573 199.965 155.86C198.463 158.977 195.92 164.607 195.027 166.685C194.093 168.872 193.378 170.806 192.913 171.847C192.484 172.851 191.982 172.995 191.839 172.995C191.695 172.995 191.301 172.528 191.123 172.134C190.979 171.74 190.443 170.234 189.799 168.549C187.936 164.033 184.749 156.828 184.391 156.325C184.282 156.147 184.176 156.289 184.176 156.434C183.891 159.266 183.602 164.175 183.602 168.334C183.602 170.485 183.962 170.915 185.787 171.489C186.54 171.74 186.861 172.025 186.861 172.35C186.861 172.635 186.432 172.851 185.825 172.851C184.749 172.851 183.46 172.706 182.637 172.706C181.777 172.706 180.059 172.886 179.272 172.886C178.77 172.886 178.126 172.815 178.126 172.35C178.126 172.061 178.519 171.883 179.199 171.596C181.06 170.879 181.526 170.521 181.849 167.762C182.171 164.892 183.029 157.259 183.029 153.817C183.029 153.279 182.958 151.917 181.777 151.63L180.344 151.236C180.095 151.165 179.486 150.913 179.486 150.555C179.486 150.197 179.773 150.019 180.524 150.019Z" fill="white"/>
<path d="M227.065 150.197C228.245 150.197 229.679 150.019 230.179 149.91C230.321 149.874 230.608 150.161 230.643 150.41C230.679 150.555 230.679 153.744 230.679 154.462C230.679 154.963 230.394 155.501 230.07 155.501C229.75 155.501 229.426 154.963 229.354 154.569C228.89 152.527 227.781 151.917 227.1 151.772C226.562 151.665 225.487 151.523 222.157 151.523C222.015 151.523 221.764 151.665 221.728 152.562C221.693 153.423 221.584 157.58 221.584 160.196C221.584 160.303 221.764 160.593 222.015 160.593H225.095C227.243 160.593 227.1 160.412 227.781 158.906C228.03 158.37 228.281 157.904 228.639 157.904C228.961 157.904 229.07 158.512 229.034 159.013C228.961 159.983 228.89 160.628 228.89 161.416C228.89 162.348 228.925 162.993 229.034 163.961C229.105 164.607 228.852 165.072 228.532 165.072C228.245 165.072 227.923 164.642 227.816 164.246C227.349 162.742 226.776 162.384 225.738 162.275C224.593 162.168 223.304 162.168 222.122 162.168C221.98 162.168 221.584 162.6 221.584 162.671C221.477 163.819 221.513 166.291 221.548 167.33C221.584 168.082 221.477 169.409 221.62 170.234C221.657 170.521 222.015 171.059 222.444 171.166C222.982 171.273 224.02 171.344 225.167 171.344C226.527 171.344 227.456 171.38 228.39 170.986C229.426 170.557 230.43 169.589 231.146 168.334C231.719 167.366 232.075 166.972 232.399 166.972C232.828 166.972 232.719 167.797 232.719 168.047C232.719 168.334 231.648 171.631 231.324 172.35C231.181 172.671 230.501 172.851 230.321 172.851C229.928 172.851 219.401 172.706 218.254 172.706C215.641 172.706 215.391 172.886 214.174 172.886C213.493 172.886 212.884 172.778 212.884 172.421C212.884 172.061 213.351 171.776 213.996 171.631C215.821 171.202 216.178 170.77 216.321 168.835C216.429 167.366 216.609 165.323 216.609 160.913C216.609 156.685 216.645 154.642 216.572 153.601C216.501 152.418 216.25 151.594 214.711 151.345C213.96 151.2 213.529 151.056 213.529 150.626C213.529 150.304 214.209 150.09 214.676 150.09C216.356 150.09 220.046 150.197 221.693 150.197H227.065V150.197Z" fill="white"/>
<path d="M257.968 153.316C259.902 155.179 261.371 158.118 261.371 161.093C261.371 166.147 258.221 169.698 255.75 171.059C253.638 172.277 250.629 172.995 247.73 172.995C246.261 172.995 242.503 172.886 240.498 172.815C239.209 172.778 238.384 172.778 237.811 172.778C237.024 172.778 236.595 172.457 236.595 172.17C236.595 171.883 237.166 171.596 237.595 171.525C239.673 171.238 239.889 170.844 239.996 167.366C240.067 165.252 240.102 163.639 240.067 162.384C240.031 160.593 240.138 156.685 239.96 154.569C239.78 152.311 239.673 151.666 237.811 151.38C237.453 151.307 236.951 150.985 236.951 150.735C236.951 150.446 237.453 150.197 237.955 150.197H240.245C241.965 150.197 246.152 149.91 248.588 149.91C253.567 149.91 256.572 152.026 257.968 153.316ZM245.365 151.701C245.187 151.808 245.116 152.026 245.116 152.204C245.045 153.279 244.972 155.143 244.972 158.296V163.459C244.972 165.933 245.008 167.617 245.116 169.195C245.187 169.947 245.365 170.27 245.832 170.735C246.332 171.202 247.586 171.705 247.944 171.705C249.34 171.705 250.736 171.309 252.669 169.698C254.854 167.869 255.821 164.211 255.821 161.129C255.821 158.87 255.07 155.933 253.458 153.997C251.989 152.275 249.375 151.236 246.941 151.236C246.297 151.236 245.903 151.416 245.365 151.701Z" fill="white"/>
<path d="M268.411 154.104C268.305 152.382 268.305 151.808 266.656 151.38C265.762 151.127 265.511 150.878 265.511 150.591C265.511 150.304 266.083 150.054 266.798 150.054C267.909 150.054 269.807 150.197 270.99 150.197C272.744 150.197 274.175 150.054 275.429 150.054C276.037 150.054 276.646 150.232 276.646 150.591C276.646 150.985 276.073 151.272 275.464 151.38C273.817 151.666 273.639 152.598 273.568 153.53C273.532 154.247 273.459 155.034 273.459 160.735C273.459 166.218 273.495 167.473 273.568 168.514C273.746 170.699 273.96 171.024 275.858 171.56C276.502 171.74 276.862 171.99 276.862 172.386C276.862 172.815 276.109 172.886 275.68 172.886C274.462 172.851 272.063 172.671 270.31 172.706C269.27 172.706 267.838 172.815 266.513 172.815C265.582 172.815 265.296 172.564 265.296 172.17C265.296 171.918 265.618 171.669 266.407 171.451C267.981 171.059 268.267 170.198 268.34 168.728C268.411 167.295 268.483 163.639 268.483 160.593C268.483 158.942 268.518 155.573 268.411 154.104Z" fill="white"/>
<path d="M299.078 150.197C299.904 150.41 300.584 150.519 301.585 150.626C301.836 150.662 302.087 151.127 302.087 151.523L302.265 154.927C302.3 155.68 302.051 156.396 301.62 156.396C301.407 156.396 301.084 155.969 300.869 155.395C300.476 154.353 300.011 153.459 299.366 152.92C298.042 151.701 296.179 150.771 294.245 150.771C288.624 150.771 286.404 155.108 286.404 160.593C286.404 162.993 286.835 165.145 287.622 166.721C289.556 170.592 292.383 171.883 295.139 171.883C295.499 171.883 297.217 171.812 298.398 171.131C299.616 170.414 300.584 169.444 301.371 167.975C301.836 167.152 302.122 166.756 302.48 166.756C302.874 166.756 302.838 167.762 302.731 168.154C302.518 169.088 302.051 170.485 301.836 171.059C301.729 171.38 301.084 172.025 300.476 172.277C300.011 172.457 297.753 173.352 294.317 173.352C288.875 173.352 285.115 171.024 283.648 169.337C282.288 167.762 280.638 165.323 280.638 161.38C280.638 156.935 283.039 153.997 284.541 152.778C287.586 150.268 291.454 149.587 294.174 149.587C296.037 149.587 297.791 149.836 299.078 150.197Z" fill="white"/>
<path d="M310.249 154.104C310.142 152.382 310.142 151.808 308.493 151.38C307.599 151.127 307.348 150.878 307.348 150.591C307.348 150.304 307.92 150.054 308.635 150.054C309.747 150.054 311.645 150.197 312.827 150.197C314.581 150.197 316.012 150.054 317.266 150.054C317.875 150.054 318.484 150.232 318.484 150.591C318.484 150.985 317.91 151.272 317.301 151.38C315.654 151.666 315.476 152.598 315.405 153.53C315.37 154.247 315.297 155.034 315.297 160.735C315.297 166.218 315.332 167.473 315.405 168.514C315.583 170.699 315.797 171.024 317.695 171.56C318.339 171.74 318.699 171.99 318.699 172.386C318.699 172.815 317.946 172.886 317.517 172.886C316.299 172.851 313.901 172.671 312.147 172.706C311.107 172.706 309.675 172.815 308.351 172.815C307.419 172.815 307.133 172.564 307.133 172.17C307.133 171.918 307.455 171.669 308.244 171.451C309.818 171.059 310.104 170.198 310.178 168.728C310.249 167.295 310.32 163.639 310.32 160.593C310.32 158.942 310.355 155.573 310.249 154.104Z" fill="white"/>
<path d="M324.235 150.019C325.022 150.019 328.352 150.197 330.179 150.197C330.357 150.197 330.93 150.591 331.001 150.662C331.539 151.307 332.579 152.418 334.082 154.104C335.944 156.289 342.532 162.958 344.179 164.642C344.324 164.785 344.466 164.535 344.466 164.464C344.644 163.459 344.537 159.302 344.537 157.33C344.537 156.147 344.43 154.247 344.324 153.388C344.215 152.671 343.821 151.917 342.137 151.487C341.385 151.307 340.848 151.127 340.848 150.662C340.848 150.41 341.207 150.161 341.923 150.161C342.781 150.161 343.534 150.197 344.07 150.197C345.969 150.197 347.617 149.981 348.547 149.981C349.156 149.981 349.407 150.232 349.407 150.519C349.407 150.699 349.12 151.02 348.511 151.236C346.471 151.917 346.506 152.742 346.328 153.962C346.184 155.214 345.969 165.288 345.969 166.827C345.969 168.298 346.184 171.705 346.184 172.778C346.184 173.102 345.648 173.423 345.539 173.423C344.679 173.423 343.786 172.421 343.461 171.954C342.746 170.986 342.03 170.234 341.065 169.052C337.698 164.892 332.041 159.086 328.89 155.395C328.712 155.179 328.496 155.537 328.496 155.608C328.423 156.578 328.352 157.33 328.316 160.161C328.245 166.004 328.209 167.401 328.461 169.444C328.567 170.343 328.961 171.024 330.717 171.56C331.432 171.776 331.755 172.025 331.755 172.241C331.755 172.671 331.254 172.815 330.574 172.815C329.534 172.815 329.032 172.706 327.778 172.706C326.991 172.706 324.449 172.851 323.84 172.851C323.34 172.851 322.911 172.599 322.911 172.35C322.911 171.918 323.413 171.776 323.769 171.669C325.382 171.202 326.311 170.844 326.418 168.154C326.598 163.566 327.027 157.509 327.027 155.143C327.027 153.637 326.991 153.172 326.849 152.992C326.383 152.418 326.205 151.666 324.235 151.271C323.84 151.2 323.233 150.878 323.233 150.591C323.233 150.304 323.698 150.019 324.235 150.019Z" fill="white"/>
<path d="M367.332 150.197C368.512 150.197 369.946 150.019 370.446 149.91C370.588 149.874 370.877 150.161 370.913 150.41C370.948 150.555 370.948 153.744 370.948 154.462C370.948 154.963 370.662 155.501 370.339 155.501C370.017 155.501 369.695 154.963 369.624 154.569C369.157 152.527 368.048 151.917 367.367 151.772C366.832 151.665 365.756 151.523 362.427 151.523C362.284 151.523 362.031 151.665 361.996 152.562C361.96 153.423 361.853 157.58 361.853 160.196C361.853 160.303 362.031 160.593 362.284 160.593H365.363C367.512 160.593 367.367 160.412 368.048 158.906C368.299 158.37 368.548 157.904 368.908 157.904C369.228 157.904 369.337 158.512 369.301 159.013C369.228 159.983 369.157 160.628 369.157 161.416C369.157 162.348 369.192 162.993 369.301 163.961C369.372 164.607 369.121 165.072 368.801 165.072C368.512 165.072 368.192 164.642 368.083 164.246C367.619 162.742 367.045 162.384 366.005 162.275C364.86 162.168 363.573 162.168 362.391 162.168C362.249 162.168 361.853 162.6 361.853 162.671C361.746 163.819 361.782 166.291 361.818 167.33C361.853 168.082 361.746 169.409 361.889 170.234C361.924 170.521 362.284 171.059 362.711 171.166C363.249 171.273 364.289 171.344 365.434 171.344C366.794 171.344 367.725 171.38 368.657 170.986C369.695 170.557 370.697 169.589 371.415 168.334C371.986 167.366 372.344 166.972 372.666 166.972C373.095 166.972 372.989 167.797 372.989 168.047C372.989 168.334 371.915 171.631 371.593 172.35C371.45 172.671 370.77 172.851 370.588 172.851C370.197 172.851 359.67 172.706 358.524 172.706C355.91 172.706 355.659 172.886 354.443 172.886C353.763 172.886 353.154 172.778 353.154 172.421C353.154 172.061 353.618 171.776 354.263 171.631C356.088 171.202 356.448 170.77 356.59 168.835C356.697 167.366 356.877 165.323 356.877 160.913C356.877 156.685 356.912 154.642 356.839 153.601C356.768 152.418 356.519 151.594 354.979 151.345C354.225 151.2 353.798 151.056 353.798 150.626C353.798 150.304 354.478 150.09 354.943 150.09C356.626 150.09 360.315 150.197 361.96 150.197H367.332V150.197Z" fill="white"/>
<path d="M158.406 98.5591V53.7284C158.76 52.9287 163.247 42.8869 163.247 42.8869L160.404 42.404C160.128 42.3563 132.289 37.7253 102.117 37.7253C71.9338 37.7253 44.0911 42.3563 43.8261 42.404L40.9637 42.8869C40.9637 42.8869 45.461 52.9287 45.811 53.7284V98.5591C45.811 105.32 47.4163 116.236 50.2629 123.868C51.8385 128.103 53.8768 132.659 56.6799 137.397C65.9774 153.072 79.8711 165.203 97.9816 173.448L101.192 174.917L102.188 175.325L106.253 173.448C124.353 165.203 138.263 153.072 147.556 137.397C150.358 132.653 152.426 128.081 153.977 123.824C153.967 123.836 153.967 123.844 153.967 123.844C156.81 115.251 158.406 103.424 158.406 98.5591Z" fill="url(#paint0_linear_1173_6801)"/>
<path d="M64.0144 128.705C63.8522 128.422 63.7692 128.271 63.7692 128.271L53.6711 131.816C54.5667 133.643 55.559 135.503 56.6799 137.397C65.9774 153.072 79.8711 165.203 97.9816 173.448L101.125 174.885C101.669 175.111 102.04 175.265 102.188 175.325V163.497C102.188 163.497 86.3731 156.064 78.6176 148.037C71.4949 140.983 66.6397 133.379 64.0144 128.705Z" fill="url(#paint1_linear_1173_6801)"/>
<path d="M101.109 166.63L101.382 166.759L102.188 167.153L103.293 166.652L103.317 166.64C120.079 159.013 132.874 147.849 141.375 133.504C144.435 128.329 146.677 123.048 148.14 118.57C147.531 118.512 146.906 118.457 146.271 118.4C144.854 122.66 142.749 127.672 139.843 132.584C131.518 146.632 118.986 157.536 102.588 165.013C102.588 165.013 102.333 165.118 102.188 165.184C102.082 165.132 101.825 164.999 101.825 164.999L101.809 164.99C85.3966 157.528 72.9084 146.632 64.5915 132.584C61.737 127.755 59.5703 122.597 58.131 118.368C57.5004 118.423 56.8816 118.479 56.2807 118.536C57.7634 123.007 60.0209 128.368 63.0615 133.504C71.5662 147.87 84.3646 159.013 101.109 166.63Z" fill="url(#paint2_linear_1173_6801)"/>
<path d="M152.271 51.9393V93.4272C152.882 93.4906 153.481 93.5558 154.059 93.6231V52.4381C154.059 52.4381 155.771 48.8123 156.911 46.2671C150.824 45.3529 135.693 43.34 117.853 42.4929V44.2703C133.461 45.0183 146.953 46.6629 154.304 47.6981C153.473 49.5939 152.271 51.9393 152.271 51.9393Z" fill="url(#paint3_linear_1173_6801)"/>
<path d="M54.2918 50.0393C61.9386 49.0477 73.5074 47.7851 86.5669 47.1498V45.3488C73.8276 45.9584 62.3576 47.1934 54.0645 48.2758L51.6862 48.5707C51.6862 48.5707 52.9594 51.3098 53.2322 51.8086V93.2747C53.8134 93.2153 54.4066 93.156 55.0094 93.0968V51.3177C55.0094 51.3177 54.5173 50.546 54.2918 50.0393Z" fill="url(#paint4_linear_1173_6801)"/>
<path d="M50.3737 93.5795C50.951 93.5123 51.546 93.449 52.1549 93.3856V52.1035C52.1549 52.1035 50.9589 49.5939 50.1069 47.698C57.4629 46.6629 70.9672 45.0183 86.5669 44.2703V42.4929C68.743 43.34 53.6039 45.3488 47.5189 46.2671C48.6459 48.8123 50.3737 52.6399 50.3737 52.6399V93.5795Z" fill="url(#paint5_linear_1173_6801)"/>
<path d="M149.219 118.675C147.724 123.278 145.463 128.703 142.304 134.052C133.657 148.623 120.7 159.896 103.778 167.61C103.778 167.61 102.872 168.022 102.188 168.336C101.512 168.036 100.668 167.614 100.668 167.614C83.736 159.896 70.7714 148.623 62.1402 134.052C59.0166 128.788 56.6957 123.207 55.2052 118.639C54.5784 118.699 53.9715 118.76 53.3746 118.821C54.9127 123.614 57.3166 129.407 60.61 134.979C69.4311 149.85 82.6605 161.386 99.9347 169.251C99.9347 169.251 101.245 169.89 102.188 170.316C103.137 169.878 104.509 169.251 104.509 169.251C121.774 161.386 135.003 149.854 143.834 134.979C147.161 129.358 149.508 123.676 151.032 118.859C150.441 118.797 149.838 118.734 149.219 118.675Z" fill="url(#paint6_linear_1173_6801)"/>
<path d="M149.413 51.1317V93.1363C150.022 93.1957 150.615 93.255 151.192 93.3144V51.6187C151.398 51.1872 152.746 48.5747 152.746 48.5747L150.37 48.2758C142.074 47.1934 130.61 45.9584 117.853 45.3488V47.1498C130.921 47.7851 142.497 49.0477 150.134 50.0393C149.824 50.4787 149.413 51.1317 149.413 51.1317Z" fill="url(#paint7_linear_1173_6801)"/>
<path d="M40.9637 42.8591L45.7832 53.8589C45.7832 53.8589 50.3538 52.5984 52.7025 51.9491C55.055 51.302 56.0119 51.0367 56.0119 51.0367C56.0119 51.0367 55.2685 50.637 54.0645 49.9304C52.5602 49.0518 50.3874 47.8701 48.6497 46.9103C45.5223 45.1845 40.9637 42.8591 40.9637 42.8591Z" fill="#0B1F42"/>
<path d="M50.1206 47.7178C49.6145 47.4407 49.1163 47.1677 48.6558 46.9104C48.2979 46.7144 47.9262 46.5125 47.5428 46.3048C48.6003 48.6936 50.172 52.1828 50.3599 52.5964C50.9925 52.4221 51.6111 52.2521 52.1569 52.1015C52.149 52.0837 50.9668 49.6039 50.1206 47.7178Z" fill="#C2952D"/>
<path d="M54.3116 50.0731C54.2327 50.0275 54.1535 49.9819 54.0685 49.9304C53.3824 49.5308 52.5561 49.0657 51.6982 48.5886C51.7832 48.7728 52.9654 51.314 53.2363 51.8048C53.9914 51.5949 54.5805 51.4328 55.0114 51.3158C55.0015 51.2982 54.5448 50.5737 54.3116 50.0731Z" fill="#C2952D"/>
<path d="M163.247 42.8591L158.406 53.7007L148.727 50.922C148.727 50.922 149.856 50.174 151.062 49.4673C152.568 48.5867 154.849 47.3754 156.585 46.4156C159.714 44.6918 163.247 42.8591 163.247 42.8591Z" fill="#0B1F42"/>
<path d="M150.134 50.0394C149.834 50.4589 149.448 51.0802 149.421 51.1238L151.192 51.6325V51.6187C151.398 51.1872 152.746 48.5747 152.746 48.5747L152.659 48.5648C152.078 48.8854 151.53 49.1923 151.062 49.4673C150.733 49.6594 150.413 49.8533 150.119 50.0353C150.124 50.0373 150.13 50.0394 150.134 50.0394Z" fill="#C2952D"/>
<path d="M154.252 47.6901C154.268 47.694 154.284 47.696 154.304 47.698C153.473 49.5939 152.271 51.9393 152.271 51.9393L154.059 52.4539V52.4381C154.059 52.4381 155.771 48.8123 156.911 46.2671C156.897 46.2652 156.885 46.2632 156.874 46.2592C156.775 46.3127 156.68 46.3662 156.585 46.4156C155.869 46.8114 155.059 47.2528 154.252 47.6901Z" fill="#C2952D"/>
<path d="M160.365 42.3961C160.086 42.3446 132.249 37.7134 102.074 37.7134C71.8944 37.7134 44.0516 42.3446 43.7826 42.3961L40.9874 42.865C41.3254 43.0411 45.2158 45.0402 48.2702 46.6985C51.4688 48.4382 56.004 51.027 56.004 51.027C56.004 51.027 78.169 47.9374 102.645 47.9374C127.121 47.9374 148.717 50.912 148.717 50.912C148.717 50.912 149.336 50.4589 150.314 49.8829C151.585 49.1329 153.446 48.1334 155.134 47.1973C158.119 45.5407 163.206 42.8749 163.206 42.8749L160.365 42.3961Z" fill="url(#paint8_radial_1173_6801)"/>
<path d="M102.453 120.06C74.6382 120.06 61.6499 124.2 61.6499 124.2C61.6499 124.2 66.9323 136.006 77.5364 146.966C77.8763 147.32 78.2243 147.672 78.5761 148.025C79.2286 148.672 79.8849 149.295 80.5452 149.897C88.7315 157.172 102.188 163.486 102.188 163.486C102.188 163.486 114.675 158.324 126.392 147.447C137.176 137.44 142.304 125.243 142.304 125.243C142.304 125.243 130.264 120.06 102.453 120.06Z" fill="url(#paint9_radial_1173_6801)"/>
<path d="M101.981 91.1434C121.831 91.1434 136.84 91.9686 147.768 92.974H147.77C147.78 92.974 147.796 92.974 147.796 92.974L148.717 50.912C148.717 50.912 126.445 47.9374 102.645 47.9374C78.8452 47.9374 56.004 51.0269 56.004 51.0269V92.974C56.004 92.974 56.0593 92.974 56.1659 92.974C67.0924 91.9706 82.1188 91.1434 101.981 91.1434Z" fill="url(#paint10_radial_1173_6801)"/>
<path d="M156.911 46.2671C150.824 45.3529 135.693 43.34 117.853 42.4929V44.2703C133.461 45.0183 146.953 46.6629 154.304 47.6981" fill="url(#paint11_linear_1173_6801)"/>
<path d="M54.2918 50.0393C61.9386 49.0477 73.5074 47.7851 86.5669 47.1498V45.3488C73.8276 45.9584 62.3576 47.1934 54.0645 48.2758L51.6862 48.5707" fill="url(#paint12_linear_1173_6801)"/>
<path d="M50.1069 47.6981C57.4629 46.6629 70.9672 45.0183 86.5669 44.2703V42.4929C68.743 43.34 53.6039 45.3488 47.5189 46.2671" fill="url(#paint13_linear_1173_6801)"/>
<path d="M152.746 48.5747L150.37 48.2758C142.074 47.1934 130.61 45.9584 117.853 45.3488V47.1498C130.921 47.7851 142.497 49.0477 150.134 50.0393" fill="url(#paint14_linear_1173_6801)"/>
<path d="M102.02 114.148C90.4654 114.148 81.1027 123.567 81.1027 135.181C81.1027 146.798 90.4654 156.214 102.02 156.214C113.572 156.214 122.94 146.798 122.94 135.181C122.94 123.567 113.572 114.148 102.02 114.148ZM102.028 154.031C91.7247 154.031 83.3722 145.632 83.3722 135.274C83.3722 124.913 91.7247 116.513 102.028 116.513C112.332 116.513 120.684 124.913 120.684 135.274C120.684 145.632 112.332 154.031 102.028 154.031Z" fill="url(#paint15_linear_1173_6801)"/>
<path d="M90.75 120.333C93.8853 117.939 97.7917 116.513 102.028 116.513C106.281 116.513 110.197 117.946 113.334 120.355C114.627 120.424 115.876 120.503 117.082 120.594C113.275 116.622 107.937 114.148 102.02 114.148C96.1311 114.148 90.8133 116.599 87.0136 120.537C88.2157 120.46 89.457 120.393 90.75 120.333Z" fill="url(#paint16_linear_1173_6801)"/>
<path d="M107.206 124.2C107.15 124.177 107.089 124.159 107.044 124.151C106.664 124.054 106.31 124.2 106.261 124.452C106.208 124.699 106.466 124.98 106.848 125.051C107.186 125.133 107.506 125.026 107.593 124.81C107.789 124.897 107.961 124.968 107.961 124.968C107.763 124.485 107.435 124.28 107.206 124.2Z" fill="url(#paint17_linear_1173_6801)"/>
<path d="M102.028 117.452C92.2387 117.452 84.3053 125.431 84.3053 135.273C84.3053 145.115 92.2387 153.091 102.028 153.091C111.82 153.091 119.753 145.115 119.753 135.273C119.753 125.431 111.82 117.452 102.028 117.452ZM99.7924 120.537C99.7924 120.537 101.402 120.123 102.208 119.783L104.157 119.544C104.43 119.613 104.644 119.736 104.739 119.92C105.096 120.571 104.28 121.942 104.138 122.621C104.13 122.67 104.118 122.714 104.114 122.756C103.79 122.773 103.398 122.756 102.973 122.722L102.876 122.714H102.643C102.37 122.692 102.37 122.692 101.637 122.603L100.223 122.417C100.152 122.138 100.065 121.885 100.004 121.673C99.8616 121.263 99.6264 120.966 99.7924 120.537ZM105.664 147.839C105 148.338 104.078 148.595 103.094 148.646C103.074 148.791 103.062 148.933 103.062 149.036C103.023 149.62 102.888 150.776 102.216 151.136C101.888 151.013 101.777 151.033 101.554 150.809C101.255 150.515 101.346 150.091 101.259 149.731C101.148 149.287 101.172 148.933 101.162 148.484C100.597 148.338 99.9901 148.128 99.5788 147.894C98.5154 147.261 98.0172 146.681 97.9144 145.802C97.7838 144.672 98.6043 143.849 98.9265 143.976C99.4148 144.154 98.5014 144.831 98.9108 145.717C99.2982 146.544 100.338 146.829 101.042 146.936C101.014 146.77 101.004 146.626 100.987 146.465C100.955 145.802 100.856 145.731 100.82 145.029C100.773 144.439 100.911 143.916 101.145 143.481C101.148 143.477 101.155 143.457 101.155 143.457C101.342 143.085 101.145 142.531 101.113 142.133C101.052 141.581 100.911 141.027 100.874 140.469C100.872 140.387 100.872 140.302 100.856 140.239C100.848 139.962 100.791 139.72 100.745 139.475C101.19 139.443 101.813 139.428 102.702 139.485L102.793 139.491L103.713 139.517C103.798 139.625 103.892 139.72 103.924 139.863C104.011 140.239 103.964 140.734 103.888 141.191C103.805 141.636 103.713 142.042 103.691 142.236C103.622 142.974 103.564 143.485 103.513 143.976C103.459 144.581 103.406 145.133 103.353 146.018C103.327 146.26 103.309 146.532 103.28 146.79C103.75 146.633 104.201 146.418 104.644 146.083C105.233 145.618 105.308 144.807 104.893 144.36C104.881 144.352 104.867 144.336 104.853 144.32C104.747 144.211 104.596 144.124 104.422 144.041L104.596 142.327L104.747 141.539C104.897 141.581 105.051 141.617 105.193 141.654C106.358 142.042 107.309 142.679 107.492 144.187C107.68 145.573 107.131 146.738 105.664 147.839ZM110.064 135.414C109.27 137.167 108.23 137.704 107.613 138.003C107.056 138.24 106.557 138.394 105.952 138.492C105.344 138.6 104.683 138.62 103.983 138.61C103.608 138.604 103.216 138.592 102.831 138.573C102.689 138.565 100.856 138.418 99.7549 138.699C99.227 138.844 98.8632 139.067 98.9383 139.471C98.9958 139.637 99.1954 139.794 99.4701 139.948C99.5749 139.998 99.6737 140.053 99.7924 140.1C99.8379 140.124 99.8952 140.144 99.9426 140.164L99.9486 140.298L99.9683 140.5C99.9861 140.904 100.045 141.252 100.113 141.601L100.204 142.242L100.271 142.657C100.291 142.778 100.326 142.962 100.326 143.051C100.13 143.006 99.9268 142.962 99.7292 142.911C99.5828 142.871 99.4227 142.824 99.2725 142.778C99.1519 142.737 99.0215 142.705 98.9108 142.657C96.9694 141.977 95.0596 140.641 95.8188 138.343C96.0659 137.714 96.9753 135.992 99.3792 135.656C99.6302 135.628 99.8794 135.596 100.13 135.574C100.856 135.479 101.595 135.43 102.37 135.398C103.003 135.362 103.639 135.341 104.209 135.329C105.083 135.289 105.786 135.24 106.067 135.054C106.619 134.686 107.095 133.811 106.255 132.798C106.099 132.6 105.909 132.475 105.68 132.418C105.529 132.362 105.351 132.386 105.193 132.386C105.221 132.192 105.241 132.03 105.241 131.903C105.241 131.776 105.221 131.661 105.193 131.549C105.055 131.169 104.837 130.925 104.662 130.739C104.662 130.739 104.571 130.623 104.533 130.589C104.521 130.541 104.517 130.476 104.517 130.371C104.517 130.153 104.551 129.845 104.571 129.686L104.592 129.481C104.624 129.231 104.644 128.95 104.654 128.671C104.962 128.647 105.251 128.647 105.517 128.671C105.652 128.679 105.767 128.683 105.885 128.703C106.822 128.818 108.815 129.39 109.697 131.23C110.574 133.079 110.539 134.357 110.064 135.414ZM103.805 131.151C104.031 131.42 104.225 131.563 104.323 131.848C104.355 131.937 104.28 132.299 104.209 132.679C104.106 133.1 103.983 133.558 103.975 133.668C103.964 133.9 103.94 134.155 103.912 134.428L103.513 134.44L102.309 134.48H102.329C101.813 134.507 101.342 134.543 100.874 134.575C100.856 134.397 100.836 134.238 100.828 134.114C100.82 134.072 100.82 134.025 100.82 133.991C100.745 132.978 100.686 132.679 100.417 131.689C100.298 131.254 100.164 130.807 100.073 130.351C100.045 130.189 100.038 130.074 100.057 129.979C100.107 129.766 100.241 129.643 100.425 129.33C100.773 128.776 100.753 127.883 100.781 127.165C101.346 127.165 101.835 127.205 102.08 127.256C102.299 127.284 102.782 127.482 103.173 127.632L103.77 127.858V128.445C103.756 128.766 103.732 129.081 103.691 129.366C103.63 129.906 103.477 130.739 103.805 131.151ZM111.254 126.516C110.994 126.775 108.564 127.264 107.372 127.379C106.198 127.462 104.786 127.22 104.487 127.143C104.412 127.121 104.319 127.084 104.217 127.05C103.584 126.827 102.71 126.425 102.216 126.35C101.88 126.288 101.071 126.215 100.196 126.268C99.646 126.32 99.0689 126.425 98.5549 126.633C97.4775 127.116 96.9931 127.549 96.7757 128.499C96.4829 129.732 97.6731 130.383 98.3454 130.452C98.3808 130.46 98.4085 130.476 98.4441 130.476C98.6852 130.476 98.9265 130.452 99.1796 130.425C99.1796 130.46 99.1717 130.498 99.1796 130.541C99.2626 130.977 99.3851 131.388 99.4958 131.792L99.5373 131.945C99.7845 132.833 99.8339 133.122 99.9031 133.981C99.7687 133.997 99.646 134.029 99.4958 134.029C99.1162 134.041 98.7288 134.072 98.3454 134.072C96.8706 134.1 95.4196 133.872 94.1719 132.873C93.3713 132.226 93.0195 131.333 92.7901 130.648C92.5569 129.995 91.8729 127.205 94.8975 124.652C95.538 124.101 97.3093 123.057 99.8142 123.29C99.8873 123.298 99.9584 123.314 100.045 123.322C102.655 123.642 102.058 123.597 102.819 123.628C103.371 123.662 103.892 123.7 104.335 123.652C104.517 123.628 104.687 123.603 104.83 123.555C105.344 123.373 106.217 123.001 107.309 123.223C108.396 123.466 108.234 123.555 108.495 123.692C108.74 123.836 109.309 124.084 109.531 124.159C109.754 124.228 111.059 124.763 111.254 124.877C111.434 124.992 111.452 125.184 111.472 125.328C111.496 125.463 111.496 126.257 111.254 126.516Z" fill="url(#paint18_linear_1173_6801)"/>
<path d="M102.942 117.475C102.942 117.475 102.934 117.475 102.932 117.475C102.671 117.461 102.408 117.456 102.143 117.456C99.9782 117.463 98.118 117.832 96.6194 118.301C95.1505 118.774 93.7628 119.437 92.4877 120.258C92.6677 120.25 97.7245 120.088 101.406 120.072C101.698 119.977 101.983 119.878 102.208 119.783L104.157 119.544C104.43 119.613 104.644 119.735 104.739 119.92C104.77 119.973 104.786 120.032 104.802 120.096C108.048 120.147 111.438 120.26 111.579 120.264C109.064 118.643 106.115 117.638 102.942 117.475Z" fill="#AEA9A9"/>
<path d="M88.7335 50.6587C89.0123 50.546 89.2475 50.4431 89.4333 50.3342C89.6331 50.2451 89.7912 50.1421 89.9038 50.059C89.9987 49.9859 90.0779 49.9107 90.1095 49.8414C90.1431 49.7939 90.1629 49.6691 90.1846 49.4654C90.1925 49.2634 90.2044 49.0022 90.2044 48.6657C90.2123 48.3293 90.2123 47.9256 90.2123 47.4427V46.9559V46.4174V45.8812V45.3786C90.2123 44.8956 90.2123 44.4978 90.2044 44.1673C90.2044 43.8367 90.1925 43.5717 90.1846 43.3737C90.1629 43.1876 90.1431 43.0589 90.1095 42.9957C90.0738 42.9302 89.9987 42.863 89.8921 42.7918C89.7813 42.7245 89.6291 42.6652 89.4295 42.5839C89.2358 42.5107 89.0024 42.4396 88.7335 42.3604V42.1427C88.9787 42.1328 89.2022 42.1249 89.4374 42.1249C89.6864 42.0991 89.9078 42.0833 90.1352 42.0596C90.3587 42.0339 90.5761 42.014 90.7895 41.9903C91.0071 41.9605 91.2245 41.925 91.4381 41.9011C91.6514 41.8695 92.035 41.7686 92.0547 41.7885C92.0745 41.8063 92.0468 42.0517 92.0468 42.21C92.0468 42.3683 92.035 42.5503 92.035 42.772C92.035 42.9799 92.0271 43.2113 92.0152 43.4726C92.0152 43.722 92.0152 43.995 92.0152 44.2899C92.0152 44.5987 92.0073 44.9173 92.0073 45.2736V46.3858V46.9322V47.4307C92.0073 47.9058 92.0073 48.3135 92.0152 48.6558C92.0152 48.9904 92.0271 49.2516 92.0468 49.4614C92.0547 49.6553 92.0745 49.7781 92.0943 49.8335C92.1458 49.8967 92.213 49.964 92.3296 50.0432C92.4342 50.1283 92.5885 50.2155 92.7784 50.3085C92.9642 50.4033 93.2015 50.5103 93.4741 50.6469V50.9061C93.2211 50.8863 92.976 50.8666 92.7466 50.8626C92.5253 50.8427 92.3097 50.8269 92.114 50.8091H91.5585C91.3885 50.7874 91.2245 50.7874 91.086 50.7874C90.922 50.7874 90.7698 50.8091 90.5957 50.8091C90.4081 50.8091 90.234 50.8269 90.0303 50.8389C89.8348 50.8427 89.6331 50.8626 89.4137 50.8666C89.2022 50.8863 88.9708 50.9061 88.7335 50.922V50.6587V50.6587Z" fill="url(#paint19_linear_1173_6801)"/>
<path d="M95.2139 44.5511C95.2139 44.282 95.2574 44.0427 95.3285 43.809C95.3878 43.5518 95.4947 43.3281 95.623 43.1163C95.7477 42.8966 95.8959 42.6968 96.0718 42.5166C96.2617 42.3446 96.4712 42.1863 96.6886 42.0596C96.9139 41.933 97.1631 41.83 97.4439 41.7508C97.6988 41.6835 97.9854 41.6478 98.2879 41.6478C98.5707 41.6478 98.8276 41.6736 99.0709 41.7329C99.2962 41.8023 99.5195 41.9091 99.7053 42.0298C99.8932 42.1506 100.051 42.3109 100.178 42.4891C100.314 42.6593 100.411 42.8571 100.48 43.0729C100.551 43.2906 100.589 43.5241 100.589 43.7595C100.589 44.007 100.559 44.2326 100.492 44.4502C100.445 44.664 100.344 44.8778 100.227 45.0738C100.105 45.2775 99.9644 45.4795 99.7766 45.6635C99.5986 45.8516 99.1399 46.2176 99.1399 46.2413C99.1399 46.2908 99.5986 46.5759 99.7766 46.7283C99.9703 46.9065 100.136 47.0627 100.271 47.221C100.421 47.4052 100.54 47.5752 100.629 47.7674C100.717 47.9374 100.785 48.1295 100.836 48.3352C100.884 48.5391 100.907 48.7567 100.907 48.9825C100.907 49.2634 100.874 49.5248 100.812 49.7741C100.765 50.0295 100.668 50.255 100.551 50.4706C100.429 50.6885 100.267 50.8962 100.083 51.1121C99.9031 51.2999 99.6974 51.4722 99.4841 51.6246C99.2745 51.7729 99.061 51.9116 98.8357 52.0084C98.6162 52.1075 98.3808 52.1927 98.1277 52.236C97.8866 52.2717 97.6297 52.3053 97.3648 52.3053C97.1156 52.3053 96.8645 52.2717 96.6491 52.2164C96.4277 52.1687 96.2182 52.0818 96.0244 51.9531C95.8465 51.8581 95.6686 51.7235 95.5222 51.5751C95.376 51.4327 95.2455 51.2545 95.1309 51.0744C95.038 50.8863 94.9529 50.6786 94.8975 50.4706C94.8481 50.255 94.8185 50.0295 94.8185 49.7879C94.8185 49.5585 94.8422 49.3406 94.8975 49.1388C94.9451 48.9349 95.0102 48.7409 95.111 48.5569C95.2139 48.3749 95.3483 48.1988 95.4947 48.0286C95.6487 47.8543 95.8267 47.694 96.0323 47.5416C96.238 47.3795 96.7222 47.0747 96.7222 47.0747C96.7222 47.027 96.2576 46.7243 96.0659 46.5403C95.8663 46.3443 95.72 46.1404 95.5914 45.9327C95.4728 45.7249 95.376 45.5071 95.3167 45.2775C95.2534 45.0499 95.2139 44.8026 95.2139 44.5511ZM96.5226 49.4515C96.5226 49.7443 96.5641 50.0394 96.6273 50.2787C96.6927 50.5262 96.7973 50.7321 96.9139 50.9062C97.0405 51.0843 97.1888 51.2069 97.3548 51.3099C97.5308 51.397 97.7245 51.4465 97.9223 51.4465C98.1674 51.4465 98.3828 51.3733 98.5707 51.2426C98.7565 51.1121 98.9108 50.9062 99.0294 50.6686C99.1399 50.4232 99.1992 50.1421 99.1992 49.8355C99.1992 49.6158 99.1598 49.3961 99.0887 49.1961C99.0174 48.9943 98.9029 48.8123 98.7466 48.6204C98.6002 48.4481 98.4085 48.2621 98.1792 48.0722C97.9579 47.8821 97.5208 47.4784 97.3747 47.4863C97.2777 47.5061 97.0326 47.8286 96.9022 48.0444C96.7777 48.2343 96.6886 48.4619 96.6194 48.6935C96.5502 48.9349 96.5226 49.1823 96.5226 49.4515ZM98.9976 44.1515C98.9976 43.8289 98.9462 43.536 98.8357 43.2906C98.7466 43.0294 98.6002 42.8235 98.4284 42.681C98.2464 42.5464 98.0526 42.4771 97.8154 42.4771C97.6178 42.4771 97.4439 42.5286 97.2777 42.6295C97.1196 42.7284 97.001 42.8828 96.9002 43.063C96.8073 43.2391 96.7678 43.4568 96.7678 43.6744C96.7678 43.8645 96.7973 44.0485 96.8645 44.2326C96.9417 44.4107 97.0405 44.5809 97.1749 44.7412C97.3093 44.9173 97.4834 45.0738 97.6889 45.2499C97.8945 45.4141 98.2879 45.7762 98.4006 45.7683C98.4816 45.7566 98.6674 45.4795 98.7466 45.3052C98.8316 45.137 98.895 44.9767 98.9462 44.7789C98.9818 44.5947 98.9976 44.387 98.9976 44.1515Z" fill="url(#paint20_linear_1173_6801)"/>
<path d="M102.461 51.5394C102.754 51.4839 103.05 51.4049 103.317 51.3157C103.572 51.2267 103.821 51.1179 104.047 51.0012C104.272 50.8625 104.48 50.728 104.656 50.5855C104.837 50.443 105 50.2649 105.138 50.0987C105.284 49.9244 105.389 49.7443 105.486 49.5523C105.575 49.3545 105.644 49.1527 105.695 48.9348C105.741 48.7291 105.761 48.5034 105.761 48.2857C105.761 48.0502 105.733 47.8127 105.672 47.6267C105.616 47.4248 105.525 47.2408 105.411 47.0785C105.292 46.9321 105.146 46.7935 104.968 46.6985C104.786 46.5896 104.584 46.4966 104.355 46.4472C104.118 46.3858 103.871 46.3541 103.578 46.3541C103.471 46.3541 103.327 46.3541 103.163 46.3858C102.999 46.3858 102.607 46.4372 102.588 46.4293C102.556 46.3661 102.687 45.8197 102.738 45.5447C102.785 45.2499 102.833 44.9609 102.872 44.6877C102.922 44.4068 102.952 44.1474 102.999 43.8862C103.031 43.6211 103.07 43.3637 103.102 43.1203C103.137 42.8708 103.169 42.6295 103.206 42.3881C103.236 42.1585 103.256 41.7329 103.288 41.6954C103.327 41.6697 103.616 41.7566 103.813 41.7785C104.005 41.7884 104.213 41.8062 104.44 41.8142C104.675 41.8259 104.911 41.8259 105.178 41.8259H105.842C106.041 41.8259 106.249 41.8259 106.455 41.8142C106.658 41.8062 106.856 41.7983 107.036 41.7884C107.233 41.7823 107.587 41.7369 107.613 41.7566C107.635 41.7884 107.587 42.1248 107.575 42.3109C107.566 42.5068 107.566 42.7046 107.566 42.8966C107.566 42.96 107.566 43.0946 107.575 43.2905C107.575 43.4962 107.587 43.7417 107.595 44.0683H107.482C107.368 43.8604 107.261 43.7417 107.135 43.6744C107.008 43.6211 106.874 43.6071 106.696 43.5953H106.369H105.723C105.525 43.5933 105.359 43.5933 105.166 43.5933C105 43.5854 104.814 43.5854 104.62 43.5854H103.975C103.932 43.8604 103.9 44.0683 103.871 44.2781C103.853 44.4878 103.813 44.6938 103.774 44.9649C103.983 44.9609 104.189 44.9609 104.395 44.9609C104.695 44.9609 104.996 44.9728 105.253 45.0144C105.525 45.0658 105.761 45.127 106 45.1963C106.219 45.2815 106.419 45.3844 106.597 45.5111C106.783 45.6258 106.933 45.7723 107.071 45.9365C107.202 46.0889 107.321 46.267 107.399 46.4709C107.492 46.6827 107.56 46.8904 107.603 47.1378C107.643 47.3715 107.664 47.6406 107.664 47.9215C107.664 48.1611 107.643 48.3828 107.613 48.6104C107.575 48.8359 107.526 49.0576 107.459 49.2633C107.38 49.4713 107.287 49.6751 107.182 49.8709C107.071 50.059 106.947 50.255 106.798 50.4272C106.658 50.5934 106.49 50.7715 106.32 50.9219C106.134 51.0802 105.95 51.2267 105.733 51.3593C105.525 51.492 105.304 51.6087 105.053 51.7196C104.814 51.8244 104.549 51.9154 104.282 52.0005C104.005 52.0817 103.713 52.1569 103.422 52.2084C103.11 52.2439 102.793 52.2915 102.461 52.3053V51.5394V51.5394Z" fill="url(#paint21_linear_1173_6801)"/>
<path d="M109.299 46.5976C109.299 46.3147 109.319 46.0534 109.339 45.8119C109.362 45.5606 109.396 45.3013 109.457 45.046C109.495 44.8302 109.566 44.5809 109.625 44.3533C109.712 44.1079 109.788 43.9002 109.898 43.6744C110.009 43.4369 110.134 43.1996 110.276 43.0056C110.418 42.8096 110.563 42.6256 110.721 42.4771C110.885 42.3208 111.055 42.1942 111.221 42.0833C111.407 41.9903 111.583 41.909 111.78 41.8695C111.95 41.83 112.144 41.7884 112.346 41.7984C112.567 41.8063 112.777 41.8399 112.99 41.8932C113.2 41.9487 113.386 42.0239 113.577 42.1248C113.757 42.2296 113.945 42.3445 114.099 42.5028C114.255 42.6453 114.41 42.8135 114.544 43.0056C114.675 43.1955 114.801 43.3915 114.904 43.6249C114.999 43.8525 115.102 44.0941 115.179 44.3632C115.248 44.6204 115.299 44.8995 115.335 45.2022C115.374 45.4971 115.394 45.8198 115.394 46.1623C115.394 46.5204 115.374 46.8708 115.335 47.2051C115.295 47.5574 115.236 47.8741 115.169 48.171C115.086 48.4738 114.991 48.7488 114.884 49.0021C114.777 49.2595 114.655 49.493 114.512 49.7106C114.384 49.9145 114.224 50.1066 114.062 50.2649C113.904 50.443 113.728 50.5776 113.548 50.6885C113.366 50.8151 113.164 50.8863 112.966 50.9398C112.769 51.0012 112.559 51.0366 112.346 51.0366C112.112 51.0366 111.901 51.0012 111.705 50.9556C111.488 50.9061 111.298 50.8269 111.102 50.7201C110.926 50.625 110.76 50.4826 110.59 50.3401C110.43 50.1917 110.278 50.0294 110.143 49.8276C110.021 49.6354 109.898 49.4257 109.788 49.1922C109.691 48.9547 109.594 48.7093 109.515 48.4282C109.457 48.1611 109.396 47.8741 109.357 47.5673C109.319 47.2449 109.299 46.9322 109.299 46.5976ZM113.556 47.0983C113.556 46.6628 113.548 46.267 113.524 45.9069C113.504 45.5407 113.477 45.1885 113.445 44.8857C113.397 44.5809 113.346 44.296 113.291 44.0485C113.239 43.7972 113.164 43.5755 113.101 43.3736C113.022 43.1996 112.945 43.0372 112.848 42.9106C112.765 42.7878 112.674 42.6809 112.567 42.6256C112.456 42.5502 112.35 42.5166 112.239 42.5166C112.077 42.5107 111.946 42.5502 111.83 42.6335C111.717 42.7205 111.602 42.8571 111.515 43.0135C111.434 43.1955 111.377 43.4032 111.318 43.6586C111.266 43.9239 111.221 44.2325 111.201 44.5809C111.171 44.9214 111.159 45.321 111.159 45.7565C111.159 46.1918 111.159 46.5976 111.181 46.9638C111.211 47.3338 111.235 47.6743 111.27 47.9791C111.31 48.2936 111.345 48.5747 111.407 48.8161C111.45 49.0694 111.507 49.2852 111.595 49.4751C111.666 49.6691 111.749 49.8176 111.838 49.9481C111.931 50.0789 112.033 50.1739 112.13 50.2272C112.249 50.2827 112.356 50.3281 112.476 50.3281C112.64 50.3281 112.773 50.2748 112.895 50.1917C113.022 50.1164 113.121 49.9858 113.2 49.8176C113.291 49.6553 113.354 49.4376 113.405 49.1784C113.457 48.9269 113.492 48.6104 113.524 48.2758C113.548 47.9256 113.556 47.5416 113.556 47.0983Z" fill="url(#paint22_linear_1173_6801)"/>
<path d="M79.5567 52.3053C68.0037 52.3053 58.6411 61.7219 58.6411 73.3374C58.6411 84.9506 68.0037 94.3693 79.5567 94.3693C91.1097 94.3693 100.476 84.9506 100.476 73.3374C100.476 61.7219 91.1097 52.3053 79.5567 52.3053ZM79.5687 92.1862C69.2631 92.1862 60.9106 83.789 60.9106 73.4284C60.9106 63.0678 69.2631 54.6703 79.5687 54.6703C89.8702 54.6703 98.2267 63.0678 98.2267 73.4284C98.2267 83.789 89.8702 92.1862 79.5687 92.1862Z" fill="url(#paint23_linear_1173_6801)"/>
<path d="M124.905 52.3053C113.35 52.3053 103.987 61.7219 103.987 73.3374C103.987 84.9506 113.35 94.3693 124.905 94.3693C136.458 94.3693 145.825 84.9506 145.825 73.3374C145.825 61.7219 136.458 52.3053 124.905 52.3053ZM124.915 92.1862C114.611 92.1862 106.257 83.789 106.257 73.4284C106.257 63.0678 114.611 54.6703 124.915 54.6703C135.219 54.6703 143.569 63.0678 143.569 73.4284C143.569 83.789 135.219 92.1862 124.915 92.1862Z" fill="url(#paint24_linear_1173_6801)"/>
<path d="M77.4454 62.3257C76.7889 62.3257 76.6112 62.4026 76.2197 62.567C75.7038 62.773 74.9981 63.0895 73.5152 63.2398C72.2699 63.3844 71.056 63.3111 70.0816 63.1667V79.8149C70.9769 79.9593 72.1433 80.0681 73.3454 79.9239C75.844 79.6585 75.4863 79.0133 77.4236 78.9816C77.977 78.9816 78.3823 79.0689 78.7185 79.1736V62.579C78.7185 62.579 78.4063 62.4126 77.8962 62.3493C77.7617 62.3335 77.6215 62.3217 77.4454 62.3257ZM85.5526 63.2398C84.072 63.0895 83.376 62.773 82.8543 62.567C82.451 62.4026 82.285 62.3257 81.6286 62.3257C81.4604 62.3217 81.3103 62.3335 81.1778 62.3493C80.6677 62.4126 80.3554 62.579 80.3554 62.579V79.1736C80.6916 79.0768 81.0986 78.9816 81.6483 78.9816C83.5938 79.0133 83.2417 79.6585 85.7347 79.9239C86.9307 80.0681 88.097 79.9593 88.9866 79.8149V63.1667C88.0121 63.3111 86.8 63.3844 85.5526 63.2398ZM79.5686 55.6085C69.7789 55.6085 61.8417 63.5861 61.8417 73.4284C61.8417 83.2684 69.7789 91.248 79.5686 91.248C89.3544 91.248 97.2935 83.2684 97.2935 73.4284C97.2935 63.5861 89.3544 55.6085 79.5686 55.6085ZM94.0453 77.2085C94.4074 77.2162 94.6761 77.5449 94.6761 77.9051V79.1718C94.6761 79.5476 94.4074 79.8307 94.0453 79.8149L92.8613 79.7575V83.1537C92.8613 83.5257 92.5726 83.8106 92.2209 83.8029L81.767 83.225C81.2845 83.3575 80.4661 83.4268 79.533 83.4268C78.6176 83.4268 77.8013 83.3575 77.307 83.225L66.8768 83.8029C66.529 83.8106 66.2403 83.5257 66.2403 83.1537V79.7575L65.0305 79.8149C64.6747 79.8307 64.3978 79.5476 64.3978 79.1718V77.9051C64.3978 77.5449 64.6747 77.2162 65.0305 77.2085L66.2403 77.1292V70.0223L65.0305 70.1016C64.6747 70.1152 64.3978 69.8185 64.3978 69.4304V68.1857C64.3978 67.8117 64.6747 67.4911 65.0305 67.4753L66.2403 67.4V63.7407C66.2403 63.3823 66.529 63.0657 66.8768 63.028L68.4584 62.9451C68.2528 63.3823 67.9761 63.8296 67.7191 64.1345L67.6736 81.6437C68.32 80.8778 68.9961 79.1638 68.9961 79.1638V61.7518C68.9961 61.7518 71.2853 62.4602 73.6558 62.1911C76.0299 61.9296 75.69 61.322 77.5323 61.2984C78.8768 61.2846 79.533 61.8486 79.533 61.8486C79.533 61.8486 80.1992 61.2846 81.5416 61.2984C83.3918 61.322 83.0558 61.9296 85.4281 62.1911C87.8063 62.4602 90.0896 61.7518 90.0896 61.7518V79.1638C90.0896 79.1638 90.7499 80.8778 91.4063 81.6437L91.3549 64.1345C91.0861 63.8296 90.835 63.3823 90.6314 62.9451L92.2209 63.028C92.5726 63.0657 92.8613 63.3823 92.8613 63.7407V67.4L94.0453 67.4753C94.4074 67.4911 94.6761 67.8117 94.6761 68.1857V69.4304C94.6761 69.8185 94.4074 70.1152 94.0453 70.1016L92.8613 70.0343V77.1292L94.0453 77.2085Z" fill="url(#paint25_linear_1173_6801)"/>
<path d="M124.915 55.6085C115.125 55.6085 107.19 63.5861 107.19 73.4284C107.19 83.2684 115.125 91.248 124.915 91.248C134.703 91.248 142.64 83.2684 142.64 73.4284C142.64 63.5861 134.703 55.6085 124.915 55.6085ZM135.124 82.0275C134.691 83.7553 133.501 86.8467 132.848 87.836H116.952C116.299 86.8467 115.119 83.7553 114.698 82.0275C114.548 81.4277 113.129 76.2347 115.014 72.8741C116.493 70.1984 116.821 67.9937 116.821 66.8755V63.2992H116.232V64.0869C116.039 64.2235 115.813 64.3204 115.572 64.3204C114.872 64.3204 114.307 63.5666 114.307 62.6442C114.307 61.7219 114.872 60.9698 115.572 60.9698C115.813 60.9698 116.039 61.067 116.232 61.2193V61.993H116.821V58.7415H120.032V61.993H121.791V61.8685C121.791 61.617 121.995 61.4093 122.238 61.4093C122.497 61.4093 122.697 61.617 122.697 61.8685V61.993H124.444V61.8685C124.444 61.617 124.654 61.4093 124.903 61.4093C125.16 61.4093 125.356 61.617 125.356 61.8685V61.993H127.113V61.8685C127.113 61.617 127.321 61.4093 127.57 61.4093C127.813 61.4093 128.023 61.617 128.023 61.8685V61.993H129.768V58.7415H132.993V61.993H133.586V61.2193C133.772 61.067 133.999 60.9698 134.228 60.9698C134.934 60.9698 135.491 61.7219 135.491 62.6442C135.491 63.5666 134.934 64.3204 134.228 64.3204C133.999 64.3204 133.772 64.2235 133.586 64.0869V63.2992H132.993V66.8755C132.993 67.9937 133.315 70.1984 134.795 72.8741C136.685 76.2347 135.256 81.4277 135.124 82.0275ZM125.356 83.8405C125.988 83.8106 126.575 83.7553 127.113 83.6424V80.6482C126.575 80.5591 125.988 80.4958 125.356 80.47V83.8405ZM128.023 80.8816V83.4268C129.013 83.1101 129.648 82.6747 129.648 82.1561C129.648 81.6437 129.013 81.1865 128.023 80.8816ZM125.356 79.1756C125.979 79.1461 126.558 79.0609 127.113 78.9222V63.2992H125.356V79.1756ZM129.768 71.4254V63.2992H128.023V78.6176C130.039 77.814 131.411 76.2823 131.411 74.501C131.411 73.3234 130.782 72.2449 129.768 71.4254ZM122.697 83.6424C123.232 83.7553 123.812 83.8106 124.444 83.8246V80.47C123.812 80.4958 123.232 80.5668 122.697 80.664V83.6424ZM122.697 78.9222C123.252 79.0609 123.839 79.1461 124.444 79.1756V63.2992H122.697V78.9222ZM120.032 71.4254C119.026 72.2449 118.391 73.3234 118.391 74.501C118.391 76.2823 119.761 77.814 121.791 78.6076V63.2992H120.032V71.4254ZM120.234 82.1561C120.234 82.643 120.84 83.0943 121.791 83.4069V80.9152C120.84 81.1983 120.234 81.6535 120.234 82.1561Z" fill="url(#paint26_linear_1173_6801)"/>
<path d="M173.037 100.218L169.119 99.6515C167.225 99.3803 165.03 99.0617 162.508 98.7213V94.7435L160.855 94.4901C150.251 92.9661 131.447 91.1552 102.022 91.1552C72.596 91.1552 53.774 92.9661 43.1935 94.4901L41.5291 94.7435V98.7213C39.0083 99.0617 36.818 99.3803 34.9301 99.6515L31 100.21L31.8658 102.474C32.6685 104.605 35.3728 110.204 36.2348 111.973C35.5785 115.17 35.0843 119.177 34.9596 122.957L34.8748 125.269L37.1324 124.942C40.408 124.519 44.4508 124.109 50.1957 123.686C50.1957 123.686 49.8775 122.859 49.4921 121.626C49.1479 120.535 48.806 119.316 48.806 119.316L51.0182 119.074C61.7685 117.871 78.4063 116.676 102.022 116.676C125.982 116.676 142.762 117.907 153.503 119.128L155.28 119.34L154.79 121.157L154.177 123.193C159.451 123.731 163.631 124.519 166.905 124.942L169.17 125.269L169.085 122.957C168.946 119.177 168.454 115.17 167.826 111.973C168.672 110.204 171.376 104.605 172.183 102.474L173.037 100.218Z" fill="url(#paint27_linear_1173_6801)"/>
<path d="M49.484 121.582C47.3193 114.776 46.0363 106.202 45.8405 100.111C40.9716 100.718 36.6915 101.34 33.6669 101.789C34.5782 104.203 38.2138 111.677 38.2138 111.677C37.5476 114.736 37.0295 118.983 36.8714 123.025C39.8171 122.657 44.3836 122.091 49.484 121.582Z" fill="#D8A428"/>
<path d="M170.386 101.789C167.389 101.344 163.208 100.726 158.364 100.122C158.119 105.139 156.81 114.21 154.642 121.663C159.718 122.166 164.224 122.657 167.161 123.025C167.007 118.983 166.491 114.736 165.821 111.677C165.821 111.677 169.464 104.203 170.386 101.789Z" fill="#D8A428"/>
<path d="M164.35 100.922L158.36 100.19C158.105 105.221 156.802 114.243 154.642 121.663L160.582 122.245C160.582 122.245 162.664 116.963 163.492 112.338C164.323 107.714 164.58 100.954 164.35 100.922Z" fill="url(#paint28_linear_1173_6801)"/>
<path d="M45.8446 100.184L39.5679 100.94C39.3347 100.974 39.6233 107.714 40.4535 112.338C41.2839 116.963 43.3635 122.245 43.3635 122.245L49.5078 121.653C47.3371 114.859 46.0482 106.291 45.8446 100.184Z" fill="url(#paint29_linear_1173_6801)"/>
<path d="M102.022 92.986C72.4992 92.986 53.762 94.8225 43.4544 96.3068V100.245C43.4544 103.487 43.8103 109.727 45.9375 117.647C56.6445 116.209 74.7193 114.647 102.022 114.647C129.329 114.647 147.388 116.209 158.109 117.647C160.23 109.727 160.582 103.487 160.582 100.245V96.3068C150.29 94.8225 131.546 92.986 102.022 92.986Z" fill="url(#paint30_linear_1173_6801)"/>
<path d="M96.3724 109.796C96.1668 109.937 95.0558 110.105 93.0669 110.164H91.013C90.9002 107.679 90.7935 105.533 90.75 103.715C90.6749 99.9089 90.6749 97.8922 90.8291 97.6289C90.9872 97.344 91.7344 96.952 93.0075 96.568L92.9958 96.2316C91.6555 96.3959 90.5682 96.4969 89.6548 96.5167C88.7534 96.5285 87.6463 96.4969 86.298 96.3801L86.3039 96.7186C87.6147 97.0451 88.3619 97.4052 88.5378 97.6804C88.692 97.9416 88.785 99.9622 88.8837 103.752C88.9669 107.532 88.9669 109.545 88.8028 109.81C88.6564 110.066 87.9428 110.499 86.6282 110.875L86.6321 111.233C88.0299 111.115 89.2793 111.033 90.4417 111.008C91.7622 110.982 94.174 110.97 97.6771 110.996L97.8668 107.239L97.4893 107.243C97.0247 108.819 96.5858 109.646 96.3724 109.796ZM83.0797 107.649C82.7633 109.171 82.4352 109.998 82.19 110.204C82.0594 110.311 80.9248 110.544 78.8689 110.647C78.1077 110.683 77.1727 110.683 76.0813 110.647C75.9589 109.563 75.8244 107.912 75.7216 105.715C75.7018 105.272 75.674 104.787 75.6503 104.302L77.5285 104.213C79.5231 104.095 80.6282 104.075 80.8655 104.203C81.1323 104.34 81.5416 105.047 81.9291 106.345L82.2473 106.329C82.1228 105.027 82.0337 104.091 82.0042 103.515C81.9726 102.897 81.9843 102.078 82.0337 100.96L81.7096 100.975C81.3675 102.218 81.0394 102.897 80.8141 103.054C80.5926 103.214 79.4737 103.293 77.4889 103.386L75.6109 103.473C75.4686 100.736 75.425 98.8678 75.4566 97.7515C76.5261 97.6942 77.5127 97.6942 78.43 97.6368C80.2606 97.5458 81.2667 97.6091 81.4546 97.7199C81.6938 97.8762 82.0833 98.5987 82.4746 99.9285H82.7753L82.5736 96.386C81.4645 96.572 80.3574 96.6472 79.2207 96.7186C78.2205 96.764 77.2042 96.7897 76.1842 96.8452C75.2629 96.8868 74.3813 96.962 73.5391 96.9877C72.6415 97.055 71.7836 97.0708 70.9889 96.962L71.0166 97.4528C72.3332 97.7337 73.0883 98.0683 73.2701 98.3413C73.4302 98.5867 73.5865 100.621 73.7724 104.421C73.9582 108.183 74.0155 110.2 73.8594 110.461C73.7151 110.721 73.0171 111.194 71.7164 111.607L71.7361 111.942C73.2347 111.775 74.7331 111.657 76.2257 111.574C77.4929 111.51 79.9363 111.415 83.5265 111.38L83.4512 107.623L83.0797 107.649ZM153.367 112.096C152.876 110.826 151.374 106.016 148.919 97.6368L148.499 97.5973C144.235 105.846 141.76 110.323 141.276 111.126C140.987 111.59 140.406 111.791 139.429 112.035C137.939 111.906 136.887 109.185 134.25 104.356C136.749 103.8 138.046 102.6 138.16 100.894C138.275 98.6522 136.571 97.332 133.028 97.1144C131.715 97.0451 130.075 97.0945 128.125 96.9757C127.655 96.952 126.979 96.8689 126.148 96.7186L126.129 97.0708C127.404 97.5023 128.125 97.9218 128.28 98.2087C128.414 98.4641 128.341 100.497 128.118 104.302C127.89 108.061 127.712 110.07 127.544 110.323C127.366 110.547 126.617 110.934 125.283 111.204L125.259 111.55C126.781 111.51 127.89 111.51 128.588 111.542C129.513 111.607 130.624 111.742 131.949 111.96L131.968 111.607C130.438 111.051 129.79 110.8 129.772 110.07C129.741 109.662 129.772 108.227 129.909 105.858C129.926 105.419 129.958 104.922 129.996 104.397C130.506 104.401 130.945 104.431 131.281 104.441C131.613 104.459 131.897 104.475 132.044 104.508C133.495 106.891 134.965 109.464 136.399 112.227C136.915 112.207 137.419 112.223 137.951 112.258C138.397 112.286 138.84 112.326 139.295 112.383V112.397C139.329 112.395 139.354 112.393 139.386 112.393C139.451 112.401 139.512 112.407 139.58 112.415L139.582 112.389C140.615 112.361 141.379 112.367 141.881 112.415C142.579 112.476 143.47 112.625 144.508 112.85L144.538 112.444C143.237 112.136 142.608 111.839 142.636 111.473C142.677 111.051 143.221 109.834 144.255 107.799L150.014 108.288C150.733 110.485 151.022 111.752 150.99 112.096C150.967 112.397 150.202 112.664 148.695 112.86L148.663 113.202C149.994 113.202 151.103 113.202 152.054 113.294C152.738 113.345 153.857 113.521 155.341 113.786L155.375 113.432C154.236 113.026 153.62 112.737 153.367 112.096ZM131.569 103.634L130.039 103.552C130.144 101.783 130.286 99.8495 130.458 97.7556C130.976 97.7337 131.376 97.7337 131.664 97.7556C134.629 97.9416 136.043 98.8678 135.92 100.96C135.798 102.955 134.364 103.81 131.569 103.634ZM144.684 106.891C145.831 104.619 146.886 102.6 147.873 100.849C148.614 103.19 149.211 105.355 149.745 107.326L144.684 106.891ZM67.8653 110.653C67.4582 109.603 67.0588 107.627 66.4221 104.686C65.8646 102.036 65.4614 100.229 65.3804 99.2518C65.3152 98.3889 65.6986 98.2582 67.3948 97.6407L67.3732 97.3022C66.5408 97.421 65.7836 97.53 65.1727 97.5795C64.5956 97.617 63.9036 97.6368 63.0931 97.6407C61.8813 101.383 60.5547 105.183 59.076 109.05C56.9569 105.298 55.1064 101.745 53.4695 98.4442C52.481 98.5551 51.6269 98.6759 50.8441 98.749C50.3816 98.7946 49.8834 98.7727 49.3417 98.7727L49.3495 99.1211C51.1091 99.4695 51.3049 99.5526 51.3899 100.597C51.4174 100.922 51.5103 103.845 51.2751 109.286C51.2277 110.43 51.1091 111.326 51.0004 111.968C50.9113 112.544 50.2077 112.868 48.8752 113.371L48.9028 113.723C49.9427 113.495 50.8838 113.345 51.7377 113.28C52.1766 113.24 53.1215 113.24 54.6161 113.26L54.5924 112.904C52.6551 112.504 52.4731 112.539 52.3703 111.38C52.2913 110.307 52.2359 106.729 52.3428 100.633C54.3116 104.198 56.4783 108.277 58.8033 112.937L59.0859 112.912C60.4954 108.146 61.9345 103.752 63.4253 99.7921C64.6905 105.298 65.4614 108.878 65.5919 110.58C65.6788 111.514 65.3547 111.53 63.4469 112.179L63.4747 112.539C64.8585 112.282 66.0466 112.112 67.0389 112.033C67.5985 111.977 68.5987 111.968 70.0439 111.985L70.0083 111.651C68.7273 111.318 68.0689 111.198 67.8653 110.653ZM116.636 96.002C114.368 95.9268 112.464 96.7186 111.116 98.2979C109.91 99.7009 109.254 101.49 109.187 103.519C109.116 105.773 109.798 107.75 111.124 109.266C112.369 110.711 114.113 111.506 116.169 111.568C118.423 111.651 120.38 110.816 121.673 109.294C122.906 107.873 123.563 106.107 123.63 104.124C123.695 101.844 123.021 99.8375 121.673 98.3137C120.42 96.8689 118.703 96.0613 116.636 96.002ZM121.345 104.58C121.206 108.68 119.372 110.833 116.288 110.738C113.16 110.642 111.318 107.843 111.476 102.977C111.61 98.8777 113.437 96.7186 116.503 96.8213C119.629 96.9143 121.487 99.7208 121.345 104.58ZM100.097 96.1207V96.4691C101.402 96.8213 102.139 97.1916 102.307 97.4844C102.473 97.7337 102.511 99.7743 102.493 103.574C102.481 107.344 102.418 109.361 102.268 109.603C102.101 109.874 101.378 110.291 100.053 110.635V110.976C101.402 110.843 102.511 110.78 103.414 110.78C104.323 110.79 105.415 110.853 106.753 111.008V110.653C105.431 110.303 104.717 109.874 104.559 109.616C104.393 109.373 104.355 107.366 104.363 103.574C104.383 99.7743 104.442 97.7556 104.596 97.4944C104.774 97.2033 105.527 96.8452 106.808 96.4969V96.1406C105.46 96.2871 104.363 96.3544 103.471 96.3503C102.56 96.3503 101.445 96.2693 100.097 96.1207Z" fill="#1A3966"/>
<defs>
<linearGradient id="paint0_linear_1173_6801" x1="40.9637" y1="106.525" x2="163.247" y2="106.525" gradientUnits="userSpaceOnUse">
<stop stop-color="#152C53"/>
<stop offset="0.530612" stop-color="#13487D"/>
<stop offset="1" stop-color="#152C53"/>
</linearGradient>
<linearGradient id="paint1_linear_1173_6801" x1="53.6711" y1="151.798" x2="102.188" y2="151.798" gradientUnits="userSpaceOnUse">
<stop stop-color="#13487D" stop-opacity="0"/>
<stop offset="0.520408" stop-color="#13487D"/>
<stop offset="1" stop-color="#152C53"/>
</linearGradient>
<linearGradient id="paint2_linear_1173_6801" x1="56.2807" y1="142.76" x2="148.14" y2="142.76" gradientUnits="userSpaceOnUse">
<stop stop-color="#D8A428"/>
<stop offset="0.509202" stop-color="#FEDC00"/>
<stop offset="1" stop-color="#D8A428"/>
</linearGradient>
<linearGradient id="paint3_linear_1173_6801" x1="117.853" y1="68.058" x2="156.911" y2="68.058" gradientUnits="userSpaceOnUse">
<stop stop-color="#D8A428"/>
<stop offset="0.509202" stop-color="#FEDC00"/>
<stop offset="1" stop-color="#D8A428"/>
</linearGradient>
<linearGradient id="paint4_linear_1173_6801" x1="51.6862" y1="69.3117" x2="86.5669" y2="69.3117" gradientUnits="userSpaceOnUse">
<stop stop-color="#D8A428"/>
<stop offset="0.509202" stop-color="#FEDC00"/>
<stop offset="1" stop-color="#D8A428"/>
</linearGradient>
<linearGradient id="paint5_linear_1173_6801" x1="47.5189" y1="68.0362" x2="86.5669" y2="68.0362" gradientUnits="userSpaceOnUse">
<stop stop-color="#D8A428"/>
<stop offset="0.509202" stop-color="#FEDC00"/>
<stop offset="1" stop-color="#D8A428"/>
</linearGradient>
<linearGradient id="paint6_linear_1173_6801" x1="53.3746" y1="144.477" x2="151.032" y2="144.477" gradientUnits="userSpaceOnUse">
<stop stop-color="#D8A428"/>
<stop offset="0.509202" stop-color="#FEDC00"/>
<stop offset="1" stop-color="#D8A428"/>
</linearGradient>
<linearGradient id="paint7_linear_1173_6801" x1="117.853" y1="69.3316" x2="152.746" y2="69.3316" gradientUnits="userSpaceOnUse">
<stop stop-color="#D8A428"/>
<stop offset="0.509202" stop-color="#FEDC00"/>
<stop offset="1" stop-color="#D8A428"/>
</linearGradient>
<radialGradient id="paint8_radial_1173_6801" cx="0" cy="0" r="1" gradientUnits="userSpaceOnUse" gradientTransform="translate(102.096 44.3702) scale(43.4636 43.6992)">
<stop offset="0.546012" stop-color="#1189C9" stop-opacity="0"/>
<stop offset="0.98773" stop-color="#1189C9"/>
</radialGradient>
<radialGradient id="paint9_radial_1173_6801" cx="0" cy="0" r="1" gradientUnits="userSpaceOnUse" gradientTransform="translate(102.099 152.444) rotate(-89.0046) scale(67.6988 42.9686)">
<stop offset="0.546012" stop-color="#1189C9" stop-opacity="0"/>
<stop offset="0.98773" stop-color="#1189C9"/>
</radialGradient>
<radialGradient id="paint10_radial_1173_6801" cx="0" cy="0" r="1" gradientUnits="userSpaceOnUse" gradientTransform="translate(102.835 92.126) scale(87.8324 36.042)">
<stop stop-color="#1189C9"/>
<stop offset="0.546012" stop-color="#1189C9" stop-opacity="0"/>
</radialGradient>
<linearGradient id="paint11_linear_1173_6801" x1="117.853" y1="45.0955" x2="156.911" y2="45.0955" gradientUnits="userSpaceOnUse">
<stop stop-color="#D8A428"/>
<stop offset="0.509202" stop-color="#FEDC00"/>
<stop offset="1" stop-color="#FEDC00"/>
</linearGradient>
<linearGradient id="paint12_linear_1173_6801" x1="51.6862" y1="47.694" x2="86.5669" y2="47.694" gradientUnits="userSpaceOnUse">
<stop stop-color="#FEDC00"/>
<stop offset="0.509202" stop-color="#FEDC00"/>
<stop offset="1" stop-color="#D8A428"/>
</linearGradient>
<linearGradient id="paint13_linear_1173_6801" x1="47.5189" y1="45.0955" x2="86.5669" y2="45.0955" gradientUnits="userSpaceOnUse">
<stop stop-color="#FEDC00"/>
<stop offset="0.509202" stop-color="#FEDC00"/>
<stop offset="1" stop-color="#D8A428"/>
</linearGradient>
<linearGradient id="paint14_linear_1173_6801" x1="117.853" y1="47.694" x2="152.746" y2="47.694" gradientUnits="userSpaceOnUse">
<stop stop-color="#D8A428"/>
<stop offset="0.509202" stop-color="#FEDC00"/>
<stop offset="1" stop-color="#FEDC00"/>
</linearGradient>
<linearGradient id="paint15_linear_1173_6801" x1="58.1377" y1="135.181" x2="145.84" y2="135.181" gradientUnits="userSpaceOnUse">
<stop stop-color="#D8A528"/>
<stop offset="0.509202" stop-color="#FEDC00"/>
<stop offset="1" stop-color="#D8A528"/>
</linearGradient>
<linearGradient id="paint16_linear_1173_6801" x1="102.048" y1="123.219" x2="102.048" y2="117.135" gradientUnits="userSpaceOnUse">
<stop stop-color="#C5892D"/>
<stop offset="0.709184" stop-color="#A26928"/>
</linearGradient>
<linearGradient id="paint17_linear_1173_6801" x1="60.1658" y1="124.6" x2="144.55" y2="124.6" gradientUnits="userSpaceOnUse">
<stop offset="0.0122699" stop-color="white" stop-opacity="0.55"/>
<stop offset="0.503067" stop-color="white"/>
<stop offset="1" stop-color="white" stop-opacity="0.55"/>
</linearGradient>
<linearGradient id="paint18_linear_1173_6801" x1="84.3053" y1="135.271" x2="119.753" y2="135.271" gradientUnits="userSpaceOnUse">
<stop stop-color="#C6D0E2"/>
<stop offset="0.117291" stop-color="#D4DAE8"/>
<stop offset="0.356148" stop-color="#ECEEF4"/>
<stop offset="0.503067" stop-color="#F6F6F9"/>
<stop offset="1" stop-color="#EEF3F8"/>
</linearGradient>
<linearGradient id="paint19_linear_1173_6801" x1="49.6156" y1="46.3539" x2="154.822" y2="46.3539" gradientUnits="userSpaceOnUse">
<stop stop-color="#F89F1F"/>
<stop offset="0.509202" stop-color="#FEDC00"/>
<stop offset="1" stop-color="#F89F1F"/>
</linearGradient>
<linearGradient id="paint20_linear_1173_6801" x1="49.6018" y1="46.9766" x2="154.841" y2="46.9766" gradientUnits="userSpaceOnUse">
<stop stop-color="#F89F1F"/>
<stop offset="0.509202" stop-color="#FEDC00"/>
<stop offset="1" stop-color="#F89F1F"/>
</linearGradient>
<linearGradient id="paint21_linear_1173_6801" x1="49.6021" y1="46.998" x2="154.84" y2="46.998" gradientUnits="userSpaceOnUse">
<stop stop-color="#F89F1F"/>
<stop offset="0.509202" stop-color="#FEDC00"/>
<stop offset="1" stop-color="#F89F1F"/>
</linearGradient>
<linearGradient id="paint22_linear_1173_6801" x1="49.6083" y1="46.4168" x2="154.835" y2="46.4168" gradientUnits="userSpaceOnUse">
<stop stop-color="#F89F1F"/>
<stop offset="0.509202" stop-color="#FEDC00"/>
<stop offset="1" stop-color="#F89F1F"/>
</linearGradient>
<linearGradient id="paint23_linear_1173_6801" x1="58.1381" y1="73.3373" x2="145.836" y2="73.3373" gradientUnits="userSpaceOnUse">
<stop stop-color="#D8A528"/>
<stop offset="0.509202" stop-color="#FEDC00"/>
<stop offset="1" stop-color="#D8A528"/>
</linearGradient>
<linearGradient id="paint24_linear_1173_6801" x1="58.1367" y1="73.3373" x2="145.839" y2="73.3373" gradientUnits="userSpaceOnUse">
<stop stop-color="#D8A528"/>
<stop offset="0.509202" stop-color="#FEDC00"/>
<stop offset="1" stop-color="#D8A528"/>
</linearGradient>
<linearGradient id="paint25_linear_1173_6801" x1="61.8416" y1="73.4283" x2="97.2935" y2="73.4283" gradientUnits="userSpaceOnUse">
<stop offset="0.0102041" stop-color="#C6D0E2"/>
<stop offset="0.505102" stop-color="#EEF3F8"/>
<stop offset="0.836735" stop-color="#EEF3F8"/>
</linearGradient>
<linearGradient id="paint26_linear_1173_6801" x1="142.64" y1="73.4283" x2="107.19" y2="73.4283" gradientUnits="userSpaceOnUse">
<stop offset="0.0102041" stop-color="#C6D0E2"/>
<stop offset="0.505102" stop-color="#EEF3F8"/>
<stop offset="0.836735" stop-color="#EEF3F8"/>
</linearGradient>
<linearGradient id="paint27_linear_1173_6801" x1="31" y1="108.212" x2="173.037" y2="108.212" gradientUnits="userSpaceOnUse">
<stop offset="0.0102041" stop-color="#152C53"/>
<stop offset="0.515306" stop-color="#0061A0"/>
<stop offset="1" stop-color="#152C53"/>
</linearGradient>
<linearGradient id="paint28_linear_1173_6801" x1="163.64" y1="112.349" x2="157.432" y2="110.77" gradientUnits="userSpaceOnUse">
<stop stop-color="#CE952A"/>
<stop offset="0.699386" stop-color="#A26928"/>
</linearGradient>
<linearGradient id="paint29_linear_1173_6801" x1="40.6226" y1="111.988" x2="46.5548" y2="110.943" gradientUnits="userSpaceOnUse">
<stop stop-color="#CE952A"/>
<stop offset="0.709184" stop-color="#A26928"/>
</linearGradient>
<linearGradient id="paint30_linear_1173_6801" x1="43.4544" y1="105.317" x2="160.582" y2="105.317" gradientUnits="userSpaceOnUse">
<stop stop-color="#D8A428"/>
<stop offset="0.509202" stop-color="#FEDC00"/>
<stop offset="1" stop-color="#D8A428"/>
</linearGradient>
</defs>
</svg>
