<svg width="370" height="365" viewBox="0 0 370 365" fill="none" xmlns="http://www.w3.org/2000/svg">
<path d="M30.5591 168.776L41.8895 97.7119L44.0521 142.054L70.0273 73.9221L67.136 126.335L108.038 53.2526L92.3825 110.029L150.633 46.355L127.972 97.1723L204.135 43L150.633 46.355L169.838 118.147L235.093 49.358L183.872 71.529L249.55 68.2913L169.838 118.123L226.255 115.12L249.55 68.2913L270.166 103.695L209.964 98.8615L294.025 81.9459L226.255 115.12L250.726 134.828L159.377 148.858L200.374 107.941L172.118 174.266L92.3825 110.029L169.838 118.147L132.297 71.9748L159.377 148.858H64.4326L144.897 124.411L59.8018 187.71L44.0521 142.03L82.4625 199.98L127.996 97.1723L138.785 176.12L64.4326 148.858L138.762 176.12L203.712 162.09L226.255 115.167L240.288 158.336L273.833 114.416L238.996 200.543L172.118 174.266L127.102 214.737L82.439 199.98L103.807 229.166L138.762 176.096L101.221 185.88L165.184 207.746L196.354 176.636L207.896 207.746L138.738 176.096L207.896 207.746L242.733 162.512L218.38 174.9L238.996 200.52L318.496 159.063L308.576 132.153L273.833 114.393L315.464 104.281L297.457 86.3097L281.167 151.227L335.962 141.538L219.884 220.556L271.882 206.127L308.553 132.153L271.882 206.127L154.3 227.571L103.807 229.189L158.508 249.859L127.855 248.568L206.086 225.107L222.799 244.697L263.255 218.327L324.302 199.159L335.962 141.561L304.674 231.348L234.13 241.037L330.79 240.732L287.867 247.419L268.144 286.271L179.899 239.653L299.22 269.261L207.191 258.281L220.895 317.287C220.895 317.287 238.925 316.184 237.162 314.378C235.399 312.548 191.417 263.044 191.417 263.044L231.755 321.604L199.715 260.768L206.086 225.131" stroke="#7FCDEE" stroke-width="0.75" stroke-miterlimit="10" stroke-linejoin="round"/>
<path d="M99.5053 230.902L88.7156 220.133L87.4227 211.312L83.0974 205.071L79.2188 202.678L59.5904 199.886L35.4958 184.589L17.936 159.392L20.0987 141.725L23.5542 138.065L22.0498 127.085L41.8897 98.228L55.3827 88.21L71.5555 73.359L79.3128 66.4614L84.4843 64.9598H90.6197L107.568 53.7688L126.773 46.4488H150.609L154.394 43H180.463H205.028L213.279 47.3169L235.282 48.6073L256.65 57.4287L279.733 65.4056L297.646 84.3624L315.558 104.61L321.811 122.276L331.308 130.675L336.056 141.444L344.049 154.793L347.716 166.43V177.739V192.777L349.878 203.476L346.869 219.195L331.331 240.287L313.419 251.923L305.427 250.422L306.085 256.451L299.832 269.801L285.375 283.15C285.375 283.15 267.909 285.942 267.909 286.599C267.909 287.256 241.205 286.599 241.205 286.599L227.571 285.309L228.23 294.341C228.23 294.341 232.555 305.533 232.766 306.189C232.978 306.846 237.515 315.222 237.515 315.222L230.134 321.439L220.425 317.122L211.798 302.483L205.545 287.186L191.512 263.724L181.803 254.903L175.104 244.791L157.638 249.741L128.936 248.662L108.861 237.682L88.6921 220.133L103.69 229.94L135.847 233.811L108.885 237.682L103.713 229.94L128.96 248.686L157.662 249.765L168.874 242.445L175.127 244.815L179.876 239.653L168.874 242.445L128.96 248.686L135.871 233.835L157.662 249.765L179.876 239.653L234.247 240.31L273.081 243.548L237.256 245.049L234.247 240.31L224.751 244.838L179.876 239.677L175.127 244.838H224.751L234.247 240.31L237.256 245.049L223.834 244.721L175.104 244.815L234.224 240.287L287.091 246.738L273.057 243.501L237.233 245.002L223.81 244.674L175.08 244.768L191.488 263.724L204.44 279.655C204.44 279.655 220.308 316.559 219.72 315.973C219.132 315.386 237.444 315.199 237.444 315.199L232.061 308.512L232.719 306.143L226.89 297.743L228.183 294.295L227.524 285.262L226.866 297.743L232.038 308.512L230.087 321.439L219.697 315.973L205.498 287.186L204.417 279.655L175.127 244.791L191.535 263.748L199.739 260.745L207.943 258.375L213.326 276.675L227.571 285.285L220.026 282.916L213.326 276.675L210.74 274.517L207.943 258.375L199.739 260.745L210.74 274.517L199.739 260.745L227.571 285.285L199.739 260.745L175.151 244.815L168.898 242.445L128.983 248.686L103.737 229.94L126.609 213.564L165.231 207.746H207.943L238.573 200.637L258.483 184.589L270.072 156.06L269.649 172.647L258.507 184.589L249.809 197.399L238.596 200.637L219.391 208.614L207.967 207.746L190.054 210.538L163.985 207.933L140.196 215.934L126.609 213.564L108.885 237.682L140.172 215.934L190.007 210.561L219.344 208.614L249.762 197.423L269.602 172.671L270.025 156.084L249.738 197.423L219.32 208.614L140.149 215.934L103.69 229.94L207.896 207.769L103.69 229.94L135.847 233.811L154.841 227.993L221.295 220.673L263.796 217.67L248.258 223.488L221.295 220.696L206.204 226.304L154.864 228.016L135.871 233.835L221.319 220.696L263.819 217.693L248.281 223.512L221.319 220.72L206.227 226.327L263.843 217.717L135.894 233.858L154.888 228.04L135.894 233.858L103.737 229.987L87.4462 211.359L81.9456 200.496L79.2423 202.748L59.2848 188.437C59.2848 188.437 60.5777 200.918 59.6139 199.956C58.6501 198.995 35.5428 184.66 35.5428 184.66L59.2848 188.437L48.4951 178.747L35.4958 184.589L30.5593 168.753L48.4716 178.654L30.5593 168.776L17.936 159.415L59.5669 199.91L79.1953 202.701L81.8986 200.449L102.608 186.02L139.279 176.331L171.437 174.384L198.846 179.991L221.06 167.932L240.265 158.453L249.974 134.992L245.225 154.582L240.265 158.453L251.055 165.351L242.005 162.77L240.289 158.453L249.997 134.992L242.005 162.77L198.846 179.967L240.265 158.43L219.555 174.571L198.846 179.944L219.555 174.571L242.005 162.723L255.592 167.04L240.265 158.43L198.846 179.967L194.521 175.228L203.289 163.075L194.074 169.856L194.497 175.228L198.822 179.967L194.074 169.856L171.413 174.384L194.497 175.252L102.585 186.02L139.256 176.331L198.799 179.991L139.256 176.331L81.9221 200.426L59.2613 188.367L66.8071 170.278C66.8071 170.278 64.4329 150.476 64.4329 149.186C64.4329 147.896 56.0174 132.388 56.0174 132.388L45.6508 119.038L51.6921 133.467L66.7836 170.278C66.7836 170.278 60.8598 189.985 59.2378 188.367C57.6158 186.748 64.4094 149.186 64.4094 149.186L55.9939 132.388L66.7836 170.278L51.7156 133.444L66.8071 170.254L48.4716 178.654L30.5593 168.776L17.936 159.415L23.5542 138.089L41.8897 98.2515L71.5555 73.3825L90.6432 64.9833L127.855 46.4723H150.633L205.052 43.0235L213.303 47.3404L154.394 43.0235L150.609 46.4723L213.279 47.3404L150.609 46.4723L130.864 73.1713L134.108 99.448L144.897 124.434L128.724 96.8673L130.887 73.1713L134.131 99.448L128.748 96.8673L113.657 94.2865L89.9144 108.293L85.8007 122.041L67.6768 126.78L86.6705 125.279L85.8007 122.041L113.633 94.2631L89.8909 108.269L128.724 96.8673L113.633 94.2865L144.921 124.434L130.887 73.1948L134.131 99.4715L89.8909 108.293L86.647 125.302L67.6533 126.804L113.609 94.2865L109.519 83.9401L114.902 70.3794L114.033 79.6466L109.496 83.9635L113.586 94.31L114.009 79.6701L113.586 94.31L89.8439 108.316L81.2169 102.709L77.9729 91.7292L89.8439 108.316L81.2169 102.709L134.084 99.4715L130.84 73.1948L150.586 46.4957L90.5962 65.0068L41.8897 98.2515L30.7709 136.681L23.5542 138.089L44.1698 142.288L30.7944 136.681L44.1698 142.288L36.8357 144.001L30.7944 136.681L36.8357 144.001L23.5777 138.089L44.1933 142.288L20.1457 141.749L30.5593 168.776L20.0987 141.749L30.7709 136.681L45.6508 119.015L56.2289 105.454L78.0199 91.6823L114.902 70.3559L150.609 46.4488L213.279 47.3169L183.872 70.8017L176.796 119.015L158.884 148.74L170.308 118.592L176.773 119.015L170.308 118.592L183.848 70.8252L204.981 43.0235L213.232 47.3404L204.981 43.0235L170.308 118.616L176.773 119.038L158.86 148.764L176.773 119.038L183.848 70.8252L192.099 53.5811L204.981 43.0235L192.099 53.5811L180.416 43.0235L192.099 53.5811L213.232 47.3404L256.603 57.4522L297.599 84.3624L235.305 48.6073L279.757 65.4056L321.834 122.252L347.716 177.692L336.056 141.42L321.811 122.252L347.692 192.754L344.025 154.77L336.033 141.42L331.284 240.263L347.692 192.754L346.822 219.171L313.372 251.9L305.38 250.398L331.261 240.287L349.808 203.476L331.261 240.287L305.38 250.398L285.305 283.127L227.477 285.285L207.849 258.375L219.932 282.916L267.839 286.576L299.761 269.777L305.38 250.398L313.372 251.9L331.284 240.263L347.692 177.715L336.033 141.444L315.111 179.569L295.483 200.449L272.822 206.901L315.111 179.545C315.111 179.545 331.284 128.939 331.284 130.675C331.284 132.388 336.033 141.444 336.033 141.444L347.692 177.715L324.185 198.713L316.428 221.119L305.215 232.755L287.303 225.435L264.007 228.884L305.215 232.755L324.209 198.736L347.716 192.777L336.056 141.444L315.135 179.569L295.507 200.449L272.846 206.901L336.056 141.444L295.483 200.449L318.097 160.025L315.111 179.569L321.811 122.299L336.056 141.467L308.647 132.435L294.848 112.633L308.012 127.062L308.67 132.435L336.08 141.467L308.036 127.039L308.694 132.411L294.895 112.61L344.096 154.817L321.834 122.252L297.669 84.3624L272.869 112.563L276.536 139.684L281.073 151.955L268.121 123.965L263.373 110.404L240.077 103.953L270.284 104.821L297.693 84.3624L270.284 104.821L268.121 123.989C268.121 123.989 282.155 153.057 281.073 151.978C279.992 150.899 263.373 110.428 263.373 110.428L272.869 112.586L294.049 81.9928L297.693 84.3858L264.806 110.756L276.56 139.731L263.396 110.451L243.556 108.082L226.302 115.191L240.101 104L243.556 108.082L270.307 104.844L294.073 81.9928L249.597 68.6667L209.683 98.6034L200.397 130.464L199.316 107.214L209.683 98.6034L216.594 85.2539L249.597 68.6667L294.073 81.9928L240.477 75.5174L209.683 98.6034L200.397 130.464L216.57 85.2539L199.316 107.214L200.397 130.464L225.573 80.7259L249.597 68.6667L315.629 104.633L308.083 127.039L297.716 84.4093L272.916 112.61H294.919L276.583 139.731L308.741 132.411L294.942 112.61C294.942 112.61 297.74 82.8843 297.74 84.4093C297.74 85.9108 294.942 112.61 294.942 112.61L276.607 139.731L281.144 152.001L308.765 132.411L318.214 160.025L281.144 152.001L272.94 206.901L295.601 200.449L315.229 179.569L344.143 154.817L315.229 179.569L347.81 177.739L315.229 179.569L324.279 198.736L295.577 200.449L305.285 232.755L264.078 228.884L308.976 228.931L347.786 177.739L324.279 198.736L316.522 221.142L305.309 232.779L287.397 225.459L295.601 200.473L287.397 225.459L272.94 206.948L263.89 217.717L287.397 225.459L264.101 228.908L263.89 217.717L248.352 223.535L264.101 228.908L234.318 240.31L273.151 243.548L264.101 228.908L273.151 243.548L287.397 225.459L287.185 246.785L305.309 232.779L305.521 250.445L331.402 240.333L305.285 232.802L316.498 221.166L331.378 240.333L316.498 221.166L346.916 219.218L331.378 240.31L305.497 250.422L287.162 246.762L306.155 256.451L299.902 269.801L287.162 246.762L273.128 243.524L299.879 269.801L285.422 283.15L273.128 243.524L241.182 286.552H267.886L237.256 245.002L227.548 285.262L287.091 246.715L227.548 285.262L223.834 244.674L207.896 258.352L179.852 239.606L191.512 263.724L210.717 274.493L204.464 279.655L227.548 285.262L211.798 302.483L220.002 282.892L220.425 317.122L232.719 306.143L226.89 297.743L204.44 279.655L175.127 244.791L179.876 239.63L234.247 240.287L248.281 223.488L221.319 220.696L234.271 240.287L206.227 226.28L179.899 239.63L154.864 227.993L157.662 249.741L135.871 233.811L140.196 215.934L154.864 227.993L165.231 207.746L206.227 226.257L207.943 207.746L221.319 220.673L219.367 208.614L263.819 217.646L249.785 197.399L272.869 206.878L269.625 172.647L281.05 151.978L270.049 156.06L276.513 139.684L241.981 162.723L255.568 167.04L241.981 162.723L270.025 156.037L255.568 167.017L249.738 197.376L219.555 174.571L242.005 162.723L238.549 200.613L198.846 179.967L207.896 207.746L171.437 174.36L165.184 207.746L139.303 176.307L126.562 213.564L102.632 185.997L103.713 229.917L87.4227 211.288L102.632 185.997L59.2613 188.367L66.8071 170.278L86.647 125.279L102.608 185.997L66.7836 170.278L144.897 124.411L89.8909 108.269L139.303 176.307L102.632 185.997L144.921 124.411L158.954 148.74L139.326 176.307L144.944 124.411L86.694 125.279L144.944 124.411L170.402 118.592L158.978 148.74L171.484 174.36L194.144 169.832L158.978 148.74L203.359 163.075L176.89 119.038L200.397 130.44L171.484 174.36L200.397 130.44L203.359 163.075L240.312 158.43L221.107 167.908L194.568 175.228L203.336 163.075L221.083 167.908L245.249 154.559L200.374 130.44L226.255 115.144L245.249 154.559L249.997 134.969L226.255 115.167L243.509 108.058L249.974 134.969L264.759 110.733L249.974 134.969L276.513 139.708L245.225 154.559L249.974 134.969L226.231 115.167L209.612 98.5799L240.03 103.953L225.503 80.7024L240.383 75.494L240.03 103.953L279.733 65.4056L270.237 104.821L249.527 68.6433L256.65 57.4522L235.282 48.6307L249.527 68.6667L225.503 80.7259L235.282 48.6307L213.279 47.3404L225.503 80.7259L183.872 70.8486L213.279 47.3638L216.523 85.2539L170.355 118.639L199.269 107.237L183.895 70.8721L199.269 107.237L170.355 118.639L134.108 99.4715L183.895 70.8486L130.864 73.1948L192.146 53.6045L154.394 43.0469L150.609 46.4957L183.895 70.8486L130.864 73.1948L114.902 70.4029L128.701 96.8907L114.902 70.4029L126.773 46.4957H150.609L107.568 53.8157L114.902 70.4029L90.6197 65.0302L109.496 83.987L77.9964 91.7292L90.6197 65.0302L77.9964 91.7292L79.2893 66.5317L77.9964 91.7292L41.8661 98.2984L56.2054 105.501L71.532 73.4059L77.9964 91.7058L22.0027 127.132L56.2054 105.501L81.2404 102.709L67.6533 126.827L56.2289 105.501L56.0174 132.411L67.6768 126.804L64.4329 149.21L86.647 125.302L64.4329 149.21L48.4716 178.7L30.5593 168.776L36.8121 144.025L48.4716 178.7L36.8121 144.025L44.1463 142.312L64.4329 149.21L44.1463 142.312L45.6508 119.062" stroke="white" stroke-width="1.2" stroke-miterlimit="10" stroke-linejoin="round"/>
</svg>
