<svg width="745" height="367" viewBox="0 0 745 367" fill="none" xmlns="http://www.w3.org/2000/svg">
<path d="M199.16 295.608C165.993 285.425 159.327 256.792 161.327 225.114H209.271C209.271 246.992 210.215 265.331 236.548 265.331C252.715 265.331 260.659 254.897 260.659 239.37C260.659 198.192 164.215 195.653 164.215 127.621C164.215 91.8375 181.326 63.3265 239.715 63.3265C286.381 63.3265 309.548 84.2264 306.381 132.021H259.715C259.715 114.921 256.881 97.5374 237.493 97.5374C221.993 97.5374 212.771 106.076 212.771 121.887C212.771 165.287 309.214 161.487 309.214 233.37C309.214 272.969 289.77 289.197 265.992 295.608H199.16Z" fill="white"/>
<path d="M425.825 137.415C426.158 116.193 422.658 97.5374 397.269 97.5374C367.436 97.5374 367.436 137.737 367.436 182.07C367.436 253.608 374.436 266.292 401.714 266.292C409.658 266.292 418.214 264.386 425.491 261.842V211.187H399.491V176.054H473.435V291.942C468.324 292.93 460.324 294.303 451.269 295.608H369.269C324.825 284.553 318.881 249.392 318.881 179.548C318.881 121.887 321.77 63.3265 400.103 63.3265C447.102 63.3265 476.269 89.6097 473.435 137.415H425.825Z" fill="white"/>
<path d="M563.935 63.3266C605.823 63.2321 628.712 79.6154 631.879 116.393V132.021H585.212C585.268 115.354 581.101 97.5375 561.712 97.5375C546.157 97.5375 536.935 106.076 536.935 121.887C536.935 162.004 619.379 161.793 631.879 218.292V251.409C626.768 278.147 609.99 290.28 590.212 295.608H523.379C490.213 285.425 483.546 256.792 485.546 225.114H533.49C533.49 246.992 534.435 265.331 560.768 265.331C576.935 265.331 584.879 254.897 584.879 239.37C584.879 198.192 488.38 195.653 488.38 127.621C488.38 91.8375 505.546 63.4544 563.935 63.3266Z" fill="white"/>
<path d="M17.7165 301.119H726.378V295.608H17.7165V301.119Z" fill="white" fill-opacity="0.4"/>
<path d="M631.879 348.363H637.379V17.6603H631.879V348.363Z" fill="white" fill-opacity="0.4"/>
</svg>
