<svg width="33" height="32" viewBox="0 0 33 32" fill="none" xmlns="http://www.w3.org/2000/svg">
<path d="M19.8672 17C19.7359 17 19.6058 17.0259 19.4845 17.0761C19.3632 17.1264 19.253 17.2001 19.1602 17.293L18.2813 18.1719C17.9059 18.5462 17.3974 18.7564 16.8672 18.7564C16.3371 18.7564 15.8286 18.5462 15.4532 18.1719L14.5742 17.293C14.3867 17.1055 14.1324 17.0001 13.8672 17C12.0113 17.0022 10.2321 17.7404 8.91984 19.0527C7.60755 20.3649 6.86936 22.1442 6.86719 24V26C6.86806 26.7954 7.18441 27.5579 7.74683 28.1204C8.30925 28.6828 9.07181 28.9991 9.86719 29H23.8672C24.6626 28.9991 25.4251 28.6828 25.9875 28.1204C26.55 27.5579 26.8663 26.7954 26.8672 26V24C26.8649 22.1442 26.1267 20.365 24.8145 19.0527C23.5022 17.7405 21.723 17.0023 19.8672 17V17ZM24.8672 26C24.867 26.2652 24.7616 26.5194 24.5741 26.7069C24.3866 26.8944 24.1323 26.9998 23.8672 27H9.86719C9.60205 26.9997 9.34785 26.8943 9.16037 26.7068C8.97289 26.5193 8.86745 26.2651 8.86719 26V24C8.86878 22.7433 9.34286 21.5332 10.1953 20.6098C11.0477 19.6865 12.2162 19.1174 13.4688 19.0156L14.0388 19.5856C14.7896 20.3342 15.8067 20.7546 16.8669 20.7546C17.9272 20.7546 18.9442 20.3342 19.6951 19.5856L20.2651 19.0156C21.5177 19.1173 22.6863 19.6863 23.5389 20.6097C24.3914 21.533 24.8656 22.7432 24.8672 24V26ZM16.8672 15C18.0539 15 19.2139 14.6481 20.2006 13.9888C21.1873 13.3295 21.9563 12.3925 22.4105 11.2961C22.8646 10.1997 22.9834 8.99335 22.7519 7.82946C22.5204 6.66558 21.9489 5.59648 21.1098 4.75736C20.2707 3.91825 19.2016 3.3468 18.0377 3.11529C16.8738 2.88378 15.6674 3.0026 14.5711 3.45673C13.4747 3.91085 12.5377 4.67989 11.8784 5.66658C11.2191 6.65328 10.8672 7.81331 10.8672 9C10.8689 10.5908 11.5016 12.1159 12.6265 13.2407C13.7513 14.3656 15.2764 14.9983 16.8672 15V15ZM16.8672 5C17.6583 5 18.4317 5.2346 19.0895 5.67412C19.7473 6.11365 20.26 6.73836 20.5627 7.46927C20.8655 8.20017 20.9447 9.00444 20.7903 9.78036C20.636 10.5563 20.255 11.269 19.6956 11.8284C19.1362 12.3878 18.4235 12.7688 17.6475 12.9231C16.8716 13.0775 16.0674 12.9983 15.3365 12.6955C14.6055 12.3928 13.9808 11.8801 13.5413 11.2223C13.1018 10.5645 12.8672 9.79113 12.8672 9C12.8682 7.93946 13.29 6.92266 14.0399 6.17275C14.7898 5.42283 15.8066 5.00106 16.8672 5V5Z" fill="#1660FE"/>
<path d="M19.8672 17C19.7359 17 19.6058 17.0259 19.4845 17.0761C19.3632 17.1264 19.253 17.2001 19.1602 17.293L18.2813 18.1719C17.9059 18.5462 17.3974 18.7564 16.8672 18.7564C16.3371 18.7564 15.8286 18.5462 15.4532 18.1719L14.5742 17.293C14.3867 17.1055 14.1324 17.0001 13.8672 17C12.0113 17.0022 10.2321 17.7404 8.91984 19.0527C7.60755 20.3649 6.86936 22.1442 6.86719 24V26C6.86806 26.7954 7.18441 27.5579 7.74683 28.1204C8.30925 28.6828 9.07181 28.9991 9.86719 29H23.8672C24.6626 28.9991 25.4251 28.6828 25.9875 28.1204C26.55 27.5579 26.8663 26.7954 26.8672 26V24C26.8649 22.1442 26.1267 20.365 24.8145 19.0527C23.5022 17.7405 21.723 17.0023 19.8672 17V17ZM24.8672 26C24.867 26.2652 24.7616 26.5194 24.5741 26.7069C24.3866 26.8944 24.1323 26.9998 23.8672 27H9.86719C9.60205 26.9997 9.34785 26.8943 9.16037 26.7068C8.97289 26.5193 8.86745 26.2651 8.86719 26V24C8.86878 22.7433 9.34286 21.5332 10.1953 20.6098C11.0477 19.6865 12.2162 19.1174 13.4688 19.0156L14.0388 19.5856C14.7896 20.3342 15.8067 20.7546 16.8669 20.7546C17.9272 20.7546 18.9442 20.3342 19.6951 19.5856L20.2651 19.0156C21.5177 19.1173 22.6863 19.6863 23.5389 20.6097C24.3914 21.533 24.8656 22.7432 24.8672 24V26ZM16.8672 15C18.0539 15 19.2139 14.6481 20.2006 13.9888C21.1873 13.3295 21.9563 12.3925 22.4105 11.2961C22.8646 10.1997 22.9834 8.99335 22.7519 7.82946C22.5204 6.66558 21.9489 5.59648 21.1098 4.75736C20.2707 3.91825 19.2016 3.3468 18.0377 3.11529C16.8738 2.88378 15.6674 3.0026 14.5711 3.45673C13.4747 3.91085 12.5377 4.67989 11.8784 5.66658C11.2191 6.65328 10.8672 7.81331 10.8672 9C10.8689 10.5908 11.5016 12.1159 12.6265 13.2407C13.7513 14.3656 15.2764 14.9983 16.8672 15V15ZM16.8672 5C17.6583 5 18.4317 5.2346 19.0895 5.67412C19.7473 6.11365 20.26 6.73836 20.5627 7.46927C20.8655 8.20017 20.9447 9.00444 20.7903 9.78036C20.636 10.5563 20.255 11.269 19.6956 11.8284C19.1362 12.3878 18.4235 12.7688 17.6475 12.9231C16.8716 13.0775 16.0674 12.9983 15.3365 12.6955C14.6055 12.3928 13.9808 11.8801 13.5413 11.2223C13.1018 10.5645 12.8672 9.79113 12.8672 9C12.8682 7.93946 13.29 6.92266 14.0399 6.17275C14.7898 5.42283 15.8066 5.00106 16.8672 5V5Z" fill="#2791F3" fill-opacity="0.35"/>
</svg>
