<svg width="38" height="38" viewBox="0 0 38 38" fill="none" xmlns="http://www.w3.org/2000/svg">
<path d="M13.4373 28.5001H9.8805V30.7801H15.9605C16.2628 30.7801 16.5528 30.66 16.7666 30.4462C16.9804 30.2324 17.1005 29.9424 17.1005 29.6401V23.5601H14.8205V26.6685C13.2007 25.786 11.9017 24.4136 11.1093 22.7479C10.317 21.0822 10.072 19.2085 10.4094 17.395C10.7467 15.5815 11.6492 13.9213 12.9876 12.652C14.326 11.3827 16.0317 10.5694 17.8605 10.3285V8.04846C15.5565 8.29483 13.3889 9.26116 11.6656 10.8101C9.94226 12.359 8.75105 14.4118 8.26124 16.6765C7.77143 18.9412 8.00795 21.3027 8.93718 23.4253C9.8664 25.548 11.4411 27.3237 13.4373 28.5001Z" fill="#2791F3"/>
<path d="M24.5633 9.49997H28.1201V7.21997H22.0401C21.7378 7.21997 21.4478 7.34008 21.234 7.55387C21.0202 7.76766 20.9001 8.05762 20.9001 8.35997V14.44H23.1801V11.3316C24.7999 12.2141 26.099 13.5864 26.8913 15.2521C27.6836 16.9179 27.9287 18.7916 27.5913 20.605C27.2539 22.4185 26.3514 24.0787 25.013 25.348C23.6746 26.6174 21.9689 27.4307 20.1401 27.6716V29.9516C22.4441 29.7052 24.6118 28.7389 26.3351 27.1899C28.0584 25.641 29.2496 23.5883 29.7394 21.3235C30.2292 19.0588 29.9927 16.6973 29.0635 14.5747C28.1342 12.4521 26.5596 10.6764 24.5633 9.49997Z" fill="#2791F3"/>
</svg>
