<svg width="404" height="48" viewBox="0 0 404 48" fill="none" xmlns="http://www.w3.org/2000/svg">
<path fill-rule="evenodd" clip-rule="evenodd" d="M33.868 48H20.3772L0 0.0427481H10.7575C13.4939 0.0427481 15.9545 1.68855 16.9575 4.17405L20.9226 14.342L27.0756 32.0153L33.3226 14.342L37.3316 4.12824C38.2907 1.64275 40.7513 0 43.4845 0H54.2891L33.868 48Z" fill="white"/>
<path fill-rule="evenodd" clip-rule="evenodd" d="M71.1059 13.3668L64.8123 28.5995H77.3525L71.1059 13.3668ZM82.05 39.8805H60.1147L58.5656 43.6978C57.5622 46.1409 55.1444 47.7381 52.4539 47.7381H42.1934L64.1757 0H78.1741L100.109 47.7381H89.7109C87.0204 47.7381 84.6026 46.1409 83.5991 43.6978L82.05 39.8805Z" fill="white"/>
<path fill-rule="evenodd" clip-rule="evenodd" d="M116.535 23.4461H126.484C130.319 23.4461 132.28 20.7375 132.28 17.5861C132.28 14.4317 130.228 11.5887 126.484 11.5887H116.535V23.4461ZM116.535 34.8577V41.3407C116.535 44.8951 113.614 47.7381 109.964 47.7381H102.664V0H126.484C139.674 0 146.202 8.03728 146.202 17.406C146.202 27.1777 139.627 34.7264 126.484 34.8577H116.535Z" fill="white"/>
<path fill-rule="evenodd" clip-rule="evenodd" d="M175.786 47.7381H150.904V0H200.623L195.145 11.3261H164.599V18.1633H192.815L187.795 29.1321H164.599V36.3693H185.192L181.858 43.8752C180.762 46.2266 178.389 47.7381 175.786 47.7381Z" fill="white"/>
<path fill-rule="evenodd" clip-rule="evenodd" d="M217.735 13.3668L211.446 28.5995H223.977L217.735 13.3668ZM228.627 39.8805H206.708L205.157 43.6978C204.158 46.1409 201.742 47.7381 199.053 47.7381H188.801L210.81 0H224.798L246.717 47.7381H236.326C233.637 47.7381 231.222 46.1409 230.219 43.6978L228.627 39.8805Z" fill="#1660FE"/>
<path fill-rule="evenodd" clip-rule="evenodd" d="M217.735 13.3668L211.446 28.5995H223.977L217.735 13.3668ZM228.627 39.8805H206.708L205.157 43.6978C204.158 46.1409 201.742 47.7381 199.053 47.7381H188.801L210.81 0H224.798L246.717 47.7381H236.326C233.637 47.7381 231.222 46.1409 230.219 43.6978L228.627 39.8805Z" fill="#2791F3" fill-opacity="0.35"/>
<path fill-rule="evenodd" clip-rule="evenodd" d="M306.321 0.130859H317.261L294.832 47.7382H283.576L274.915 24.91L266.527 47.7382H255.314L234.754 0.130859H245.377C248.067 0.130859 250.527 1.72509 251.483 4.2094L261.01 27.9247L269.674 1.24042C269.9 0.575902 270.536 0.130859 271.222 0.130859H278.426C279.153 0.130859 279.745 0.575902 279.974 1.24042L288.908 27.9247L300.306 3.8558C301.443 1.59401 303.769 0.130859 306.321 0.130859Z" fill="#1660FE"/>
<path fill-rule="evenodd" clip-rule="evenodd" d="M306.321 0.130859H317.261L294.832 47.7382H283.576L274.915 24.91L266.527 47.7382H255.314L234.754 0.130859H245.377C248.067 0.130859 250.527 1.72509 251.483 4.2094L261.01 27.9247L269.674 1.24042C269.9 0.575902 270.536 0.130859 271.222 0.130859H278.426C279.153 0.130859 279.745 0.575902 279.974 1.24042L288.908 27.9247L300.306 3.8558C301.443 1.59401 303.769 0.130859 306.321 0.130859Z" fill="#2791F3" fill-opacity="0.35"/>
<path fill-rule="evenodd" clip-rule="evenodd" d="M333.456 13.3668L327.162 28.5995H339.703L333.456 13.3668ZM344.357 39.8805H322.417L320.868 43.6978C319.868 46.1409 317.45 47.7381 314.759 47.7381H304.498L326.478 0H340.478L362.414 47.7381H352.015C349.327 47.7381 346.91 46.1409 345.906 43.6978L344.357 39.8805Z" fill="#1660FE"/>
<path fill-rule="evenodd" clip-rule="evenodd" d="M333.456 13.3668L327.162 28.5995H339.703L333.456 13.3668ZM344.357 39.8805H322.417L320.868 43.6978C319.868 46.1409 317.45 47.7381 314.759 47.7381H304.498L326.478 0H340.478L362.414 47.7381H352.015C349.327 47.7381 346.91 46.1409 345.906 43.6978L344.357 39.8805Z" fill="#2791F3" fill-opacity="0.35"/>
<path fill-rule="evenodd" clip-rule="evenodd" d="M351.664 0.533881V0H365.019L374.271 20.8092L388.949 0H403.668L381.016 31.8102L387.852 47.7381H372.175L351.664 0.533881Z" fill="#1660FE"/>
<path fill-rule="evenodd" clip-rule="evenodd" d="M351.664 0.533881V0H365.019L374.271 20.8092L388.949 0H403.668L381.016 31.8102L387.852 47.7381H372.175L351.664 0.533881Z" fill="#2791F3" fill-opacity="0.35"/>
</svg>
