<svg width="320" height="38" viewBox="0 0 320 38" fill="none" xmlns="http://www.w3.org/2000/svg">
<path fill-rule="evenodd" clip-rule="evenodd" d="M26.8481 37.1104H16.1536L0 0.143303H8.5278C10.697 0.143303 12.6476 1.41194 13.4427 3.32785L16.586 11.1656L21.4636 24.7888L26.4158 11.1656L29.5938 3.29254C30.3542 1.37664 32.3047 0.110352 34.4715 0.110352H43.0365L26.8481 37.1104Z" fill="white"/>
<path fill-rule="evenodd" clip-rule="evenodd" d="M56.3671 10.4139L51.3779 22.1558H61.319L56.3671 10.4139ZM65.0428 30.8516H47.6541L46.4261 33.7941C45.6306 35.6773 43.714 36.9085 41.5811 36.9085H33.4473L50.8733 0.110352H61.9703L79.359 36.9085H71.1158C68.983 36.9085 67.0663 35.6773 66.2709 33.7941L65.0428 30.8516Z" fill="white"/>
<path fill-rule="evenodd" clip-rule="evenodd" d="M92.382 18.1834H100.268C103.309 18.1834 104.863 16.0955 104.863 13.6663C104.863 11.2348 103.236 9.04331 100.268 9.04331H92.382V18.1834ZM92.382 26.9798V31.9771C92.382 34.717 90.0658 36.9085 87.1724 36.9085H81.3857V0.110352H100.268C110.725 0.110352 115.899 6.30575 115.899 13.5274C115.899 21.0598 110.687 26.8786 100.268 26.9798H92.382Z" fill="white"/>
<path fill-rule="evenodd" clip-rule="evenodd" d="M139.349 36.9085H119.625V0.110352H159.039L154.696 8.84088H130.481V14.1112H152.849L148.869 22.5663H130.481V28.145H146.806L144.163 33.9308C143.294 35.7433 141.413 36.9085 139.349 36.9085Z" fill="white"/>
<path fill-rule="evenodd" clip-rule="evenodd" d="M172.605 10.4139L167.62 22.1558H177.553L172.605 10.4139ZM181.239 30.8516H163.864L162.634 33.7941C161.842 35.6773 159.927 36.9085 157.796 36.9085H149.668L167.115 0.110352H178.204L195.579 36.9085H187.343C185.211 36.9085 183.296 35.6773 182.501 33.7941L181.239 30.8516Z" fill="white"/>
<path fill-rule="evenodd" clip-rule="evenodd" d="M242.829 0.211426H251.501L233.722 36.9087H224.798L217.933 19.312L211.283 36.9087H202.394L186.096 0.211426H194.517C196.649 0.211426 198.6 1.44031 199.358 3.3553L206.909 21.6358L213.778 1.06671C213.957 0.554479 214.461 0.211426 215.005 0.211426H220.716C221.292 0.211426 221.762 0.554479 221.943 1.06671L229.025 21.6358L238.06 3.08274C238.962 1.33927 240.806 0.211426 242.829 0.211426Z" fill="white"/>
<path fill-rule="evenodd" clip-rule="evenodd" d="M264.341 10.4139L259.351 22.1558H269.293L264.341 10.4139ZM272.982 30.8516H255.59L254.362 33.7941C253.569 35.6773 251.652 36.9085 249.519 36.9085H241.385L258.809 0.110352H269.907L287.297 36.9085H279.053C276.922 36.9085 275.006 35.6773 274.21 33.7941L272.982 30.8516Z" fill="white"/>
<path fill-rule="evenodd" clip-rule="evenodd" d="M278.775 0.521885V0.110352H289.362L296.697 16.1507L308.332 0.110352H320L302.044 24.6307L307.463 36.9085H295.035L278.775 0.521885Z" fill="white"/>
</svg>
