<svg width="91" height="91" viewBox="0 0 91 91" fill="none" xmlns="http://www.w3.org/2000/svg">
<circle cx="45" cy="46" r="44" stroke="white" stroke-opacity="0.25" stroke-width="2"/>
<path d="M45 1C50.9095 1 56.7611 2.16396 62.2208 4.42542C67.6804 6.68688 72.6412 10.0016 76.8198 14.1802C80.9984 18.3588 84.3131 23.3196 86.5746 28.7793C88.836 34.2389 90 40.0905 90 46L87.9466 46C87.9466 40.3602 86.8357 34.7756 84.6774 29.5651C82.5192 24.3546 79.3558 19.6202 75.3678 15.6322C71.3798 11.6442 66.6455 8.48083 61.4349 6.32256C56.2244 4.16429 50.6398 3.05345 45 3.05345L45 1Z" fill="white" stroke="white" stroke-linejoin="round"/>
<path d="M55.0986 44.2004L48.6989 37.0004C48.2869 36.5091 47.4725 36.4653 46.9947 36.893C46.5169 37.3207 46.4687 38.1367 46.9115 38.6004L51.5363 43.8004H35.7996C35.1368 43.8004 34.5996 44.3377 34.5996 45.0004C34.5996 45.6632 35.1368 46.2004 35.7996 46.2004H51.5363L46.9115 51.4004C46.4687 51.8642 46.5286 52.6787 47.0064 53.1064C47.4842 53.5341 48.2869 53.4918 48.6989 53.0004L55.0986 45.8004C55.5164 45.2183 55.4831 44.6957 55.0986 44.2004V44.2004Z" fill="white"/>
</svg>
