<svg width="91" height="91" viewBox="0 0 91 91" fill="none" xmlns="http://www.w3.org/2000/svg">
<circle cx="45" cy="46" r="44" stroke="white" stroke-opacity="0.25" stroke-width="2"/>
<path d="M45 1C50.9095 1 56.7611 2.16396 62.2208 4.42542C67.6804 6.68688 72.6412 10.0016 76.8198 14.1802C80.9984 18.3588 84.3131 23.3196 86.5746 28.7793C88.836 34.2389 90 40.0905 90 46L87.9466 46C87.9466 40.3602 86.8357 34.7756 84.6774 29.5651C82.5192 24.3546 79.3558 19.6202 75.3678 15.6322C71.3798 11.6442 66.6455 8.48083 61.4349 6.32256C56.2244 4.16429 50.6398 3.05345 45 3.05345L45 1Z" fill="white" stroke="white" stroke-linejoin="round"/>
<path d="M36 44C35.4477 44 35 44.4477 35 45C35 45.5523 35.4477 46 36 46V44ZM54.7071 45.7071C55.0976 45.3166 55.0976 44.6834 54.7071 44.2929L48.3431 37.9289C47.9526 37.5384 47.3195 37.5384 46.9289 37.9289C46.5384 38.3195 46.5384 38.9526 46.9289 39.3431L52.5858 45L46.9289 50.6569C46.5384 51.0474 46.5384 51.6805 46.9289 52.0711C47.3195 52.4616 47.9526 52.4616 48.3431 52.0711L54.7071 45.7071ZM36 46H54V44H36V46Z" fill="white"/>
</svg>
