<svg width="90" height="90" viewBox="0 0 90 90" fill="none" xmlns="http://www.w3.org/2000/svg">
<rect width="90" height="90" rx="45" fill="white"/>
<circle cx="45" cy="45" r="44" stroke="black" stroke-opacity="0.15" stroke-width="2"/>
<mask id="path-3-inside-1_749_19989" fill="white">
<path d="M45 0C50.9095 7.04699e-08 56.7611 1.16396 62.2208 3.42542C67.6804 5.68688 72.6412 9.00156 76.8198 13.1802C80.9984 17.3588 84.3131 22.3196 86.5746 27.7793C88.836 33.2389 90 39.0905 90 45L87.9466 45C87.9466 39.3602 86.8357 33.7756 84.6774 28.5651C82.5192 23.3546 79.3558 18.6202 75.3678 14.6322C71.3798 10.6442 66.6455 7.48083 61.4349 5.32256C56.2244 3.16429 50.6398 2.05345 45 2.05345L45 0Z"/>
</mask>
<path d="M45 0C50.9095 7.04699e-08 56.7611 1.16396 62.2208 3.42542C67.6804 5.68688 72.6412 9.00156 76.8198 13.1802C80.9984 17.3588 84.3131 22.3196 86.5746 27.7793C88.836 33.2389 90 39.0905 90 45L87.9466 45C87.9466 39.3602 86.8357 33.7756 84.6774 28.5651C82.5192 23.3546 79.3558 18.6202 75.3678 14.6322C71.3798 10.6442 66.6455 7.48083 61.4349 5.32256C56.2244 3.16429 50.6398 2.05345 45 2.05345L45 0Z" fill="#1660FE"/>
<path d="M45 0C50.9095 7.04699e-08 56.7611 1.16396 62.2208 3.42542C67.6804 5.68688 72.6412 9.00156 76.8198 13.1802C80.9984 17.3588 84.3131 22.3196 86.5746 27.7793C88.836 33.2389 90 39.0905 90 45L87.9466 45C87.9466 39.3602 86.8357 33.7756 84.6774 28.5651C82.5192 23.3546 79.3558 18.6202 75.3678 14.6322C71.3798 10.6442 66.6455 7.48083 61.4349 5.32256C56.2244 3.16429 50.6398 2.05345 45 2.05345L45 0Z" fill="#1660FE"/>
<path d="M45 0C50.9095 7.04699e-08 56.7611 1.16396 62.2208 3.42542C67.6804 5.68688 72.6412 9.00156 76.8198 13.1802C80.9984 17.3588 84.3131 22.3196 86.5746 27.7793C88.836 33.2389 90 39.0905 90 45L87.9466 45C87.9466 39.3602 86.8357 33.7756 84.6774 28.5651C82.5192 23.3546 79.3558 18.6202 75.3678 14.6322C71.3798 10.6442 66.6455 7.48083 61.4349 5.32256C56.2244 3.16429 50.6398 2.05345 45 2.05345L45 0Z" stroke="#1660FE" stroke-width="2" mask="url(#path-3-inside-1_749_19989)"/>
<path d="M45 0C50.9095 7.04699e-08 56.7611 1.16396 62.2208 3.42542C67.6804 5.68688 72.6412 9.00156 76.8198 13.1802C80.9984 17.3588 84.3131 22.3196 86.5746 27.7793C88.836 33.2389 90 39.0905 90 45L87.9466 45C87.9466 39.3602 86.8357 33.7756 84.6774 28.5651C82.5192 23.3546 79.3558 18.6202 75.3678 14.6322C71.3798 10.6442 66.6455 7.48083 61.4349 5.32256C56.2244 3.16429 50.6398 2.05345 45 2.05345L45 0Z" stroke="#1660FE" stroke-width="2" mask="url(#path-3-inside-1_749_19989)"/>
<g opacity="0.9">
<path d="M42.1476 53.6612C40.9665 54.4161 40 53.8664 40 52.4396V35.5604C40 34.1336 40.9665 33.5839 42.1476 34.3388L55.1142 42.6275C56.2953 43.3825 56.2953 44.618 55.1142 45.3729L42.1476 53.6612Z" fill="#1660FE"/>
<path d="M42.1476 53.6612C40.9665 54.4161 40 53.8664 40 52.4396V35.5604C40 34.1336 40.9665 33.5839 42.1476 34.3388L55.1142 42.6275C56.2953 43.3825 56.2953 44.618 55.1142 45.3729L42.1476 53.6612Z" fill="#1660FE"/>
</g>
</svg>
