<svg width="91" height="91" viewBox="0 0 91 91" fill="none" xmlns="http://www.w3.org/2000/svg">
<circle cx="45" cy="46" r="44" stroke="black" stroke-opacity="0.15" stroke-width="2"/>
<path d="M45 1C50.9095 1 56.7611 2.16396 62.2208 4.42542C67.6804 6.68688 72.6412 10.0016 76.8198 14.1802C80.9984 18.3588 84.3131 23.3196 86.5746 28.7793C88.836 34.2389 90 40.0905 90 46L87.9466 46C87.9466 40.3602 86.8357 34.7756 84.6774 29.5651C82.5192 24.3546 79.3558 19.6202 75.3678 15.6322C71.3798 11.6442 66.6455 8.48083 61.4349 6.32256C56.2244 4.16429 50.6398 3.05345 45 3.05345L45 1Z" fill="#1660FE"/>
<path d="M45 1C50.9095 1 56.7611 2.16396 62.2208 4.42542C67.6804 6.68688 72.6412 10.0016 76.8198 14.1802C80.9984 18.3588 84.3131 23.3196 86.5746 28.7793C88.836 34.2389 90 40.0905 90 46L87.9466 46C87.9466 40.3602 86.8357 34.7756 84.6774 29.5651C82.5192 24.3546 79.3558 19.6202 75.3678 15.6322C71.3798 11.6442 66.6455 8.48083 61.4349 6.32256C56.2244 4.16429 50.6398 3.05345 45 3.05345L45 1Z" fill="#1660FE"/>
<path d="M45 1C50.9095 1 56.7611 2.16396 62.2208 4.42542C67.6804 6.68688 72.6412 10.0016 76.8198 14.1802C80.9984 18.3588 84.3131 23.3196 86.5746 28.7793C88.836 34.2389 90 40.0905 90 46L87.9466 46C87.9466 40.3602 86.8357 34.7756 84.6774 29.5651C82.5192 24.3546 79.3558 19.6202 75.3678 15.6322C71.3798 11.6442 66.6455 8.48083 61.4349 6.32256C56.2244 4.16429 50.6398 3.05345 45 3.05345L45 1Z" stroke="#1660FE" stroke-linejoin="round"/>
<path d="M45 1C50.9095 1 56.7611 2.16396 62.2208 4.42542C67.6804 6.68688 72.6412 10.0016 76.8198 14.1802C80.9984 18.3588 84.3131 23.3196 86.5746 28.7793C88.836 34.2389 90 40.0905 90 46L87.9466 46C87.9466 40.3602 86.8357 34.7756 84.6774 29.5651C82.5192 24.3546 79.3558 19.6202 75.3678 15.6322C71.3798 11.6442 66.6455 8.48083 61.4349 6.32256C56.2244 4.16429 50.6398 3.05345 45 3.05345L45 1Z" stroke="#1660FE" stroke-linejoin="round"/>
<g opacity="0.9">
<path d="M39.1476 54.6612C37.9665 55.4161 37 54.8664 37 53.4396V36.5604C37 35.1336 37.9665 34.5839 39.1476 35.3388L52.1142 43.6275C53.2953 44.3825 53.2953 45.618 52.1142 46.3729L39.1476 54.6612Z" fill="#1660FE"/>
<path d="M39.1476 54.6612C37.9665 55.4161 37 54.8664 37 53.4396V36.5604C37 35.1336 37.9665 34.5839 39.1476 35.3388L52.1142 43.6275C53.2953 44.3825 53.2953 45.618 52.1142 46.3729L39.1476 54.6612Z" fill="#1660FE"/>
</g>
</svg>
