<svg width="114" height="114" viewBox="0 0 114 114" fill="none" xmlns="http://www.w3.org/2000/svg">
<path d="M57 97C79.0914 97 97 79.0914 97 57C97 34.9086 79.0914 17 57 17C34.9086 17 17 34.9086 17 57C17 79.0914 34.9086 97 57 97Z" fill="#3295FF" fill-opacity="0.2"/>
<g filter="url(#filter0_d_1009_21409)">
<path d="M56.9997 83.6664C71.7273 83.6664 83.6664 71.7273 83.6664 56.9997C83.6664 42.2721 71.7273 30.333 56.9997 30.333C42.2721 30.333 30.333 42.2721 30.333 56.9997C30.333 71.7273 42.2721 83.6664 56.9997 83.6664Z" fill="#1787FF"/>
</g>
<path d="M54.3797 63.4851C53.558 63.9974 52.8857 63.6243 52.8857 62.6561V51.2019C52.8857 50.2337 53.558 49.8607 54.3797 50.373L63.3997 55.9977C64.2214 56.51 64.2214 57.3484 63.3997 57.8607L54.3797 63.4851Z" fill="white"/>
<defs>
<filter id="filter0_d_1009_21409" x="0.333008" y="0.333008" width="113.333" height="113.333" filterUnits="userSpaceOnUse" color-interpolation-filters="sRGB">
<feFlood flood-opacity="0" result="BackgroundImageFix"/>
<feColorMatrix in="SourceAlpha" type="matrix" values="0 0 0 0 0 0 0 0 0 0 0 0 0 0 0 0 0 0 127 0" result="hardAlpha"/>
<feOffset/>
<feGaussianBlur stdDeviation="15"/>
<feColorMatrix type="matrix" values="0 0 0 0 0.0101389 0 0 0 0 0.10585 0 0 0 0 0.608333 0 0 0 0.35 0"/>
<feBlend mode="normal" in2="BackgroundImageFix" result="effect1_dropShadow_1009_21409"/>
<feBlend mode="normal" in="SourceGraphic" in2="effect1_dropShadow_1009_21409" result="shape"/>
</filter>
</defs>
</svg>
